ply
format ascii 1.0
comment PCL generated
element vertex 529
property float x
property float y
property float z
element camera 1
property float view_px
property float view_py
property float view_pz
property float x_axisx
property float x_axisy
property float x_axisz
property float y_axisx
property float y_axisy
property float y_axisz
property float z_axisx
property float z_axisy
property float z_axisz
property float focal
property float scalex
property float scaley
property float centerx
property float centery
property int viewportx
property int viewporty
property float k1
property float k2
end_header
-27.2164 3.5776002 0.056799997
-27.183002 3.5916002 0.049200002
-27.135384 3.6109233 0.047307696
-27.039392 3.6556792 0.047214285
-26.981333 3.679889 0.032444444
-27.028198 3.7597501 0.056000005
-26.986998 3.7258182 0.022454547
-27.061148 3.8265002 0.047571436
-27.140375 3.9566247 0.047625002
-27.03686 3.9627142 0.054285716
-26.972912 3.9746361 0.042363636
-26.956995 4.0456896 0.046965521
-26.945456 4.1517916 0.046916664
-26.895 4.1609998 0.0089999996
-26.923002 4.2302999 0.0273
-26.879 4.2580004 0.061000001
-26.747999 4.2579999 0.068000004
-26.630249 4.2202501 0.039750002
-26.951002 4.3180003 0.040600002
-26.886999 4.3169999 0.090000004
-26.745749 4.3225002 0.06425
-26.632 4.3429999 0.090000004
-26.556 4.3200002 0.090999998
-28.077 4.5770001 0.057999998
-27.226099 3.5736001 0.1446
-27.168667 3.5941668 0.15566668
-27.127846 3.6154618 0.15246153
-27.046106 3.663857 0.14314286
-27.123001 3.779 0.171
-27.066189 3.7471251 0.14143749
-27.118799 3.8118 0.1652
-27.08075 3.81075 0.1235
-27.130001 3.9588335 0.14116667
-27.032001 3.9571431 0.1547143
-26.970539 3.9788461 0.14823078
-26.969486 4.050241 0.1442069
-27.013 4.1900001 0.13600001
-26.974754 4.1447992 0.14267999
-27.063999 4.2129998 0.18700001
-26.971001 4.2909999 0.15666668
-27.000999 4.3670001 0.13
-26.966278 4.3351674 0.15427776
-26.823 4.323 0.109
-26.7705 4.3424997 0.1065
-26.663 4.3470001 0.103
-27.3202 3.5416 0.25299999
-27.246367 3.570684 0.24942107
-27.153999 3.5935001 0.22999999
-27.133453 3.6337729 0.25527275
-27.078096 3.6574759 0.2389048
-27.209 3.79 0.204
-27.134153 3.7493339 0.25358972
-27.090002 3.7174287 0.21285716
-27.150251 3.8095 0.22975001
-27.127501 3.9610002 0.24562499
-27.028334 3.9636669 0.2465
-26.971533 3.9783998 0.25146669
-26.969677 4.046226 0.25193548
-26.974716 4.1483746 0.24893749
-26.976 4.2779999 0.219
-26.970917 4.3374166 0.24741666
-27.337749 3.5406251 0.351625
-27.241949 3.571579 0.35705262
-27.172501 3.5910001 0.331
-27.150164 3.6489832 0.35091519
-27.2218 3.7562497 0.37000003
-27.176685 3.7371559 0.33856252
-27.227501 3.8105001 0.34799999
-27.104252 3.9675 0.35049999
-27.0404 3.9608002 0.32660002
-26.973667 3.9762921 0.35133335
-27.004999 4.0799999 0.34299999
-26.972383 4.0381608 0.34977415
-26.974924 4.1455002 0.35261542
-26.982 4.2346001 0.35260001
-27.130501 4.3269997 0.34649998
-27.051334 4.3505001 0.35533333
-26.969652 4.3398256 0.35165215
-27.420002 3.5123334 0.46066672
-27.347857 3.5299051 0.45100003
-27.246714 3.5717149 0.45371428
-27.187 3.5913334 0.43366668
-27.219477 3.66276 0.46683997
-27.183071 3.6358929 0.43535709
-27.357 3.783 0.48100001
-27.246916 3.7333531 0.44679412
-27.200001 3.7030001 0.41100001
-27.101 3.974 0.479
-27.0776 3.9605999 0.44020006
-26.97324 3.9740798 0.44915998
-26.972561 4.0441217 0.44607314
-27.032333 4.1626668 0.45450002
-26.971342 4.1457238 0.45289657
-26.96525 4.2471247 0.45250002
-27.046585 4.3494167 0.44341668
-26.963667 4.346467 0.45646667
-27.463598 3.4895997 0.57359999
-27.412334 3.5076666 0.55583334
-27.336649 3.5349004 0.55330002
-27.249159 3.57552 0.54747987
-27.200001 3.598 0.50199997
-27.305 3.698 0.5715
-27.251419 3.6480546 0.54561824
-27.32078 3.7294447 0.57499999
-27.282936 3.722934 0.52580005
-27.067287 3.9682858 0.54242861
-26.974585 3.9768751 0.55116665
-26.970751 4.0483861 0.55134094
-27.048286 4.1734285 0.55071431
-26.972515 4.1477432 0.55265713
-27.035 4.2255001 0.54000002
-26.973402 4.2220001 0.54800004
-27.040751 4.3474998 0.50725001
-26.958 4.3309999 0.50349998
-27.528 3.4784999 0.64900005
-27.464155 3.4865386 0.65730774
-27.407249 3.5105 0.64750004
-27.348999 3.5349126 0.65417397
-27.274336 3.5746295 0.64692599
-27.322178 3.6632061 0.65797067
-27.283945 3.6324737 0.62663156
-27.415501 3.7234998 0.66350001
-27.341251 3.7160001 0.62849998
-27.055143 3.9702859 0.6442858
-26.972517 3.9785552 0.65148151
-26.969975 4.0449467 0.64835137
-27.050749 4.1800003 0.64287502
-26.969154 4.1472096 0.65171057
-27.045 4.2329998 0.63700002
-26.973 4.2084999 0.63199997
-27.533768 3.4602311 0.75846159
-27.451668 3.486083 0.74641675
-27.411335 3.5128334 0.75383329
-27.339544 3.5591257 0.75427079
-27.29125 3.55425 0.71600002
-27.403 3.698 0.79500002
-27.361261 3.6450946 0.74881113
-27.423 3.7115002 0.75600004
-27.364 3.707 0.704
-27.151751 3.9780002 0.75275004
-27.035002 3.9703336 0.75283337
-26.97154 3.9761927 0.74573082
-26.969511 4.0444889 0.74668086
-27.048777 4.1803336 0.74344444
-26.964727 4.141818 0.74448484
-27.08 4.2189999 0.74000001
-26.982334 4.2019997 0.76300001
-27.618668 3.4300001 0.85966671
-27.557234 3.4491768 0.85482359
-27.466833 3.4824998 0.85800004
-27.375999 3.494 0.86500001
-27.41493 3.5292144 0.85471445
-27.376675 3.5560286 0.8479411
-27.4263 3.6421108 0.86022216
-27.390499 3.6274166 0.82908332
-27.1294 3.9778001 0.84860003
-27.0124 3.9683998 0.83939999
-26.968 3.9770739 0.84966683
-26.966106 4.0459175 0.84852076
-27.062572 4.1838574 0.83557153
-26.97077 4.1498208 0.8454358
-27.013 4.2140002 0.82499999
-26.97625 4.2077503 0.85312498
-27.623335 3.426667 0.94933337
-27.549997 3.45415 0.95679998
-27.4765 3.4867005 0.94890004
-27.430706 3.5472355 0.94738233
-27.3955 3.5395 0.91850001
-27.523499 3.6589999 0.95649999
-27.460579 3.6305163 0.94322574
-27.112999 3.9797502 0.94975007
-27.049667 3.97 0.94366664
-26.974318 3.9744799 0.94839996
-26.968796 4.0464315 0.94509101
-27.101 4.1859999 0.97000003
-27.039713 4.183857 0.94071436
-26.968164 4.1532097 0.94572091
-27.041 4.21 0.92049998
-26.961836 4.2056665 0.96000004
-27.698999 3.3929999 1.081
-27.639309 3.418539 1.0426924
-27.553391 3.4485552 1.0498888
-27.4779 3.4819 1.0515
-27.50786 3.5705714 1.0825715
-27.466501 3.5362856 1.0395001
-27.529213 3.6294289 1.0492858
-27.487667 3.6193333 1.013
-27.048124 3.9721251 1.040375
-26.97875 3.9803748 1.0471876
-27.003 4.0635004 1.012
-26.966461 4.0492125 1.0418719
-27.106001 4.1835003 1.0355
-27.054111 4.1832223 1.0585556
-26.965591 4.1469603 1.0441765
-27.118 4.2090001 1.057
-27.01 4.2259998 1.067
-26.976166 4.2118335 1.0506668
-27.714001 3.389667 1.1583333
-27.643003 3.4161668 1.1423334
-27.548607 3.4622507 1.1505715
-27.485334 3.4846668 1.1183333
-27.541079 3.5598154 1.1536667
-27.482 3.5125 1.1125
-27.628 3.6289999 1.199
-27.568375 3.6244998 1.139375
-27.132 3.9760001 1.197
-27.041498 3.9763751 1.138875
-26.97843 3.9780002 1.1522144
-26.971663 4.0517197 1.14844
-27.104336 4.1896667 1.164
-27.035288 4.1828575 1.1608572
-26.966711 4.1472082 1.1461877
-27.115999 4.2090001 1.158
-27.048 4.2276669 1.1316667
-26.969999 4.2096252 1.1595
-27.761398 3.3674004 1.2622
-27.683498 3.391 1.2509999
-27.631435 3.4216876 1.2455626
-27.564911 3.4618258 1.2524348
-27.6171 3.5616002 1.2778
-27.575947 3.5388889 1.2378888
-27.632 3.6138573 1.2377144
-27.13525 3.97925 1.2515
-27.028667 3.9766669 1.2521667
-26.977335 3.981667 1.2517999
-26.972326 4.0517344 1.2483063
-27.106001 4.1923332 1.2613333
-27.041668 4.185667 1.2586668
-26.967152 4.1480002 1.2491875
-27.1185 4.2090001 1.2335
-26.974888 4.2101111 1.2334443
-27.808001 3.358 1.33
-27.764778 3.3663332 1.3591112
-27.687 3.391 1.373
-27.623459 3.4450002 1.3580836
-27.592718 3.4614286 1.3248572
-27.725 3.595 1.376
-27.65 3.5494812 1.3511853
-27.725 3.6140001 1.377
-27.139801 3.9857998 1.35
-27.019833 3.9836669 1.347
-26.981094 3.9827726 1.3529546
-26.971325 4.0489578 1.3484998
-27.107 4.1960001 1.342
-27.043501 4.1878338 1.3556666
-26.968937 4.1463923 1.3507845
-27.122 4.2053337 1.3533334
-27.007999 4.2249999 1.346
-26.974144 4.2104287 1.3474286
-27.919001 3.358 1.461
-27.848835 3.3450837 1.4597499
-27.758251 3.3696251 1.456875
-27.698 3.392 1.4220001
-27.658829 3.453759 1.4506208
-27.728001 3.5549169 1.4672501
-27.680334 3.5325558 1.4283334
-27.122999 3.9890003 1.4537145
-27.033146 3.9837143 1.4392859
-26.980556 3.9827771 1.4468334
-26.973137 4.0511775 1.4539777
-27.118999 4.1900001 1.457
-27.045834 4.1896667 1.4526666
-26.971018 4.1483698 1.4494814
-27.11725 4.204 1.4454999
-27.023001 4.2270002 1.49
-26.9676 4.2114 1.4489001
-27.914001 3.3200002 1.5513334
-27.842136 3.3442004 1.5552667
-27.760849 3.3731542 1.5516156
-27.725182 3.4667273 1.5647273
-27.689802 3.4454 1.5262002
-27.82 3.5699999 1.566
-27.754814 3.53125 1.5471251
-27.120144 3.9934285 1.5455716
-27.027859 3.9814289 1.5467143
-26.977892 3.9827902 1.5466841
-27.122999 4 1.549
-27.004999 4.02 1.506
-26.975779 4.0485554 1.5496222
-27.1175 4.1949997 1.5539999
-27.042799 4.1911998 1.5430001
-26.971758 4.1505218 1.5471085
-27.110334 4.2070003 1.5413334
-27.031334 4.2189999 1.5783334
-26.9725 4.211875 1.5466249
-27.951332 3.2913337 1.6646669
-27.937889 3.3114443 1.6539999
-27.847469 3.3362668 1.6507335
-27.761433 3.3740001 1.6462144
-27.772778 3.4598334 1.6385556
-27.900999 3.566 1.646
-27.836861 3.5288572 1.6612858
-27.7824 3.5125999 1.6246001
-27.110001 3.9933999 1.6496
-27.04775 3.9876668 1.658
-26.974821 3.9846365 1.6492728
-27.122 4 1.607
-27.041668 4.0113335 1.6400001
-26.974434 4.0536222 1.6492453
-27.132 4.1849999 1.653
-27.050667 4.1929998 1.6471667
-26.972939 4.1517191 1.64732
-27.113749 4.2055001 1.6435
-27.021 4.2410002 1.6884999
-26.972692 4.212461 1.6414616
-28.018999 3.283 1.734
-27.966902 3.2854002 1.7549
-28.045 3.3010001 1.762
-27.930601 3.3113999 1.7520001
-27.842382 3.3438573 1.7471428
-27.785 3.3665001 1.73225
-28.0135 3.4579999 1.7645
-27.822529 3.4488237 1.7472943
-27.782333 3.4099998 1.7086667
-27.9205 3.54 1.7425001
-27.8615 3.5076249 1.74575
-27.044926 3.9906929 1.751308
-26.977333 3.9876666 1.75825
-27.124001 4.0013332 1.7506669
-27.080999 4.0050001 1.776
-26.9765 4.0502052 1.7469318
-27.125 4.1956668 1.7496667
-27.048599 4.1942 1.7508
-26.970526 4.1491456 1.7471457
-27.105999 4.2104998 1.737
-27.0378 4.2403998 1.7386001
-26.9646 4.2122002 1.7517999
-28.025 3.2751999 1.8528
-27.962601 3.2865002 1.8485998
-27.921499 3.309875 1.8516251
-27.856638 3.3524399 1.8487202
-28.034002 3.4446666 1.8540001
-27.932999 3.4849999 1.8578001
-27.863575 3.4349291 1.8393571
-27.927 3.5009999 1.88
-27.899 3.5050001 1.8099999
-27.119667 3.9920001 1.8566668
-27.044634 3.9929092 1.8489093
-26.975277 3.99 1.8470911
-27.145 4.0020003 1.8726667
-27.077499 4.0030003 1.8625
-26.975361 4.0535808 1.8484399
-27.063 4.1890001 1.8269999
-26.968941 4.1508393 1.8452597
-27.116501 4.2077503 1.8374999
-27.054998 4.2058001 1.8516001
-26.963373 4.2143745 1.8469377
-28.036644 3.2668574 1.9517146
-27.967875 3.2855 1.95375
-27.935833 3.3301666 1.9580834
-27.885868 3.3506 1.9446002
-28.041 3.4423332 1.959
-27.940735 3.4504001 1.9514667
-27.896 3.4105 1.9265001
-27.944 3.5120001 1.911
-27.152 3.9990001 1.946
-27.034229 3.992846 1.9437691
-26.97677 3.9896154 1.9490001
-27.146833 4.0043335 1.9583334
-27.0135 4.039 1.9449999
-26.975027 4.0500793 1.9478602
-27.052334 4.1960001 1.9396666
-26.967632 4.1534462 1.9463401
-27.11475 4.21 1.9359999
-27.064751 4.20575 1.94525
-26.967121 4.2171249 1.9538751
-28.126001 3.2327144 2.0558574
-28.051081 3.2603846 2.055923
-27.974001 3.2844441 2.0542221
-28.150999 3.3959999 2.076
-27.945776 3.3415184 2.0522964
-28.129002 3.4135001 2.0204999
-28.028502 3.4420002 2.069
-27.975376 3.4260001 2.0493748
-27.115 3.994 2.006
-27.037285 3.994 2.0347145
-26.980936 3.9911251 2.0534999
-27.139858 4.0075717 2.0555716
-27.055166 4.0038333 2.0521667
-26.973911 4.053431 2.0448444
-26.967283 4.152956 2.0461953
-27.122335 4.2096667 2.0416667
-27.057503 4.2092505 2.0365
-26.961369 4.2140002 2.0542104
-28.043215 3.2667859 2.1472144
-27.983999 3.2872224 2.1629999
-28.153999 3.3963335 2.146667
-28.014111 3.3470001 2.1829998
-27.978998 3.3306248 2.13925
-28.052923 3.4253078 2.1544616
-28.104 3.5109999 2.1340001
-27.054401 3.9888 2.1422002
-26.983269 3.9936001 2.1509335
-27.139126 4.0108747 2.1487501
-27.042801 4.007 2.1342003
-26.971857 4.0496435 2.1440895
-27.077332 4.1963334 2.1486669
-26.96664 4.1482506 2.1470196
-27.124001 4.2119999 2.139667
-27.0632 4.2090001 2.1294
-26.966158 4.2184734 2.1513159
-28.143692 3.223 2.2520003
-28.042957 3.269125 2.2496252
-28.275002 3.3415 2.25
-28.146601 3.3894002 2.2588003
-28.048559 3.3465624 2.2517498
-28.141668 3.4433334 2.2646666
-28.080002 3.4126 2.2228
-27.106499 3.9949999 2.2364998
-27.022202 3.9821999 2.2336004
-26.9814 3.9937 2.2491002
-27.124668 4.0096664 2.2396669
-27.080286 4.0065713 2.2627144
-26.972258 4.0485725 2.2462573
-27.069 4.1984997 2.2020001
-26.962259 4.1503534 2.2483704
-27.134001 4.2066669 2.2396667
-27.053625 4.2147498 2.2523751
-26.968105 4.2205267 2.2582631
-28.173 3.1975 2.3385
-28.145603 3.2262003 2.3519998
-28.073441 3.2605 2.3473749
-28.27467 3.3456669 2.3376667
-28.135073 3.3698668 2.3590002
-28.082199 3.3285 2.3313
-28.151751 3.40975 2.3299999
-27.115999 3.9960001 2.309
-27.044001 3.9947999 2.3434
-26.98189 3.9918892 2.3515556
-27.13825 4.0120001 2.3462501
-27.078144 4.0058575 2.3585718
-26.975477 4.0486712 2.3509505
-26.961117 4.1535769 2.3533654
-27.134001 4.2110004 2.337667
-27.05578 4.214889 2.3503335
-26.972155 4.224052 2.3541052
-28.319 3.164 2.44275
-28.265751 3.1735001 2.4632499
-28.174999 3.1975 2.4445
-28.205 3.204 2.4419999
-28.137138 3.2427731 2.4521823
-28.091999 3.263 2.4100001
-28.247665 3.3499999 2.4408336
-28.157766 3.3381765 2.451
-28.214001 3.4089999 2.47
-28.16 3.4089999 2.4030001
-27.118 3.9960001 2.454
-27.054169 3.9908333 2.4420004
-26.980331 3.9941664 2.4468334
-27.143202 4.0112 2.4661999
-27.041901 4.0064001 2.4514
-26.972654 4.0494099 2.4505084
-26.959694 4.1504641 2.4532788
-27.132668 4.2156668 2.4353333
-27.053999 4.2183328 2.453778
-26.964684 4.2152109 2.4514735
-28.261402 3.1760001 2.5578001
-28.191 3.1919999 2.5315001
-28.406 3.2865 2.552
-28.212999 3.2985001 2.5799999
-28.171822 3.2373526 2.5432942
-28.312 3.323 2.592
-28.238869 3.3433332 2.553067
-28.185169 3.3185 2.5251665
-27.123669 3.9966667 2.5513334
-27.016333 3.9773335 2.553
-26.979668 3.9925001 2.5476668
-27.142376 4.0129995 2.555125
-27.044748 4.0059996 2.5586252
-26.967682 4.0504088 2.5494428
-26.958792 4.1528368 2.5522857
-27.147667 4.2066669 2.5370002
-27.047998 4.2164445 2.554889
-26.963476 4.2188945 2.5488949
-28.259918 3.1794167 2.6587501
-28.403999 3.2939999 2.6760001
-28.3955 3.299 2.6205001
-28.235876 3.2611873 2.6561875
-28.192999 3.2150002 2.6256666
-28.32 3.3257501 2.6712499
-28.267582 3.3317499 2.6445835
-27.107 3.994 2.6459999
-26.976873 3.988625 2.6453748
-27.136499 4.0111246 2.6556249
-27.052999 4.0088749 2.645
-26.970304 4.0485506 2.6511884
-27.163 4.197 2.6389999
-26.961733 4.1512446 2.6514444
-27.1525 4.2060003 2.6364999
-27.0431 4.2202997 2.6513002
-26.962206 4.2194209 2.6488423
-28.278545 3.1828184 2.7539999
-28.412001 3.2896667 2.7483335
-28.31525 3.2655001 2.7739999
-28.280254 3.2554166 2.7476668
-28.330334 3.3109999 2.7628336
-28.2885 3.316 2.707
-27.118999 3.9960001 2.744
-27.02 3.9960001 2.723
-26.971748 3.9872501 2.747
-27.125908 4.0159092 2.7529092
-27.066502 4.013 2.7524998
-26.969627 4.0472531 2.7488356
-27.187 4.1805 2.743
-26.959103 4.1536069 2.7491767
-27.101999 4.2140002 2.7620001
-27.035183 4.2222729 2.7554545
-26.957056 4.2205553 2.7461114
-28.338734 3.1586006 2.8438001
-28.291 3.1715 2.8105001
-28.418669 3.2880001 2.8566666
-28.338499 3.2454 2.8480499
-28.3675 3.3215001 2.8334999
-27.132999 3.9979999 2.842
-26.974167 3.9923334 2.8305001
-27.136402 4.0183997 2.8234
-27.072336 4.0125556 2.8577778
-26.972464 4.0484352 2.8486667
-27.193001 4.1794996 2.8600001
-26.959044 4.1512828 2.84937
-27.040232 4.2319999 2.8474615
-26.96294 4.2167649 2.8532941
-28.370646 3.2319999 2.9360003
-26.979834 3.9914999 2.9490001
-27.0625 4.0123339 2.9489999
-26.972546 4.0501285 2.9467261
-26.960726 4.1503334 2.9487441
-27.045183 4.2238183 2.9513638
-26.960882 4.2185874 2.9485295
0 0 0 1 0 0 0 1 0 0 0 1 0 0 0 0 0 529 1 0 0
