ply
format ascii 1.0
comment PCL generated
element vertex 526
property float x
property float y
property float z
element camera 1
property float view_px
property float view_py
property float view_pz
property float x_axisx
property float x_axisy
property float x_axisz
property float y_axisx
property float y_axisy
property float y_axisz
property float z_axisx
property float z_axisy
property float z_axisz
property float focal
property float scalex
property float scaley
property float centerx
property float centery
property int viewportx
property int viewporty
property float k1
property float k2
end_header
-26.914 1.78 0.048
-26.865999 1.753 0.074000001
-26.747694 1.7616154 0.049538463
-26.828499 1.873 0.079000004
-26.846334 1.7323334 0.13500001
-26.763704 1.7521178 0.13941176
-26.851822 1.8702728 0.16200002
-26.8155 1.6960001 0.26899999
-26.924 1.726 0.28299999
-26.859001 1.7195001 0.2175
-26.777384 1.7511668 0.24222223
-26.859314 1.8566875 0.24843749
-26.766666 1.8257776 0.23022223
-26.837147 1.6900002 0.35242859
-26.943001 1.722 0.34899998
-26.813332 1.7378888 0.35122225
-26.786572 1.7688572 0.33828574
-26.908501 1.8435 0.38300002
-26.862421 1.8396316 0.34889475
-26.787001 1.809 0.33399999
-26.866156 1.6764617 0.45907694
-26.936001 1.704 0.414
-26.825134 1.7434669 0.45353338
-26.798 1.776 0.41100001
-26.9235 1.8305 0.44874999
-26.858467 1.8188001 0.4454667
-26.5175 1.8039999 0.46149999
-26.615 1.989 0.46200001
-26.43042 1.9605634 0.45650908
-26.527313 2.0295627 0.45837504
-26.920002 1.6723332 0.56433338
-26.879749 1.6746876 0.55362499
-26.149113 1.6682222 0.55000001
-26.087345 1.6753848 0.55311549
-26.943501 1.7474999 0.55449998
-26.850313 1.7628464 0.54957694
-26.527336 1.7708001 0.55713338
-26.104 1.7344999 0.53474998
-26.086164 1.7512797 0.55195588
-26.933002 1.8229334 0.54700005
-26.879999 1.80725 0.54074997
-26.459198 1.8525 0.54330003
-26.243599 1.8545333 0.55066669
-26.615999 1.961 0.56900001
-26.530624 1.9819374 0.55906254
-26.454447 1.9358299 0.54757434
-26.632 2.016 0.58499998
-26.546156 2.0125384 0.53030771
-26.9268 1.6535335 0.65960002
-26.889002 1.6692224 0.63255554
-26.24177 1.6600001 0.6391539
-26.144779 1.6681111 0.66177779
-26.087145 1.6767036 0.64762956
-27.073 1.721 0.60100001
-26.927999 1.7930001 0.66979998
-26.86937 1.7533331 0.64862967
-26.603001 1.724 0.66399997
-26.534477 1.7510476 0.64790475
-26.490667 1.7876667 0.67550004
-26.108 1.7544285 0.65385711
-26.085112 1.7479526 0.65066671
-26.951334 1.8137777 0.63744438
-26.896999 1.803 0.67500001
-26.502998 1.8959999 0.67166674
-26.461918 1.8714999 0.64712501
-26.230412 1.8571174 0.65176475
-26.6164 1.9610001 0.66200006
-26.541771 1.9421279 0.6457693
-26.480444 1.9232224 0.61155552
-27.011999 1.658 0.72899997
-26.929789 1.6536363 0.74972743
-26.896 1.682 0.75099999
-26.62175 1.6742499 0.76525003
-26.578199 1.6789999 0.75980002
-26.239372 1.6661251 0.73900002
-26.138062 1.6696249 0.7504375
-26.083292 1.6812222 0.7511481
-27.008001 1.7876667 0.76999998
-26.935095 1.7715501 0.75000006
-26.887554 1.7368885 0.74561107
-26.541241 1.7330952 0.75076193
-26.490667 1.7854999 0.74433339
-26.111 1.7395 0.71149999
-26.085411 1.7509996 0.75487673
-26.978001 1.8036666 0.70966667
-26.625 1.89 0.78399998
-26.53828 1.8703201 0.75575989
-26.476412 1.8359998 0.7444706
-26.238689 1.8576876 0.74806249
-26.627111 1.9236666 0.73911119
-26.573935 1.9179333 0.72806668
-27.009001 1.626 0.85900003
-26.947569 1.6488379 0.84681076
-26.62291 1.6348184 0.85754544
-26.585876 1.6560419 0.85520834
-26.240625 1.668875 0.83737499
-26.126177 1.6717058 0.85435295
-26.084194 1.6769617 0.85757691
-27.0205 1.7770001 0.84850001
-26.939194 1.7466155 0.84692305
-26.894667 1.7396667 0.82400006
-26.528269 1.7479999 0.85879999
-26.483999 1.7867501 0.83199996
-26.1075 1.7452501 0.82800001
-26.085096 1.7479728 0.85310835
-26.623846 1.8674617 0.85492307
-26.556431 1.8364054 0.8445676
-26.483 1.8150001 0.80199999
-26.341 1.85 0.82749999
-26.238293 1.8574708 0.84482354
-26.610001 1.911 0.80400002
-26.993002 1.5953333 0.95166671
-26.6455 1.5857857 0.97642863
-27.049667 1.6196668 0.96600002
-26.966934 1.642355 0.94825798
-26.617998 1.6234089 0.94831818
-26.569674 1.6651934 0.95238698
-26.230221 1.6672223 0.93677777
-26.129623 1.67225 0.96118748
-26.085728 1.6724244 0.95584857
-27.043701 1.7642001 0.96320003
-26.957624 1.732941 0.94364697
-26.625 1.7861999 0.9898001
-26.544832 1.7567776 0.95002788
-26.102501 1.744 0.917
-26.084053 1.7489011 0.95315474
-26.630667 1.8239332 0.94113338
-26.5746 1.8066 0.92259997
-26.241501 1.8626499 0.94859999
-27.026402 1.5852001 1.0691999
-26.998501 1.592 1.0090001
-26.640471 1.5717942 1.059353
-27.021896 1.6202999 1.0670999
-26.974798 1.6646003 1.0498999
-26.609833 1.6168334 1.0336667
-26.571299 1.6548299 1.0558296
-26.240574 1.6730001 1.0448573
-26.145557 1.676 1.0591111
-26.086191 1.6747223 1.0539445
-27.04081 1.7474285 1.0530001
-26.980217 1.7139286 1.0435002
-26.709999 1.765 1.0779999
-26.643183 1.7664444 1.0545925
-26.566191 1.7286923 1.0383077
-26.1068 1.7458 1.041
-26.669001 1.802 1.0285
-26.237368 1.8650525 1.0552105
-27.048903 1.5766001 1.1564001
-26.701 1.517 1.151
-26.649557 1.54822 1.1515199
-26.599001 1.598 1.1109999
-27.017157 1.6409229 1.1605386
-26.989788 1.6700003 1.1382856
-26.612934 1.6437334 1.1634001
-26.579882 1.6503266 1.1474694
-26.235249 1.672375 1.1396251
-26.137529 1.6698946 1.1568421
-26.085411 1.6752068 1.1497586
-27.146 1.744 1.158
-27.053167 1.7237668 1.1520667
-26.993999 1.714 1.126
-26.711 1.7360001 1.1775
-26.655272 1.727846 1.1449233
-26.586 1.707 1.1160001
-26.110748 1.7540001 1.1264999
-26.242628 1.8630625 1.1533124
-27.129999 1.466 1.25
-26.726166 1.4758334 1.2511667
-26.684536 1.4815334 1.2578001
-27.104 1.559 1.257
-27.065331 1.5722001 1.2466667
-26.641081 1.5447798 1.24404
-26.592798 1.5870001 1.2428001
-27.205 1.678 1.28
-27.035181 1.6522223 1.2468148
-26.996 1.651 1.2
-26.747665 1.6719999 1.276
-26.635241 1.6512039 1.2521111
-26.590063 1.6224374 1.2433748
-26.239111 1.6758889 1.2453333
-26.127413 1.6740001 1.2478236
-26.084276 1.6757585 1.2552758
-27.1395 1.71975 1.27625
-27.076534 1.7173333 1.2502668
-26.723249 1.71225 1.2305
-26.674 1.7145716 1.2158573
-26.109501 1.7385 1.2049999
-26.245617 1.8569523 1.2533333
-26.728703 1.4406999 1.3564001
-26.67889 1.4760742 1.3461113
-27.105665 1.5504999 1.3621668
-27.076309 1.5811539 1.3428462
-26.63522 1.5555174 1.3462414
-26.599501 1.579 1.3264999
-27.135801 1.6918 1.3550001
-27.060564 1.659565 1.3400434
-26.727478 1.6531599 1.3574001
-26.667423 1.6296579 1.3395
-26.2335 1.6736001 1.3441999
-26.138777 1.6736667 1.3522222
-26.085388 1.6779444 1.3521389
-27.137638 1.712091 1.3517271
-27.084333 1.7140001 1.3180001
-26.113003 1.7656667 1.3416667
-26.246105 1.8606843 1.3542631
-26.754416 1.38925 1.4634999
-26.722784 1.4246521 1.4401304
-26.674944 1.4725294 1.4455293
-27.123356 1.5487857 1.4627144
-27.092667 1.5686668 1.4163334
-26.722 1.5780001 1.4802501
-26.657579 1.5481752 1.4419475
-27.125818 1.6801111 1.4578148
-27.075998 1.6464374 1.439875
-26.743958 1.6180003 1.4441739
-26.690666 1.6150001 1.4120001
-26.234699 1.6751999 1.4450001
-26.132786 1.6693574 1.4562144
-26.0833 1.6809669 1.4493667
-27.156097 1.7075001 1.4432
-26.106499 1.7410001 1.414
-26.24547 1.862353 1.4558237
-26.830334 1.3646667 1.551
-26.751318 1.3672258 1.5561935
-27.162001 1.497 1.571
-26.715651 1.4192001 1.5476
-26.676075 1.4641502 1.5485501
-27.136333 1.5430001 1.5469167
-27.099001 1.5930001 1.502
-26.825001 1.5470001 1.5525
-26.744888 1.5525 1.5529093
-26.675522 1.5240434 1.5298696
-27.216999 1.6652499 1.5717499
-27.138693 1.6610478 1.5563333
-27.0921 1.636 1.5441
-26.778 1.604 1.503
-26.226286 1.6772858 1.5404286
-26.126926 1.6748463 1.5566155
-26.085501 1.6748573 1.5513215
-27.181 1.702 1.5465
-26.103001 1.7344999 1.5320001
-26.306 1.8150001 1.5700001
-26.245268 1.8618001 1.5506001
-26.804335 1.293 1.6576667
-26.7855 1.2980001 1.6884999
-26.812399 1.3104 1.6466
-26.75411 1.3536305 1.6541303
-27.195 1.462 1.6109999
-26.824001 1.4960001 1.691
-26.728027 1.456 1.6629287
-26.68886 1.4437728 1.6370001
-27.151867 1.5617334 1.6538
-26.828249 1.5285001 1.654875
-26.754627 1.5171666 1.6310833
-26.695999 1.515 1.614
-27.217199 1.6725 1.6586001
-27.146816 1.6419766 1.6476511
-27.097 1.618 1.612
-26.222668 1.6816667 1.6476668
-26.123646 1.6762859 1.649
-26.082346 1.677862 1.6538275
-27.194 1.704 1.6
-26.327999 1.7920001 1.608
-26.112 1.722 1.6265
-26.248093 1.8620909 1.6498182
-26.8249 1.2712001 1.7608
-26.789457 1.2905455 1.7604545
-26.802999 1.309 1.77
-26.743208 1.3511888 1.7516035
-27.211334 1.4946668 1.7736667
-26.907 1.443 1.767
-26.835278 1.4741111 1.7590001
-26.751343 1.4430001 1.7460226
-26.700001 1.4254999 1.717
-27.157839 1.5727201 1.7494801
-26.841 1.5092499 1.71275
-26.775999 1.502 1.725
-27.304001 1.624 1.793
-27.22484 1.6585791 1.7501578
-27.164394 1.6287576 1.7409699
-26.235498 1.6821251 1.7417499
-26.134184 1.6744547 1.7547274
-26.084095 1.6793869 1.7537098
-26.351 1.772 1.749
-26.106432 1.7478571 1.7547144
-26.244923 1.8637694 1.7471538
-26.871 1.196 1.897
-26.830448 1.2393333 1.8593333
-26.782475 1.2868235 1.8564705
-26.814499 1.3935001 1.8975
-26.751659 1.3497452 1.8506668
-27.241999 1.4778 1.8591999
-26.903 1.4170001 1.8715
-26.837788 1.4351429 1.8501431
-26.784708 1.4215293 1.8341177
-27.215275 1.5233637 1.8525457
-27.180136 1.5691724 1.8501034
-27.318001 1.6115 1.8305
-27.234451 1.6414138 1.8544139
-27.182234 1.6178237 1.8335292
-26.219334 1.6833333 1.8491668
-26.13431 1.6767691 1.8550769
-26.085482 1.6791302 1.8535218
-26.1082 1.7393999 1.8591999
-26.316 1.816 1.8870001
-26.234819 1.8709093 1.8439093
-26.91 1.159 1.9910001
-26.860001 1.1829091 1.962091
-26.822048 1.2287142 1.9543808
-26.786123 1.2759377 1.9482499
-26.909332 1.3763332 1.9836667
-26.836311 1.3755311 1.9656876
-26.767467 1.3298213 1.9417143
-27.262077 1.4841541 1.9583077
-26.945999 1.427 1.961
-26.858574 1.4116428 1.9236431
-27.354 1.568 1.933
-27.219028 1.550059 1.9517059
-27.189005 1.5776666 1.9351112
-27.308668 1.632 1.9820001
-27.250549 1.6252257 1.9475486
-27.193001 1.6 1.913
-26.223333 1.6863334 1.9503334
-26.136702 1.6791 1.9485
-26.085653 1.6774373 1.952031
-26.101999 1.7244999 1.946
-26.322601 1.8418001 1.9554001
-26.2516 1.8654668 1.9448668
-26.907598 1.1392001 2.0639999
-26.8636 1.1601501 2.0595005
-26.818081 1.2374167 2.049417
-26.785536 1.2716669 2.047667
-26.923336 1.3495001 2.0585003
-26.855726 1.3425757 2.0479093
-26.792 1.3155 2.0135
-27.304501 1.4575 2.0770001
-27.272823 1.4747648 2.0470591
-27.341335 1.5870001 2.039
-27.236273 1.5565366 2.0516832
-27.181 1.559 2.017
-27.316143 1.6298572 2.0527143
-27.266499 1.6118001 2.0465999
-26.222168 1.6868334 2.0515001
-26.137669 1.6805556 2.0493336
-26.083759 1.6784829 2.0523102
-26.104 1.737 2.043
-26.3228 1.8312 2.0536001
-26.244001 1.8734667 2.0454667
-26.916 1.0875001 2.178
-26.907333 1.1066667 2.1500001
-26.855038 1.1534336 2.1536002
-26.941999 1.2825 2.1789999
-26.840693 1.2559232 2.1521537
-26.794001 1.2355715 2.1392858
-26.927572 1.3202857 2.1450717
-26.872334 1.3133334 2.1333332
-27.319 1.448375 2.14975
-27.285376 1.47175 2.1416249
-27.335167 1.5816667 2.1555002
-27.261648 1.5512409 2.1469443
-27.3225 1.6172001 2.1516001
-27.2896 1.6059999 2.1285999
-26.2208 1.6848 2.1464002
-26.139584 1.677 2.1511667
-26.083456 1.681875 2.1487086
-26.111 1.709 2.1240001
-26.334 1.831 2.109
-26.238501 1.8739998 2.1485002
-26.927401 1.0659335 2.2514
-26.886335 1.0929999 2.2683334
-26.851427 1.1528484 2.2523634
-27.035 1.2355 2.233
-26.943411 1.2715883 2.2551177
-26.8629 1.23365 2.2398002
-26.974998 1.3099999 2.2175002
-27.32275 1.464625 2.2520626
-27.289249 1.48875 2.2575002
-27.403667 1.5706667 2.2593334
-27.33639 1.5765218 2.2618697
-27.280655 1.5390284 2.2390859
-27.410999 1.62 2.2550001
-27.355288 1.6132858 2.2215717
-27.297001 1.603 2.2090001
-26.2295 1.6877501 2.2535
-26.140928 1.6777146 2.2492142
-26.08354 1.6817503 2.2539585
-26.105499 1.7425001 2.2030001
-26.326 1.818 2.2279999
-26.250998 1.8740501 2.2538502
-26.969501 0.98650002 2.3940001
-26.93755 1.04085 2.3464496
-26.888889 1.0854446 2.3546667
-26.923002 1.1900001 2.3880002
-26.866964 1.1462222 2.3459628
-27.011002 1.2433333 2.3590002
-26.942347 1.2304348 2.3388693
-26.872501 1.2125 2.3074999
-27.414499 1.426 2.312
-27.336443 1.4613999 2.3529999
-27.423 1.5543334 2.3656669
-27.331215 1.5525123 2.3488541
-27.293222 1.5184445 2.3224442
-27.4205 1.6040001 2.358
-27.3755 1.6075 2.3095
-26.222599 1.6878 2.3602002
-26.154251 1.6834999 2.34425
-26.083704 1.6805185 2.3544443
-26.103001 1.711 2.372
-26.3085 1.8485 2.3340001
-26.234125 1.8799375 2.34675
-27.034399 0.96219999 2.4648001
-26.969168 0.97691667 2.4604166
-26.927547 1.0331365 2.4464545
-26.886127 1.075375 2.4522498
-27.013 1.166 2.4454999
-26.938667 1.1612221 2.4558892
-26.876387 1.1210769 2.4335384
-27.014999 1.215 2.424
-26.972429 1.2102858 2.4235716
-27.431334 1.4126667 2.441
-27.351431 1.4545949 2.4467299
-27.418835 1.5776668 2.4625001
-27.354471 1.5390203 2.4449997
-26.2314 1.6932 2.4538
-26.145802 1.6839999 2.4487998
-26.081732 1.6833849 2.453577
-26.236311 1.8868124 2.4475
-26.238668 1.9066668 2.4493332
-27.033373 0.92637503 2.5641248
-26.973961 0.95996153 2.550308
-26.918566 1.0391304 2.547261
-26.893002 1.0663334 2.5186667
-27.024286 1.155143 2.5454288
-26.954716 1.1257144 2.5377142
-27.41 1.377 2.5780001
-27.393999 1.393 2.5380001
-27.411125 1.41625 2.5552497
-27.372435 1.4614334 2.5540333
-27.422874 1.5506874 2.5576875
-27.372732 1.5242335 2.5400667
-26.23 1.689 2.5610001
-26.1495 1.6830002 2.5484998
-26.082321 1.681182 2.5573635
-26.107 1.7180001 2.572
-26.313335 1.8533334 2.552
-26.233366 1.8879092 2.5490911
-26.244499 1.904 2.572
-27.036499 0.88337499 2.6724999
-26.996 0.89600003 2.6559999
-27.017002 0.90650004 2.6470001
-26.965073 0.95325005 2.6485999
-27.029402 1.0830001 2.6826
-26.949549 1.0484194 2.6405158
-27.032572 1.1191429 2.6384287
-26.988333 1.1093334 2.6130002
-27.502001 1.383 2.6900001
-27.461252 1.38525 2.6712499
-27.519499 1.4835 2.65625
-27.420586 1.4228824 2.6515296
-27.384079 1.4728079 2.6506538
-27.431137 1.5301365 2.6559093
-27.392626 1.5130001 2.624625
-26.235668 1.6920002 2.6526668
-26.141306 1.6834617 2.6460004
-26.082951 1.6768502 2.6491499
-26.314001 1.8533334 2.6620002
-26.230198 1.8840002 2.6516669
-27.037502 0.86303574 2.7551072
-26.992599 0.89139998 2.7723999
-27.005001 0.93366671 2.7423332
-26.965878 0.94658965 2.7507441
-27.1145 1.085 2.7445002
-27.041178 1.0534118 2.7540588
-26.976557 1.0314444 2.7254446
-27.117001 1.113 2.7090001
-27.511 1.3525 2.7940001
-27.462185 1.3796364 2.7423637
-27.5224 1.4874001 2.7512002
-27.424147 1.4533716 2.7601714
-27.393276 1.4706364 2.7301819
-27.52025 1.5287499 2.7869999
-27.449472 1.5177143 2.7417619
-26.24225 1.6964999 2.7440002
-26.146091 1.6850002 2.748909
-26.083689 1.6778847 2.7466159
-26.102501 1.75 2.7555001
-26.328999 1.8399999 2.7295001
-26.22492 1.8866155 2.7460001
-27.129002 0.77833337 2.8793335
-27.073999 0.79500002 2.8729999
-27.038841 0.84549999 2.8522732
-26.989573 0.8871429 2.866286
-27.018002 0.96516669 2.8645835
-26.974138 0.93068188 2.8378637
-27.113001 1.039 2.869
-27.061373 1.0245625 2.8424373
-27.482273 1.3807273 2.8483636
-27.5345 1.492 2.852
-27.44067 1.4585336 2.8516006
-27.521 1.5153999 2.858
-27.474701 1.5090001 2.8354003
-26.2335 1.6917499 2.846
-26.140701 1.6860001 2.8443
-26.084997 1.676737 2.8496315
-26.109001 1.74 2.8705001
-26.230499 1.8800001 2.845125
-27.113499 0.76075 2.973
-27.078712 0.78252387 2.9512856
-27.030235 0.83878946 2.9528944
-26.986376 0.87962496 2.9371252
-27.117201 0.9648 2.9678001
-27.044003 0.94262516 2.9515419
-26.991001 0.91999996 2.9235001
-27.145668 1.007 2.9456668
-27.077 1.0005 2.924
-27.52725 1.364 2.9624999
-27.4853 1.3829001 2.9521
-27.520887 1.4914443 2.9525554
-27.467392 1.4514147 2.9500489
-27.53586 1.5165715 2.9394288
-27.487 1.5085 2.9119999
-26.237751 1.6945 2.9505
-26.150335 1.6912222 2.9491112
-26.079842 1.6796316 2.9498422
-26.108999 1.778 2.95
-26.236427 1.8780713 2.9487145
0 0 0 1 0 0 0 1 0 0 0 1 0 0 0 0 0 526 1 0 0
