ply
format ascii 1.0
comment PCL generated
element vertex 1240
property float x
property float y
property float z
element camera 1
property float view_px
property float view_py
property float view_pz
property float x_axisx
property float x_axisy
property float x_axisz
property float y_axisx
property float y_axisy
property float y_axisz
property float z_axisx
property float z_axisy
property float z_axisz
property float focal
property float scalex
property float scaley
property float centerx
property float centery
property int viewportx
property int viewporty
property float k1
property float k2
end_header
-6.7492781 4.1326666 0.05072223
-6.6681252 4.8956246 0.047125001
-6.80825 4.9709997 0.049125001
-6.7640429 4.9371929 0.047903229
-6.6334715 4.936832 0.046983201
-6.593842 4.9724212 0.054526318
-6.8035002 5.0015001 0.061999999
-6.7590594 5.0536399 0.046379991
-6.6382947 5.0434237 0.045858975
-6.5893331 5.0189328 0.051133342
-6.4760308 3.8486471 0.15032351
-6.7439499 3.9533594 0.15051281
-6.6536598 3.9506595 0.14956819
-6.5494509 3.939549 0.14949019
-6.4702635 3.9207549 0.15124562
-6.7344484 4.0480857 0.15222417
-6.6945558 4.0795555 0.14300001
-6.6584001 4.8972001 0.152
-6.8042865 4.9718575 0.14021429
-6.7628698 4.9389911 0.15128283
-6.6353512 4.9376755 0.14792791
-6.5946317 4.9706845 0.15573685
-6.8053336 5.050334 0.17366669
-6.7605042 5.05445 0.14803672
-6.6397009 5.0456219 0.14948271
-6.5934081 5.0208516 0.14825927
-6.6532912 3.952244 0.24741463
-6.5475607 3.9431043 0.24420834
-6.469439 3.9215612 0.24877197
-6.6928749 4.0772495 0.245
-6.7309999 4.8979998 0.28099999
-6.8074999 4.9705005 0.25499997
-6.7617764 4.9405885 0.24923524
-6.6392765 4.9376636 0.24882172
-6.5917377 4.9746847 0.24699996
-6.8036666 5.0583339 0.245
-6.7603321 5.0548754 0.24936454
-6.6389728 5.0475335 0.24853425
-6.5936303 5.0251107 0.25437036
-6.657146 3.9554632 0.35019508
-6.5506968 3.9456611 0.34675008
-6.4713736 3.9254746 0.34877962
-6.6855001 4.0782499 0.32524997
-6.6440001 4.8959999 0.37900001
-6.8056002 4.9728003 0.32980001
-6.7654419 4.9468861 0.3519873
-6.6404943 4.9380722 0.34914148
-6.5911374 4.9834099 0.34872732
-6.8016672 5.0733333 0.35600004
-6.7597342 5.0568843 0.34776109
-6.635169 5.0480595 0.34755945
-6.5923333 5.0293703 0.35311109
-6.5477138 3.9511347 0.45480767
-6.8044009 4.9686003 0.43380004
-6.7666836 4.9487734 0.44887501
-6.6412659 4.9394999 0.45103055
-6.5926013 4.9827495 0.45040002
-6.7583418 5.0584884 0.44846597
-6.6396046 5.0530834 0.45288369
-6.5897651 5.0246763 0.44997057
-6.7620001 5.0999999 0.47400001
-6.7049999 4.8990002 0.52999997
-6.8050003 4.9689999 0.51349998
-6.7573438 4.9452376 0.54920226
-6.6367579 4.9444566 0.55304861
-6.5921178 4.9835296 0.54852945
-6.8010001 5.0739999 0.54699999
-6.7567067 5.0645361 0.547939
-6.6353884 5.0507655 0.55175298
-6.5920005 5.0327053 0.55032349
-6.4753413 3.9360676 0.65181828
-6.7138329 4.8964996 0.65649998
-6.802 4.9580002 0.69499999
-6.7564454 4.9504027 0.6452499
-6.637816 4.9432044 0.65122205
-6.5926847 4.9806309 0.65105265
-6.9400001 5.0240002 0.67633337
-6.8049998 5.0650001 0.61000001
-6.7538872 5.0634604 0.64982027
-6.6373515 5.0515223 0.65017051
-6.591794 5.0312057 0.65484619
-7.0970001 5.1269999 0.69199997
-6.5471945 3.7428887 0.75030559
-6.4811316 3.7686574 0.74792111
-6.471055 3.8455176 0.74367869
-6.5417089 3.9616461 0.74664587
-6.4675012 3.9354253 0.75287509
-6.3423219 3.9254844 0.75599998
-6.6694798 4.1179199 0.76808
-6.7389998 4.8889999 0.71399999
-6.598 4.8779998 0.75199997
-7.0159998 4.993 0.77183336
-6.9412866 4.9827147 0.75964284
-6.8540864 4.9743047 0.75452167
-6.7436743 4.9522605 0.74582607
-6.6436257 4.9444828 0.73787504
-6.5630774 4.9558115 0.75958389
-7.0543637 5.0379772 0.72977269
-6.9448342 5.0673699 0.73948139
-6.8544207 5.0703692 0.75149101
-6.7555799 5.0615964 0.74756128
-6.6525788 5.0477347 0.74581248
-6.5615211 5.0268111 0.75682622
-7.1505246 5.1315923 0.74869502
-7.0504446 5.1153898 0.75788873
-6.9671669 5.1058335 0.7574445
-6.6497784 3.7653885 0.84980547
-6.5508885 3.7485554 0.85061109
-6.480947 3.7689996 0.85215801
-6.3444009 3.7928002 0.84046662
-6.2626114 3.7906389 0.83727771
-6.1989999 3.796 0.80500001
-6.4647923 3.8214486 0.84844822
-6.3637695 3.8036921 0.85738462
-6.2349763 3.8487434 0.85454655
-6.1934443 3.8472223 0.80911118
-6.7246156 3.9803078 0.84184623
-6.6455154 3.9728186 0.84796971
-6.542912 3.9641469 0.85020584
-6.4575953 3.9433105 0.84297627
-6.3472443 3.9346671 0.85095555
-6.2526727 3.9175997 0.84503627
-6.7066665 4.04 0.89833331
-6.6637139 4.0556664 0.84647626
-6.6593528 4.1341763 0.8539412
-6.7786994 4.3529 0.86319989
-6.6347828 4.3494563 0.87695646
-6.5999999 4.348 0.875
-6.7348471 4.462923 0.86215389
-6.6371994 4.4462752 0.87335008
-6.5945716 4.4640002 0.87600005
-6.8626919 4.5626159 0.85823077
-6.7653742 4.5509996 0.86162496
-6.6142941 4.535471 0.8764118
-6.5934591 4.5633335 0.87608331
-6.8610911 4.6367273 0.85790914
-6.7579999 4.6497335 0.86066669
-6.6290584 4.6592937 0.87658823
-6.583879 4.6488471 0.87293929
-7.0556664 4.7524443 0.85377777
-6.9285007 4.7479162 0.85733336
-6.8923335 4.7676668 0.85600007
-6.7570715 4.7467146 0.85728574
-6.638 4.7444997 0.86156255
-6.5767193 4.7505622 0.87443745
-7.1731672 4.8620005 0.85300004
-7.0116668 4.8430004 0.85366666
-6.9809999 4.8860002 0.85399997
-6.8458338 4.8360004 0.8543334
-6.7532306 4.8464618 0.85669237
-6.6477866 4.8528571 0.87021434
-6.5625277 4.8514161 0.87180555
-7.1212502 4.9182501 0.85175002
-7.0528746 4.9775004 0.84199995
-6.9538331 4.968833 0.8378889
-6.8583641 4.9736366 0.82581824
-6.748353 4.9435883 0.83399999
-6.6502504 4.9402504 0.84667856
-6.5560541 4.9530225 0.84300017
-7.2321 5.0363998 0.82870001
-7.1541433 5.0254288 0.82528573
-7.0524445 5.0280004 0.82811111
-6.9422779 5.0933328 0.82877785
-6.8515134 5.0817308 0.8365947
-6.7409997 5.0711913 0.83955294
-6.6524148 5.0526986 0.84403771
-6.5599346 5.0334063 0.84830236
-7.1517315 5.1421924 0.84388465
-7.0491729 5.1246924 0.84757692
-6.9555178 5.1127033 0.8547408
-6.8471999 5.1174998 0.86320001
-6.7528834 5.1347265 0.87086266
-6.6885333 5.1256003 0.88173342
-6.7308002 3.7835197 0.95235997
-6.6503243 3.770025 0.94844991
-6.5432329 3.7529299 0.95281398
-6.4853539 3.7724121 0.94885302
-6.3240004 3.797667 0.92566669
-6.8515 3.8789232 0.95015389
-6.7598171 3.8370302 0.95184857
-6.4492507 3.8156786 0.95292854
-6.3353233 3.8418024 0.96038043
-6.2838101 3.8584056 0.92110807
-6.8853998 3.9588997 0.98299998
-6.7265568 3.9884825 0.94818521
-6.6583128 3.9747186 0.95393747
-6.5583496 3.9640248 0.94615
-6.4541669 3.9545951 0.94935721
-6.3468938 3.9340527 0.95487517
-6.2852306 3.9181538 0.92299998
-6.851459 4.0199194 0.96127033
-6.7639503 4.0088501 0.96174997
-6.691 4.092 0.90700001
-6.6756668 4.1613336 0.90466666
-6.6619997 4.2379999 0.90149999
-6.6700001 4.302 0.90100002
-6.6809998 4.4775 0.90499997
-6.6430001 4.5110002 0.903
-6.7652497 4.8894997 0.93124998
-6.8215618 4.9636879 0.95756257
-6.7308059 4.9570699 0.94836122
-6.6860003 4.9556003 0.92299998
-6.8069057 5.0407619 0.96052378
-6.7255473 5.0458775 0.95552033
-6.6952653 5.0662942 0.94008815
-6.8190002 5.165 0.96450001
-6.7560716 5.1564846 0.94201458
-6.6852279 5.1513696 0.95330417
-6.8347502 5.2424998 0.96425003
-6.7503004 5.2384171 0.96718341
-6.6785884 5.2305655 0.97397828
-6.644455 3.7742171 1.0487392
-6.5407033 3.7581251 1.0562969
-6.4866333 3.7733333 1.0476002
-6.8272676 3.8837335 1.0456002
-6.7542419 3.8453631 1.0540909
-6.443429 3.8354297 1.0618731
-6.3725114 3.8612003 1.0297333
-6.8405004 3.9435389 1.0420001
-6.7538829 3.9817061 1.0594705
-6.6448669 3.9840882 1.0475777
-6.5499768 3.9759521 1.0534762
-6.4425211 3.9540975 1.0568873
-6.3760004 3.9249678 1.0312258
-6.8205729 4.0188093 1.0324286
-6.7641568 4.0124741 1.0554999
-6.670917 4.0186667 1.0697501
-6.5359998 4 1.084
-6.4763999 4.0111003 1.0613
-6.756125 4.9846249 1.006375
-7.1290002 5.0915003 1.0634999
-7.05375 5.0879998 1.0664999
-6.9403639 5.0866365 1.082091
-6.8322439 5.0650482 1.054756
-6.737968 5.0524564 1.0469468
-6.6937652 5.0846467 1.0368825
-7.2494998 5.1640835 1.072625
-7.144536 5.1397858 1.073
-7.0535555 5.123148 1.0736667
-6.9715252 5.1295238 1.0711906
-6.8561168 5.1370006 1.0734118
-6.7645001 5.1421261 1.0506964
-6.6863084 5.1505523 1.0462949
-7.3560009 5.241909 1.0641818
-7.2490525 5.2348948 1.0642632
-7.1455994 5.2569504 1.0665001
-7.0448093 5.2563334 1.0675714
-6.9640002 5.2484446 1.0694444
-6.8518329 5.2533336 1.0722501
-6.7635188 5.2525368 1.0418334
-6.6730967 5.2515392 1.0475838
-7.4405713 5.3489528 1.0645714
-7.3570991 5.3612003 1.0663
-7.2614007 5.3621001 1.0650002
-7.1476536 5.368577 1.074
-7.0459986 5.3603997 1.0757601
-6.9510355 5.3631792 1.0760357
-6.8619499 5.3422999 1.0749
-6.7497497 5.3359504 1.0593333
-6.6689014 5.338016 1.0698363
-7.546505 5.4533257 1.0388877
-7.4612336 5.4451337 1.0595667
-7.3426666 5.4227343 1.0720668
-7.2585459 5.4155006 1.0774546
-7.1707497 5.4116249 1.08525
-7.5524707 5.5251474 1.0759412
-7.4650002 5.513 1.0934999
-6.7331586 3.7910004 1.1468948
-6.6468701 3.780674 1.1502173
-6.539989 3.7662768 1.1508673
-6.4905186 3.7759261 1.1507406
-6.7522826 3.8493853 1.1464359
-6.5227499 3.8087499 1.1600001
-6.4739041 3.8493836 1.1525211
-6.7586889 3.9572222 1.1559557
-6.6443586 3.9896147 1.1491283
-6.5494208 3.9805441 1.1482983
-6.4620352 3.9442101 1.1477441
-6.7413788 4.0144868 1.1491082
-6.678688 4.006125 1.1411248
-6.8400002 5.0939999 1.11
-6.7617998 5.0780005 1.1008
-7.0755 5.1624999 1.1075001
-6.9490004 5.1265001 1.1055
-6.823 5.1219997 1.1220001
-6.7452192 5.1567798 1.1456766
-6.6901093 5.1691623 1.1282704
-6.8070002 5.2319999 1.197
-6.770092 5.2542787 1.165611
-6.676816 5.248642 1.1490713
-7.4990001 5.3299999 1.159
-7.2270002 5.3979998 1.105
-7.0539999 5.3840003 1.102
-6.9725003 5.37925 1.1045001
-6.8649998 5.3710003 1.1159999
-6.7571154 5.357327 1.1578273
-6.6616569 5.3532352 1.1498814
-7.5436726 5.4491463 1.1509635
-7.4925003 5.4625001 1.14635
-7.3779998 5.414 1.107
-7.2509999 5.4180002 1.103
-6.7379398 5.4462576 1.1587578
-6.6593361 5.4425154 1.1639214
-7.6040001 5.5320001 1.117
-7.5617433 5.5533848 1.1394858
-7.4827447 5.5466084 1.1504509
-6.7378001 5.5079999 1.1930001
-6.6647501 5.50775 1.19525
-7.5404439 5.632134 1.1683556
-7.4811177 5.6277647 1.183
-6.8470001 3.825 1.226
-6.7435741 3.8476806 1.2496383
-6.6139998 3.8025 1.2550001
-6.5148745 3.8121247 1.249
-6.4796948 3.851337 1.2500437
-6.7425666 3.9576516 1.2532607
-6.6441483 3.9872956 1.2458889
-6.5487204 3.9793732 1.2444186
-6.4705291 3.9451914 1.2459548
-6.7470303 4.053803 1.2485604
-6.680511 4.0395846 1.2485853
-6.5126667 4.0026665 1.2763333
-6.7329621 4.1253333 1.2745926
-6.6825004 4.1219287 1.2832143
-6.802 5.2729998 1.243
-6.7453008 5.2637334 1.2372501
-6.6815157 5.2695155 1.2294848
-7.3594999 5.3937502 1.27675
-7.2502871 5.373857 1.2722858
-7.152667 5.3769164 1.2803334
-7.0456505 5.3688998 1.2798502
-6.9536929 5.3432307 1.2828462
-6.8535624 5.3184376 1.2839999
-6.7648401 5.3434806 1.25096
-6.6660662 5.3482823 1.2504623
-7.5427179 5.4442501 1.2483591
-7.4658842 5.4556289 1.2540855
-7.3462386 5.4382396 1.27272
-7.2545385 5.4383082 1.2714617
-7.1450624 5.4615626 1.2743126
-7.0594997 5.4204998 1.2737501
-6.9312863 5.4387145 1.2792859
-6.8642001 5.4665999 1.2789999
-6.7499261 5.4418335 1.2468519
-6.6476569 5.4506173 1.2490293
-7.5664325 5.5442548 1.2494903
-7.4751348 5.5496945 1.2435086
-7.3442101 5.5477362 1.2696319
-7.2401676 5.5463328 1.2701668
-7.1491876 5.5371876 1.2737501
-7.0384202 5.5637894 1.2764736
-6.9416876 5.5638127 1.2770625
-6.850636 5.5581818 1.2796364
-6.7304897 5.5446944 1.2480204
-6.6456871 5.5424571 1.256853
-7.6090002 5.6929998 1.2539999
-7.5565081 5.6560006 1.2400351
-7.4699993 5.6481986 1.2414181
-7.3379407 5.6597061 1.2674118
-7.2290006 5.662231 1.2733847
-7.1481667 5.677166 1.2781667
-7.0540476 5.6589522 1.2810477
-6.9604006 5.6518002 1.2844501
-6.8498082 5.6330395 1.2851537
-6.7461114 5.6241107 1.286
-6.6546249 5.6077499 1.2874999
-7.5366392 5.7376795 1.2634599
-7.4612913 5.7299681 1.2694839
-7.3502507 5.7268124 1.2791251
-7.2494507 5.7103496 1.2762002
-7.1643333 5.7014999 1.2880001
-6.7243533 3.7941182 1.3437648
-6.5400333 3.7741888 1.3505652
-6.4914002 3.77915 1.3495499
-6.7459497 3.8474634 1.3504634
-6.6986666 3.8026667 1.3656667
-6.5113006 3.8260999 1.3559998
-6.4835415 3.8516459 1.3481877
-6.7331018 3.9558201 1.3480769
-6.63941 3.9930456 1.3389546
-6.5453391 3.9850399 1.3499398
-6.4702272 3.9464304 1.3506558
-6.7308831 4.0422091 1.3410232
-6.667654 4.0203075 1.3462309
-6.5816665 4.0006666 1.368
-6.7418084 4.1552057 1.3410146
-6.676373 4.1542797 1.3469468
-6.7310257 4.2342248 1.36745
-6.6787376 4.2310529 1.3757106
-6.7589998 5.2940001 1.3015
-7.1365004 5.3829999 1.3065
-7.0414996 5.3657503 1.3052499
-6.9507146 5.3444295 1.307143
-6.8397498 5.3355002 1.3115
-6.7363014 5.3514004 1.3331667
-6.6723533 5.3741288 1.3281612
-7.4546671 5.4298334 1.3058333
-7.3610001 5.4229999 1.304
-7.2550001 5.4029999 1.306
-6.7460003 5.4443183 1.3708183
-6.6556072 5.4487939 1.346598
-7.6199999 5.5209999 1.33
-7.5579267 5.5504527 1.3541322
-7.4882941 5.5740004 1.3694705
-6.7314401 5.5612798 1.3727199
-6.6331706 5.5503082 1.3488181
-7.5709019 5.6451941 1.3462925
-7.4774852 5.6553144 1.3649715
-7.3309999 5.6680002 1.3049999
-7.2789998 5.684 1.3
-7.1205001 5.6940002 1.301
-7.0429997 5.6771436 1.3074286
-6.9587145 5.6614289 1.3065715
-6.8505001 5.6508331 1.3038335
-6.7238669 5.6454673 1.3478223
-6.6377873 5.6448421 1.3517778
-6.5963335 5.6686668 1.3826668
-7.5515637 5.7519631 1.3453456
-7.4612207 5.755815 1.3436441
-7.3787498 5.7214999 1.3032501
-7.2145 5.7020001 1.3055
-6.7174287 5.7185717 1.3900001
-6.6553202 5.716681 1.3835999
-6.5840001 5.7059999 1.399
-7.4618893 5.8364449 1.3684669
-6.5191879 3.8308749 1.4512501
-6.4867043 3.8505058 1.4513739
-6.7366042 3.9470789 1.4482632
-6.6412501 3.9956248 1.4346251
-6.5398841 3.9859066 1.4492557
-6.4714742 3.9478383 1.4490285
-6.7214494 4.0153103 1.4491378
-6.6578927 4.0068569 1.4545715
-6.5826364 4.0030909 1.4385456
-6.7262726 4.1809998 1.4172728
-6.6815996 4.1795001 1.4107
-6.7359796 4.2558436 1.4419607
-6.6708741 4.2584805 1.4416708
-6.7230539 4.3419456 1.4533784
-6.6691084 4.3408003 1.4676727
-6.7203331 4.4106669 1.4860001
-6.6847501 4.40275 1.4842501
-6.7322774 5.469111 1.4268333
-6.6653867 5.473516 1.4275806
-7.5584002 5.5912004 1.4148
-7.4765 5.5857501 1.427
-7.23 5.5900002 1.484
-7.1616664 5.5926666 1.4799999
-7.0500002 5.5866008 1.4866
-6.9335999 5.5808001 1.4878
-6.8494167 5.5592499 1.4898334
-6.7355609 5.5526137 1.4560269
-6.6416459 5.5496259 1.4495957
-7.5597849 5.651432 1.4425136
-7.4716063 5.6540613 1.4412423
-7.3346825 5.6490912 1.4852729
-7.248827 5.6441369 1.4844828
-7.1585836 5.6444998 1.4856251
-7.0553327 5.6595559 1.4860557
-6.9580002 5.64925 1.4880002
-6.8625002 5.6690001 1.48875
-6.7223577 5.6494527 1.4514998
-6.6233654 5.6506557 1.4502586
-6.5970001 5.6676669 1.4343333
-7.5602612 5.7497621 1.4434785
-7.4642997 5.7474008 1.4421835
-7.3552499 5.7465506 1.4804497
-7.2495837 5.742959 1.4816669
-7.1509995 5.7539358 1.4833547
-7.0466104 5.7558336 1.4859444
-6.9295998 5.7684999 1.4865
-6.8555007 5.7517147 1.4879286
-6.7207794 5.7473416 1.4599023
-6.6360254 5.7465711 1.4477929
-6.5955 5.7453895 1.456389
-7.5422382 5.8523045 1.4480433
-7.4526 5.8483081 1.4452363
-7.3587656 5.8588834 1.4804705
-7.2614174 5.8591666 1.4832085
-7.1584778 5.8599133 1.4863044
-7.0464783 5.8361306 1.4869567
-6.9508948 5.8270001 1.4883158
-6.8564291 5.8157864 1.490857
-6.7230005 5.8150001 1.479
-6.6443453 5.815793 1.479724
-6.5840001 5.8234997 1.4909999
-7.4594631 5.9411855 1.4638331
-7.3585005 5.9093752 1.490625
-7.2874999 5.9049997 1.4915
-6.6649499 3.8076999 1.5566
-6.4846563 3.8537762 1.546329
-6.7372499 3.9522998 1.5508749
-6.6350002 3.993 1.5145
-6.5376554 3.9885001 1.5462186
-6.4718308 3.9517791 1.548463
-6.7190838 4.0175004 1.5445001
-6.6535206 4.0092402 1.5447598
-6.573144 4.0042858 1.5564287
-6.494 4.0019999 1.52
-6.7210002 4.2966666 1.5103334
-6.6863337 4.29 1.5093334
-6.7283082 4.3616152 1.5318078
-6.6670003 4.3580179 1.5358502
-6.7228665 4.4489779 1.5553555
-6.6611729 4.4463458 1.5600619
-6.7097774 4.5214448 1.5822222
-6.6745 4.5126877 1.57775
-6.698 5.4879999 1.501
-7.1315002 5.598 1.5025001
-7.0310001 5.579 1.5039999
-6.9401436 5.574286 1.5105714
-6.8492498 5.5584998 1.5098751
-6.7432947 5.5581765 1.5173528
-6.6579657 5.5674143 1.5211033
-7.5299997 5.6617498 1.50825
-7.4569998 5.6616669 1.5073335
-7.3305721 5.6348577 1.5067143
-7.242909 5.6268182 1.5103637
-7.1636667 5.6413336 1.5243334
-7.0289998 5.6079998 1.523
-6.7225456 5.6512733 1.5737274
-6.6320205 5.6448226 1.547479
-7.5486541 5.7614226 1.5376923
-7.4702005 5.7756 1.5673
-6.9980001 5.7680001 1.5319999
-6.8280001 5.7989998 1.522
-6.7189336 5.749867 1.5656
-6.6233082 5.7465849 1.5513194
-6.5949554 5.7637277 1.5508639
-7.5449767 5.8500247 1.5529511
-7.4504147 5.8547583 1.5649312
-7.3613334 5.8863335 1.5150001
-7.2443333 5.8910003 1.5040001
-7.1591663 5.8760004 1.5105834
-7.0529165 5.8604164 1.5080001
-6.9471674 5.8425002 1.5088334
-6.8420997 5.8264003 1.5097001
-6.7439094 5.8157272 1.5227274
-6.6440825 5.8507452 1.5444183
-6.5897679 5.8478665 1.5602669
-7.5312562 5.9493332 1.5469999
-7.4376941 5.9514194 1.5460323
-7.3690004 5.9235001 1.5190001
-7.2725 5.9034996 1.5005
-6.7164998 5.9460001 1.5934999
-6.648818 5.9246583 1.5743636
-6.5895 5.9242501 1.58525
-7.3855004 6.0244999 1.5465
-7.4656253 6.107625 1.589
-6.6501856 3.8096974 1.6533954
-6.7377439 3.9442048 1.6535641
-6.6440001 3.9920001 1.652
-6.4759526 3.9527497 1.6500001
-6.7207499 4.0201783 1.6546426
-6.6482387 4.0138335 1.6452141
-6.556035 4.0064821 1.6543105
-6.4744005 4.0064006 1.6494
-6.7171435 4.4703336 1.6254286
-6.6653867 4.4670224 1.6274318
-6.7173605 4.5457411 1.65238
-6.6579466 4.5484638 1.6491166
-6.7089 4.6165004 1.6782
-6.6586156 4.6300774 1.6828464
-6.7175007 5.6706672 1.6085
-6.645524 5.6781902 1.6177143
-7.1100001 5.7940001 1.692
-7.0879998 5.7839999 1.692
-6.7132783 5.7396111 1.6439444
-6.6337471 5.7538524 1.6486106
-6.5934172 5.7735839 1.6300833
-7.5368934 5.864428 1.6351432
-7.454555 5.8642039 1.6381298
-7.342 5.8787498 1.6873751
-7.2449169 5.8721671 1.6905
-7.1461582 5.8563161 1.6907895
-7.0426874 5.8635626 1.6942501
-6.9432678 5.8456669 1.6941336
-6.8478751 5.8356252 1.694625
-6.7030001 5.8099999 1.6735001
-6.6604304 5.8470774 1.6499383
-6.5905576 5.8527317 1.6488079
-7.5328636 5.9465909 1.6459999
-7.4364448 5.9469719 1.6493193
-7.3517218 5.9484448 1.6894444
-7.0556998 5.94525 1.69165
-6.9419093 5.9510908 1.6942729
-6.8479996 5.9367776 1.6941111
-6.7420001 5.9587502 1.661
-6.6559124 5.9510498 1.6469611
-6.5868936 5.9516606 1.6523923
-7.5187778 6.0431552 1.6488224
-7.4260936 6.0467381 1.650723
-7.0473928 6.0577865 1.6912858
-6.9577279 6.0420914 1.6922274
-6.8583121 6.046813 1.6966249
-6.7600002 6.0177498 1.6821251
-6.6402082 6.0315428 1.6723752
-6.5838103 6.0296664 1.6826667
-6.724278 4.0239716 1.7546668
-6.6502552 4.0175643 1.7487946
-6.557054 4.0077114 1.7506843
-6.4759994 4.0022001 1.7336
-6.7073336 4.5770001 1.7296666
-6.662735 4.5759411 1.7214707
-6.7142339 4.6571331 1.7422001
-6.6480861 4.6522284 1.7468573
-6.7140002 4.7178001 1.7636
-6.6496668 4.7336664 1.7741108
-6.8175721 5.7931428 1.7118572
-6.7355003 5.7832999 1.7147999
-6.6589999 5.7743335 1.7176667
-7.4419999 5.8940001 1.71
-7.3534999 5.8775005 1.7037501
-7.2259998 5.8631668 1.7143333
-7.1391006 5.8466001 1.7087001
-7.0610003 5.8462 1.7206
-6.9512501 5.8144999 1.714
-6.8521338 5.8108673 1.7122002
-6.747889 5.8208885 1.7129999
-6.6375327 5.8429337 1.7541777
-6.5887275 5.8752728 1.7344092
-7.519412 5.9666481 1.7307646
-7.4582863 5.9369998 1.7334287
-7.3189998 5.901 1.727
-6.888 5.9070001 1.7
-6.7380004 5.9471431 1.7023572
-6.6558504 5.9527001 1.7631
-6.5775828 5.9516659 1.74735
-7.4392104 6.0462627 1.7795264
-7.0237141 6.0970006 1.7092859
-6.9470582 6.0861173 1.7132941
-6.8475299 6.0715299 1.7134117
-6.7535257 6.0462637 1.716
-6.6502557 6.0579801 1.7451376
-6.5761709 6.051723 1.7502241
-7.1471672 6.1167502 1.7121667
-7.0585999 6.1076999 1.7131001
-6.9819999 6.1020002 1.704
-6.7030001 6.1465001 1.7865
-6.6357837 6.1349344 1.7653694
-6.5795155 6.129086 1.7716286
-6.7390013 4.0506196 1.8612961
-6.5460544 4.0193453 1.8578365
-6.4761248 4.0122499 1.8629999
-7.3463049 4.1894722 1.8680558
-7.2559037 4.1758466 1.8729231
-7.1484227 4.1527996 1.8722003
-7.0493779 4.1346555 1.8713446
-6.9622803 4.1170459 1.8765583
-6.8767338 4.1080003 1.8782666
-7.549067 4.2374425 1.8684919
-7.4527979 4.2168303 1.8704746
-7.3622379 4.2077146 1.8708575
-7.8217711 4.3527856 1.8464299
-7.7821822 4.3304553 1.8576365
-7.921104 4.4145269 1.8466315
-7.7954998 4.4440002 1.8139999
-6.660778 4.6846113 1.8156667
-6.7410002 4.7519999 1.801
-6.6407747 4.757462 1.8405163
-6.6457257 4.8386536 1.8631686
-6.5999999 4.8969998 1.898
-6.6669998 4.901 1.886
-7.6710391 5.1502886 1.8495963
-7.7493649 5.2752733 1.8472906
-6.6422505 5.8875003 1.81475
-6.6508608 5.9525828 1.8464445
-6.5815811 5.9667745 1.8391613
-7.5117693 6.0636926 1.8215386
-7.4391623 6.0741086 1.8315675
-7.0713339 6.072 1.8943332
-6.9615002 6.073 1.899
-6.6583204 6.0495358 1.8550584
-6.5663424 6.049087 1.8496859
-6.643899 6.1522384 1.8450338
-6.5640807 6.152 1.8480113
-6.7080002 6.2080002 1.893
-6.6303716 6.2339072 1.8603024
-6.5706935 6.2364478 1.8717346
-6.9400001 4.0939999 1.921
-6.6484532 4.0303397 1.951038
-7.4324999 4.1989999 1.9095
-7.3486357 4.1886368 1.9083637
-7.2480001 4.1756926 1.9075384
-7.1543336 4.1516113 1.9091666
-7.049417 4.1340833 1.9093751
-6.9491539 4.1123071 1.9123847
-6.8636665 4.1086669 1.9086666
-7.6398883 4.2521114 1.9046667
-7.5465999 4.2422996 1.9047002
-7.4599419 4.2205291 1.9068824
-7.3559999 4.2060003 1.9133333
-7.829299 4.3599739 1.9478698
-7.779572 4.3411431 1.9641429
-7.9202337 4.4104671 1.9537666
-7.8860722 4.4114289 1.9498572
-6.7010002 4.7930002 1.903
-6.6638336 4.7845001 1.9135001
-6.6408339 4.859333 1.9336923
-6.599 4.8429999 1.905
-6.7030005 4.9100003 1.939
-6.6338668 4.9432592 1.9560864
-6.5974998 4.9360003 1.9665
-7.7114997 5.0852499 1.9022499
-7.6826005 5.0820003 1.9108
-6.640801 5.0104003 1.9844
-7.8218932 5.162179 1.9478574
-7.7458701 5.1383896 1.953922
-7.6601272 5.1582174 1.9390545
-7.8176627 5.2406335 1.9522943
-7.7561111 5.2803497 1.948889
-7.6519704 5.2496619 1.9585145
-7.7527499 5.3057499 1.97875
-7.6475 5.3103747 1.992625
-6.6485 5.98 1.911
-6.5910001 5.9980001 1.913
-7.0374002 6.0742002 1.9139999
-6.9471664 6.0630555 1.9089445
-6.8318577 6.0405717 1.9119999
-6.7465453 6.0347271 1.9148182
-6.6458893 6.0531549 1.9399111
-6.5738387 6.0625963 1.9397839
-6.949616 6.1636147 1.9049232
-6.8577776 6.1302223 1.9062222
-6.7606368 6.1628184 1.9090002
-6.6597896 6.1360526 1.9357368
-6.5540142 6.1533461 1.9504868
-6.8607082 6.2554178 1.9062083
-6.7538662 6.2731338 1.912167
-6.6432705 6.2619739 1.9392973
-6.5479412 6.2545238 1.9487623
-6.751667 6.3033333 1.9296668
-6.6231079 6.3477302 1.967351
-6.5578876 6.3420148 1.9639304
-6.5574503 4.0175099 2.0521173
-7.8241587 4.3548574 2.0461426
-7.7963333 4.3481669 2.0408335
-7.928237 4.4113951 2.0461581
-7.8678522 4.4079261 2.0517778
-6.6356659 4.9662499 2.0289791
-6.5971999 4.9778004 2.0128
-6.7030001 5.027 2.089
-6.6321282 5.0470681 2.0481877
-6.5946159 5.0521922 2.0597694
-7.8213224 5.1689839 2.0481613
-7.7448874 5.1441231 2.0528004
-7.6883845 5.1719484 2.044282
-6.6353326 5.117909 2.0784545
-6.593667 5.1136665 2.0906668
-7.8177223 5.2410293 2.0501912
-7.7527747 5.2799497 2.0522499
-7.6597133 5.2495308 2.046303
-7.7648335 5.308167 2.0401666
-7.6407938 5.3454342 2.0545061
-7.5928574 5.3614297 2.0695715
-7.6330662 5.4148669 2.0846667
-7.592 5.4190001 2.0780001
-6.592 6.086 2.0009999
-6.6419997 6.1532273 2.0353639
-6.5645151 6.1620584 2.0336573
-6.6361761 6.2507648 2.0517943
-6.5394912 6.2522931 2.0506463
-6.6215839 6.3481226 2.0470729
-6.5356107 6.3528433 2.0504024
-6.6258183 6.4333038 2.0529394
-6.5511827 6.4443007 2.0562258
-6.5667143 6.5080004 2.0928571
-6.632462 4.0773458 2.1204612
-6.5586543 4.0443377 2.150382
-6.4836802 4.0162001 2.1553998
-6.6459002 4.1399283 2.1635716
-6.5828919 4.1261077 2.171536
-7.8172097 4.3426523 2.1522779
-7.7916002 4.3583999 2.141
-7.9313588 4.4154863 2.147923
-7.8559685 4.4081616 2.1491935
-6.6359997 5.0699687 2.1168747
-6.5961666 5.0890002 2.1173334
-7.8186502 5.1742253 2.1500747
-7.7434344 5.149085 2.1527448
-7.6924553 5.1672049 2.1430454
-6.6396241 5.1511874 2.1443963
-6.5894036 5.1525779 2.1469808
-7.8163319 5.2436419 2.1507051
-7.7438154 5.2837958 2.156163
-7.6848607 5.2415967 2.1478243
-6.6315255 5.2315741 2.1726499
-6.5878587 5.2198577 2.1806428
-7.7595 5.3106666 2.1300001
-7.6363339 5.368259 2.130259
-7.5945721 5.3778577 2.1212857
-7.6355839 5.4465609 2.1456578
-7.5865417 5.4471087 2.158865
-7.6222858 5.5174289 2.1806428
-7.5892506 5.5171251 2.1821251
-6.7469997 6.2390003 2.1125
-6.6399093 6.2413635 2.122273
-6.555758 6.2593341 2.1319094
-6.7394004 6.3580999 2.1136
-6.6298676 6.3525333 2.1292667
-6.5280762 6.3520913 2.1478481
-6.6335936 6.4581566 2.140281
-6.5274754 6.4514647 2.1471431
-6.4945998 6.4598002 2.1495998
-6.6175561 6.5304441 2.1651111
-6.5419674 6.5453234 2.1549835
-6.4974999 6.5369997 2.1935
-6.5408182 6.6118188 2.1919091
-6.6147499 4.0402503 2.2414999
-6.5599465 4.0506392 2.2479994
-6.4798713 4.009903 2.2457094
-6.7302876 4.1534395 2.2463336
-6.6422791 4.1862779 2.2188888
-6.5679889 4.1520085 2.2503426
-6.71872 4.2341399 2.26194
-6.6519823 4.2379456 2.2592542
-6.5792952 4.2327843 2.2724903
-7.8187461 4.3504457 2.2488678
-7.7948747 4.3570004 2.2376249
-7.9318237 4.4174447 2.2477779
-7.8571844 4.4098949 2.2537367
-7.7954998 4.4025002 2.2909999
-7.822257 5.1758852 2.2522287
-7.7463279 5.1552978 2.2501976
-7.6889739 5.1721258 2.2513752
-6.6298342 5.1762776 2.2135
-6.5938334 5.1920004 2.2098334
-7.8176732 5.2429152 2.2495177
-7.7482219 5.2843337 2.2470448
-7.6839113 5.2447495 2.2482793
-6.6367049 5.2592678 2.2394743
-6.5859852 5.2593908 2.2411091
-7.7658181 5.3028183 2.2674546
-6.6289296 5.3400354 2.2628217
-6.5835004 5.334455 2.2692502
-7.624238 5.4723339 2.2186666
-7.5818238 5.4774117 2.2243531
-6.6140003 5.4040003 2.2904999
-7.6234608 5.5508618 2.2475235
-7.5719161 5.5500827 2.2515838
-7.6122861 5.6172857 2.277143
-7.5775261 5.6262631 2.2798419
-6.6161251 6.3661251 2.2325001
-6.5446115 6.3623333 2.229389
-6.5332713 6.4503722 2.2494404
-6.4958749 6.4691253 2.243875
-6.5427108 6.5554433 2.2489622
-6.4929671 6.5523868 2.2524195
-6.5434642 6.6477852 2.2461965
-6.4919434 6.6489725 2.2693143
-6.5374551 6.7176814 2.2868636
-6.4990001 6.711 2.289
-6.5082002 3.9329998 2.3682001
-6.4769287 3.9501226 2.3466458
-6.6277781 4.0470004 2.3626666
-6.5556502 4.0397668 2.344667
-6.4744616 4.0095773 2.3509617
-6.7248945 4.1505718 2.3503392
-6.6959996 4.1700001 2.3225
-6.5634151 4.1543169 2.3477731
-7.8518295 4.2800908 2.3528833
-6.7191615 4.2529511 2.3463709
-6.6476521 4.2794785 2.3211737
-6.5591769 4.2516389 2.3512964
-7.8195705 4.3477974 2.3492131
-7.7961249 4.3590002 2.3470001
-6.7141662 4.33112 2.3649526
-6.6511841 4.3363333 2.3621998
-6.5689044 4.3280392 2.3687115
-7.928369 4.4167628 2.3471842
-7.8608871 4.4135919 2.3482499
-7.8192062 5.1803446 2.3495171
-7.7433085 5.1566453 2.3509042
-7.6899657 5.177896 2.347517
-7.8188529 5.2452455 2.3505805
-7.737483 5.2787929 2.3426898
-7.686779 5.2524581 2.3505087
-6.6177502 5.2870002 2.3085001
-6.5949998 5.2880001 2.303
-7.7563109 5.3051038 2.3552065
-7.6929998 5.3000002 2.382
-6.6289997 5.3598003 2.3336
-6.5802417 5.3647237 2.3342412
-6.6272225 5.4382749 2.35869
-6.5763206 5.4431105 2.3614998
-7.6118331 5.5803332 2.3188334
-7.5739331 5.5750008 2.3212001
-6.6257997 5.5084 2.3894002
-6.579 5.5135002 2.3921669
-7.6101665 5.6495838 2.3437085
-7.5615954 5.6547971 2.3510878
-7.605 5.6999998 2.365
-7.5682955 5.7254086 2.3752222
-6.6356673 6.4673338 2.3116667
-6.5391822 6.4725919 2.3289549
-6.4790001 6.487 2.3050001
-6.63625 6.523375 2.3283751
-6.5359492 6.5468206 2.3376412
-6.4905157 6.562788 2.3518789
-6.5606871 6.6578441 2.3388748
-6.4857459 6.6483893 2.3488958
-6.5464878 6.7501574 2.3444741
-6.4809165 6.7455983 2.3546808
-6.6069999 6.816 2.3800001
-6.5338135 6.829875 2.3807814
-6.4870005 6.8357501 2.3810835
-6.5289011 3.8414929 2.4524932
-6.4891467 3.8594995 2.4510417
-6.5096254 3.936125 2.4315
-6.4783106 3.9520674 2.4492624
-6.7249999 4.035872 2.4541285
-6.6474762 4.0404744 2.4530249
-6.5509558 4.0303869 2.4549088
-6.4725461 4.0130606 2.444303
-6.7138119 4.1672816 2.4354689
-6.6482491 4.1521249 2.4523752
-6.5693116 4.1719999 2.430022
-7.8507485 4.2835555 2.4509363
-6.7141833 4.2473817 2.4496911
-6.684 4.2557497 2.4457502
-6.5559158 4.2519445 2.449944
-7.8257184 4.343256 2.4507921
-7.7995 4.3929996 2.441
-6.7129474 4.3464389 2.4478951
-6.6643596 4.3758001 2.4256399
-6.5523171 4.3523979 2.4475837
-7.9285684 4.4182506 2.4532728
-7.8557448 4.4148836 2.44786
-6.7103086 4.4180002 2.4605
-6.6599727 4.4342747 2.4653561
-6.566021 4.4256535 2.4714999
-7.8166947 5.1821394 2.4521668
-7.74225 5.1613836 2.4485767
-7.688056 5.1820555 2.435889
-7.818861 5.2493305 2.4509749
-7.7262669 5.2755003 2.4471338
-7.6879187 5.2480283 2.449712
-7.8096671 5.3083334 2.4886668
-7.760179 5.3088217 2.4496431
-7.6989999 5.3024998 2.45
-6.5999999 5.3990002 2.401
-6.6262965 5.4643703 2.4261479
-6.5775414 5.4662433 2.4288383
-6.6210022 5.5453062 2.4514029
-6.5697145 5.546536 2.4517026
-7.5633688 5.6772113 2.4185262
-6.6114998 5.6138749 2.4859998
-6.5730004 5.6190767 2.4844232
-7.6146669 5.751667 2.4100001
-7.5579028 5.7567611 2.4462497
-7.5507998 5.8297744 2.4755504
-6.6040001 6.592 2.4414999
-6.5406003 6.5710673 2.4201999
-6.49125 6.5852504 2.41625
-6.6009998 6.6230001 2.464
-6.5525002 6.659595 2.4528751
-6.4855714 6.6596131 2.4446528
-6.5617647 6.7505107 2.451638
-6.4764371 6.751296 2.4518874
-6.543077 6.8556466 2.4416924
-6.4751468 6.8510122 2.4480605
-6.7010002 3.7079999 2.5610001
-6.6675 3.72 2.5254998
-6.7330265 3.8662906 2.5439475
-6.6500497 3.846925 2.5519998
-6.5375166 3.8385715 2.5501101
-6.4900198 3.8595924 2.5505557
-6.74189 3.9506891 2.5468442
-6.5071249 3.9407499 2.5495
-6.4767585 3.9529388 2.5482016
-6.7249279 4.0395365 2.5556092
-6.6492543 4.047298 2.5489998
-6.5438995 4.0335002 2.5502398
-6.4740596 4.0176177 2.551264
-6.6700001 4.1880002 2.5710001
-7.8488784 4.2847018 2.5440526
-7.79 4.2946672 2.5550001
-6.7076826 4.2610912 2.5360909
-6.670711 4.253315 2.5467629
-6.565917 4.2689824 2.534441
-7.8240194 4.3485012 2.5501783
-7.7854996 4.3649998 2.54075
-6.7083058 4.3511229 2.5439997
-6.6958227 4.3627057 2.5578239
-6.5473728 4.3491426 2.5495431
-7.930068 4.4224777 2.5528405
-7.8603263 4.4192042 2.5514491
-6.7063007 4.4455848 2.544698
-6.6706057 4.4746661 2.5391042
-6.5473742 4.4510393 2.5475781
-6.7076254 4.5263748 2.5741248
-6.6584001 4.533124 2.5691075
-6.5582395 4.520957 2.5714786
-7.8197198 5.1819687 2.5502501
-7.7405767 5.1652389 2.5481529
-7.6953335 5.1854162 2.5415001
-7.819859 5.2533298 2.5491412
-7.7123003 5.2506499 2.5519001
-7.6895208 5.2542539 2.5469015
-7.753859 5.3094993 2.5506999
-7.6908998 5.3039999 2.5550001
-6.6191864 5.5676246 2.519125
-6.5751152 5.5707698 2.5208848
-6.6125002 5.6519785 2.5459583
-6.5651846 5.6545362 2.5476601
-7.5536923 5.7847695 2.5135388
-6.6087999 5.7193999 2.579
-6.5656762 5.7293239 2.5757568
-7.5401211 5.8581629 2.5431011
-7.4953337 5.8676672 2.5510001
-7.5374203 5.9296794 2.5724597
-7.493 5.9183331 2.5856667
-6.6539998 6.6659999 2.51
-6.545445 6.6786666 2.5304446
-6.4871674 6.6868339 2.5130002
-6.6504712 6.7494116 2.5428824
-6.5648189 6.7524543 2.5295
-6.4738889 6.7594442 2.5437601
-6.7530475 6.8534756 2.5341904
-6.6503 6.8576503 2.5373502
-6.5581427 6.8557849 2.5266426
-6.4642453 6.8528252 2.5505946
-6.7409449 3.8721662 2.6455002
-6.6514497 3.8518579 2.6506937
-6.5306573 3.8419998 2.6504436
-6.488821 3.8682055 2.646384
-6.7434444 3.9537218 2.6500838
-6.5084543 3.9550908 2.6437271
-6.4815373 3.9509358 2.6496007
-6.7229781 4.0474319 2.6492271
-6.6548343 4.0536108 2.6467223
-6.5553436 4.0411458 2.6481993
-6.4736733 4.0245194 2.6515384
-7.8558464 4.2871952 2.6443262
-6.7020001 4.296 2.6010001
-6.5840001 4.2969999 2.602
-7.8299699 4.3423285 2.6490002
-7.7883334 4.3598332 2.6611669
-6.7078824 4.3540001 2.6258826
-6.6689816 4.3565965 2.6463654
-6.555017 4.3676844 2.6361222
-7.9316039 4.4251046 2.6490207
-7.8614311 4.4246478 2.648314
-6.7046671 4.4516292 2.6396298
-6.6926303 4.4479351 2.655391
-6.5400538 4.447845 2.6517098
-6.7047281 4.5340004 2.6547272
-6.6765351 4.5582685 2.6410606
-6.5388522 4.5480781 2.6462698
-6.5 4.5804996 2.6669998
-6.6606731 4.6267405 2.6670172
-6.5561171 4.6190929 2.6749535
-7.8185334 5.1834345 2.6466334
-7.7434044 5.1720486 2.6466103
-7.6927152 5.1787143 2.6468573
-7.8215423 5.2489634 2.6515558
-7.7141008 5.2493496 2.6455498
-7.6914458 5.2573552 2.6445558
-7.8101249 5.3060002 2.64625
-7.7546806 5.3115721 2.6490896
-7.6943336 5.3053336 2.6590002
-6.6009998 5.6750002 2.6070001
-6.5782862 5.6825004 2.6139998
-6.6076198 5.756238 2.632143
-6.5563097 5.7527528 2.6384821
-7.5170002 5.8955002 2.6064999
-6.6061664 5.8216667 2.6693332
-6.560216 5.8340163 2.6688833
-7.5310926 5.9542303 2.6384153
-7.4918423 5.9710627 2.6417813
-7.5297422 6.0290861 2.6658854
-7.4881363 6.0302272 2.6758635
-6.533 6.7934999 2.602
-6.4818578 6.7837148 2.6145716
-6.5494447 6.8660369 2.6562221
-6.4609818 6.8609228 2.6397889
-6.7397842 3.8747036 2.7484596
-6.6537313 3.8571539 2.7497311
-6.536891 3.848912 2.7468529
-6.4925642 3.8672044 2.7511027
-6.7436562 3.9471424 2.7531142
-6.5108662 3.9419334 2.7514005
-6.4812922 3.9556839 2.7482584
-6.724762 4.0476422 2.7479284
-6.6525712 4.0570712 2.7494287
-6.5522823 4.0501246 2.7489686
-6.4736991 4.0212989 2.7453399
-7.8308229 4.3406453 2.7487261
-7.7881999 4.3737998 2.7588
-6.6731672 4.3899999 2.7188337
-7.9342437 4.4264693 2.7472243
-7.8625007 4.4260221 2.7508049
-6.7084999 4.4775 2.7445002
-6.6699147 4.4571724 2.7442851
-6.5496821 4.4634767 2.7378094
-6.7053332 4.5351667 2.724
-6.689044 4.5513821 2.7535
-6.5286975 4.5482359 2.7507832
-6.723 4.66225 2.7389998
-6.6691275 4.6574502 2.7392962
-6.5325766 4.6508641 2.7479749
-6.4970002 4.697 2.79
-6.7045002 4.7309999 2.789
-6.6556892 4.7236891 2.7704003
-6.5506754 4.7200499 2.7757499
-7.8159733 5.1839733 2.7476218
-7.740654 5.1722507 2.7516665
-7.6975002 5.1852503 2.74475
-7.8237867 5.2499876 2.7492378
-7.7105174 5.244277 2.7492068
-7.6943674 5.2543001 2.744
-7.8126369 5.3065457 2.7584546
-7.7535992 5.313508 2.7490771
-7.6953335 5.3056669 2.7450004
-6.6059999 5.789 2.704
-6.5667496 5.7947502 2.7205
-6.6142864 5.8590002 2.7174287
-6.5562878 5.8627634 2.7328136
-6.487 5.882 2.779
-7.5209999 5.9899998 2.701
-7.4934998 5.9959998 2.7045
-6.6142864 5.9278574 2.7520001
-6.5526743 5.9410391 2.761909
-7.5262566 6.0584192 2.7361162
-7.4834728 6.0642447 2.7402453
-6.5634999 6.0102496 2.7952499
-7.5218396 6.1335163 2.7644513
-7.4761863 6.1362553 2.7695122
-7.5120001 6.2090001 2.7939999
-6.5474 6.8633995 2.7268
-6.7330723 3.8751209 2.8505361
-6.6449547 3.8599329 2.8491778
-6.5339751 3.8534374 2.8485806
-6.491961 3.8673077 2.8444617
-6.7435536 3.948915 2.8537869
-6.5103741 3.9380627 2.8466876
-6.476356 3.9541452 2.8522105
-6.7313151 4.047255 2.8540983
-6.6535559 4.0632219 2.8493111
-6.5505233 4.0536194 2.8499525
-6.4720531 4.0303063 2.8538671
-6.6586666 4.1156669 2.8916669
-7.834825 4.3371921 2.8506317
-7.77 4.3699999 2.8
-7.9353218 4.4264235 2.8476775
-7.8595519 4.4283948 2.8486578
-6.6512003 4.4804001 2.8210001
-6.7249999 4.5120001 2.8180001
-6.6631713 4.5538955 2.845737
-6.5419211 4.5623021 2.8363016
-6.680346 4.6483459 2.8484037
-6.5210886 4.6492162 2.8496666
-6.4970002 4.697 2.8840001
-6.7372503 4.7589998 2.835
-6.6644917 4.7528348 2.8422089
-6.5310478 4.7540007 2.8469243
-6.4963336 4.7511115 2.8551111
-6.7344999 4.8080001 2.8710001
-6.6461759 4.8272648 2.8731174
-6.5509524 4.822372 2.8801157
-6.4990001 4.8109999 2.8729999
-7.8159995 5.1885505 2.8464003
-7.737792 5.176096 2.844835
-7.6973338 5.1923332 2.8270001
-7.8254657 5.2495704 2.8499761
-7.7091818 5.2453861 2.8577278
-7.6952267 5.254591 2.8456364
-7.813333 5.3099165 2.8435836
-7.7499814 5.3186107 2.8522217
-7.697 5.316 2.8570001
-6.6170001 5.9885001 2.8080001
-6.5495777 5.9617558 2.8286221
-7.4790001 6.0895 2.8105001
-6.5510654 6.0445671 2.8564482
-7.5150499 6.1622 2.83355
-7.4722333 6.1621785 2.8333039
-6.550693 6.1137691 2.8877697
-7.5156093 6.2267389 2.8629127
-7.4679484 6.241549 2.8679378
-7.507 6.316 2.8870001
-7.461 6.3070002 2.8915
-6.7326975 3.8798182 2.9436965
-6.6467438 3.8627448 2.9503624
-6.5352192 3.8545101 2.946399
-6.4897661 3.8724 2.9498663
-6.8093328 3.9760001 2.9862225
-6.7641807 3.9481816 2.9487274
-6.5050001 3.901 2.924
-6.4403973 3.9458075 2.950882
-6.3931999 3.9754002 2.9784
-6.8061996 4.0388002 2.9946001
-6.7593942 4.0630369 2.9523704
-6.6482778 4.0683608 2.9504445
-6.5418267 4.0589232 2.9504235
-6.4462996 4.0353441 2.946516
-6.3942499 4.0258751 2.9800003
-6.7365999 4.1051998 2.9656
-6.6506004 4.1181998 2.9072001
-7.8333526 4.3461938 2.952841
-7.7925 4.3535004 2.924
-7.9371448 4.4280624 2.949646
-7.851645 4.4316444 2.9482207
-7.8000002 4.4060001 2.984
-6.6533999 4.5851998 2.9280002
-6.5834999 4.5815001 2.9184999
-6.6590886 4.6555786 2.9427545
-6.5398045 4.6605735 2.9399996
-6.4970002 4.6810002 2.9200001
-6.6697564 4.7445407 2.9499464
-6.5131812 4.7435427 2.9510481
-6.4956002 4.7649341 2.9434001
-6.6501126 4.8621702 2.9393969
-6.532774 4.8550429 2.9389248
-6.4943485 4.8453264 2.9629998
-6.6424217 4.9210787 2.9706841
-6.5515223 4.9219999 2.9780865
-6.4902 4.9078002 2.9808004
-7.8152318 5.1906161 2.9506156
-7.7439995 5.1799307 2.945569
-7.6946669 5.1846666 2.9413335
-7.8262482 5.2486482 2.9478405
-7.7142448 5.2516413 2.9487362
-7.6971984 5.2620006 2.93695
-7.8157773 5.3127227 2.9636664
-7.7525449 5.320765 2.9528818
-7.691 5.3175001 2.9380002
-6.5279999 5.9829998 2.9000001
-6.5461149 6.0658288 2.9254284
-6.4910002 6.0900002 2.905
-7.5279999 6.1830001 2.9170001
-7.4505 6.1619997 2.9264998
-6.5434742 6.1488686 2.948622
-6.4961252 6.1494999 2.9506252
-7.5085831 6.2750006 2.9287498
-7.4666843 6.2701397 2.9361749
-6.5332112 6.2194214 2.9835789
-6.498333 6.2263336 2.9913335
-7.508625 6.3317499 2.9547501
-7.4617376 6.336514 2.9598944
-7.4568 6.4096003 2.9936001
0 0 0 1 0 0 0 1 0 0 0 1 0 0 0 0 0 1240 1 0 0
