ply
format ascii 1.0
comment PCL generated
element vertex 764
property float x
property float y
property float z
element camera 1
property float view_px
property float view_py
property float view_pz
property float x_axisx
property float x_axisy
property float x_axisz
property float y_axisx
property float y_axisy
property float y_axisz
property float z_axisx
property float z_axisy
property float z_axisz
property float focal
property float scalex
property float scaley
property float centerx
property float centery
property int viewportx
property int viewporty
property float k1
property float k2
end_header
2.9931335 2.8811333 0.017333334
3.0483525 2.8748288 0.027438097
3.1362853 2.8676426 0.037369046
2.9947145 2.9364052 0.046880949
3.0195787 2.9455118 0.052952617
3.1422749 2.9266248 0.070799999
3.2189999 2.9759998 0.094666675
2.253196 3.0930684 0.050725505
2.328316 3.0943158 0.081526324
2.9875717 3.033071 0.075619042
3.0165856 3.050426 0.045763321
3.1946666 3.007 0.050000004
3.2413123 3.0445621 0.049937502
2.0805562 3.1556363 0.022624999
2.1421299 3.1263602 0.054377891
2.2471952 3.1104715 0.049780518
2.333164 3.1213133 0.059671633
2.984 3.1210001 0.048
3.016937 3.1477416 0.050202962
3.2533791 3.1586206 0.04782759
2.0755255 3.2348731 0.02803389
2.1449475 3.2447867 0.052170988
2.2497995 3.2472641 0.048522305
2.3397141 3.2444355 0.058505811
2.403667 3.2313335 0.092
2.9979999 3.2449999 0.066
3.0225492 3.2522402 0.051140025
3.158792 3.2841668 0.073375002
3.2516546 3.2288091 0.055369049
3.0496216 3.3385985 0.042004518
3.1465714 3.3432653 0.044542171
3.2157998 3.3186002 0.0264
2.9918752 2.98 0.12512501
3.0428147 2.9701171 0.12909588
3.1374879 2.9642003 0.14203748
3.2324364 2.988163 0.15130907
2.187 3.0969999 0.103
2.2545455 3.0940902 0.14050001
2.3390753 3.0941875 0.15550001
2.4175 3.0939999 0.16975001
2.9922004 3.0188999 0.15710001
3.0195017 3.0436599 0.15608104
3.1484616 3.0077307 0.18607691
3.2328339 3.0204167 0.16819446
3.8860002 3.092 0.1895
3.9540296 3.0808346 0.15198061
2.174258 3.1505163 0.13091151
2.2406681 3.1206717 0.15878808
2.3487158 3.1103883 0.14867245
2.424334 3.1296113 0.16862965
3.018049 3.1494284 0.14912316
3.2457085 3.1522083 0.14395835
3.8688893 3.1517563 0.16131583
3.9151306 3.1386526 0.12098552
4.0875001 3.1193333 0.15666667
4.1355715 3.1403337 0.14209524
2.1695695 3.2365668 0.1365792
2.2470703 3.2473824 0.15237138
2.3496623 3.247391 0.14952897
2.4318862 3.2423573 0.16008328
3.0409536 3.2468591 0.14549643
3.1494212 3.2540307 0.15269879
3.2437186 3.2226474 0.15045094
3.8677845 3.2315044 0.16737379
3.9449522 3.2424412 0.1453104
4.0481272 3.2453918 0.14975199
4.1327138 3.2377005 0.13532858
3.0726001 3.3060997 0.1053
3.1305001 3.302 0.10625
2.6440001 2.9990001 0.23100001
2.7965 2.9990001 0.2385
2.8340001 2.9950004 0.24200001
2.9641666 2.9928336 0.22983333
3.0436666 2.9966667 0.23599999
3.1502728 2.9965453 0.22990912
3.2428224 2.9904222 0.24475558
3.3500001 2.9892001 0.24080001
3.4243336 2.9953334 0.23366666
2.1507556 3.0577111 0.22131112
2.2450283 3.0693052 0.22005555
2.3570483 3.0891831 0.23460975
2.4386308 3.0752316 0.2452154
2.5543332 3.032289 0.22955553
2.6474166 3.0268669 0.23235007
2.7455251 3.0201693 0.23542373
2.8487394 3.0176737 0.23813044
2.9484069 3.0329998 0.24268514
3.0346019 3.0376315 0.25099999
3.147032 3.009449 0.2519685
3.2298713 3.0121143 0.2536571
3.3584998 3.0101819 0.23759088
3.4481623 3.0151355 0.22943242
3.5486593 3.029 0.22613634
3.6494443 3.0447402 0.22470371
3.7481663 3.0610001 0.22430556
3.8539636 3.0790932 0.25070095
3.9442985 3.075851 0.24924138
4.0368996 3.0823672 0.22566669
4.1462779 3.0762224 0.20522223
2.1744001 3.1069999 0.22680001
2.2654672 3.1477759 0.23927808
2.3393693 3.1153152 0.26060006
2.4499817 3.1148133 0.25462833
2.5189657 3.1406896 0.27693102
2.995667 3.1176667 0.227
3.0196638 3.1488883 0.24858287
3.2509375 3.1608126 0.26237497
3.7717671 3.1549749 0.26985836
3.8220196 3.1398304 0.22969998
3.9920001 3.109 0.29699999
4.0447087 3.1481671 0.25145838
2.2614682 3.2371371 0.24345368
2.3487535 3.2484848 0.24910301
2.4483454 3.2470181 0.25024548
2.5285695 3.2422414 0.27155697
3.0504422 3.2298408 0.24879529
3.1492324 3.2304039 0.25066859
3.2382522 3.2279465 0.24801317
3.7772858 3.234129 0.27388573
3.8437407 3.2463059 0.24753647
3.9468393 3.2493515 0.24754959
4.0393448 3.2417974 0.24051192
4.1059999 3.2360001 0.20100001
3.0476665 2.9983335 0.35133332
3.1668 2.9971001 0.3443
3.237375 2.9894373 0.34490624
2.381 3.0968568 0.31971428
2.4601936 3.0954998 0.34604838
2.5152352 3.0965292 0.36070588
2.9949999 3.0739999 0.37650001
3.0348966 3.0408859 0.34896868
3.1458516 3.0122631 0.35007432
3.2310863 3.0137165 0.35203704
3.6942501 3.0904999 0.3985
3.7604585 3.0827346 0.36054215
3.8467758 3.0779655 0.34680903
3.9289999 3.0833426 0.33388576
2.296 3.1659999 0.30000001
2.358881 3.1443303 0.34248024
2.4417021 3.1102366 0.35321721
2.5436177 3.1231122 0.3516956
2.6088574 3.1480002 0.38128576
3.0234132 3.1490095 0.34787241
3.244 3.1474707 0.34635293
3.6798701 3.1512184 0.37764135
3.7281797 3.1429801 0.33294478
3.8080001 3.1010001 0.303
3.9596798 3.1457994 0.34639999
2.2925 3.2294998 0.30333334
2.3517969 3.2382817 0.34307566
2.4482265 3.2482936 0.34933013
2.5477612 3.2468362 0.34957537
2.6182773 3.2426665 0.37766662
3.0486243 3.2298808 0.34908751
3.1489339 3.2338037 0.35028496
3.2380633 3.2270377 0.34839103
3.6852005 3.2326725 0.38085449
3.74314 3.247751 0.3468135
3.8476939 3.2533152 0.35025194
3.9409893 3.2438693 0.3409394
4.0122004 3.2322004 0.30880001
3.098 2.9979999 0.42500001
3.1633334 2.9973333 0.46766663
3.2381673 2.9919672 0.44870007
2.4837999 3.0978 0.42379999
2.5461915 3.0957024 0.4500213
2.6065001 3.0970001 0.48449999
2.9966667 3.0676668 0.43099999
3.0347016 3.0412602 0.44906679
3.1483436 3.0141916 0.44789177
3.2306318 3.0175693 0.45211577
3.6665158 3.0869377 0.46157819
3.7475996 3.0779047 0.44881913
3.8332694 3.0814228 0.44028851
2.3939998 3.1816003 0.40910003
2.4506142 3.1372464 0.44475713
2.5451748 3.1092753 0.45004708
2.6385057 3.1318562 0.45449489
2.7081668 3.1645 0.49033332
3.0212688 3.1497915 0.44956601
3.2442667 3.1473336 0.45300004
3.5871458 3.1623962 0.48287499
3.6355956 3.1474884 0.44131371
3.7049999 3.1040001 0.417
3.8646367 3.1440001 0.45118186
3.9026 3.1613998 0.40840003
2.3895409 3.2317567 0.41464868
2.4479213 3.2416766 0.4478254
2.5493522 3.2520013 0.44880939
2.6434872 3.247205 0.45368329
2.7114441 3.2432222 0.48644441
3.0490537 3.2318676 0.44927764
3.1498592 3.2306187 0.44963068
3.2363088 3.2288618 0.45004615
3.5891738 3.2236087 0.48700002
3.6496966 3.2461958 0.45095551
3.7504811 3.2539332 0.44992006
3.8436413 3.2466507 0.44527361
3.9118752 3.2338123 0.41268748
3.2335 2.9937499 0.51962501
2.5607502 3.0971251 0.51550001
2.6393752 3.0971251 0.56006253
2.9960001 3.0631666 0.56316662
3.0346463 3.0438068 0.54839242
3.1470306 3.0172272 0.54989582
3.2309539 3.0206416 0.55069733
3.302 3.043 0.537
3.5737896 3.0891054 0.57302618
3.6482732 3.0832281 0.54883635
3.739804 3.0833633 0.53824246
3.8074999 3.0945001 0.51750004
2.4857213 3.1640465 0.51548839
2.5472131 3.1327243 0.54914975
2.646718 3.1115699 0.55113459
2.7360549 3.1433423 0.56012326
2.8050001 3.1830001 0.59899998
3.0198047 3.1497233 0.5504421
3.2385387 3.1456156 0.55476934
3.4908891 3.1654444 0.58849996
3.5447819 3.1506202 0.54739326
3.6124446 3.1056666 0.51688892
3.7727776 3.1453333 0.56044441
3.8163333 3.1536667 0.51599997
2.4810357 3.2385778 0.52095175
2.5449531 3.2474527 0.55166698
2.6491759 3.2538085 0.54970747
2.7402756 3.2481165 0.5573988
2.802 3.2565 0.59399998
3.0470867 3.2329087 0.54991353
3.1492147 3.2345901 0.54906291
3.2357173 3.2310913 0.54988652
3.4968002 3.2146001 0.59300005
3.5543826 3.2433233 0.55385262
3.6513042 3.2580001 0.54826707
3.7478402 3.2493823 0.54450005
3.8179655 3.2373447 0.52265513
3.1849999 2.997 0.65499997
2.6456001 3.0966001 0.60560006
2.9943333 3.0631666 0.66200006
3.0355382 3.0444822 0.64983934
3.1476028 3.0183837 0.64974833
3.2308776 3.0249188 0.64982653
3.3315001 3.0510001 0.67299998
3.4791789 3.093179 0.67582148
3.5517926 3.088752 0.65174258
3.6417861 3.0832741 0.64389282
3.7100003 3.0890002 0.61014289
2.5775001 3.1563928 0.62315482
2.6466062 3.1265354 0.65326083
2.7490439 3.1215286 0.65268099
2.8283098 3.1515243 0.66878569
3.0182617 3.150233 0.64914584
3.2420001 3.1435556 0.65522224
3.3914001 3.1520002 0.69059998
3.4531627 3.1501901 0.65039992
3.5161433 3.1146073 0.62407148
3.6666155 3.1317692 0.67076927
3.7220771 3.1583848 0.63200009
2.5741668 3.2401209 0.63066667
2.6434221 3.2512844 0.6540361
2.7500007 3.2535219 0.64875096
2.8332963 3.2493739 0.66053039
2.993 3.2149999 0.67699999
3.0461826 3.2363994 0.65022743
3.1507084 3.239872 0.64960629
3.2341826 3.2355249 0.64959842
3.4655035 3.2411671 0.65819871
3.5467553 3.2626975 0.64712793
3.6491623 3.2548623 0.64729804
3.7243035 3.2363334 0.62327278
3.194 2.9960001 0.773
2.99575 3.0682499 0.74250001
3.0346484 3.0475478 0.74911797
3.1480377 3.0220566 0.7499938
3.2298949 3.0326972 0.74598843
3.3788183 3.0932729 0.77704537
3.4528139 3.0911062 0.75293213
3.5466838 3.0863853 0.74888891
3.6150906 3.0815456 0.71281815
2.672929 3.1557319 0.73254478
2.7452471 3.1272123 0.75296545
2.8446639 3.1312289 0.75214744
2.9220476 3.1658096 0.7709524
3.0178432 3.1512427 0.75000525
3.2349999 3.1414287 0.74442858
3.3619573 3.1454005 0.75557846
3.4279368 3.1169529 0.73098421
3.5516498 3.1203001 0.75854993
3.6237063 3.1521175 0.73747057
2.6666925 3.2426155 0.73932987
2.7464621 3.2571042 0.75198704
2.8488808 3.2555871 0.74948758
2.9274695 3.2505536 0.7672289
3.0449491 3.236861 0.74837637
3.1495943 3.2425718 0.7491501
3.2350926 3.2383285 0.75032145
3.3711245 3.2367682 0.76564282
3.4456174 3.2602673 0.74694771
3.5481889 3.25878 0.74787802
3.6248455 3.2451723 0.73244846
3.0386589 3.0462015 0.84946263
3.1482203 3.0248961 0.84950322
3.2324841 3.0358064 0.8453657
3.3611543 3.0908179 0.8516618
3.447983 3.0889843 0.84948397
3.5263124 3.0869372 0.82106245
2.76577 3.1541417 0.8378526
2.8457758 3.1261137 0.85187918
2.9447773 3.1406047 0.85565656
3.0143642 3.1463408 0.84108341
3.2742355 3.1634121 0.84264714
3.3450935 3.124861 0.83813953
3.4526291 3.109333 0.86162972
3.5310357 3.1415002 0.84085715
2.6960001 3.26 0.81199998
2.7574155 3.2443178 0.84480953
2.8486516 3.262743 0.85028821
2.9478064 3.2549312 0.85104203
3.0487654 3.244061 0.84588969
3.1490426 3.2472463 0.84831011
3.2489779 3.2419767 0.85407507
3.3455536 3.2610917 0.84754807
3.4479558 3.2627821 0.84773082
3.5292158 3.2417431 0.83600026
3.0388179 3.0474839 0.94888967
3.1489699 3.0281434 0.9498508
3.2260003 3.0362434 0.9487924
3.3568337 3.0874128 0.95082557
3.4249561 3.0854001 0.92973322
2.7955 3.1795001 0.90399998
2.8549175 3.1536145 0.94022286
2.9462688 3.127157 0.95109981
3.0152969 3.1243441 0.946953
3.1695001 3.1889002 0.98170006
3.2349524 3.1726668 0.94080943
3.3512964 3.1126661 0.95059264
3.4344244 3.1355462 0.94590914
2.7920389 3.2384231 0.9104616
2.8518915 3.2482519 0.94828594
2.949975 3.2623963 0.94964468
3.0492153 3.2552619 0.94811225
3.1477935 3.244597 0.9489432
3.2491837 3.2608445 0.9519434
3.3479271 3.2663739 0.94862658
3.4350216 3.245611 0.93605554
2.9980001 3.0644999 1.0599999
3.0386631 3.0497158 1.0484693
3.1499043 3.0316908 1.0493571
3.2349353 3.0404947 1.0534769
3.3354166 3.0818543 1.0285623
2.8894377 3.1733749 1.0081875
2.9511411 3.1482303 1.0454974
3.0109825 3.118525 1.0507627
3.1655002 3.19175 1.0072501
3.29725 3.10375 1.0469999
3.349576 3.1328185 1.0466667
3.4030001 3.178 1.001
2.8843815 3.2440178 1.0188725
2.9470861 3.2550995 1.0507729
3.0457218 3.2691033 1.0478296
3.1528938 3.2650778 1.0491309
3.2491388 3.2720726 1.0481263
3.3380616 3.249711 1.0379174
3.4076667 3.2226667 1.0006666
3.0658996 3.3129003 1.062
3.2156668 3.3056669 1.0891666
3.2149999 2.994 1.127
2.9971538 3.0766151 1.1598462
3.0369051 3.0529454 1.1490805
3.1499565 3.0352244 1.1510442
3.2311344 3.0366666 1.149219
2.9834526 3.1704764 1.1178334
3.0121987 3.1423969 1.1588653
3.2660003 3.1487615 1.1512382
3.312 3.1442499 1.10625
2.9804351 3.2439485 1.1257565
3.0396798 3.2605441 1.1544954
3.1482167 3.2711153 1.1487684
3.2443278 3.2535734 1.1468602
3.3067501 3.2427499 1.1082499
3.2175 3.3004999 1.1045001
2.9946668 3.0738096 1.2454288
3.0351286 3.0566113 1.2496064
3.1497562 3.0367627 1.2492188
3.2310436 3.0366228 1.2483248
2.9972501 3.1369998 1.27525
3.0120094 3.1489463 1.2493463
3.2330415 3.1517084 1.2459167
2.9966667 3.2273335 1.2590001
3.0361683 3.2529047 1.2494073
3.149838 3.2592525 1.2524911
3.2407088 3.2478039 1.2471963
2.9947395 3.0757394 1.3477392
3.0361288 3.0613005 1.3492627
3.1495316 3.0425959 1.3498784
3.2260375 3.0385048 1.3492055
2.9952309 3.1433079 1.3562307
3.0114164 3.1506169 1.3494002
3.164 3.1960001 1.319
3.2354999 3.1503458 1.3526154
3.0365973 3.2535992 1.3493571
3.1488845 3.263344 1.3499724
3.2382579 3.2533989 1.3485132
2.9938185 3.0752728 1.4427273
3.0355296 3.063333 1.4473051
3.1474357 3.0459297 1.4494871
3.2270584 3.0446563 1.4489118
2.9967499 3.1202497 1.4327501
3.0113769 3.1489475 1.4493296
3.2285604 3.1566799 1.45744
2.9980001 3.2305 1.4425
3.0360689 3.2558036 1.4498212
3.1500504 3.2673149 1.4505906
3.2380731 3.2577589 1.4479122
2.9959502 3.0792499 1.5543001
3.0374696 3.0655181 1.5483193
3.147675 3.0499272 1.5477337
3.2269678 3.0485427 1.5476491
2.9951115 3.1311111 1.5516109
3.0105348 3.1506658 1.5499393
3.2327499 3.1561501 1.5531
2.9962499 3.221 1.5592499
3.0356343 3.2595968 1.5505496
3.1505823 3.2710352 1.5484527
3.2360737 3.2601547 1.5482798
2.9967728 3.0804548 1.6490911
3.0372176 3.0661426 1.6498027
3.1473627 3.052968 1.6489429
3.2240462 3.0535927 1.6477673
2.9940908 3.1223638 1.6543182
3.009403 3.1516092 1.6479828
3.2270916 3.1473186 1.6491367
2.9980004 3.2324002 1.6695999
3.0349865 3.2618551 1.6486038
3.1507468 3.2745843 1.648054
3.2344999 3.2602232 1.647683
3.0139999 3.3010001 1.6799999
2.9952505 3.0855005 1.7609584
3.0379457 3.0679851 1.7484359
3.1511309 3.0565219 1.7512028
3.2232473 3.0551999 1.7489409
2.995913 3.1299999 1.7523913
3.0090184 3.1519759 1.7473272
3.2265999 3.1471603 1.74992
2.9977999 3.2432001 1.7326001
3.0330617 3.263262 1.7493643
3.1513584 3.2757738 1.7494677
3.2326276 3.2645125 1.7481816
3.0503335 3.3016667 1.7496667
3.1210001 3.3010001 1.719
2.995913 3.0865221 1.8513479
3.0399122 3.0701716 1.8483056
3.1492207 3.0600061 1.8515135
3.2217882 3.0549874 1.8525002
2.9958534 3.1342943 1.8491471
3.0090511 3.1540742 1.8468447
3.2291481 3.145148 1.8502592
2.9980528 3.2348423 1.856263
3.0320814 3.2656975 1.8502131
3.1504703 3.2795355 1.849947
3.2330346 3.2657714 1.8485594
3.0435557 3.3037779 1.855111
3.1440001 3.303 1.806
2.9947772 3.0837777 1.947926
3.0421891 3.0722685 1.9477544
3.1485279 3.0625074 1.9503897
3.2182112 3.0559292 1.9531411
2.9951892 3.1244903 1.9567361
3.007802 3.1531434 1.9488082
3.1949999 3.154 1.994
3.2281535 3.1405771 1.9508079
2.996042 3.2335832 1.9577084
3.0300815 3.2670779 1.9494866
3.1521099 3.2833288 1.9493484
3.2338555 3.2688415 1.9467421
3.0362499 3.3029499 1.9524498
3.1222501 3.3020835 1.9553335
2.9938097 3.085381 2.0453334
3.0445533 3.0764787 2.0506964
3.1497993 3.0680633 2.0529308
3.2165766 3.0617461 2.0485761
2.9936321 3.1301477 2.0496767
3.0068495 3.1563203 2.0506318
3.2278004 3.1426337 2.0544667
2.9965 3.2336998 2.0420001
3.026577 3.2661822 2.0508733
3.1520503 3.286474 2.0477483
3.2326753 3.2720487 2.0499756
3.0455005 3.3047431 2.0501215
3.1245837 3.3032084 2.0566669
3.2049999 3.3010001 2.085
2.9921432 3.0841429 2.1577144
3.0442429 3.0783336 2.1488578
3.1487887 3.0717442 2.1512482
3.2147858 3.0671256 2.1509466
2.9853666 3.155463 2.1541905
3.0066059 3.1390755 2.1362574
3.187 3.1029999 2.119
3.2261107 3.1480742 2.1578519
2.9840915 3.2320514 2.1589079
3.0269449 3.2742062 2.1446378
3.1550243 3.2888844 2.1466119
3.2308705 3.2751641 2.149914
3.0480492 3.3057761 2.1536019
3.1260295 3.3031766 2.1538527
3.2093332 3.3016667 2.1213336
2.9843292 3.0724757 2.2650485
3.0405982 3.0630805 2.2517869
3.1504455 3.0738416 2.2487192
3.213681 3.0708084 2.2442338
2.9828765 3.1466191 2.2481158
3.0180712 3.1461432 2.2504287
3.1450002 3.1056669 2.2636669
3.2273595 3.1443999 2.2510397
2.9772305 3.2491102 2.2459118
3.0240355 3.282357 2.2248573
3.164489 3.2889574 2.2400866
3.2332933 3.2778072 2.2513947
2.9861972 3.325408 2.2706707
3.0461462 3.3421979 2.253644
3.1267018 3.330322 2.2594876
3.2038002 3.3027999 2.237
2.9835393 2.9817696 2.3720961
3.036963 2.9734583 2.3691926
2.9775584 3.0517473 2.349607
3.0456095 3.0221093 2.326463
3.1558373 3.0703173 2.3459523
3.2135208 3.0747499 2.3469996
2.9690766 3.1432903 2.3460994
3.0065 3.164875 2.3462501
3.1670001 3.0999999 2.3729999
3.2265 3.1420419 2.3437085
2.9679008 3.253865 2.344408
3.0066669 3.2553334 2.3416667
3.1780803 3.2918801 2.3404002
3.2306154 3.2767985 2.3464515
2.9764082 3.3423376 2.3459294
3.0332429 3.3811715 2.3193715
3.1470003 3.354233 2.3353248
3.2147501 3.30075 2.3724999
2.9910223 3.418205 2.372704
3.0478153 3.4353759 2.3573771
3.1225882 3.4306476 2.366106
2.9786541 2.8834615 2.4851542
3.0374863 2.8828056 2.4775414
2.9735959 2.9477172 2.4503927
3.0471807 2.929136 2.4344659
3.1115999 2.9667337 2.4578669
2.9756753 3.051146 2.4490385
3.0662501 3.0496252 2.448875
3.1556542 3.0625994 2.4411457
3.2161751 3.0745499 2.4439499
2.9854209 3.1380231 2.4519157
3.0075712 3.1643331 2.464905
3.1885002 3.1203334 2.447
3.2272501 3.1420419 2.4482086
2.9783409 3.2601378 2.4378512
3.0211573 3.2478948 2.4770792
3.1836369 3.2824545 2.4397271
3.2351408 3.2734935 2.445188
2.9789438 3.3495686 2.4478159
3.0081668 3.3596668 2.4549999
3.1553197 3.3572402 2.4419599
3.2067144 3.3210001 2.4501429
2.9894092 3.4444499 2.452275
3.0356941 3.4804771 2.4224412
3.1378911 3.4654205 2.4349036
2.9957221 3.5092781 2.4779446
3.0474172 3.5327771 2.4642131
3.1249247 3.5283926 2.4700251
2.9778235 2.7912352 2.5931764
3.03332 2.7909999 2.5873599
2.9678059 2.8514512 2.5536017
3.0450768 2.8396804 2.5448585
3.1084287 2.8692861 2.5372858
2.9662771 2.9474764 2.5473733
3.0852859 2.9489524 2.5474288
3.1093752 2.94625 2.538125
2.9796965 3.0456617 2.5477161
3.0461178 3.0628827 2.5629408
3.1564617 3.0713077 2.5496156
3.2123334 3.0885 2.5497501
2.9938991 3.1424303 2.551949
3.0052695 3.1604185 2.5520744
3.1932499 3.1440001 2.54
3.2226667 3.1424766 2.5516191
2.9940774 3.2491155 2.5428464
3.0088472 3.2504711 2.5521724
3.1967499 3.2920001 2.5447502
3.2394924 3.2639532 2.5466037
2.9823265 3.3602006 2.5366316
3.0209489 3.3391023 2.5627952
3.1565883 3.3408823 2.5498235
3.2195001 3.3375001 2.5095
2.9864197 3.4527991 2.5476208
3.0062666 3.4595339 2.5530672
3.147037 3.445519 2.5404444
2.9934242 3.535475 2.5569494
3.0303712 3.5718141 2.5308814
3.1426237 3.5626142 2.5345244
2.9966667 3.6216667 2.5833335
3.0505505 3.6274154 2.5671942
3.1293931 3.6251128 2.5688994
3.0314286 2.6974285 2.6934288
2.9642889 2.755686 2.6569319
3.0387168 2.7507739 2.6492136
3.107667 2.7758889 2.6664445
2.957463 2.8479946 2.6514449
3.08125 2.8398752 2.6440415
3.1139336 2.8414001 2.6390665
2.9703619 2.9485075 2.6470788
3.0559475 2.959842 2.662842
3.108 2.939857 2.6334283
2.9858375 3.0332561 2.6356511
3.0228658 3.0635965 2.6527696
3.1689997 3.0853684 2.6507895
3.2093334 3.0903335 2.6396666
2.9946516 3.1396403 2.6527865
3.0070004 3.1528497 2.6513968
3.1923332 3.1123333 2.658
3.2223997 3.1421599 2.6538
2.9964843 3.2402253 2.6438067
3.0069933 3.250242 2.6488831
3.2332926 3.2613413 2.647146
2.9917147 3.3678575 2.6298573
3.0172598 3.3297801 2.6503601
3.1787143 3.3245718 2.6427145
3.2320001 3.302 2.6329999
2.9883862 3.4569321 2.6330116
3.0336592 3.4403827 2.6619151
3.1393197 3.4537599 2.6506
2.9919 3.5471983 2.6504509
3.0071301 3.5589564 2.6355221
3.1528516 3.553185 2.6504073
2.9974 3.6253996 2.6552002
3.0294139 3.6623623 2.6391337
3.1429038 3.6626253 2.636642
3.0537336 3.7263796 2.671963
3.1275949 3.7231264 2.6741393
2.9632215 2.6652923 2.7590775
3.0366755 2.663444 2.7525494
3.112 2.6890001 2.7856669
2.9485359 2.7455196 2.7453294
3.0695679 2.7317276 2.7314093
3.109375 2.7472501 2.732625
2.9586394 2.8483865 2.7500279
3.0686193 2.8599997 2.7574766
3.1015 2.855 2.7474999
2.9753718 2.9293022 2.7386048
3.0323875 2.9381936 2.7400002
2.9942219 3.0785553 2.7393334
3.0331323 3.0876977 2.7514534
3.1655004 3.0900497 2.7450001
3.2012501 3.0892498 2.7577498
2.9945192 3.1461065 2.753057
3.0138059 3.133105 2.7494478
3.1793749 3.1347499 2.7568753
3.22332 3.1416402 2.7498801
2.9957783 3.2308333 2.7499163
3.0067406 3.2538123 2.7475932
3.2286499 3.2635751 2.7500749
2.9976668 3.3066669 2.7613335
3.0171096 3.3205752 2.750561
3.1655002 3.3049998 2.7455001
3.2363334 3.3036668 2.7416668
2.9962001 3.4807999 2.72
3.0301907 3.477953 2.7204285
3.1330001 3.4817502 2.7163749
2.994786 3.5545204 2.7345998
3.0237112 3.5475967 2.7590387
3.1446671 3.5457571 2.7538486
2.9963217 3.6337636 2.7453558
3.0064626 3.6601439 2.7486923
3.164742 3.6644838 2.742871
3.2 3.688 2.753
2.9979999 3.7119999 2.77
3.0311859 3.7575104 2.7419953
3.1421797 3.7656717 2.737582
3.201 3.7179999 2.786
3.0540135 3.8227227 2.7744315
3.1294811 3.8206706 2.7779236
2.965487 2.5722361 2.8689759
3.029948 2.5708122 2.8638959
2.9474287 2.6411884 2.8449535
3.0558004 2.6295717 2.8319995
3.1065001 2.6538749 2.8462501
2.9489756 2.7480977 2.8495672
3.0744998 2.7447274 2.8364546
3.1150002 2.7446668 2.8483334
2.9646907 2.8385301 2.8410625
3.0378051 2.8432925 2.8399997
2.983 2.9482501 2.816
2.9945002 3.0899999 2.8585002
3.0490289 3.0911603 2.845957
3.1503806 3.092571 2.8520477
3.2172 3.0874002 2.8401999
2.9934916 3.1474688 2.8524451
3.0243886 3.1241806 2.8513472
3.1630003 3.1088574 2.8670001
3.2194517 3.1392579 2.8509033
2.9961398 3.2369113 2.8493159
3.0057158 3.2557151 2.8459082
3.2270322 3.2617095 2.8537424
2.99775 3.3225002 2.8554997
3.0249906 3.3262622 2.85465
3.1776667 3.3093333 2.8323333
3.2368748 3.3076248 2.8538749
2.9959998 3.5885 2.8139999
3.0247917 3.573667 2.8202915
3.133846 3.5808458 2.8175385
2.996968 3.6470647 2.8287096
3.0158813 3.6492801 2.852648
3.1527572 3.6497881 2.8551519
3.2260001 3.6459999 2.8080001
2.9966667 3.7275 2.8405004
3.0096736 3.7509212 2.8504503
3.1698797 3.75384 2.8462398
3.2042 3.7564003 2.832
3.0381651 3.8554399 2.8442428
3.144578 3.8623433 2.8396606
3.2090001 3.8069999 2.8889999
3.0603685 3.920233 2.8774757
3.1323688 3.9184158 2.8809998
2.9545677 2.4795671 2.9768963
3.02336 2.4792783 2.9748361
2.945116 2.5437095 2.9427786
3.0428314 2.5320988 2.9347627
3.102 2.5634999 2.9815001
2.9389362 2.6483839 2.9480066
3.0698752 2.6485002 2.9455001
3.1223333 2.6203334 2.9413333
2.9554813 2.7442253 2.9452703
3.0321176 2.7521765 2.9478526
2.9706249 2.8101249 2.9133751
3.0079999 2.8464999 2.9060001
2.995111 3.0914445 2.9484444
3.050333 3.0930002 2.9382219
3.1348572 3.0926859 2.9554286
3.2156668 3.0866668 2.9456668
2.9853585 3.155488 2.9535806
3.0368567 3.1146119 2.951592
3.1384284 3.1077857 2.9569647
3.2272966 3.1557407 2.9580371
2.9800305 3.245167 2.9587157
3.0050745 3.2602253 2.9239004
3.2356927 3.2501152 2.9492693
2.9821258 3.3235898 2.9689362
3.0309157 3.3392918 2.9466772
3.1492858 3.3302858 2.9418573
3.2425833 3.3204999 2.9584167
3.016 3.589 2.9319999
3.0256734 3.6754134 2.9263268
3.1377504 3.6829166 2.9232502
2.9974999 3.7360001 2.9170001
3.0190229 3.746845 2.9511111
3.1529527 3.7392383 2.9553809
3.0174706 3.8489134 2.9470136
3.1738501 3.8554001 2.9406002
3.2099998 3.8543999 2.941
3.0443625 3.9546926 2.9449987
3.1430676 3.9607592 2.9403656
3.2056665 3.9230003 2.9793334
3.0635803 4.0166879 2.9810116
3.1388712 4.0152907 2.9821618
0 0 0 1 0 0 0 1 0 0 0 1 0 0 0 0 0 764 1 0 0
