ply
format ascii 1.0
comment PCL generated
element vertex 644
property float x
property float y
property float z
element camera 1
property float view_px
property float view_py
property float view_pz
property float x_axisx
property float x_axisy
property float x_axisz
property float y_axisx
property float y_axisy
property float y_axisz
property float z_axisx
property float z_axisy
property float z_axisz
property float focal
property float scalex
property float scaley
property float centerx
property float centery
property int viewportx
property int viewporty
property float k1
property float k2
end_header
-8.2325001 11.394501 0.037
-8.1850004 11.398 0.025
-8.4449997 11.4691 0.05345
-8.3497782 11.441693 0.051861115
-8.247221 11.430089 0.047882352
-8.1872511 11.434752 0.015083333
-9.1340456 11.586341 0.052204549
-9.0496187 11.571109 0.050672736
-8.9408264 11.558372 0.049506668
-8.8959999 11.564501 0.0405
-8.4428082 11.552 0.050702117
-8.3578882 11.578112 0.039555561
-8.22575 11.539249 0.066583335
-8.1776934 11.52777 0.027692311
-9.908 11.698 0.012
-9.8505907 11.681554 0.045357134
-9.7514277 11.664929 0.047785711
-9.64958 11.657442 0.049790699
-9.5895004 11.6695 0.085500002
-9.1284676 11.649533 0.05005933
-9.0869999 11.603 0.056000002
-8.9111834 11.623182 0.044363637
-8.8979998 11.654 0.098999999
-8.4388742 11.606999 0.064125001
-8.3945007 11.6005 0.014
-9.9119997 11.701 0.0020000001
-9.8516102 11.748735 0.04807964
-9.7930002 11.782 0.098999999
-9.6336012 11.765142 0.040971432
-9.5845385 11.771232 0.082307689
-9.1168184 11.735156 0.050220773
-9.0546217 11.77641 0.053163931
-8.9589529 11.761977 0.053785712
-9.8363552 11.822029 0.035553847
-9.751195 11.82108 0.053333331
-9.6656408 11.807229 0.049589746
-8.6009998 11.489 0.17200001
-8.5331306 11.482652 0.15626085
-8.4522161 11.458807 0.14808698
-8.3487797 11.443038 0.15075997
-8.283 11.446818 0.12554544
-9.1358843 11.587096 0.15103845
-9.0469341 11.5772 0.1462222
-8.9445 11.562251 0.14769739
-8.8872004 11.552799 0.14960001
-8.5372467 11.548313 0.15253331
-8.4758759 11.571751 0.10987501
-8.3206673 11.521 0.18083334
-8.2735224 11.546652 0.14213045
-9.809 11.68311 0.11566666
-9.7580004 11.677461 0.15042621
-9.64604 11.653308 0.15096153
-9.5570822 11.655667 0.15608333
-9.4960003 11.632 0.176
-9.1257095 11.648951 0.14887293
-9.0873337 11.623 0.16333334
-8.9167166 11.633608 0.15128571
-8.8920002 11.691334 0.16966668
-8.6260004 11.612 0.191
-8.5300007 11.614 0.16540001
-8.4809999 11.606625 0.13212499
-9.8091812 11.739455 0.10627272
-9.7615213 11.752167 0.15354165
-9.6155005 11.792749 0.15174998
-9.5531359 11.779038 0.15445097
-9.4912863 11.764714 0.18142858
-9.1160307 11.73583 0.1499846
-9.0562382 11.77886 0.14934921
-8.9492006 11.764759 0.1468
-8.8810005 11.7215 0.184
-9.7425423 11.816457 0.14044261
-9.6539326 11.810169 0.14684999
-9.5870008 11.8034 0.1498
-8.6252861 11.494143 0.25828573
-8.5535364 11.480348 0.2481396
-8.4429789 11.456837 0.25234693
-8.3772154 11.452856 0.22960715
-9.1379108 11.5892 0.2484889
-9.0508995 11.57972 0.24517997
-8.9467916 11.567195 0.2507917
-8.882 11.593 0.27399999
-8.6359005 11.54051 0.26525351
-8.5872498 11.545001 0.22540002
-8.40625 11.53875 0.27600002
-8.3637867 11.547894 0.24189287
-9.7189045 11.678 0.21947618
-9.6632137 11.669738 0.25901756
-9.5468006 11.639734 0.24590001
-9.4615488 11.648997 0.25948384
-9.1277037 11.649427 0.24814028
-9.0845003 11.6035 0.20550001
-8.911293 11.649082 0.25033337
-8.8999996 11.681 0.27599999
-8.6361666 11.618167 0.27191669
-8.5716248 11.619 0.22999999
-8.3864994 11.615499 0.25999999
-9.7144651 11.742964 0.21439283
-9.6674032 11.754967 0.26182148
-9.5408421 11.789 0.24384311
-9.4580631 11.770213 0.25893614
-9.1148548 11.738928 0.2481636
-9.0559311 11.77981 0.24835621
-8.9450169 11.760667 0.25433329
-8.8948002 11.7254 0.2534
-9.708334 11.808334 0.20066667
-9.6466904 11.8092 0.24138181
-9.577693 11.803924 0.26776925
-8.6323042 11.492785 0.35552174
-8.5487356 11.479019 0.34998107
-8.4691935 11.467936 0.33516127
-9.1358042 11.5919 0.34699997
-9.0536585 11.581099 0.34948
-8.9504557 11.566397 0.35247058
-8.7201004 11.553351 0.36272502
-8.6723042 11.538153 0.33283332
-8.5237141 11.524714 0.38557142
-8.4508219 11.552001 0.34238461
-9.6215248 11.670332 0.33114287
-9.5576038 11.65727 0.3609167
-9.444912 11.632422 0.34884453
-9.3695202 11.63884 0.36883998
-9.13167 11.643571 0.34836605
-9.0830002 11.605 0.34325001
-8.9118242 11.651237 0.35376471
-8.8950005 11.658333 0.34266669
-8.7166662 11.631469 0.37710005
-8.6650839 11.637897 0.34931251
-8.4702005 11.6154 0.36159998
-9.6168861 11.745934 0.32522726
-9.5593224 11.769862 0.36038539
-9.4489689 11.777605 0.34928572
-9.3680811 11.757677 0.36527029
-9.1168518 11.742785 0.35225004
-9.0574999 11.781781 0.34683332
-8.9534912 11.765825 0.35105258
-8.8960724 11.726928 0.35678574
-9.6129999 11.807 0.308
-9.5657854 11.803286 0.33042857
-8.6326571 11.491718 0.45634371
-8.5620012 11.480168 0.44083327
-9.2854996 11.592 0.48649999
-9.1334066 11.593405 0.44078124
-9.0459757 11.58336 0.45025635
-8.9527426 11.564501 0.45044443
-8.8179379 11.544689 0.47518748
-8.7535563 11.535426 0.44821316
-8.6647406 11.512419 0.45003235
-8.5525589 11.547765 0.45158824
-8.4934998 11.5825 0.40700001
-9.5316572 11.661749 0.43778116
-9.4608421 11.647666 0.46207842
-9.3499737 11.620793 0.44505134
-9.2846928 11.625615 0.46499997
-9.1314077 11.640308 0.45203862
-9.0543642 11.60509 0.47227272
-8.9112997 11.671999 0.4474
-8.8268003 11.6568 0.48060003
-8.7523794 11.654573 0.44680294
-8.6505241 11.646285 0.45130944
-8.5595798 11.622807 0.45719358
-9.5258236 11.745305 0.42977411
-9.4584274 11.768607 0.45735407
-9.3558016 11.766558 0.45227876
-9.2776251 11.74625 0.4695625
-9.1169205 11.745389 0.44935936
-9.0564718 11.78734 0.45154411
-8.9541063 11.766069 0.45085961
-8.8900013 11.736135 0.45053339
-9.4849997 11.8 0.41100001
-9.0743332 11.801333 0.44099998
-8.7395 11.4925 0.5855
-8.657136 11.492864 0.54018176
-9.3115005 11.5975 0.50999999
-9.232728 11.590818 0.565
-9.1451435 11.595572 0.56100005
-9.0449772 11.586091 0.54770452
-8.9520407 11.569793 0.54791665
-8.8496199 11.546079 0.55260003
-8.7497196 11.519301 0.55412275
-8.6487207 11.536768 0.55351174
-8.5884008 11.552999 0.50960004
-9.4390574 11.655112 0.54396564
-9.3579502 11.629576 0.55440009
-9.2571478 11.613593 0.54433334
-9.1376543 11.645985 0.54229504
-9.0679235 11.605615 0.551
-8.9090004 11.619 0.58700001
-8.8327503 11.664751 0.54268754
-8.7561626 11.670719 0.54886043
-8.6492605 11.639239 0.55012
-8.5854998 11.625376 0.51337498
-9.4312849 11.742285 0.53448647
-9.3573322 11.762358 0.55716097
-9.2558956 11.751678 0.55406374
-9.1288433 11.744986 0.55197364
-9.0533657 11.788144 0.55038035
-8.9495869 11.76859 0.55278432
-8.8825722 11.730642 0.54335719
-9.0790005 11.8055 0.55499995
-8.7404995 11.493 0.63450003
-8.6940002 11.483 0.62
-9.3100004 11.599 0.69300002
-9.2314672 11.593801 0.64666677
-9.1577272 11.589301 0.65293932
-9.0416431 11.585381 0.6442619
-8.9504299 11.568233 0.65080374
-8.8522282 11.540018 0.64893001
-8.7473431 11.528586 0.64962304
-8.6851997 11.549399 0.61939996
-9.4034996 11.627001 0.60699999
-9.3501463 11.649587 0.64799064
-9.2608347 11.616751 0.64937502
-9.1362925 11.613916 0.63587499
-9.0615005 11.613001 0.65616673
-8.9632492 11.611 0.66299999
-8.8104448 11.680223 0.64844447
-8.7467127 11.656674 0.65293884
-8.6810598 11.634824 0.62523526
-9.335824 11.737266 0.64033824
-9.2567177 11.754905 0.65467191
-9.1392641 11.753482 0.64789653
-9.0469208 11.790219 0.64466
-8.9524574 11.774084 0.64883327
-8.8715458 11.728728 0.64281815
-9.1048002 11.808001 0.66480005
-9.0727816 11.803521 0.65956527
-9.243001 11.593222 0.74511117
-9.1461735 11.586078 0.7473653
-9.0490437 11.577001 0.75660014
-8.9504509 11.560112 0.75274193
-8.8477516 11.543222 0.75238895
-8.7834225 11.542947 0.71547371
-9.3108234 11.64247 0.71035302
-9.2609577 11.642021 0.75455207
-9.1704998 11.60675 0.75274992
-9.0444164 11.613251 0.72466671
-8.8194447 11.657333 0.75966674
-8.7762766 11.647689 0.73199993
-9.3030005 11.708 0.708
-9.2424231 11.733563 0.74402559
-9.1384659 11.760762 0.75046396
-9.0419998 11.792566 0.74803323
-8.9497919 11.776855 0.74931258
-8.8847523 11.740374 0.7562499
-9.1058331 11.808584 0.75024998
-9.0679693 11.804844 0.7468437
-8.9908581 11.493144 0.83499998
-9.1387844 11.588298 0.85170275
-9.0478954 11.571858 0.84919304
-8.9592304 11.548363 0.85144937
-8.8729668 11.554645 0.82583857
-9.2166567 11.642173 0.81842846
-9.1689882 11.642811 0.8613528
-8.9128571 11.641714 0.88471431
-8.866231 11.640462 0.84203845
-9.2071667 11.714167 0.81166667
-9.1354427 11.753152 0.84952402
-9.0426197 11.795666 0.84461904
-8.9407768 11.77415 0.85190743
-8.8919001 11.748549 0.84890014
-9.1075563 11.806778 0.84744436
-9.0595999 11.805924 0.8524999
-9.1193333 11.588778 0.92144448
-9.0498362 11.577999 0.95150828
-8.9595509 11.570194 0.94650757
-9.1468439 11.644881 0.94990301
-9.0730009 11.607858 0.9848572
-8.9224501 11.651429 0.94469386
-8.8739996 11.649 0.90200001
-9.1267099 11.750983 0.9488036
-9.0457335 11.794 0.94093341
-8.9389839 11.7683 0.9498772
-8.8910627 11.747499 0.94787502
-9.1088009 11.809534 0.95533347
-9.0612736 11.808772 0.95050019
-8.9855003 11.8025 0.98049998
-9.1515007 11.59575 1.0335
-9.0370827 11.590389 1.0498058
-8.9570141 11.577787 1.049366
-9.1461048 11.644425 1.0486109
-9.0637865 11.608642 1.0492501
-8.9271135 11.650358 1.0509433
-8.8959999 11.691 1.082
-9.1299934 11.752442 1.0476187
-9.0195713 11.794857 1.0512857
-8.9328213 11.768372 1.0500484
-8.8954449 11.75 1.0546668
-9.1085434 11.811501 1.0496365
-9.0592728 11.810842 1.0509316
-9.1590004 11.593 1.118
-9.0323753 11.590281 1.1465625
-8.959281 11.577415 1.1469551
-9.1455574 11.643545 1.1480196
-9.0678339 11.610113 1.1536667
-8.9306793 11.644265 1.1467546
-9.1321831 11.753098 1.150154
-9.0019999 11.796 1.1569999
-8.9474211 11.755157 1.1427896
-8.8890009 11.759476 1.1439049
-9.1109571 11.811261 1.1526088
-9.0532417 11.816877 1.1468276
-8.9844923 11.859361 1.1469468
-8.8793125 11.852031 1.1487499
-9.0317354 11.590899 1.2544004
-8.9585543 11.581403 1.248333
-9.1447802 11.644917 1.2504469
-9.063941 11.608941 1.2467353
-8.9299164 11.649682 1.2513165
-9.1327286 11.750757 1.2488687
-9.0505009 11.797 1.2414999
-8.9313126 11.760646 1.2619998
-8.8789997 11.762875 1.2182499
-9.1134291 11.812572 1.2604644
-9.0518465 11.812461 1.2462118
-8.9714584 11.850134 1.2314866
-8.8802309 11.847771 1.2257693
-9.0252218 11.590369 1.3497778
-8.9590845 11.583694 1.3499167
-9.1470003 11.64549 1.349158
-9.0598602 11.610512 1.351279
-8.9325056 11.648192 1.3490272
-9.1367655 11.748538 1.349353
-8.9254313 11.756989 1.3516923
-8.8959999 11.752501 1.3485
-9.1166229 11.816711 1.3506891
-9.0559187 11.818591 1.3474286
-8.9842491 11.803416 1.36
-9.1549997 11.589 1.4960001
-9.0261927 11.591692 1.4506539
-8.9614515 11.583195 1.4494354
-9.1478662 11.647499 1.4494662
-9.05721 11.615815 1.4533256
-8.9335947 11.650493 1.4528552
-9.1353674 11.750644 1.4492944
-8.9275923 11.760052 1.453469
-9.1175909 11.820717 1.4503076
-9.05548 11.821359 1.4494801
-8.9794674 11.804069 1.4463334
-9.1549997 11.593 1.591
-9.02987 11.594522 1.5512174
-8.9627724 11.583159 1.5514773
-9.1482172 11.648099 1.5492452
-9.0584173 11.61327 1.5525626
-8.9382677 11.64597 1.5478059
-9.1369619 11.748661 1.550112
-9.0083332 11.795668 1.5653334
-8.9307175 11.761297 1.551595
-8.8976669 11.730001 1.5356668
-9.1167603 11.818518 1.5520401
-9.0530195 11.821081 1.5528774
-8.9747152 11.806429 1.5480715
-9.027422 11.593631 1.640421
-8.9632549 11.584418 1.6472321
-9.1492844 11.649898 1.6484058
-9.0551958 11.613863 1.6519021
-8.9398727 11.646674 1.6465271
-9.1359043 11.74955 1.6516057
-9.0136671 11.797335 1.6273334
-8.9297886 11.762173 1.6536667
-8.8934994 11.754499 1.6345
-9.1175394 11.819787 1.6541923
-9.054266 11.82262 1.6494527
-8.9701176 11.805236 1.6408236
-9.0153627 11.59482 1.7466365
-8.9662857 11.581608 1.7455714
-9.1499872 11.653197 1.7489703
-9.0595398 11.614359 1.7454425
-8.9410019 11.644876 1.7492678
-9.1393471 11.748124 1.7496634
-8.9291868 11.765853 1.748574
-9.1223726 11.824565 1.7487739
-9.0487404 11.822853 1.7506483
-8.9768581 11.807477 1.7498573
-9.0143328 11.594222 1.845778
-8.9671259 11.583593 1.847906
-9.1510067 11.653123 1.849016
-9.0619993 11.616305 1.8477142
-8.9396744 11.64452 1.8498464
-9.1420383 11.747207 1.8507963
-8.9252043 11.760043 1.8502498
-9.1248388 11.824724 1.8511775
-9.052207 11.824585 1.8475468
-8.9731579 11.807528 1.848421
-9.2019997 11.596 1.985
-9.1760006 11.595 1.9910001
-9.0215454 11.59591 1.9503638
-8.9664688 11.588373 1.9510938
-9.2069998 11.603 1.994
-9.1533146 11.653001 1.9501357
-9.055172 11.614971 1.9528861
-8.9423285 11.647058 1.9524617
-9.141057 11.746514 1.9459661
-9.0908575 11.771143 1.9887145
-8.931427 11.765837 1.9483061
-9.1196394 11.82948 1.94616
-9.0524197 11.826861 1.9484417
-8.9795008 11.807583 1.9576668
-9.1456003 11.4938 2.0936
-9.0909996 11.492 2.0940001
-9.2174377 11.563585 2.0697558
-9.1513176 11.552271 2.0510235
-9.0584993 11.577333 2.0606668
-8.9664135 11.58838 2.046207
-9.2238855 11.642937 2.0547972
-9.1551886 11.649892 2.0316486
-9.0492506 11.615252 2.0442083
-8.943738 11.647868 2.051609
-9.2130766 11.745806 2.0577118
-9.1492395 11.746392 2.0423262
-9.0907335 11.743646 2.0458224
-8.9291878 11.761626 2.0451875
-9.2040005 11.801 2.0309999
-9.1202002 11.83225 2.0502
-9.0527372 11.826405 2.0496428
-8.9741564 11.808 2.0523157
-9.1305008 11.3955 2.1905
-9.2247267 11.460199 2.1674359
-9.1482191 11.455065 2.1539478
-9.099 11.483 2.1760001
-9.2297163 11.54678 2.1486042
-9.1199427 11.540172 2.1428859
-9.0822945 11.565706 2.157588
-8.970047 11.592381 2.1514287
-9.2254515 11.644752 2.1402752
-9.1262646 11.662266 2.1652646
-9.0554552 11.624866 2.1521366
-8.946681 11.64922 2.1509001
-9.2120714 11.716358 2.1187143
-9.1163807 11.747405 2.151643
-9.0902996 11.75395 2.1499999
-8.930975 11.759923 2.145359
-9.1227856 11.827118 2.1536667
-9.053381 11.827738 2.1481667
-8.9700556 11.80639 2.1516113
-9.1370001 11.295 2.299
-9.2364941 11.364176 2.2649052
-9.1525002 11.362177 2.2567351
-9.2461176 11.449959 2.2490642
-9.1245108 11.44556 2.2466745
-9.2390757 11.547559 2.246387
-9.1245642 11.557411 2.2546408
-9.0588121 11.570686 2.2444375
-8.9673843 11.594077 2.2454615
-9.2275496 11.613701 2.2222502
-9.1467257 11.652841 2.2478681
-9.0468941 11.622316 2.247263
-8.9442062 11.648113 2.2485681
-9.1417809 11.749021 2.2539127
-9.092144 11.74093 2.2215714
-8.9307108 11.755576 2.2455332
-9.1306295 11.82758 2.2515483
-9.0523653 11.826932 2.2492731
-8.9731007 11.808649 2.2499001
-9.246419 11.267282 2.3668602
-9.1598577 11.263328 2.3613467
-9.2595644 11.345533 2.3482528
-9.1403599 11.338459 2.34426
-9.2519579 11.448272 2.3488572
-9.1249371 11.455491 2.3516169
-9.0959997 11.473 2.302
-9.2368832 11.523795 2.3271177
-9.1393919 11.533827 2.3318264
-9.044857 11.569858 2.3657143
-8.9765015 11.592888 2.3430002
-9.1532669 11.660858 2.3486795
-9.0557919 11.620457 2.3563333
-8.947813 11.645621 2.3458302
-9.1565504 11.755179 2.3509195
-9.0909996 11.757 2.3010001
-8.9300232 11.751194 2.3549268
-9.1341457 11.827353 2.351984
-9.0528011 11.827875 2.3476999
-8.9686155 11.807615 2.349577
-9.2543449 11.172651 2.4696727
-9.1644239 11.165502 2.4647255
-9.0885 11.17 2.4689999
-9.2722616 11.245975 2.4461088
-9.152791 11.23979 2.4409425
-9.2644377 11.349074 2.4510405
-9.1352711 11.354186 2.450021
-9.2435713 11.427999 2.4291141
-9.1376114 11.432549 2.4280646
-9.131381 11.585952 2.4633811
-9.0581493 11.584698 2.4521499
-8.9656925 11.591154 2.4392312
-9.1478815 11.652166 2.4550896
-9.060914 11.622696 2.430609
-8.9512796 11.642521 2.4507227
-9.1627684 11.752184 2.4497526
-8.9301472 11.74447 2.4532058
-9.0569172 11.849686 2.4514339
-8.9753504 11.81175 2.4491999
-9.3029995 11.0825 2.5955
-9.2502327 11.076077 2.5692694
-9.1711149 11.070385 2.5715001
-9.3030005 11.122667 2.5683334
-9.2764645 11.149341 2.5457113
-9.1586475 11.138645 2.5487647
-9.0900002 11.118 2.5250001
-9.2768021 11.248646 2.5513175
-9.1468334 11.248548 2.5519996
-9.258687 11.329832 2.5346875
-9.1514683 11.333967 2.5344059
-9.1526461 11.581999 2.5469029
-9.0462399 11.584523 2.5437384
-8.9642 11.584401 2.5573666
-9.2083521 11.629647 2.5791764
-9.1633358 11.647742 2.5465918
-9.0415001 11.613 2.5089998
-8.9501486 11.648723 2.548851
-9.16043 11.750275 2.5517383
-8.9374199 11.748515 2.5459676
-9.309 10.980166 2.6824169
-9.2486591 10.974591 2.6760001
-9.1780844 10.975542 2.6730833
-9.307025 11.044437 2.6662307
-9.2704124 11.040311 2.6375408
-9.1706686 11.039001 2.6449819
-9.3028755 11.132251 2.6463749
-9.2867594 11.152513 2.6494999
-9.1603899 11.147586 2.6486342
-9.2623053 11.234266 2.6374695
-9.1539373 11.234 2.6393125
-9.2089996 11.313 2.608
-9.2168751 11.5795 2.6732502
-9.1771107 11.567889 2.6672223
-9.0291119 11.579112 2.6587036
-8.9578161 11.580145 2.6517751
-9.2346106 11.649467 2.6494188
-9.1565533 11.623919 2.6408949
-9.0713129 11.607375 2.6578751
-8.9243155 11.644502 2.6438947
-8.8888578 11.642285 2.6825716
-9.2291889 11.738719 2.6561058
-8.9382086 11.746515 2.6449313
-9.3120918 10.889092 2.7761819
-9.2440004 10.881568 2.7778919
-9.1920004 10.878428 2.7831433
-9.3151751 10.950625 2.7543502
-9.2523699 10.933228 2.7286837
-9.1796541 10.942453 2.7487636
-9.3077908 11.035543 2.7479796
-9.293848 11.067215 2.7517173
-9.1712132 11.042637 2.7512729
-9.3050003 11.103 2.776
-9.2703104 11.138783 2.7411325
-9.1649179 11.135973 2.7325003
-9.2330008 11.213 2.7246666
-9.2406664 11.570668 2.7338889
-9.1736202 11.572762 2.7219045
-9.0701542 11.585001 2.7515385
-8.9397507 11.579196 2.7477221
-8.8804998 11.577749 2.7657995
-9.312068 11.658468 2.7792001
-9.2698994 11.652904 2.7441757
-9.1511316 11.618334 2.7493329
-9.0607147 11.615573 2.7480719
-8.9546661 11.609001 2.7576666
-8.8699493 11.640872 2.7439485
-9.3096848 11.729842 2.7847369
-9.2550097 11.75308 2.7480736
-9.3242006 10.7879 2.8887
-9.2531929 10.786539 2.8846922
-9.1833334 10.793667 2.882
-9.3226881 10.854823 2.8532126
-9.2484465 10.834632 2.8416841
-9.187294 10.854089 2.8534114
-9.3173447 10.945168 2.8477666
-9.2863331 10.984667 2.8578887
-9.1826916 10.943718 2.8493588
-9.3083324 11.024099 2.8354669
-9.2705345 11.048813 2.8440926
-9.1778793 11.037607 2.8384247
-9.2596664 11.105334 2.8183334
-9.1803331 11.106667 2.8226669
-9.3150005 11.591499 2.8740001
-9.2820005 11.585001 2.8093333
-9.1247501 11.598 2.8517499
-9.0650501 11.592899 2.8491004
-8.9282856 11.588047 2.8488097
-8.8483334 11.572949 2.853256
-9.3369617 11.661775 2.8494639
-9.2602262 11.639547 2.8456128
-9.1625557 11.621472 2.8521111
-9.0483332 11.613734 2.8405333
-8.9648008 11.6062 2.8518
-8.8238649 11.640182 2.824409
-8.7861328 11.647801 2.8742001
-8.3455 11.6695 2.8975
-9.3347979 11.74836 2.8544304
-9.2505236 11.779107 2.8472152
-8.875 11.719667 2.8576667
-9.320714 10.689715 2.9875715
-9.2573996 10.686801 2.9883332
-9.1975002 10.687 2.987
-9.3305264 10.751586 2.9567075
-9.2439013 10.742109 2.946924
-9.1858339 10.767667 2.9467225
-9.3274298 10.844678 2.9477801
-9.2089329 10.831467 2.9588671
-9.1920996 10.8566 2.9548502
-9.3150148 10.935683 2.9421511
-9.2448139 10.960156 2.9571562
-9.1876936 10.942884 2.9357312
-9.3085003 11.004 2.9029999
-9.2531824 11.019547 2.9423635
-9.3479996 11.593 2.96
-9.0436001 11.5954 2.9338002
-8.9291248 11.595876 2.9341249
-8.8455849 11.577438 2.9485855
-8.7678747 11.574833 2.9626665
-8.6029997 11.585 2.9979999
-8.5316668 11.584667 2.9966667
-8.4454994 11.56675 2.99475
-8.338625 11.562001 2.9953752
-8.2635002 11.549999 2.9936666
-8.1636677 11.513334 2.9976668
-7.6849999 11.559 2.997
-9.4132862 11.684644 2.977143
-9.3638096 11.660285 2.9435949
-9.2426214 11.648482 2.9470344
-9.1639013 11.6214 2.9486334
-9.0508337 11.611069 2.9621003
-8.9561186 11.613646 2.9531765
-8.8990002 11.607 2.9530001
-8.7489996 11.638075 2.9486096
-8.6070004 11.629001 2.9976668
-8.5703335 11.624334 2.9973335
-8.4436674 11.636333 2.9970002
-8.3418331 11.649334 2.9706666
-8.2670002 11.661 2.901
-8.1070004 11.636 2.9979999
-9.4119501 11.749103 2.9792249
-9.3699722 11.75929 2.9391446
-9.2421885 11.788563 2.9384687
-9.1999998 11.757 2.993
-8.9398003 11.775599 2.9424002
-8.868 11.745 2.9849999
-8.768199 11.724799 2.9496
-8.5830002 11.716 2.9960001
-8.3360004 11.718 2.941
-9.4219999 11.803 2.9920001
-9.3449574 11.805088 2.965174
-9.2314129 11.819122 2.9499755
0 0 0 1 0 0 0 1 0 0 0 1 0 0 0 0 0 644 1 0 0
