ply
format ascii 1.0
comment PCL generated
element vertex 785
property float x
property float y
property float z
element camera 1
property float view_px
property float view_py
property float view_pz
property float x_axisx
property float x_axisy
property float x_axisz
property float y_axisx
property float y_axisy
property float y_axisz
property float z_axisx
property float z_axisy
property float z_axisz
property float focal
property float scalex
property float scaley
property float centerx
property float centery
property int viewportx
property int viewporty
property float k1
property float k2
end_header
-17.396 -1.803 0
-16.53017 -1.8345863 0.06229309
-16.450449 -1.8481724 0.049811479
-16.344206 -1.8513594 0.056347311
-16.272688 -1.8371868 0.030523369
-17.511 -1.7361665 0.038583335
-17.450119 -1.7396621 0.052202702
-17.355391 -1.739342 0.045264948
-17.267103 -1.7236345 0.046682552
-16.319466 -1.7475001 0.080037504
-16.269602 -1.7487501 0.032347232
-17.5105 -1.6651249 0.066249996
-17.5 -1.615 0.096000001
-17.254177 -1.6505606 0.050975606
-16.533587 -1.6485885 0.066950902
-16.450788 -1.6665955 0.049427744
-16.351017 -1.6796063 0.048928156
-16.277632 -1.6836634 0.027789487
-18.225 -1.507 0.021
-18.150848 -1.5077305 0.057557698
-18.094501 -1.51 0.093999997
-17.500999 -1.5945001 0.055
-17.466667 -1.5066667 0.062249999
-17.32955 -1.5157785 0.056610733
-17.255852 -1.5483042 0.051505476
-18.410601 -1.4563999 0.015799999
-18.346691 -1.4622564 0.048025642
-18.251347 -1.4858698 0.049347822
-18.136353 -1.4560642 0.035199989
-18.083603 -1.4364129 0.080476202
-17.441628 -1.471138 0.052071415
-17.359697 -1.4774694 0.037348092
-17.271999 -1.494 0.052999999
-18.4165 -1.3785 0.024500001
-18.340937 -1.3188748 0.050375
-18.239798 -1.3099716 0.054028578
-18.145018 -1.3360702 0.044630032
-18.077566 -1.360553 0.070308954
-18.412001 -1.2819999 0.017999999
-18.338339 -1.2826037 0.041041322
-18.262934 -1.2939742 0.044350654
-16.628969 -1.8135999 0.16837141
-16.552334 -1.8245 0.14879826
-16.445713 -1.8341397 0.15400732
-16.369526 -1.8278276 0.12965591
-17.445198 -1.7102567 0.1526351
-17.350765 -1.7199383 0.15244442
-17.267946 -1.7203568 0.15041739
-16.633499 -1.7955 0.1525
-16.413446 -1.7465861 0.18277587
-16.366915 -1.7546295 0.13494076
-17.512501 -1.6814998 0.1499
-17.476002 -1.6676667 0.141
-17.255873 -1.648392 0.15037502
-16.630318 -1.6296352 0.16817515
-16.550627 -1.6434156 0.15011573
-16.449829 -1.6599262 0.15153408
-16.372053 -1.6705517 0.13083117
-18.132063 -1.5091875 0.14215626
-18.067678 -1.5142418 0.15540323
-17.517002 -1.5843334 0.17133334
-17.434628 -1.5109605 0.15619738
-17.34584 -1.5150529 0.15080957
-17.256374 -1.5436888 0.15054399
-18.317253 -1.4555 0.12900001
-18.248909 -1.4793556 0.14922224
-18.177334 -1.4948748 0.15891668
-18.04055 -1.4560478 0.14185116
-17.98764 -1.4337198 0.18563996
-17.5065 -1.4805 0.16049999
-17.455429 -1.4856853 0.14692269
-17.370996 -1.4943194 0.14144678
-18.314499 -1.348 0.132
-18.233789 -1.310869 0.14709093
-18.150616 -1.3238205 0.14841032
-18.048023 -1.3550107 0.14778435
-17.983786 -1.3751849 0.1784308
-18.307669 -1.2896667 0.11133333
-18.260294 -1.2896616 0.13675384
-18.174999 -1.3 0.15800001
-16.709 -1.8056667 0.24033332
-16.633474 -1.8081189 0.24411868
-16.54978 -1.8166839 0.24860835
-16.467157 -1.8182503 0.22756945
-17.502001 -1.7029999 0.20900001
-17.443159 -1.7077905 0.24650003
-17.347347 -1.7155063 0.25316051
-17.268368 -1.7190648 0.2496305
-16.729441 -1.7880586 0.26861769
-16.66836 -1.79526 0.25509998
-16.51161 -1.7590734 0.28895119
-16.464264 -1.7533295 0.24100596
-17.512859 -1.6679285 0.25007144
-17.471333 -1.6914999 0.26255557
-17.399 -1.693 0.236
-17.256153 -1.6492323 0.25100002
-16.724571 -1.6123904 0.26893896
-16.650869 -1.6242126 0.24908403
-16.547338 -1.6385248 0.25215429
-16.469208 -1.6580296 0.23596057
-18.120438 -1.5061251 0.24381252
-18.043545 -1.5191519 0.24554548
-17.968382 -1.5191431 0.26482537
-17.430418 -1.5118386 0.24204838
-17.348042 -1.5149655 0.24764809
-17.255589 -1.5428908 0.24902728
-16.733591 -1.5936296 0.2714074
-16.667999 -1.5964999 0.2325
-18.221384 -1.4637692 0.2313077
-18.164625 -1.4871875 0.25562498
-18.009335 -1.4690001 0.23100001
-17.941393 -1.4494797 0.24719499
-17.892654 -1.4257309 0.28884616
-17.5105 -1.4809999 0.25849998
-17.457224 -1.4840567 0.25096932
-17.375143 -1.4952003 0.26459998
-17.25425 -1.498 0.26824999
-18.2155 -1.3135624 0.220125
-18.144148 -1.3232043 0.24530399
-18.051252 -1.3451236 0.24845886
-17.9548 -1.3705649 0.25193477
-17.889654 -1.3845654 0.28526089
-18.2134 -1.2945999 0.21060002
-18.178547 -1.2954546 0.23927273
-16.723 -1.801 0.34299999
-16.631651 -1.8048 0.33945003
-16.570333 -1.8098181 0.32403031
-17.502998 -1.7025 0.31599998
-17.434578 -1.705485 0.34115151
-17.347586 -1.7123079 0.35079494
-17.270531 -1.7150992 0.34834555
-16.828102 -1.7651724 0.37613794
-16.750231 -1.7810968 0.3489612
-16.648846 -1.7859907 0.35732374
-16.560438 -1.7522861 0.34657302
-17.511387 -1.6762309 0.35123077
-17.457489 -1.6954464 0.35006383
-17.384499 -1.696 0.3865
-17.256638 -1.6512488 0.35163805
-16.80825 -1.6052499 0.33724999
-16.735949 -1.6094418 0.34565395
-16.647789 -1.6187422 0.34993398
-16.563093 -1.6429935 0.33988374
-18.112 -1.501 0.31999999
-18.04505 -1.5116976 0.3506977
-17.9384 -1.5306623 0.34077922
-17.871391 -1.5245159 0.36899999
-17.52 -1.591 0.338
-17.435448 -1.5245001 0.34139994
-17.346802 -1.5101956 0.34530494
-17.255053 -1.5395789 0.34830365
-16.823141 -1.5836195 0.37549296
-16.763256 -1.5910211 0.35439858
-16.660355 -1.5967648 0.36447057
-16.577501 -1.5983334 0.35900003
-18.135479 -1.4821739 0.33586958
-18.088715 -1.4888572 0.36542857
-17.908857 -1.4758571 0.31628573
-17.848341 -1.443625 0.35375857
-17.793402 -1.4156001 0.39399999
-17.502998 -1.465 0.38999999
-17.453527 -1.4810034 0.34977043
-17.362749 -1.4943686 0.35347372
-17.274101 -1.4928 0.37310001
-18.120365 -1.327805 0.32626832
-18.050333 -1.3402131 0.34895381
-17.9498 -1.3675156 0.34761435
-17.868639 -1.3867133 0.35567337
-18.085333 -1.289 0.37400001
-17.433704 -1.7049999 0.43255556
-17.346329 -1.7096564 0.45079678
-17.273493 -1.7152326 0.4485206
-16.924871 -1.7391291 0.47093549
-16.845472 -1.7604713 0.45255047
-16.750284 -1.7735983 0.44862613
-16.65719 -1.7493713 0.44407851
-17.514502 -1.6577002 0.4447
-17.452564 -1.6949997 0.45643631
-17.376001 -1.6975002 0.44650003
-17.258173 -1.6513965 0.45166224
-16.927002 -1.6443332 0.47466668
-16.854 -1.6154284 0.43628573
-16.734602 -1.6063422 0.43732879
-16.657137 -1.6375394 0.44160682
-16.59 -1.63 0.405
-18.035652 -1.5084348 0.43617392
-17.953058 -1.5285193 0.45205772
-17.839808 -1.5404521 0.43655774
-17.770523 -1.5313627 0.47363743
-17.518999 -1.5885 0.44949999
-17.441277 -1.5226111 0.44494444
-17.343153 -1.509396 0.44351679
-17.254261 -1.5367219 0.44834325
-16.919966 -1.5586965 0.48014283
-16.848915 -1.576419 0.45207933
-16.755318 -1.5874889 0.45322022
-16.671116 -1.5915515 0.45299989
-18.055929 -1.4599288 0.44178581
-17.936001 -1.401 0.41499999
-17.819529 -1.4264723 0.42951381
-17.764643 -1.4399602 0.455605
-17.504 -1.462 0.45050001
-17.453657 -1.4764879 0.45001423
-17.364426 -1.4925039 0.45692673
-17.272079 -1.4986153 0.4614616
-18.025558 -1.3433377 0.4310649
-17.952288 -1.3629296 0.44888973
-17.856577 -1.3836828 0.45186672
-17.782471 -1.3940001 0.46041176
-17.430668 -1.7049999 0.53200001
-17.342691 -1.7081636 0.54460001
-17.277519 -1.7108394 0.54660714
-17.024853 -1.71955 0.57755005
-16.949442 -1.7353522 0.55188638
-16.851501 -1.7509384 0.55047953
-16.750948 -1.7435497 0.54299384
-16.695667 -1.7436666 0.5025
-17.540125 -1.6412499 0.56112504
-17.452345 -1.6901599 0.5524134
-17.373173 -1.6958261 0.56286955
-17.259981 -1.649386 0.54913026
-17.019001 -1.6289999 0.57249999
-16.969 -1.6160001 0.52066672
-16.825003 -1.6225715 0.55485719
-16.743895 -1.6496625 0.54964608
-16.6978 -1.6448001 0.50220007
-18.007 -1.505 0.5
-17.93738 -1.5266213 0.54313523
-17.852306 -1.5459998 0.5486415
-17.734604 -1.5503951 0.53724843
-17.681038 -1.5419177 0.57505882
-17.518 -1.5855 0.53049999
-17.4645 -1.5296251 0.55024999
-17.336445 -1.5075959 0.54756564
-17.255201 -1.535054 0.54853588
-17.017595 -1.537214 0.58285707
-16.947197 -1.5558575 0.55344135
-16.850031 -1.5711191 0.55147529
-16.761812 -1.5814105 0.54160357
-16.694 -1.592 0.50325
-17.9585 -1.46675 0.56262499
-17.826166 -1.4100558 0.5410555
-17.738741 -1.4236134 0.54208124
-17.671307 -1.4438086 0.56365275
-17.50675 -1.46675 0.53512502
-17.449884 -1.4712051 0.55043739
-17.358837 -1.4917186 0.55289376
-17.265104 -1.4951034 0.56572413
-17.932985 -1.3604884 0.53358763
-17.85244 -1.3797736 0.54976022
-17.774481 -1.3923637 0.56062341
-17.416 -1.7035 0.64049995
-17.334108 -1.7055405 0.64313507
-17.279678 -1.7094678 0.64929783
-17.108002 -1.7066667 0.67733335
-17.046501 -1.7141712 0.65572369
-16.951426 -1.7295823 0.64852762
-16.849459 -1.7329293 0.64580274
-16.793077 -1.7233846 0.60615379
-17.519133 -1.6538668 0.65600002
-17.446941 -1.6872286 0.65240008
-17.365879 -1.6953657 0.65314633
-17.261961 -1.6497157 0.64850241
-17.125463 -1.676923 0.6726923
-17.07325 -1.6785001 0.63112497
-16.839634 -1.6498221 0.65675664
-16.793852 -1.6454 0.60600007
-17.9098 -1.5252 0.61739999
-17.84494 -1.5383583 0.64779246
-17.748508 -1.563 0.64832079
-17.640741 -1.5606221 0.64198071
-17.580469 -1.5330623 0.67771882
-17.4974 -1.529 0.65780002
-17.33217 -1.5057658 0.64178723
-17.256031 -1.5386132 0.64621276
-17.116608 -1.520913 0.68313038
-17.047697 -1.5313956 0.65376484
-16.948561 -1.5468652 0.64965689
-16.856905 -1.5652306 0.64576936
-16.793367 -1.5783683 0.60868412
-17.919001 -1.494 0.61699998
-17.856901 -1.4408001 0.65140003
-17.729559 -1.4084632 0.64691591
-17.647652 -1.4284023 0.64577919
-17.575317 -1.4510704 0.66846097
-17.44593 -1.4665852 0.64674258
-17.35635 -1.4867816 0.65189576
-17.271685 -1.4941 0.66306663
-17.108999 -1.4982001 0.67580003
-17.091667 -1.4936666 0.65100002
-17.903334 -1.3673334 0.61333334
-17.839239 -1.3739437 0.63769716
-17.766197 -1.3881841 0.6531592
-17.689001 -1.3963335 0.66483331
-17.325647 -1.7038234 0.74952942
-17.28043 -1.7072145 0.74542868
-17.118729 -1.7036364 0.73881829
-17.043797 -1.7105072 0.74475378
-16.951565 -1.7180479 0.7484808
-16.889299 -1.7212998 0.71245003
-17.540169 -1.6359166 0.74791664
-17.450806 -1.6795325 0.75071412
-17.359564 -1.6910703 0.74950862
-17.262255 -1.6506025 0.74290836
-17.147663 -1.6865151 0.7561819
-17.07943 -1.6946429 0.76207143
-16.93396 -1.6513386 0.76272595
-16.888897 -1.6516875 0.71293753
-17.822142 -1.5350716 0.72007143
-17.748846 -1.5517963 0.75074565
-17.6492 -1.5777454 0.75047457
-17.574869 -1.5557333 0.73000002
-17.497 -1.5183333 0.73800004
-17.328112 -1.5042223 0.73644447
-17.253084 -1.5405633 0.75001061
-17.13649 -1.5144829 0.75574714
-17.049082 -1.5237353 0.75064147
-16.951021 -1.5457705 0.74814302
-16.888697 -1.5626978 0.71441859
-17.816 -1.4630001 0.71499997
-17.724998 -1.410148 0.74177766
-17.64254 -1.4158272 0.74719799
-17.552841 -1.4446114 0.74947757
-17.446356 -1.4608116 0.75051624
-17.35256 -1.4813087 0.75080025
-17.271353 -1.491827 0.75136364
-17.162794 -1.4964484 0.77041382
-17.8106 -1.383 0.72119999
-17.741671 -1.3860118 0.74360931
-17.672264 -1.3947145 0.76124495
-17.323126 -1.7043749 0.82950002
-17.283529 -1.7046471 0.84364706
-17.116751 -1.7030001 0.83424997
-17.046339 -1.7061913 0.83482957
-16.981167 -1.7073333 0.81325001
-17.519787 -1.6499286 0.83992875
-17.448999 -1.6744787 0.85233319
-17.354319 -1.6902765 0.85027689
-17.25547 -1.6761075 0.85292178
-17.151207 -1.6850513 0.8488977
-17.039944 -1.6621133 0.86533064
-16.983118 -1.6521834 0.81810004
-17.729681 -1.5473636 0.82822734
-17.649652 -1.5690345 0.85112071
-17.584431 -1.5918573 0.85900003
-17.435669 -1.51 0.838
-17.308636 -1.5115455 0.872091
-17.249212 -1.5143681 0.83171046
-17.141041 -1.5090568 0.84139007
-17.046919 -1.5271568 0.85052508
-16.983171 -1.5517732 0.81860012
-17.720001 -1.4623334 0.81900001
-17.637941 -1.4110843 0.84459245
-17.551025 -1.4260744 0.84846514
-17.453836 -1.4553744 0.85248584
-17.352526 -1.4767909 0.84801638
-17.248945 -1.486237 0.85215199
-17.159389 -1.4937418 0.85645324
-17.081436 -1.496375 0.87331253
-17.713951 -1.3835716 0.81261909
-17.665491 -1.3876154 0.84770191
-17.580502 -1.398 0.88699996
-17.306 -1.705 0.96399999
-17.2805 -1.7035 0.93850005
-17.139 -1.7079999 0.95300001
-17.076 -1.702 0.90499997
-17.510145 -1.6562859 0.95314288
-17.449141 -1.6694854 0.95118582
-17.349709 -1.6844105 0.95076919
-17.255249 -1.6755503 0.94945014
-17.138008 -1.6611457 0.95720536
-17.078869 -1.6515143 0.92169994
-17.639313 -1.5584062 0.93356252
-17.591143 -1.5829999 0.94100004
-17.344168 -1.5131668 0.91908324
-17.224834 -1.5076666 0.95766664
-17.132805 -1.531063 0.95932823
-17.07848 -1.542231 0.92373067
-17.618542 -1.4183335 0.92120826
-17.547022 -1.420444 0.94755119
-17.447021 -1.4408696 0.94770128
-17.353498 -1.4657712 0.95212126
-17.252171 -1.4769627 0.9506408
-17.156902 -1.4905847 0.94880325
-17.08753 -1.4960001 0.9231177
-17.620077 -1.3899261 0.91937035
-17.579428 -1.391212 0.95824242
-17.4494 -1.3967999 0.98080009
-17.284 -1.7029999 1.008
-17.510859 -1.6560714 1.0527858
-17.450527 -1.6665138 1.0493888
-17.350931 -1.679895 1.0502765
-17.249943 -1.6576383 1.0558883
-17.176264 -1.6383057 1.0262915
-17.608 -1.5434999 1.0015
-17.565001 -1.5387499 1.0445
-17.218679 -1.5473729 1.0767289
-17.17145 -1.547102 1.0283163
-17.523836 -1.4202535 1.0293664
-17.450092 -1.4321368 1.050365
-17.352499 -1.4531537 1.050988
-17.249268 -1.4680513 1.0485224
-17.179695 -1.4844308 1.0299584
-17.528866 -1.3954668 1.0283334
-17.489201 -1.3962001 1.0694001
-17.285999 -1.701 1.153
-17.518934 -1.6458668 1.1538001
-17.452255 -1.6626667 1.1483976
-17.35162 -1.6776897 1.1495774
-17.26989 -1.6501868 1.1527005
-17.519714 -1.5550001 1.1569999
-17.255056 -1.5497437 1.1532339
-17.507502 -1.4272499 1.151
-17.451206 -1.4326468 1.1477525
-17.351536 -1.4473643 1.1518003
-17.263813 -1.472555 1.1468022
-17.283337 -1.7026666 1.253
-17.510883 -1.651 1.2453529
-17.449615 -1.6601532 1.2491251
-17.348024 -1.6758684 1.2474736
-17.272331 -1.6483254 1.2492201
-17.523401 -1.5452001 1.2490001
-17.316999 -1.5404999 1.262
-17.259096 -1.5498011 1.2489095
-17.507572 -1.426286 1.2492857
-17.452675 -1.435186 1.2503836
-17.348267 -1.4560238 1.2509269
-17.265007 -1.4810976 1.2476195
-17.517906 -1.640619 1.352381
-17.450472 -1.6557 1.3498858
-17.34831 -1.6701893 1.3494323
-17.27622 -1.6472377 1.3486392
-17.516167 -1.5463333 1.3516668
-17.334 -1.512 1.398
-17.26108 -1.5506469 1.3489108
-17.509335 -1.4248333 1.3496668
-17.450985 -1.4321754 1.350438
-17.350433 -1.4586835 1.3495733
-17.26495 -1.4785486 1.3476577
-17.480667 -1.3943334 1.3683333
-17.350002 -1.8523115 1.4854053
-17.409374 -1.750375 1.4785
-17.328737 -1.7533884 1.4795631
-17.294437 -1.7380002 1.493652
-17.514864 -1.6360455 1.4421819
-17.451368 -1.6534003 1.4483691
-17.345182 -1.6699094 1.4473897
-17.278385 -1.6458923 1.4509603
-17.512602 -1.5252 1.4510001
-17.262758 -1.5504712 1.4499871
-17.504 -1.4196 1.4353999
-17.449558 -1.4285818 1.4503133
-17.349094 -1.4527614 1.4489521
-17.267832 -1.4761838 1.4492246
-17.48275 -1.3972501 1.4677501
-17.311939 -1.852283 1.5484462
-17.295429 -1.8302858 1.543381
-17.308649 -1.7658648 1.5618651
-17.290915 -1.7458438 1.5447065
-17.524334 -1.6396668 1.513
-17.483999 -1.675 1.5
-17.306402 -1.6582001 1.5618
-17.280439 -1.6503756 1.5500046
-17.519125 -1.546375 1.55725
-17.263134 -1.5503538 1.5496265
-17.504 -1.4165 1.5515
-17.449131 -1.4246781 1.5503088
-17.35059 -1.4483811 1.5502434
-17.265583 -1.4712 1.5475363
-17.487251 -1.3945 1.55825
-17.319077 -1.8505001 1.6131201
-17.316195 -1.7632257 1.6178385
-17.295467 -1.7296001 1.6084669
-17.530001 -1.602 1.67
-17.431126 -1.6478751 1.688875
-17.338591 -1.6574464 1.6630177
-17.280312 -1.6378675 1.6485962
-17.519777 -1.5437777 1.6484444
-17.265144 -1.5503238 1.6485685
-17.513224 -1.4147776 1.6458889
-17.449574 -1.4202309 1.6482624
-17.350895 -1.444836 1.649248
-17.267183 -1.4699748 1.6501434
-17.485624 -1.3928751 1.6726251
-17.515574 -1.6247859 1.7573572
-17.451202 -1.6382792 1.7500147
-17.347906 -1.652 1.7496581
-17.280277 -1.6351759 1.7470733
-17.521223 -1.5465556 1.7616668
-17.308001 -1.582 1.7544999
-17.267015 -1.5496552 1.7505838
-17.508667 -1.408 1.7256668
-17.446674 -1.4170144 1.7473663
-17.3505 -1.4406651 1.7479358
-17.265652 -1.4667011 1.7488936
-17.479816 -1.395 1.7485
-17.512079 -1.6274617 1.8496923
-17.451189 -1.6347572 1.8493003
-17.351137 -1.6488332 1.8500696
-17.28298 -1.6341969 1.8479131
-17.536999 -1.5415455 1.8443639
-17.309999 -1.5965 1.8715
-17.268299 -1.5519625 1.849852
-17.516802 -1.4726 1.865
-17.443626 -1.4134685 1.8465543
-17.349874 -1.4352818 1.8485355
-17.265917 -1.4658151 1.8485157
-17.471313 -1.393594 1.8544687
-17.511501 -1.626889 1.9486665
-17.452181 -1.6298212 1.9492834
-17.349003 -1.6459726 1.9514997
-17.282555 -1.6282786 1.94766
-17.538111 -1.521 1.9415556
-17.302502 -1.5864999 1.955
-17.269258 -1.5502962 1.9500966
-17.512606 -1.4248788 1.9502728
-17.441532 -1.4118012 1.9481859
-17.350468 -1.4317611 1.9504304
-17.266848 -1.4618651 1.9492121
-17.51306 -1.3797059 1.9823525
-17.4552 -1.3932 1.9633802
-17.380667 -1.3933334 1.9945
-17.514915 -1.6167501 2.0446668
-17.450243 -1.6257567 2.0490999
-17.345055 -1.6423156 2.0516443
-17.284077 -1.627731 2.0482476
-17.539 -1.5174999 2.0395
-17.3095 -1.5925 2.039
-17.272144 -1.5507752 2.0499456
-17.539362 -1.4634546 2.0306363
-17.437601 -1.406 2.0023999
-17.338596 -1.4274648 2.0481858
-17.269098 -1.4593396 2.0478919
-17.510246 -1.341316 2.0378246
-17.450365 -1.3472401 2.0448534
-17.370451 -1.3524226 2.0573709
-17.510635 -1.2815002 2.0815909
-17.466524 -1.2885503 2.0881751
-17.376835 -1.2915 2.095
-17.512714 -1.6135001 2.1530004
-17.453165 -1.621015 2.1492541
-17.347448 -1.6363288 2.1497364
-17.287537 -1.627443 2.1514771
-17.306 -1.554 2.1889999
-17.272966 -1.55238 2.1483026
-17.528 -1.472 2.1447999
-17.337452 -1.4263395 2.1501369
-17.270256 -1.4564824 2.1496294
-17.509201 -1.3349999 2.1572001
-17.4335 -1.3065 2.105
-17.355173 -1.3419225 2.1455548
-17.507587 -1.2410346 2.1325173
-17.450472 -1.2461969 2.145154
-17.363598 -1.2591449 2.1579411
-17.505499 -1.17775 2.1856251
-17.469702 -1.1875 2.1845555
-17.3575 -1.198 2.1869998
-17.511402 -1.6108999 2.2422004
-17.452089 -1.6176307 2.2471542
-17.347645 -1.6328335 2.2507081
-17.288559 -1.6228122 2.2509248
-17.526751 -1.5655 2.2590001
-17.303402 -1.5554001 2.2623999
-17.275427 -1.5506505 2.2494197
-17.405001 -1.416 2.293
-17.338793 -1.4232395 2.2503743
-17.271311 -1.4536116 2.2499714
-17.509001 -1.323 2.2581999
-17.35795 -1.3412118 2.242636
-17.425375 -1.2065001 2.2065001
-17.34663 -1.2475766 2.2473605
-17.50675 -1.13025 2.256875
-17.449827 -1.1466008 2.2446432
-17.358253 -1.1588069 2.2577224
-17.463179 -1.0919641 2.286607
-17.380625 -1.0960001 2.2943749
-17.511572 -1.607 2.353143
-17.450972 -1.6138089 2.3494859
-17.34304 -1.6314807 2.3483644
-17.290253 -1.6199436 2.3497605
-17.523573 -1.5672858 2.3418574
-17.476501 -1.597 2.3264999
-17.3102 -1.5504 2.3604
-17.278564 -1.5514039 2.3493395
-17.533333 -1.4753335 2.3903332
-17.4132 -1.4098001 2.3555999
-17.346325 -1.4165157 2.3498483
-17.271528 -1.4520134 2.350982
-17.507999 -1.3475 2.35725
-17.419563 -1.3823125 2.3641875
-17.371696 -1.3457174 2.3369348
-17.285 -1.399 2.382
-17.49 -1.202 2.313
-17.348593 -1.2467035 2.3477678
-17.517599 -1.1126001 2.3188
-17.453001 -1.1262858 2.3243573
-17.335136 -1.1464537 2.3452055
-17.512524 -1.0725238 2.3564763
-17.441572 -1.0482988 2.347194
-17.354931 -1.0564433 2.3586669
-17.432262 -0.99195665 2.392652
-17.372667 -0.99683344 2.3916667
-17.515333 -1.6033334 2.4490001
-17.455923 -1.6110307 2.449892
-17.341164 -1.6292069 2.4512644
-17.293362 -1.6201556 2.4472756
-17.529144 -1.5731431 2.4635715
-17.465 -1.5986667 2.4289999
-17.305 -1.5543334 2.4476669
-17.279337 -1.5488294 2.4490573
-17.522301 -1.4507 2.448
-17.42112 -1.4065294 2.4491174
-17.344608 -1.4148347 2.4474576
-17.269875 -1.4497164 2.4497788
-17.5075 -1.3805 2.4679999
-17.427197 -1.3886254 2.4565895
-17.376432 -1.3933336 2.4531
-17.292 -1.376 2.402
-17.435858 -1.2291429 2.4572859
-17.361721 -1.2326922 2.432523
-17.458666 -1.1771111 2.4655557
-17.337093 -1.1500373 2.4461439
-17.516216 -1.031143 2.4176431
-17.474779 -1.0302222 2.4350002
-17.325502 -1.0458225 2.4436858
-17.511286 -0.97957146 2.4685717
-17.439438 -0.95012432 2.4474437
-17.351118 -0.9586798 2.4579599
-17.436882 -0.89100009 2.4906471
-17.359249 -0.89499998 2.49575
-17.516468 -1.6144668 2.5701334
-17.44895 -1.6179491 2.5532157
-17.339092 -1.6269196 2.5490468
-17.295034 -1.6218544 2.5462363
-17.535908 -1.5846363 2.5498183
-17.4855 -1.595 2.5285001
-17.307083 -1.5695833 2.5519168
-17.280983 -1.5490428 2.5509322
-17.515699 -1.4395 2.5466001
-17.427546 -1.409091 2.5477276
-17.342381 -1.4134897 2.5517075
-17.270082 -1.4492286 2.5493124
-17.512333 -1.3826666 2.5609999
-17.437075 -1.3854859 2.5534391
-17.382517 -1.3960344 2.5503793
-17.285999 -1.3839999 2.566
-17.451998 -1.1424737 2.5397894
-17.348639 -1.1286192 2.5269685
-17.457636 -1.0589092 2.5724549
-17.325069 -1.0482954 2.5484598
-17.518112 -0.9436667 2.526
-17.462748 -0.91256255 2.5143747
-17.318018 -0.9441033 2.5419233
-17.297541 -0.91823077 2.5539229
-17.509001 -0.89300007 2.5656669
-17.433842 -0.85411906 2.547771
-17.349911 -0.85961747 2.5576961
-17.297201 -0.87746662 2.5824001
-17.422625 -0.791875 2.5926251
-17.38925 -0.79425001 2.5952501
-17.44125 -1.70275 2.69525
-17.525404 -1.6487144 2.6460238
-17.441599 -1.6633458 2.6498508
-17.351974 -1.6305704 2.6517196
-17.295485 -1.6168487 2.6344247
-17.555111 -1.5525556 2.6444445
-17.306765 -1.5755881 2.6437056
-17.282991 -1.5486917 2.6513019
-17.517376 -1.449 2.6443748
-17.430002 -1.4087144 2.6375718
-17.343632 -1.4134616 2.6513076
-17.272116 -1.4499556 2.6517372
-17.5075 -1.3715625 2.6770003
-17.448195 -1.3802577 2.6510317
-17.378515 -1.3947574 2.6480613
-17.293001 -1.3753333 2.6286666
-17.443499 -1.0372273 2.6410458
-17.340631 -1.0288836 2.6306498
-17.438999 -0.9885 2.6877501
-17.316845 -0.95373571 2.6449213
-17.299667 -0.91566676 2.6146667
-17.507 -0.81999999 2.6700001
-17.461512 -0.82951349 2.6222703
-17.318047 -0.85384858 2.6361668
-17.294851 -0.84251857 2.6505187
-17.433697 -0.77358001 2.6319199
-17.351015 -0.76480883 2.6535294
-17.294401 -0.77790004 2.6768
-17.530502 -1.7132146 2.7670717
-17.446821 -1.723278 2.7585776
-17.396 -1.709 2.767
-17.536283 -1.6806667 2.7241907
-17.420162 -1.6746664 2.7404313
-17.355875 -1.6322078 2.7500377
-17.295177 -1.6105294 2.7429411
-17.543499 -1.5722501 2.7507501
-17.307201 -1.5654666 2.7610672
-17.283689 -1.5492734 2.7493346
-17.524 -1.4734 2.7574
-17.41 -1.414 2.7
-17.336908 -1.4125657 2.7426765
-17.275627 -1.4475762 2.7509232
-17.511667 -1.3687669 2.7550335
-17.452238 -1.3759488 2.7488966
-17.369705 -1.3888808 2.7556543
-17.287334 -1.3976667 2.7533336
-17.435112 -0.93866664 2.7423337
-17.337572 -0.93418175 2.7342732
-17.299999 -0.90200001 2.72
-17.44743 -0.8662858 2.7665718
-17.312981 -0.86218727 2.7534168
-17.296864 -0.83390903 2.7446365
-17.431999 -0.73333329 2.7396667
-17.31889 -0.7317037 2.7284815
-17.289108 -0.75425923 2.7534258
-17.418364 -0.65518183 2.7499089
-17.350473 -0.65777206 2.7609119
-17.286911 -0.68118185 2.7833641
-17.4135 -0.59350002 2.7954998
-17.461 -1.8066667 2.8909998
-17.536325 -1.7559592 2.8494492
-17.438211 -1.7553914 2.8490949
-17.396252 -1.71275 2.8400002
-17.562 -1.6726 2.8534
-17.409569 -1.6690538 2.849757
-17.353882 -1.6294208 2.8487458
-17.295467 -1.6125335 2.8493335
-17.542999 -1.5668 2.8466001
-17.307943 -1.5700556 2.8517773
-17.286551 -1.5474323 2.850193
-17.524 -1.4488 2.8576
-17.328699 -1.4088914 2.8379128
-17.276718 -1.4475771 2.8493464
-17.511532 -1.3624706 2.849853
-17.453835 -1.3704644 2.847755
-17.357975 -1.3873705 2.8521485
-17.28977 -1.3943076 2.8649232
-17.43858 -0.84447372 2.8399999
-17.332619 -0.83826196 2.838429
-17.298801 -0.8186 2.8192003
-17.436666 -0.74588889 2.8604448
-17.318001 -0.77766663 2.863095
-17.292038 -0.74523085 2.8460386
-17.418249 -0.60874999 2.8379998
-17.326311 -0.62087494 2.8223126
-17.281096 -0.65467197 2.8559012
-17.412716 -0.55599999 2.8658574
-17.349459 -0.56085998 2.8550992
-17.286001 -0.57813334 2.8766
-17.535233 -1.8207208 2.9619536
-17.453455 -1.8233428 2.9542348
-17.554548 -1.7810999 2.9265001
-17.420748 -1.7591381 2.947983
-17.4 -1.712 2.9115
-17.5578 -1.6644001 2.9599998
-17.409792 -1.6598105 2.9489827
-17.347595 -1.6196737 2.9495432
-17.296501 -1.6105 2.9275
-17.542 -1.5639999 2.9485002
-17.4224 -1.5979999 2.9742
-17.31315 -1.57665 2.9472997
-17.272343 -1.5413465 2.9518499
-17.530334 -1.4296668 2.9453335
-17.400999 -1.408 2.921
-17.328259 -1.4108262 2.9429131
-17.254225 -1.4496889 2.945852
-17.15 -1.4298 2.9726
-17.519485 -1.3618835 2.9579508
-17.448898 -1.3585588 2.949605
-17.357962 -1.3851224 2.948632
-17.274691 -1.3856153 2.9480515
-17.174 -1.393 2.9949999
-17.354 -0.80199999 2.911
-17.429646 -0.73547047 2.9434121
-17.333324 -0.74460006 2.9433248
-17.290667 -0.72346669 2.9293334
-17.450001 -0.69800001 2.987
-17.3396 -0.66479999 2.99
-17.283091 -0.65016413 2.9494181
-17.416143 -0.56942862 2.9432859
-17.333469 -0.52286667 2.9126003
-17.271492 -0.5486418 2.9515071
-17.403667 -0.47299999 2.9593332
-17.348858 -0.46383333 2.9577143
-17.270483 -0.47190326 2.9724197
0 0 0 1 0 0 0 1 0 0 0 1 0 0 0 0 0 785 1 0 0
