ply
format ascii 1.0
comment PCL generated
element vertex 636
property float x
property float y
property float z
element camera 1
property float view_px
property float view_py
property float view_pz
property float x_axisx
property float x_axisy
property float x_axisz
property float y_axisx
property float y_axisy
property float y_axisz
property float z_axisx
property float z_axisy
property float z_axisz
property float focal
property float scalex
property float scaley
property float centerx
property float centery
property int viewportx
property int viewporty
property float k1
property float k2
end_header
-6.6402225 3.6593616 0.038694449
-6.5768676 3.666369 0.028894736
-6.4849997 3.6964998 0.057
-6.7507319 3.7395773 0.052557696
-6.6474171 3.7176666 0.083250001
-6.5398011 3.7147117 0.048977777
-6.48103 3.7558692 0.049434353
-6.7414365 3.8460252 0.0493077
-6.5056663 3.8700004 0.052333336
-6.4736638 3.851295 0.050147392
-6.6470561 3.9591715 0.055457141
-6.5545931 3.9510374 0.044000007
-6.4712186 3.9182391 0.052239135
-6.877562 4.0394912 0.045981821
-6.7316809 4.0494909 0.053339627
-6.681334 4.0535555 0.053111114
-6.5999999 4.027 0.0049999999
-6.8546796 4.1379628 0.048188686
-6.7492781 4.1326666 0.05072223
-6.5359998 3.694 0.106
-6.4829998 3.6949999 0.122
-6.8239999 3.78 0.154
-6.7430005 3.7610807 0.14870271
-6.6531086 3.7352436 0.14981082
-6.5443468 3.7195306 0.14793876
-6.484386 3.7535377 0.14900003
-5.9134374 3.7509372 0.18593751
-5.7176003 3.7787998 0.16940001
-6.74931 3.8498096 0.15111905
-6.52 3.836 0.139
-6.4760308 3.8486471 0.15032351
-5.9134283 3.8215716 0.18528573
-5.8512244 3.8214288 0.15185715
-5.6795387 3.8086152 0.14269231
-6.7439499 3.9533594 0.15051281
-6.6536598 3.9506595 0.14956819
-6.5494509 3.939549 0.14949019
-6.4702635 3.9207549 0.15124562
-6.6945558 4.0795555 0.14300001
-5.928 3.655 0.29499999
-5.8395009 3.6923244 0.24847499
-6.6559734 3.73927 0.25010812
-6.5527897 3.7253957 0.24858139
-6.4794521 3.7549651 0.24883334
-6.0019999 3.763 0.26300001
-5.943882 3.7349577 0.25398934
-5.8595295 3.7066767 0.26023528
-5.7406735 3.7471275 0.25411826
-6.7421832 3.8486366 0.25181818
-6.4730687 3.852519 0.24954806
-6.006 3.822 0.294
-5.9481339 3.8365107 0.25331107
-5.8461223 3.831073 0.25817069
-5.7583327 3.8163331 0.24822228
-5.698 3.812 0.223
-6.6532912 3.952244 0.24741463
-6.5475607 3.9431043 0.24420834
-6.469439 3.9215612 0.24877197
-5.91675 3.6919999 0.33574998
-5.8479314 3.6798139 0.34447461
-5.7989998 3.6930001 0.30399999
-6.6450281 3.742286 0.34931424
-6.5497899 3.7295005 0.35231578
-6.4794731 3.7537644 0.35024723
-6.0427833 3.7513483 0.35660872
-5.9548721 3.7190366 0.34930912
-5.8408861 3.7336612 0.35576612
-5.7860341 3.756103 0.31486204
-6.4734097 3.8491812 0.34890476
-6.0405884 3.8390293 0.35602945
-5.9521561 3.8511562 0.34940627
-5.8433762 3.8285086 0.35675415
-5.7898889 3.8168886 0.31644449
-6.5506968 3.9456611 0.34675008
-6.4713736 3.9254746 0.34877962
-5.8653331 3.687444 0.40611109
-6.5468154 3.7308161 0.44831583
-6.4834576 3.7561452 0.44944581
-6.1300645 3.7649994 0.46803227
-6.05337 3.7404833 0.44708067
-5.9416537 3.7401972 0.45789105
-5.8758183 3.7533104 0.42094538
-6.1316428 3.8533931 0.46253577
-6.0559416 3.867228 0.4456571
-5.9423218 3.8475766 0.45879668
-5.8800001 3.8229997 0.43090624
-6.4716878 3.9276419 0.44985068
-6.4821286 3.7625849 0.54605722
-6.2177 3.7842999 0.579
-6.1515083 3.7596781 0.55001694
-6.0422106 3.7512367 0.55832881
-5.973835 3.7653883 0.52997965
-6.474864 3.84866 0.54809707
-6.2245626 3.8602502 0.56824994
-6.1572285 3.8760006 0.54808575
-6.0344687 3.8634493 0.56181633
-5.9721851 3.8363554 0.53698313
-6.4726853 3.9280925 0.55066663
-6.0444999 3.9054999 0.59249997
-5.9855003 3.9015002 0.52999997
-6.5497174 3.7377446 0.64838463
-6.4793849 3.7631927 0.65519232
-6.3368001 3.7868001 0.6638
-6.2480621 3.7794375 0.65137488
-6.1448641 3.7642713 0.65488136
-6.0683336 3.771883 0.63207859
-6.4755001 3.851898 0.64747715
-6.3330002 3.8455002 0.66374999
-6.2541051 3.8776314 0.62878942
-6.1407008 3.886601 0.65527499
-6.0602474 3.8453925 0.64533693
-6.3121662 3.9111667 0.67433333
-6.2415714 3.9097712 0.66342854
-6.1588001 3.9053998 0.65900004
-6.0809999 3.9059999 0.66100001
-6.5471945 3.7428887 0.75030559
-6.4811316 3.7686574 0.74792111
-6.3284373 3.7911875 0.76106244
-6.2467947 3.7815385 0.75441021
-6.1692305 3.780103 0.73833323
-6.471055 3.8455176 0.74367869
-6.3604617 3.8374619 0.74092311
-6.2317505 3.8942499 0.74825001
-6.1467857 3.8519166 0.74756992
-6.099 3.878 0.70099998
-6.3423219 3.9254844 0.75599998
-6.250236 3.9165459 0.75074553
-6.173316 3.9057894 0.7434209
-6.480947 3.7689996 0.85215801
-6.3444009 3.7928002 0.84046662
-6.2626114 3.7906389 0.83727771
-6.1989999 3.796 0.80500001
-6.4647923 3.8214486 0.84844822
-6.3637695 3.8036921 0.85738462
-6.2349763 3.8487434 0.85454655
-6.1934443 3.8472223 0.80911118
-6.3472443 3.9346671 0.85095555
-6.2526727 3.9175997 0.84503627
-6.4853539 3.7724121 0.94885302
-6.3240004 3.797667 0.92566669
-6.4492507 3.8156786 0.95292854
-6.3353233 3.8418024 0.96038043
-6.2838101 3.8584056 0.92110807
-6.4541669 3.9545951 0.94935721
-6.3468938 3.9340527 0.95487517
-6.2852306 3.9181538 0.92299998
-6.644455 3.7742171 1.0487392
-6.5407033 3.7581251 1.0562969
-6.4866333 3.7733333 1.0476002
-6.443429 3.8354297 1.0618731
-6.3725114 3.8612003 1.0297333
-6.5499768 3.9759521 1.0534762
-6.4425211 3.9540975 1.0568873
-6.3760004 3.9249678 1.0312258
-6.5359998 4 1.084
-6.4763999 4.0111003 1.0613
-6.7331586 3.7910004 1.1468948
-6.6468701 3.780674 1.1502173
-6.539989 3.7662768 1.1508673
-6.4905186 3.7759261 1.1507406
-6.7522826 3.8493853 1.1464359
-6.5227499 3.8087499 1.1600001
-6.4739041 3.8493836 1.1525211
-6.6443586 3.9896147 1.1491283
-6.5494208 3.9805441 1.1482983
-6.4620352 3.9442101 1.1477441
-6.7413788 4.0144868 1.1491082
-6.678688 4.006125 1.1411248
-6.7249293 3.7917144 1.2548573
-6.6455002 3.7849312 1.2465683
-6.5410614 3.7695065 1.2486421
-6.488483 3.7801721 1.2587931
-6.8470001 3.825 1.226
-6.7435741 3.8476806 1.2496383
-6.6139998 3.8025 1.2550001
-6.5148745 3.8121247 1.249
-6.4796948 3.851337 1.2500437
-6.7425666 3.9576516 1.2532607
-6.6441483 3.9872956 1.2458889
-6.5487204 3.9793732 1.2444186
-6.4705291 3.9451914 1.2459548
-6.7470303 4.053803 1.2485604
-6.680511 4.0395846 1.2485853
-6.5126667 4.0026665 1.2763333
-6.7329621 4.1253333 1.2745926
-6.6825004 4.1219287 1.2832143
-6.7243533 3.7941182 1.3437648
-6.6404276 3.786453 1.3520238
-6.5400333 3.7741888 1.3505652
-6.4914002 3.77915 1.3495499
-6.7459497 3.8474634 1.3504634
-6.6986666 3.8026667 1.3656667
-6.5113006 3.8260999 1.3559998
-6.4835415 3.8516459 1.3481877
-6.7331018 3.9558201 1.3480769
-6.63941 3.9930456 1.3389546
-6.5453391 3.9850399 1.3499398
-6.4702272 3.9464304 1.3506558
-6.7308831 4.0422091 1.3410232
-6.667654 4.0203075 1.3462309
-6.5816665 4.0006666 1.368
-6.7418084 4.1552057 1.3410146
-6.676373 4.1542797 1.3469468
-6.7310257 4.2342248 1.36745
-6.6787376 4.2310529 1.3757106
-6.724 3.79375 1.4349999
-6.6430721 3.7915366 1.4459513
-6.5394549 3.7780249 1.4491392
-6.4956498 3.7780004 1.44935
-6.7455854 3.8413582 1.4503393
-6.6575007 3.8028336 1.48
-6.5191879 3.8308749 1.4512501
-6.4867043 3.8505058 1.4513739
-6.7366042 3.9470789 1.4482632
-6.6412501 3.9956248 1.4346251
-6.5398841 3.9859066 1.4492557
-6.4714742 3.9478383 1.4490285
-6.7214494 4.0153103 1.4491378
-6.6578927 4.0068569 1.4545715
-6.5826364 4.0030909 1.4385456
-6.4959998 4.0029998 1.497
-6.7262726 4.1809998 1.4172728
-6.6815996 4.1795001 1.4107
-6.7359796 4.2558436 1.4419607
-6.6708741 4.2584805 1.4416708
-6.7230539 4.3419456 1.4533784
-6.6691084 4.3408003 1.4676727
-6.7203331 4.4106669 1.4860001
-6.6847501 4.40275 1.4842501
-6.6364789 3.7938399 1.55164
-6.541759 3.781373 1.5478001
-6.4937501 3.7829998 1.5414375
-6.7386961 3.8371706 1.5512035
-6.6649499 3.8076999 1.5566
-6.5292592 3.8191111 1.5520371
-6.4846563 3.8537762 1.546329
-6.7372499 3.9522998 1.5508749
-6.6350002 3.993 1.5145
-6.5376554 3.9885001 1.5462186
-6.4718308 3.9517791 1.548463
-6.7190838 4.0175004 1.5445001
-6.6535206 4.0092402 1.5447598
-6.573144 4.0042858 1.5564287
-6.494 4.0019999 1.52
-6.7210002 4.2966666 1.5103334
-6.6863337 4.29 1.5093334
-6.7283082 4.3616152 1.5318078
-6.6670003 4.3580179 1.5358502
-6.7228665 4.4489779 1.5553555
-6.6611729 4.4463458 1.5600619
-6.7097774 4.5214448 1.5822222
-6.6745 4.5126877 1.57775
-6.6195555 3.7961113 1.6425555
-6.5366092 3.7838438 1.6505938
-6.4941816 3.7840002 1.6444547
-6.7372093 3.8416932 1.648145
-6.6501856 3.8096974 1.6533954
-6.5384674 3.821089 1.6544445
-6.4860129 3.8537788 1.6454809
-6.7377439 3.9442048 1.6535641
-6.6440001 3.9920001 1.652
-6.5288014 3.988667 1.6506666
-6.4759526 3.9527497 1.6500001
-6.7207499 4.0201783 1.6546426
-6.6482387 4.0138335 1.6452141
-6.556035 4.0064821 1.6543105
-6.4744005 4.0064006 1.6494
-6.7171435 4.4703336 1.6254286
-6.6653867 4.4670224 1.6274318
-6.7173605 4.5457411 1.65238
-6.6579466 4.5484638 1.6491166
-6.7089 4.6165004 1.6782
-6.6586156 4.6300774 1.6828464
-6.6170001 3.799 1.72
-6.5289822 3.7881968 1.748554
-6.4889998 3.7893999 1.7352002
-6.6501913 3.8143187 1.7482553
-6.541213 3.8178024 1.7522954
-6.487453 3.8532557 1.7484305
-6.5183344 3.97825 1.7588334
-6.4736962 3.9550462 1.749157
-6.6502552 4.0175643 1.7487946
-6.557054 4.0077114 1.7506843
-6.4759994 4.0022001 1.7336
-6.7073336 4.5770001 1.7296666
-6.662735 4.5759411 1.7214707
-6.7142339 4.6571331 1.7422001
-6.6480861 4.6522284 1.7468573
-6.7140002 4.7178001 1.7636
-6.6496668 4.7336664 1.7741108
-6.5289774 3.7895112 1.8466445
-6.4938889 3.7894444 1.853
-6.7388101 3.8478732 1.849032
-6.6515284 3.8171511 1.8495283
-6.541038 3.8196754 1.8500122
-6.4855614 3.8551991 1.8512623
-6.5102229 3.9626665 1.8561112
-6.4745903 3.9517653 1.8480649
-6.653162 4.0352001 1.8533998
-6.5460544 4.0193453 1.8578365
-6.4761248 4.0122499 1.8629999
-6.660778 4.6846113 1.8156667
-6.7410002 4.7519999 1.801
-6.6407747 4.757462 1.8405163
-6.6457257 4.8386536 1.8631686
-6.5999999 4.8969998 1.898
-6.6669998 4.901 1.886
-6.5318122 3.7923744 1.9492188
-6.4850001 3.7940001 1.9523333
-6.7371421 3.84866 1.9510201
-6.6454606 3.8189197 1.9495797
-6.5391154 3.8209491 1.9525194
-6.4880123 3.8563766 1.9482858
-6.5137777 3.9676666 1.9525555
-6.4731936 3.9531264 1.9495544
-6.6484532 4.0303397 1.951038
-6.5497632 4.0145264 1.9496577
-6.47825 4.0097504 1.9473333
-6.7010002 4.7930002 1.903
-6.6638336 4.7845001 1.9135001
-6.6408339 4.859333 1.9336923
-6.599 4.8429999 1.905
-6.7030005 4.9100003 1.939
-6.6338668 4.9432592 1.9560864
-6.5974998 4.9360003 1.9665
-6.640801 5.0104003 1.9844
-6.7233343 3.7923334 2.0893333
-6.6472764 3.7874444 2.0843887
-6.5333185 3.794682 2.0462277
-6.4970002 3.7909999 2.029
-6.7399335 3.8467536 2.0530324
-6.6476369 3.8184037 2.0412555
-6.5351448 3.821907 2.0503092
-6.488389 3.8602779 2.0508194
-6.7452388 3.9518263 2.0483913
-6.5075002 3.964875 2.059
-6.4751539 3.9546666 2.0459998
-6.7319279 4.0410171 2.05775
-6.6478763 4.0403423 2.0549586
-6.5574503 4.0175099 2.0521173
-6.4803686 4.0105786 2.0512631
-6.6356659 4.9662499 2.0289791
-6.5971999 4.9778004 2.0128
-6.7030001 5.027 2.089
-6.6321282 5.0470681 2.0481877
-6.5946159 5.0521922 2.0597694
-6.6353326 5.117909 2.0784545
-6.593667 5.1136665 2.0906668
-6.6481667 3.6926668 2.1941667
-6.7447238 3.7553339 2.1543913
-6.6375351 3.7450502 2.154125
-6.5582356 3.7795882 2.1521766
-6.7570424 3.8497949 2.1466324
-6.6086931 3.8098459 2.1475387
-6.5310235 3.8251028 2.1465113
-6.4880466 3.8574097 2.1493933
-6.7430487 3.9514999 2.152262
-6.5090003 3.9352002 2.1590002
-6.4777713 3.9484949 2.147917
-6.7396607 4.057662 2.1491783
-6.632462 4.0773458 2.1204612
-6.5586543 4.0443377 2.150382
-6.4836802 4.0162001 2.1553998
-6.726265 4.1385469 2.1601696
-6.6459002 4.1399283 2.1635716
-6.5828919 4.1261077 2.171536
-6.6359997 5.0699687 2.1168747
-6.5961666 5.0890002 2.1173334
-6.6396241 5.1511874 2.1443963
-6.5894036 5.1525779 2.1469808
-6.6315255 5.2315741 2.1726499
-6.5878587 5.2198577 2.1806428
-6.6451678 3.6568244 2.2573743
-6.8179998 3.7259998 2.2199998
-6.767725 3.7440789 2.2473924
-6.6224737 3.7357571 2.2424326
-6.5798578 3.7635005 2.2525003
-6.7565422 3.8461246 2.2465832
-6.6064291 3.8132858 2.2474287
-6.5340004 3.8270009 2.2493913
-6.488564 3.8598695 2.2486811
-6.7347183 3.9509563 2.2502174
-6.507833 3.9420002 2.2628334
-6.4783783 3.9481332 2.2479894
-6.7350216 4.055234 2.2507443
-6.6147499 4.0402503 2.2414999
-6.5599465 4.0506392 2.2479994
-6.4798713 4.009903 2.2457094
-6.7302876 4.1534395 2.2463336
-6.6422791 4.1862779 2.2188888
-6.5679889 4.1520085 2.2503426
-6.71872 4.2341399 2.26194
-6.6519823 4.2379456 2.2592542
-6.5792952 4.2327843 2.2724903
-6.6298342 5.1762776 2.2135
-6.5938334 5.1920004 2.2098334
-6.6367049 5.2592678 2.2394743
-6.5859852 5.2593908 2.2411091
-6.7509837 3.5717702 2.3649669
-6.655632 3.5703778 2.3613575
-6.8083334 3.6470001 2.3740001
-6.7683029 3.6380908 2.3358185
-6.6335335 3.6423733 2.3450682
-6.5970001 3.6500001 2.362
-6.7726908 3.7512615 2.3499045
-6.6185427 3.7396529 2.3479724
-6.597167 3.7415004 2.3225002
-6.7429743 3.8572166 2.3418925
-6.6297779 3.8274999 2.3578889
-6.5263386 3.834784 2.3492839
-6.4895511 3.8570178 2.3473926
-6.7389569 3.9508913 2.3505218
-6.5082002 3.9329998 2.3682001
-6.4769287 3.9501226 2.3466458
-6.7243104 4.051578 2.3481779
-6.6277781 4.0470004 2.3626666
-6.5556502 4.0397668 2.344667
-6.4744616 4.0095773 2.3509617
-6.7248945 4.1505718 2.3503392
-6.6959996 4.1700001 2.3225
-6.5634151 4.1543169 2.3477731
-6.7191615 4.2529511 2.3463709
-6.6476521 4.2794785 2.3211737
-6.5591769 4.2516389 2.3512964
-6.7141662 4.33112 2.3649526
-6.6511841 4.3363333 2.3621998
-6.5689044 4.3280392 2.3687115
-6.6177502 5.2870002 2.3085001
-6.5949998 5.2880001 2.303
-6.6289997 5.3598003 2.3336
-6.5802417 5.3647237 2.3342412
-6.8021441 3.6322856 2.4537141
-6.7891932 3.6473873 2.444742
-6.6338491 3.6476383 2.4489996
-6.7502103 3.7372103 2.4376316
-6.6366582 3.728756 2.4332194
-6.7361484 3.8621175 2.4504998
-6.6541781 3.8442447 2.4480889
-6.5289011 3.8414929 2.4524932
-6.4891467 3.8594995 2.4510417
-6.7427597 3.9482181 2.4487388
-6.5096254 3.936125 2.4315
-6.4783106 3.9520674 2.4492624
-6.7249999 4.035872 2.4541285
-6.6474762 4.0404744 2.4530249
-6.5509558 4.0303869 2.4549088
-6.4725461 4.0130606 2.444303
-6.7138119 4.1672816 2.4354689
-6.6482491 4.1521249 2.4523752
-6.5693116 4.1719999 2.430022
-6.7141833 4.2473817 2.4496911
-6.684 4.2557497 2.4457502
-6.5559158 4.2519445 2.449944
-6.7129474 4.3464389 2.4478951
-6.6643596 4.3758001 2.4256399
-6.5523171 4.3523979 2.4475837
-6.7103086 4.4180002 2.4605
-6.6599727 4.4342747 2.4653561
-6.566021 4.4256535 2.4714999
-6.5999999 5.3990002 2.401
-6.5730004 5.6190767 2.4844232
-6.7411814 3.3867729 2.5871365
-6.6728954 3.3857369 2.5776844
-6.7546697 3.4333522 2.5406821
-6.6639562 3.4487789 2.5496771
-6.8062239 3.5418384 2.5561934
-6.7934494 3.5571499 2.5482752
-6.6461163 3.5464184 2.549036
-6.8070002 3.618 2.5109999
-6.765563 3.6425319 2.5422809
-6.6469994 3.6335325 2.5386772
-6.7010002 3.7079999 2.5610001
-6.6675 3.72 2.5254998
-6.7330265 3.8662906 2.5439475
-6.6500497 3.846925 2.5519998
-6.5375166 3.8385715 2.5501101
-6.4900198 3.8595924 2.5505557
-6.74189 3.9506891 2.5468442
-6.5071249 3.9407499 2.5495
-6.4767585 3.9529388 2.5482016
-6.7249279 4.0395365 2.5556092
-6.6492543 4.047298 2.5489998
-6.5438995 4.0335002 2.5502398
-6.4740596 4.0176177 2.551264
-6.6700001 4.1880002 2.5710001
-6.7076826 4.2610912 2.5360909
-6.670711 4.253315 2.5467629
-6.565917 4.2689824 2.534441
-6.7083058 4.3511229 2.5439997
-6.6958227 4.3627057 2.5578239
-6.5473728 4.3491426 2.5495431
-6.7063007 4.4455848 2.544698
-6.6706057 4.4746661 2.5391042
-6.5473742 4.4510393 2.5475781
-6.7076254 4.5263748 2.5741248
-6.6584001 4.533124 2.5691075
-6.5582395 4.520957 2.5714786
-6.6191864 5.5676246 2.519125
-6.5751152 5.5707698 2.5208848
-6.6125002 5.6519785 2.5459583
-6.5651846 5.6545362 2.5476601
-6.6087999 5.7193999 2.579
-6.8201118 3.3588541 2.6644192
-6.7497249 3.3453238 2.6456373
-6.6749549 3.3530552 2.6529531
-6.8164845 3.4437745 2.6499028
-6.7977495 3.470125 2.6391251
-6.6614389 3.4465618 2.6517808
-6.8065338 3.5249336 2.6384671
-6.7708449 3.552 2.6507754
-6.658 3.5394676 2.6421428
-6.7424288 3.616286 2.6230001
-6.677 3.61325 2.6262498
-6.7409449 3.8721662 2.6455002
-6.6514497 3.8518579 2.6506937
-6.5306573 3.8419998 2.6504436
-6.488821 3.8682055 2.646384
-6.7434444 3.9537218 2.6500838
-6.5084543 3.9550908 2.6437271
-6.4815373 3.9509358 2.6496007
-6.7229781 4.0474319 2.6492271
-6.6548343 4.0536108 2.6467223
-6.5553436 4.0411458 2.6481993
-6.4736733 4.0245194 2.6515384
-6.7020001 4.296 2.6010001
-6.5840001 4.2969999 2.602
-6.7078824 4.3540001 2.6258826
-6.6689816 4.3565965 2.6463654
-6.555017 4.3676844 2.6361222
-6.7046671 4.4516292 2.6396298
-6.6926303 4.4479351 2.655391
-6.5400538 4.447845 2.6517098
-6.7047281 4.5340004 2.6547272
-6.6765351 4.5582685 2.6410606
-6.5388522 4.5480781 2.6462698
-6.5 4.5804996 2.6669998
-6.6606731 4.6267405 2.6670172
-6.5561171 4.6190929 2.6749535
-6.6009998 5.6750002 2.6070001
-6.5782862 5.6825004 2.6139998
-6.8296709 3.3490412 2.74963
-6.6741676 3.3497682 2.7491393
-6.8157763 3.4402852 2.7453268
-6.7578974 3.4711034 2.7668622
-6.6678581 3.4457283 2.7454674
-6.7479553 3.5220459 2.7237728
-6.6822 3.5198002 2.7240667
-6.7397842 3.8747036 2.7484596
-6.6537313 3.8571539 2.7497311
-6.536891 3.848912 2.7468529
-6.4925642 3.8672044 2.7511027
-6.7436562 3.9471424 2.7531142
-6.5108662 3.9419334 2.7514005
-6.4812922 3.9556839 2.7482584
-6.724762 4.0476422 2.7479284
-6.6525712 4.0570712 2.7494287
-6.5522823 4.0501246 2.7489686
-6.4736991 4.0212989 2.7453399
-6.6731672 4.3899999 2.7188337
-6.7084999 4.4775 2.7445002
-6.6699147 4.4571724 2.7442851
-6.5496821 4.4634767 2.7378094
-6.7053332 4.5351667 2.724
-6.689044 4.5513821 2.7535
-6.5286975 4.5482359 2.7507832
-6.723 4.66225 2.7389998
-6.6691275 4.6574502 2.7392962
-6.5325766 4.6508641 2.7479749
-6.4970002 4.697 2.79
-6.7045002 4.7309999 2.789
-6.6556892 4.7236891 2.7704003
-6.5506754 4.7200499 2.7757499
-6.8320003 3.3451171 2.8445837
-6.7460008 3.3746314 2.8774741
-6.6785593 3.3470213 2.8467736
-6.8150001 3.4125001 2.8253751
-6.7522397 3.4305196 2.83548
-6.6787624 3.4218574 2.8182862
-6.7330723 3.8751209 2.8505361
-6.6449547 3.8599329 2.8491778
-6.5339751 3.8534374 2.8485806
-6.491961 3.8673077 2.8444617
-6.7435536 3.948915 2.8537869
-6.5103741 3.9380627 2.8466876
-6.476356 3.9541452 2.8522105
-6.7313151 4.047255 2.8540983
-6.6535559 4.0632219 2.8493111
-6.5505233 4.0536194 2.8499525
-6.4720531 4.0303063 2.8538671
-6.6586666 4.1156669 2.8916669
-6.6512003 4.4804001 2.8210001
-6.7249999 4.5120001 2.8180001
-6.6631713 4.5538955 2.845737
-6.5419211 4.5623021 2.8363016
-6.680346 4.6483459 2.8484037
-6.5210886 4.6492162 2.8496666
-6.4970002 4.697 2.8840001
-6.7372503 4.7589998 2.835
-6.6644917 4.7528348 2.8422089
-6.5310478 4.7540007 2.8469243
-6.4963336 4.7511115 2.8551111
-6.7344999 4.8080001 2.8710001
-6.6461759 4.8272648 2.8731174
-6.5509524 4.822372 2.8801157
-6.4990001 4.8109999 2.8729999
-6.7326975 3.8798182 2.9436965
-6.6467438 3.8627448 2.9503624
-6.5352192 3.8545101 2.946399
-6.4897661 3.8724 2.9498663
-6.8093328 3.9760001 2.9862225
-6.7641807 3.9481816 2.9487274
-6.5050001 3.901 2.924
-6.4403973 3.9458075 2.950882
-6.3931999 3.9754002 2.9784
-6.8061996 4.0388002 2.9946001
-6.7593942 4.0630369 2.9523704
-6.6482778 4.0683608 2.9504445
-6.5418267 4.0589232 2.9504235
-6.4462996 4.0353441 2.946516
-6.3942499 4.0258751 2.9800003
-6.7365999 4.1051998 2.9656
-6.6506004 4.1181998 2.9072001
-6.6533999 4.5851998 2.9280002
-6.5834999 4.5815001 2.9184999
-6.6590886 4.6555786 2.9427545
-6.5398045 4.6605735 2.9399996
-6.4970002 4.6810002 2.9200001
-6.6697564 4.7445407 2.9499464
-6.5131812 4.7435427 2.9510481
-6.4956002 4.7649341 2.9434001
-6.6501126 4.8621702 2.9393969
-6.532774 4.8550429 2.9389248
-6.4943485 4.8453264 2.9629998
-6.6424217 4.9210787 2.9706841
-6.5515223 4.9219999 2.9780865
-6.4902 4.9078002 2.9808004
0 0 0 1 0 0 0 1 0 0 0 1 0 0 0 0 0 636 1 0 0
