ply
format ascii 1.0
comment PCL generated
element vertex 674
property float x
property float y
property float z
element camera 1
property float view_px
property float view_py
property float view_pz
property float x_axisx
property float x_axisy
property float x_axisz
property float y_axisx
property float y_axisy
property float y_axisz
property float z_axisx
property float z_axisy
property float z_axisz
property float focal
property float scalex
property float scaley
property float centerx
property float centery
property int viewportx
property int viewporty
property float k1
property float k2
end_header
-19.931112 -1.2078888 0.058111113
-19.848778 -1.2248518 0.053074069
-19.733414 -1.234254 0.065777786
-19.673426 -1.2283705 0.0275
-20.833334 -1.1258888 0.03877778
-20.744261 -1.1293225 0.04738709
-20.634888 -1.1266001 0.053085707
-20.583864 -1.1151364 0.053772729
-20.004333 -1.1903334 0.08533334
-19.95475 -1.1975 0.046500001
-19.716528 -1.1556052 0.087289467
-19.664528 -1.1471082 0.039201438
-20.844999 -1.087 0.097000003
-20.607 -1.0476668 0.046333335
-20.568653 -1.0508538 0.051072992
-20.017 -1.0336666 0.092333339
-19.940851 -1.0264198 0.056913581
-19.848953 -1.0437243 0.049336743
-19.747339 -1.0661794 0.053538449
-19.669863 -1.0839731 0.040189192
-21.531002 -0.90433335 0.016666669
-21.454258 -0.91399997 0.054885715
-20.813 -0.90100002 0.085000001
-20.719669 -0.90900004 0.07433334
-20.63398 -0.91365367 0.051903836
-20.556889 -0.95539832 0.052015033
-19.981001 -0.995 0.093000002
-21.736334 -0.85333335 0.030333333
-21.657999 -0.87153333 0.052533336
-21.569401 -0.89160007 0.055500001
-21.441145 -0.85290635 0.039687503
-21.391216 -0.83521736 0.083304353
-20.808889 -0.86199993 0.046444442
-20.755556 -0.87335384 0.049046151
-20.669668 -0.88340008 0.030233333
-21.713501 -0.71200001 0.0060000001
-21.635498 -0.71319443 0.042027783
-21.550819 -0.7237823 0.048320517
-21.444876 -0.75675237 0.045865975
-21.380543 -0.77159995 0.074942857
-21.716667 -0.69433331 0.016000001
-21.654938 -0.69099993 0.038281254
-19.933645 -1.2086471 0.15176472
-19.836298 -1.2233251 0.16037503
-19.76643 -1.2203097 0.12983334
-20.820999 -1.102 0.154
-20.750175 -1.1123043 0.15326089
-20.636526 -1.1223096 0.15097621
-20.5858 -1.1109333 0.15886669
-20.110001 -1.1466668 0.18266669
-20.039387 -1.1783335 0.15538889
-19.984501 -1.1965001 0.15450001
-19.813835 -1.1652083 0.18704167
-19.760946 -1.1467423 0.14192426
-20.836668 -1.092 0.15450001
-20.797001 -1.1 0.169
-20.605499 -1.073 0.15099999
-20.573175 -1.048812 0.14940602
-20.110001 -1.033 0.19499999
-20.02268 -1.0104474 0.15842105
-19.947828 -1.0216569 0.1501313
-19.849239 -1.0425793 0.15233642
-19.762197 -1.0717912 0.14286958
-21.501999 -0.90250003 0.1725
-21.438934 -0.91818744 0.14256251
-21.357029 -0.91989201 0.1559189
-20.724998 -0.92000002 0.12933333
-20.634085 -0.91285706 0.15005715
-20.560238 -0.95205641 0.15207088
-20.108999 -0.99400002 0.183
-20.055336 -0.99337506 0.17229168
-19.997 -0.991 0.111
-21.632221 -0.87144452 0.13966666
-21.554625 -0.88950002 0.149625
-21.344028 -0.85103714 0.14578702
-21.295599 -0.83010006 0.18790001
-20.80905 -0.87384999 0.14865001
-20.749115 -0.88462788 0.14951162
-20.669619 -0.8947143 0.14971429
-20.559668 -0.89066666 0.12
-21.623499 -0.713875 0.112
-21.547781 -0.71965086 0.14331751
-21.452433 -0.7395317 0.14710127
-21.351292 -0.76973414 0.14664559
-21.286001 -0.78600001 0.18349999
-21.614201 -0.6936 0.1194
-21.567669 -0.69733334 0.15633334
-19.930738 -1.2095789 0.23863161
-19.869318 -1.2130001 0.22689474
-20.74983 -1.1128261 0.25382608
-20.639273 -1.121025 0.25220004
-20.589001 -1.1093637 0.24436367
-20.139687 -1.1608948 0.25999999
-20.049545 -1.1822274 0.25340906
-19.925777 -1.1724722 0.28008336
-19.856035 -1.1509552 0.24040298
-19.799999 -1.113 0.20200001
-20.849573 -1.0834286 0.2557143
-20.6122 -1.0708001 0.271
-20.575775 -1.047536 0.2498081
-20.134802 -1.0144 0.2518
-20.036154 -1.010511 0.25457779
-19.950205 -1.0231882 0.25148523
-19.857 -1.0592893 0.24744742
-19.793251 -1.0634999 0.20625001
-21.440001 -0.90920001 0.24529998
-21.335566 -0.93095648 0.23356521
-21.267057 -0.92547995 0.26022002
-20.842335 -0.93400002 0.26100001
-20.748667 -0.91250002 0.25716668
-20.633257 -0.9103334 0.24938461
-20.559063 -0.95369226 0.25037685
-20.202 -0.99400002 0.29300001
-20.13579 -0.9845745 0.26570213
-20.063869 -0.99166673 0.24983332
-19.971001 -0.99900001 0.289
-21.5396 -0.88529998 0.24199998
-21.481749 -0.89700001 0.26225001
-21.308001 -0.8775 0.20200001
-21.251471 -0.85376489 0.24757844
-21.191999 -0.8096 0.29140002
-20.813473 -0.87457907 0.25263157
-20.750135 -0.88245088 0.24927449
-20.674437 -0.89326078 0.24447826
-21.525223 -0.72261107 0.21999998
-21.4515 -0.73338759 0.24438749
-21.351501 -0.75463897 0.24538891
-21.258678 -0.78084606 0.25130761
-21.188 -0.79550004 0.28850001
-21.448 -0.69999999 0.26899999
-19.9552 -1.2042 0.31239998
-20.754084 -1.1090417 0.35383332
-20.639376 -1.1162001 0.35069999
-20.586571 -1.1087143 0.35228571
-20.33 -1.108 0.39899999
-20.231688 -1.140842 0.35368422
-20.151556 -1.1612221 0.35277778
-20.038446 -1.1759166 0.36361113
-19.957542 -1.1485608 0.34358323
-20.850834 -1.0826666 0.34983334
-20.622002 -1.081125 0.35087502
-20.578135 -1.0477414 0.34969828
-20.305 -1.08 0.398
-20.2388 -1.0344 0.3468
-20.134251 -1.00875 0.329
-20.033567 -1.0117691 0.35158461
-19.953369 -1.0475941 0.34948224
-19.8948 -1.0532 0.31170002
-21.415752 -0.90474999 0.35799998
-21.350334 -0.92283338 0.34866664
-21.226925 -0.93834203 0.32831576
-21.166834 -0.93456376 0.36936361
-20.82 -0.90899998 0.315
-20.736856 -0.90700006 0.35228574
-20.631821 -0.91102582 0.35405132
-20.565256 -0.95364904 0.34854993
-20.323 -0.98199999 0.37400001
-20.225468 -0.96426481 0.36788237
-20.154181 -0.97856212 0.35157302
-20.071774 -0.99192458 0.35060388
-21.500999 -0.88499999 0.329
-21.462601 -0.89299995 0.3436
-21.206501 -0.87 0.30900002
-21.153584 -0.84784263 0.35342699
-21.096001 -0.81599998 0.39700001
-20.816389 -0.87555557 0.35661113
-20.749411 -0.88334084 0.3475455
-20.667114 -0.89326918 0.3459231
-21.425032 -0.73693746 0.32837498
-21.348238 -0.74869341 0.34884006
-21.251692 -0.7719028 0.34798607
-21.168304 -0.79071736 0.35902178
-20.745367 -1.1091052 0.4496842
-20.640486 -1.1150858 0.44854283
-20.5874 -1.1046 0.44619998
-20.33182 -1.1170908 0.4587273
-20.250055 -1.1391112 0.45233336
-20.143181 -1.1603334 0.46175754
-20.053162 -1.1437644 0.44382933
-19.992001 -1.1094999 0.40200001
-20.8295 -1.087 0.43599999
-20.788 -1.0993333 0.47533333
-20.606001 -1.08 0.41100001
-20.577579 -1.0410105 0.44683161
-20.459667 -1.0433333 0.47933334
-20.352001 -1.0223334 0.45566666
-20.1266 -1.0094 0.45479998
-20.042704 -1.0422926 0.45269594
-19.991816 -1.0431819 0.41090912
-21.412001 -0.90200001 0.435
-21.341364 -0.91672736 0.44272727
-21.255154 -0.93815386 0.4487693
-21.130615 -0.94479555 0.42984092
-21.07526 -0.94221747 0.46986949
-20.819 -0.903 0.44599998
-20.754715 -0.90871435 0.45100003
-20.627857 -0.91017872 0.44257143
-20.566742 -0.95115191 0.44798219
-20.416 -0.95999998 0.48899999
-20.326271 -0.95042312 0.46884623
-20.249668 -0.95668966 0.45279321
-20.14966 -0.98022354 0.44891262
-20.079517 -0.99485195 0.44592592
-21.4195 -0.89750004 0.41249999
-21.386 -0.89999998 0.45749998
-21.122833 -0.84170842 0.42545837
-21.060587 -0.84053671 0.45734158
-20.822617 -0.87538463 0.44146159
-20.750532 -0.88110644 0.44808507
-20.664255 -0.89205718 0.45365709
-21.327 -0.75112897 0.4357419
-21.253925 -0.76401335 0.45198664
-21.15555 -0.78575015 0.45296675
-21.084335 -0.79633331 0.48266667
-20.738501 -1.10595 0.55124998
-20.642445 -1.1149629 0.55199999
-20.59075 -1.107 0.51975
-20.404249 -1.10625 0.56725001
-20.349054 -1.1193888 0.54661119
-20.253002 -1.1406192 0.55061907
-20.152794 -1.1375052 0.54954648
-20.094999 -1.127 0.50549996
-21.003 -1.001 0.59899998
-20.803501 -1.095 0.52149999
-20.789501 -1.0983334 0.55449998
-20.620911 -1.082091 0.55599999
-20.577608 -1.0454081 0.54163259
-20.452093 -1.0531819 0.56236362
-20.135559 -1.0513301 0.55878568
-20.088163 -1.0395 0.51352769
-21.321499 -0.91349995 0.52450001
-21.245003 -0.93233341 0.55140007
-21.143501 -0.96233338 0.54758334
-21.035515 -0.95708108 0.53359461
-20.980335 -0.91533339 0.56491667
-20.820999 -0.90149999 0.56150001
-20.74 -0.91083336 0.54483336
-20.635151 -0.91430014 0.53639996
-20.56847 -0.94207883 0.54661798
-20.420374 -0.9321875 0.56737506
-20.344175 -0.93877172 0.55118477
-20.250849 -0.9613654 0.5497098
-20.157688 -0.98282856 0.54821205
-20.087799 -0.99340004 0.51660001
-21.134335 -0.81316674 0.54166669
-21.029551 -0.82999998 0.53653336
-20.966682 -0.84853983 0.56536514
-20.830416 -0.87691677 0.54791665
-20.750299 -0.87809998 0.54963994
-20.654552 -0.89035016 0.55290002
-20.595501 -0.89699996 0.54949999
-21.236486 -0.76416272 0.53402328
-21.15188 -0.77893996 0.55255997
-21.082333 -0.79577768 0.55699998
-20.732801 -1.1044668 0.65606666
-20.642761 -1.1146801 0.64863992
-20.594666 -1.107 0.63733339
-20.417887 -1.1042222 0.65100002
-20.34325 -1.1229 0.65420002
-20.246634 -1.1265494 0.64654934
-20.193832 -1.1160001 0.61000001
-20.973 -1.003 0.62699997
-20.806835 -1.0925001 0.65183336
-20.770668 -1.0966667 0.64350003
-20.622501 -1.089875 0.64637494
-20.568178 -1.0640666 0.64948893
-20.465601 -1.0926 0.65009999
-20.234797 -1.0521617 0.66369683
-20.18432 -1.0423683 0.61539477
-21.234001 -0.9296667 0.61699998
-21.150869 -0.9514668 0.65160006
-21.058155 -0.97484612 0.65046161
-20.968857 -0.98071432 0.64757144
-20.8895 -0.972 0.66500002
-20.743601 -0.90479994 0.63000005
-20.633461 -0.91538459 0.64746153
-20.567209 -0.92131567 0.64289474
-20.441824 -0.91707683 0.65434617
-20.350863 -0.93809205 0.64855093
-20.249538 -0.96514761 0.64925212
-20.182449 -0.98535484 0.62377423
-21.117601 -0.80760002 0.63359994
-21.028849 -0.81434637 0.63830775
-20.944572 -0.83777225 0.6446327
-20.860947 -0.86559606 0.66024995
-20.74235 -0.87676072 0.64952171
-20.654835 -0.89066678 0.65045238
-20.556557 -0.89744443 0.66811115
-20.499001 -0.89600003 0.67400002
-21.205 -0.778 0.611
-21.142658 -0.77628952 0.64202642
-21.068333 -0.79106069 0.65203029
-20.726185 -1.1039091 0.74381822
-20.637705 -1.112148 0.74788886
-20.6 -1.108 0.74599999
-20.434273 -1.107091 0.7547273
-20.34951 -1.1158372 0.74667448
-20.294666 -1.1140001 0.70866668
-20.8102 -1.09 0.74620003
-20.765387 -1.0968462 0.74946159
-20.63125 -1.091 0.745
-20.569548 -1.0807742 0.74545151
-20.479223 -1.0941111 0.75122219
-20.332228 -1.0526071 0.76402247
-20.280231 -1.0428604 0.71711636
-21.124334 -0.94900006 0.74166667
-21.05093 -0.96857142 0.75457138
-20.991001 -0.99066663 0.71700001
-20.806 -0.94199997 0.778
-20.731199 -0.90579998 0.74819994
-20.633331 -0.91795254 0.74857152
-20.545267 -0.91750002 0.74511755
-20.447828 -0.91884261 0.74734831
-20.346067 -0.94889915 0.75384885
-20.277735 -0.97228861 0.72655773
-21.030001 -0.81762499 0.74600005
-20.947775 -0.82106453 0.74585497
-20.848444 -0.85078567 0.74967152
-20.752861 -0.8749401 0.74912
-20.656136 -0.88913631 0.74956828
-20.543436 -0.89069223 0.76294863
-20.489447 -0.89533329 0.73833334
-21.109001 -0.78799999 0.70666665
-21.049419 -0.78986037 0.74393034
-20.99 -0.79899997 0.73633337
-20.732 -1.1028888 0.84111112
-20.63973 -1.1095384 0.85053849
-20.428951 -1.10825 0.83265001
-20.392 -1.107 0.80599999
-20.814167 -1.0875 0.85299993
-20.755499 -1.095625 0.850375
-20.626572 -1.0861429 0.84571433
-20.565599 -1.0830334 0.84673345
-20.437998 -1.0556979 0.86573231
-20.378635 -1.0432451 0.81734699
-21.030626 -0.96924996 0.83975005
-20.7318 -0.93460006 0.83840001
-20.666876 -0.91762501 0.83350003
-20.53039 -0.91100013 0.84761119
-20.440767 -0.93656421 0.85677409
-20.373272 -0.95769864 0.82824653
-21.043499 -0.8075 0.81099999
-20.936941 -0.81703919 0.84754908
-20.845589 -0.83971429 0.84584135
-20.750591 -0.8663637 0.84966666
-20.641123 -0.87859315 0.85423732
-20.558435 -0.88961279 0.84896767
-21.017002 -0.79450005 0.81516665
-20.972076 -0.79530776 0.85046154
-20.713333 -1.1045001 0.94283336
-20.650728 -1.1062727 0.95122731
-20.813398 -1.0876001 0.9382
-20.759739 -1.0952631 0.95357883
-20.618601 -1.0870001 0.94173354
-20.536428 -1.0600635 0.96117729
-20.480549 -1.044408 0.92104071
-20.606001 -0.91100001 0.949
-20.529175 -0.9307093 0.96036023
-20.470686 -0.94733995 0.9342525
-20.915224 -0.81755549 0.92055553
-20.851862 -0.8271898 0.94800007
-20.74361 -0.85358632 0.94580466
-20.644186 -0.87564212 0.94975317
-20.570459 -0.88790691 0.93927896
-20.912998 -0.79750001 0.92299998
-20.856667 -0.796 0.96066666
-20.712502 -1.102 1.0339999
-20.654175 -1.1068697 1.0531304
-20.817287 -1.0848572 1.0524286
-20.755808 -1.0915715 1.0499524
-20.618435 -1.0728542 1.0606667
-20.581249 -1.0390235 1.0442351
-20.612818 -0.93399996 1.0722728
-20.565701 -0.9451291 1.0474839
-20.825893 -0.83215779 1.0251579
-20.747616 -0.84862351 1.0482469
-20.655245 -0.87610692 1.0481263
-20.582201 -0.89419991 1.0454001
-20.766001 -1.101 1.1339999
-20.6495 -1.1057501 1.1499499
-20.825638 -1.0856364 1.1526363
-20.753185 -1.0897273 1.1486818
-20.619089 -1.0680692 1.1523889
-20.591331 -1.0303626 1.1450579
-20.728001 -0.91100001 1.193
-20.617966 -0.92590338 1.1465807
-20.580681 -0.947007 1.1516309
-20.82419 -0.85747623 1.1571429
-20.740999 -0.85885191 1.1477963
-20.662725 -0.87764794 1.1461477
-20.589365 -0.89445454 1.1523637
-20.640083 -1.1034167 1.2465001
-20.818857 -1.0814285 1.2535714
-20.75152 -1.0875218 1.2465217
-20.621616 -1.0658242 1.2498134
-20.593443 -1.0296605 1.2500178
-20.733665 -0.91100001 1.2565001
-20.625448 -0.93648136 1.2441113
-20.583096 -0.94607317 1.2503749
-20.823643 -0.8513236 1.2475003
-20.750132 -0.86426473 1.2468675
-20.656658 -0.88230383 1.2493165
-20.589188 -0.89324999 1.2407501
-20.633751 -1.102 1.3392501
-20.82 -1.0787779 1.3446667
-20.750566 -1.0870001 1.3508695
-20.625439 -1.0645093 1.3484257
-20.59515 -1.0288461 1.3503845
-20.728201 -0.91299993 1.3546001
-20.617359 -0.94576919 1.3532561
-20.585567 -0.94696724 1.346439
-20.82197 -0.8470571 1.3492286
-20.751043 -0.86283779 1.347392
-20.6555 -0.88148713 1.3502309
-20.586464 -0.89119232 1.3510385
-20.818399 -1.0781 1.4585999
-20.749212 -1.0831251 1.4435833
-20.626543 -1.0620428 1.4517676
-20.59568 -1.0249642 1.4479643
-20.727001 -0.90799999 1.4345
-20.614712 -0.95236838 1.4503686
-20.588032 -0.94631219 1.4469541
-20.822306 -0.84719449 1.4501387
-20.747932 -0.86281586 1.450592
-20.651711 -0.87942171 1.4479635
-20.592682 -0.88886356 1.4502273
-20.635 -1.101 1.524
-20.83231 -1.0724617 1.5536155
-20.748959 -1.08136 1.5448401
-20.625875 -1.0573037 1.5496162
-20.596354 -1.0182501 1.5624502
-20.61228 -0.95305997 1.5522199
-20.58943 -0.94672382 1.5481521
-20.823629 -0.8438285 1.5459714
-20.752771 -0.85734183 1.5512149
-20.649796 -0.87411767 1.549306
-20.590664 -0.88603705 1.5453706
-20.828167 -1.0690833 1.6499169
-20.7484 -1.07784 1.64904
-20.625822 -1.0513388 1.6478225
-20.593666 -1.0161667 1.6520834
-20.611761 -0.95810807 1.6490271
-20.590979 -0.94491416 1.6496192
-20.821966 -0.83903223 1.6453226
-20.751656 -0.85216427 1.6491642
-20.64518 -0.87159985 1.650611
-20.591208 -0.88483334 1.651625
-20.826073 -1.0688572 1.7494284
-20.752686 -1.0737894 1.7517369
-20.626503 -1.0472476 1.7476771
-20.596571 -1.0140001 1.7557144
-20.609514 -0.96393937 1.7449392
-20.591145 -0.94241554 1.7518414
-20.820997 -0.83906442 1.7518388
-20.752724 -0.85019112 1.7503674
-20.646452 -0.86953562 1.7486789
-20.591393 -0.88603026 1.7464546
-20.835083 -1.0626667 1.8496666
-20.756096 -1.0697143 1.8523333
-20.627951 -1.0467154 1.8495964
-20.597286 -1.0101429 1.8438573
-20.610205 -0.9660002 1.8513079
-20.589876 -0.94506603 1.84945
-20.818346 -0.83412498 1.8523438
-20.749346 -0.8497501 1.8502221
-20.645252 -0.86784983 1.8463253
-20.590651 -0.88434887 1.8535112
-20.834764 -1.0581765 1.951
-20.755598 -1.0658998 1.9507502
-20.632198 -1.0444235 1.9503561
-20.59 -1.045 1.964
-20.613184 -0.96520358 1.9560925
-20.592068 -0.94060516 1.945383
-20.824528 -0.82960522 1.9523689
-20.750713 -0.84628344 1.9508357
-20.645788 -0.86758149 1.9514771
-20.588615 -0.88538903 1.9489725
-20.832224 -1.0564445 2.0528333
-20.744652 -1.065174 2.0495653
-20.630566 -1.0423394 2.0476131
-20.597 -1.023 2.0500002
-20.609798 -0.96370268 2.0523517
-20.593283 -0.93164158 2.0479622
-20.820707 -0.82602626 2.0538685
-20.749851 -0.8453002 2.0504997
-20.641289 -0.86627918 2.0500693
-20.589188 -0.88346875 2.0496874
-20.820835 -1.0540833 2.1519167
-20.745174 -1.0613043 2.1508262
-20.634108 -1.04032 2.1489904
-20.599001 -1.0039999 2.1199999
-20.611734 -0.95963359 2.1490002
-20.594858 -0.92611903 2.1474521
-20.823906 -0.82152385 2.1321905
-20.744686 -0.83076197 2.140476
-20.650692 -0.8539362 2.1533735
-20.593229 -0.88577282 2.1447275
-20.830036 -0.77666658 2.1720002
-20.752148 -0.78044128 2.1790295
-20.692301 -0.7845 2.1842
-20.825857 -1.0517857 2.2519999
-20.747252 -1.0602502 2.2479498
-20.640228 -1.0405978 2.2493148
-20.615358 -0.95607013 2.2511315
-20.598175 -0.92582357 2.2345879
-20.707001 -0.84633338 2.2573333
-20.651423 -0.85014361 2.2483237
-20.59753 -0.88676465 2.2575293
-20.827038 -0.7304073 2.2253706
-20.746185 -0.73312128 2.2312725
-20.6782 -0.75618541 2.2553957
-20.822586 -0.67447066 2.2715883
-20.749264 -0.68105257 2.2781842
-20.681419 -0.69183338 2.2835834
-20.831873 -1.0516875 2.3442502
-20.753695 -1.055087 2.3519564
-20.641344 -1.0369585 2.3490314
-20.61721 -0.9567433 2.3506193
-20.595135 -0.92093337 2.3447335
-20.7124 -0.82770008 2.3686001
-20.644079 -0.85649991 2.3489926
-20.595545 -0.88409096 2.3375456
-20.713333 -0.773 2.3486667
-20.66921 -0.74637103 2.3474753
-20.812202 -0.62766671 2.3182003
-20.747028 -0.63563067 2.3308306
-20.668688 -0.65515435 2.3542202
-20.815716 -0.57628578 2.3710001
-20.755947 -0.57891893 2.3777571
-20.677896 -0.58500004 2.3869996
-20.833084 -1.0450834 2.4495838
-20.750435 -1.0520869 2.4519565
-20.642366 -1.0342556 2.4478776
-20.61652 -0.95361066 2.4519026
-20.595999 -0.92623085 2.4423077
-20.816601 -0.82139999 2.4779999
-20.736349 -0.82981074 2.4482431
-20.641493 -0.86384302 2.4520197
-20.594999 -0.88189995 2.4410996
-20.730858 -0.7586571 2.4645998
-20.676558 -0.72884637 2.4307117
-20.702999 -0.65799999 2.467
-20.658239 -0.64869249 2.4476755
-20.811693 -0.52653849 2.4203846
-20.746181 -0.53383344 2.4264166
-20.660114 -0.55558866 2.4541209
-20.814999 -0.47718188 2.4670911
-20.753317 -0.47926825 2.4763901
-20.673956 -0.48227271 2.4836369
-20.841747 -1.040375 2.5551875
-20.758173 -1.0496087 2.5527828
-20.648094 -1.0363369 2.546236
-20.62278 -0.95178586 2.5515559
-20.59725 -0.91174996 2.533
-20.817501 -0.81274998 2.56725
-20.747059 -0.82733339 2.5461297
-20.639744 -0.86502403 2.5501871
-20.59425 -0.88024998 2.566
-20.820667 -0.77933329 2.5670002
-20.769205 -0.76148278 2.5235174
-20.807333 -0.6566667 2.5653334
-20.732748 -0.66389996 2.5506499
-20.673719 -0.63443333 2.5384333
-20.647501 -0.55037498 2.5463281
-20.825499 -0.42339998 2.5315998
-20.746262 -0.42955557 2.5270736
-20.653139 -0.4523842 2.552635
-20.821167 -0.37066668 2.5805001
-20.748358 -0.37462223 2.5759997
-20.668928 -0.38151851 2.5842593
-20.812 -1.102 2.694
-20.912334 -1.0623333 2.6646667
-20.847292 -1.0666667 2.6475835
-20.751812 -1.0667186 2.6491563
-20.6518 -1.0333561 2.640949
-20.624538 -0.95201999 2.6470492
-20.598999 -0.92200005 2.6093335
-20.831682 -0.8087272 2.640455
-20.748079 -0.82626545 2.6526716
-20.64216 -0.86145544 2.6479824
-20.597334 -0.88566673 2.6440001
-20.831726 -0.79381824 2.6642728
-20.747334 -0.61066669 2.6066666
-20.6915 -0.60399997 2.6075001
-20.820999 -0.57599998 2.6389999
-20.755386 -0.56361538 2.6545384
-20.666512 -0.54142857 2.6342545
-20.636965 -0.45031536 2.6434596
-20.837286 -0.32428572 2.633286
-20.741488 -0.32908511 2.6259356
-20.643339 -0.34995317 2.6485171
-20.823002 -0.28049999 2.6759999
-20.739742 -0.27457145 2.6741996
-20.660027 -0.27985713 2.6798286
-20.917999 -1.1099999 2.7515001
-20.834333 -1.1153333 2.7220001
-20.767479 -1.123852 2.7619259
-20.922001 -1.082 2.71
-20.883999 -1.0975001 2.714
-20.743313 -1.0750526 2.7560527
-20.653435 -1.0269688 2.7483745
-20.626204 -0.95026183 2.7486432
-20.824221 -0.80722225 2.7585001
-20.739233 -0.8192693 2.742193
-20.647005 -0.85664338 2.7548425
-20.5935 -0.8775 2.7284999
-20.842455 -0.79218191 2.7514546
-20.750999 -0.79900002 2.7490001
-20.701 -0.54100001 2.707
-20.666 -0.509 2.7090001
-20.71575 -0.47350001 2.7737501
-20.653002 -0.43794593 2.7378109
-20.624825 -0.34671766 2.7487886
-20.816999 -0.23100002 2.7211428
-20.743845 -0.22578791 2.722939
-20.636944 -0.24454817 2.7446296
-20.595875 -0.254125 2.778625
-20.839001 -0.197 2.7709999
-20.744305 -0.16946509 2.7717905
-20.653439 -0.17675003 2.781312
-20.8165 -1.2155001 2.8955002
-20.785999 -1.201 2.8900001
-20.851 -1.177 2.8569999
-20.76688 -1.1432685 2.8524923
-20.740789 -1.0748947 2.8442631
-20.658909 -1.0239698 2.8526671
-20.629988 -0.94853842 2.8491318
-20.8325 -0.80778569 2.837357
-20.746588 -0.81390905 2.8491361
-20.642893 -0.84775776 2.8501332
-20.598 -0.88700002 2.8859999
-20.843786 -0.79500002 2.8471434
-20.782001 -0.79866666 2.8703334
-20.709 -0.40900001 2.826
-20.671501 -0.41175002 2.80775
-20.643162 -0.33330229 2.8412797
-20.612854 -0.25150797 2.8473969
-20.597002 -0.22557893 2.8460526
-20.743143 -0.12199999 2.821465
-20.631598 -0.14405739 2.841466
-20.591082 -0.16434617 2.8663464
-20.739698 -0.072757564 2.8642423
-20.646042 -0.079019994 2.8776398
-20.944 -1.23 2.967
-20.825199 -1.2412001 2.9559999
-20.784637 -1.2225456 2.9584546
-20.806751 -1.1897501 2.9429998
-20.766693 -1.148723 2.9481084
-20.748001 -1.0796363 2.9497726
-20.657448 -1.0264139 2.9446554
-20.620207 -0.95231038 2.9304316
-20.581194 -0.94638103 2.9760478
-20.924999 -0.80699998 2.9429998
-20.842402 -0.80720007 2.9192002
-20.736937 -0.81708169 2.9465108
-20.634117 -0.83945954 2.9414136
-20.579784 -0.86198556 2.9657393
-20.92 -0.79149997 2.977
-20.845928 -0.7872501 2.952857
-20.776003 -0.78840905 2.9674544
-20.643574 -0.79328579 2.9624286
-20.678333 -0.31533334 2.9186666
-20.628174 -0.23572497 2.936125
-20.598 -0.21600001 2.914
-20.612852 -0.16553195 2.9510643
-20.591467 -0.133 2.9431703
-20.811001 -0.052000001 2.911
-20.737377 -0.023190476 2.9192858
-20.630711 -0.042947914 2.9344687
-20.586771 -0.057701748 2.9653332
-20.819 0.013 2.9809999
-20.740669 0.031266667 2.9704337
-20.652277 0.02208 2.97716
-20.595249 0.019749999 2.984875
0 0 0 1 0 0 0 1 0 0 0 1 0 0 0 0 0 674 1 0 0
