ply
format ascii 1.0
comment PCL generated
element vertex 794
property float x
property float y
property float z
element camera 1
property float view_px
property float view_py
property float view_pz
property float x_axisx
property float x_axisy
property float x_axisz
property float y_axisx
property float y_axisy
property float y_axisz
property float z_axisx
property float z_axisy
property float z_axisz
property float focal
property float scalex
property float scaley
property float centerx
property float centery
property int viewportx
property int viewporty
property float k1
property float k2
end_header
-13.025046 4.8940954 0.059761904
-13.244857 4.9435282 0.049526304
-13.150338 4.9224405 0.048945542
-13.056341 4.916954 0.048434626
-12.99293 4.9557147 0.043214288
-12.421101 4.9460001 0.074057139
-12.238312 4.9858751 0.060937501
-13.905334 5.0970001 0.014333333
-13.858368 5.0930524 0.065052636
-13.262612 5.0484056 0.051268123
-13.00325 5.0360003 0.055250004
-12.987279 5.0462399 0.042199995
-12.416737 5.0184212 0.084842108
-12.354239 5.0200276 0.054098587
-12.253371 5.0156274 0.049930234
-14.109221 5.1649451 0.010611112
-14.048472 5.1486139 0.045563616
-13.95098 5.125607 0.05100878
-13.864083 5.1247697 0.057309363
-13.7945 5.1724997 0.093000002
-13.239445 5.1351533 0.048647061
-13.155725 5.1413713 0.048193544
-13.050527 5.128685 0.048877198
-12.989715 5.1210003 0.064000003
-14.107165 5.2296672 0.0065000001
-14.049369 5.2591057 0.044941857
-13.948008 5.2824259 0.049353529
-13.851458 5.2631569 0.054048184
-13.7926 5.2526002 0.084599994
-14.042256 5.3075151 0.036548387
-13.989799 5.3028002 0.045400001
-13.018843 4.892158 0.13731578
-12.517501 4.8941669 0.18716668
-12.441469 4.8846021 0.15029137
-12.347679 4.869648 0.14963073
-13.245326 4.9473429 0.15114741
-13.148767 4.9269123 0.14884645
-13.053578 4.9196091 0.14912073
-12.995167 4.9430003 0.15033334
-12.512733 4.9396663 0.18155555
-12.469394 4.9407139 0.14088392
-12.397 4.9070001 0.193
-12.23739 4.9561305 0.1576957
-13.830933 5.0944676 0.14335555
-13.775437 5.0928121 0.17368752
-13.255924 5.0491624 0.14860171
-13.004144 5.0168567 0.15114287
-12.989609 5.0613918 0.14165218
-12.508779 5.0202222 0.18988889
-12.455198 5.0337811 0.15298903
-12.348474 5.0314035 0.15056138
-12.261422 5.0167999 0.14259999
-12.188 5.0036669 0.12233333
-14.018744 5.1561213 0.12440912
-13.951706 5.1361446 0.15064938
-13.855878 5.1136785 0.15208296
-13.768902 5.1301451 0.15778261
-13.234324 5.135314 0.15149568
-13.151101 5.1424575 0.15268575
-13.045039 5.1317067 0.15060785
-12.983562 5.1234374 0.14662501
-14.012049 5.2330947 0.11342857
-13.952315 5.2666316 0.15308772
-13.852582 5.2702355 0.14759143
-13.760273 5.2449865 0.15820777
-13.959834 5.3015003 0.13300002
-13.01325 4.8930001 0.24616668
-12.529843 4.8958426 0.24321052
-12.443696 4.8868384 0.24835809
-12.355931 4.8713393 0.24354942
-12.29 4.8687859 0.21692862
-13.244501 4.9518456 0.24894027
-13.151561 4.9290638 0.24943806
-13.054144 4.9223418 0.24968739
-12.995232 4.9589233 0.24423078
-12.604667 4.9383335 0.28833333
-12.550428 4.9320774 0.25353542
-12.474548 4.9053335 0.25685716
-12.328033 4.9447932 0.26244825
-12.281934 4.9564676 0.21473336
-13.820768 5.0944614 0.2306923
-13.747701 5.0907111 0.25118944
-13.688779 5.0870004 0.27827778
-13.254905 5.0486937 0.24919818
-13.006874 5.0221252 0.23462501
-12.986421 5.056632 0.25342107
-12.546281 5.039649 0.25353515
-12.449544 5.0566373 0.25172728
-12.348525 5.0373635 0.24570455
-12.286125 5.0153747 0.21799999
-13.927599 5.1441588 0.23655553
-13.854033 5.1204495 0.25128883
-13.755631 5.1134033 0.25052577
-13.671437 5.1421556 0.27209377
-13.238115 5.1372914 0.2490427
-13.150989 5.1455455 0.24989611
-13.051071 5.1363688 0.25088334
-12.981947 5.1202102 0.25142106
-13.918276 5.2475505 0.226925
-13.854063 5.2692952 0.2518163
-13.751482 5.2606206 0.24732181
-13.669514 5.2387953 0.26233342
-13.011363 4.8951821 0.34854546
-12.519851 4.8948498 0.35685
-12.448565 4.8870091 0.34458011
-12.38548 4.8799629 0.32311109
-13.243648 4.953208 0.34850699
-13.148922 4.9337754 0.34929478
-13.053163 4.9240246 0.35009566
-12.995166 4.9587502 0.35408336
-12.635991 4.9504476 0.35625136
-12.555197 4.9165354 0.34967443
-12.450276 4.9174461 0.35519999
-12.374644 4.9384193 0.32890323
-13.82 5.0955 0.34649998
-13.733673 5.0916638 0.34369478
-13.660657 5.0831213 0.35891107
-13.58975 5.0815001 0.38499999
-13.256614 5.0495725 0.35003474
-13.0058 5.0236001 0.36500001
-12.988363 5.0621371 0.35027274
-12.635012 5.0486093 0.35849163
-12.559786 5.0677371 0.33508199
-12.449065 5.0560441 0.35191301
-12.380155 5.0317698 0.32876921
-13.837604 5.1347547 0.34090963
-13.764413 5.1101565 0.35502338
-13.637485 5.1350565 0.33682856
-13.586446 5.1518331 0.37077779
-13.23947 5.1392722 0.34881353
-13.149163 5.1519318 0.34717563
-13.052081 5.1365829 0.34833324
-12.987104 5.1285267 0.34589475
-12.649 5.1020002 0.39199999
-13.828115 5.2489505 0.3362667
-13.753015 5.2610888 0.3547444
-13.650434 5.2421207 0.35137343
-13.578708 5.2230921 0.36247724
-13.019167 4.8924999 0.4355
-12.527965 4.8955011 0.4400357
-12.470262 4.8899126 0.41969565
-13.245465 4.9574952 0.44922391
-13.153653 4.9377551 0.44988948
-13.056592 4.927587 0.44998208
-12.993555 4.9486666 0.44944444
-12.809 4.9770002 0.486
-12.729084 4.9690099 0.46459448
-12.654045 4.9412818 0.44707841
-12.554134 4.9166489 0.45196024
-12.472024 4.9277916 0.43616882
-13.720547 5.0948787 0.44133332
-13.647118 5.0863943 0.44711235
-13.566242 5.0739474 0.460069
-13.5 5.0700002 0.493
-13.258689 5.0454922 0.44759655
-13.0064 5.0365 0.45640001
-12.990411 5.053647 0.44482353
-12.727576 5.0499673 0.46617976
-12.666371 5.0682092 0.43197018
-12.55038 5.0760398 0.44788009
-12.470944 5.0435004 0.43808335
-13.808002 5.1460834 0.40408334
-13.751578 5.1272125 0.44560391
-13.675149 5.1058536 0.45882344
-13.537395 5.1360531 0.44605261
-13.498 5.151 0.491
-13.240617 5.1399779 0.45067942
-13.14871 5.1530252 0.45040503
-13.048136 5.1405821 0.44841778
-12.987477 5.1259198 0.44175997
-12.721561 5.1077504 0.47868749
-12.671286 5.1070476 0.45309532
-12.574 5.0999999 0.48300001
-13.737068 5.2451344 0.44127023
-13.652833 5.249445 0.44948208
-13.557372 5.2310643 0.45285904
-13.490601 5.2210002 0.48300004
-12.542749 4.8959999 0.52325004
-13.306 4.9580002 0.551
-13.24086 4.9562063 0.54824591
-13.151315 4.9405551 0.54932684
-13.056339 4.9306526 0.54985768
-12.992572 4.9697146 0.54914284
-12.819622 4.9805331 0.57204437
-12.753018 4.9629889 0.55020988
-12.650235 4.9401417 0.55105335
-12.565309 4.9303203 0.53851938
-12.492 4.9499998 0.50099999
-13.7125 5.0904999 0.50749999
-13.637076 5.0892529 0.54136974
-13.55015 5.0746851 0.54912221
-13.473331 5.0626707 0.56689882
-13.259138 5.0503283 0.54784483
-13.009999 5.0241818 0.54509097
-12.992358 5.0530715 0.5556429
-12.820353 5.0455232 0.5762462
-12.776935 5.0500884 0.5283125
-12.630643 5.0920715 0.55592859
-12.562684 5.0586295 0.54798144
-13.715051 5.1376929 0.51628208
-13.664376 5.1295857 0.55807412
-13.574 5.1003332 0.55366671
-13.453335 5.1459732 0.54819447
-13.363 5.1589999 0.58700001
-13.240926 5.1449318 0.55117166
-13.148566 5.1591558 0.55099994
-13.045928 5.145761 0.55208957
-12.981654 5.124609 0.53878266
-12.811716 5.1215715 0.58657146
-12.755812 5.1171031 0.55017245
-12.663802 5.1079674 0.55033338
-13.705 5.217 0.50625002
-13.644583 5.2416296 0.54309297
-13.549353 5.2356353 0.54788226
-13.465543 5.2231631 0.56083637
-13.024 4.8969998 0.60600001
-13.238358 4.9591446 0.65011436
-13.14929 4.9447379 0.64952779
-13.061481 4.9350209 0.64802438
-12.952357 4.9750719 0.66350007
-12.84269 4.9838047 0.65403122
-12.75304 4.9622116 0.64917696
-12.663161 4.9480486 0.64098603
-13.614571 5.0906191 0.62490475
-13.54628 5.0821977 0.64664274
-13.453277 5.0607953 0.65195596
-13.382829 5.0605111 0.66960973
-13.258211 5.0519733 0.64519745
-13.01175 5.022625 0.64350003
-12.934181 5.0409489 0.67274362
-12.865602 5.051661 0.6408304
-12.706 5.0974998 0.64849997
-12.638054 5.0506763 0.65702695
-12.597334 5.0406666 0.6196667
-13.624374 5.1347079 0.62984014
-13.578464 5.1305532 0.67192847
-13.41 5.1634998 0.60699999
-13.363447 5.1603103 0.65468961
-13.243256 5.1495004 0.65000021
-13.149116 5.1622872 0.65036261
-13.046412 5.1496277 0.65165722
-12.960413 5.117764 0.66000003
-12.848495 5.1234961 0.6553483
-12.758502 5.1217313 0.65432686
-12.667667 5.108222 0.6411112
-13.612117 5.2274117 0.61900002
-13.550653 5.237813 0.64926749
-13.453327 5.2247686 0.64879256
-13.377666 5.2130671 0.66506672
-13.23813 4.9664593 0.74954575
-13.150679 4.9475093 0.74766839
-13.063737 4.9406338 0.74831021
-12.933422 4.990078 0.75423676
-12.844923 4.9837093 0.74772191
-12.757758 4.9678965 0.74448538
-12.691833 4.9676666 0.7105
-13.525918 5.0868478 0.73505557
-13.450361 5.070014 0.74975508
-13.356434 5.0508294 0.75264508
-13.260595 5.0492344 0.75353116
-13.011333 5.0193329 0.74750006
-12.940637 5.0222063 0.7454794
-12.867274 5.0038257 0.75870007
-12.730482 5.0515513 0.76886201
-12.686334 5.0404677 0.72226667
-13.534332 5.1332631 0.74911648
-13.486714 5.1375718 0.77785712
-13.324071 5.1742859 0.73364294
-13.24829 5.1620874 0.74752176
-13.151373 5.1635003 0.74969745
-13.053379 5.1547966 0.75171638
-12.941758 5.1408372 0.75614858
-12.851395 5.1379848 0.74695456
-12.757774 5.1216555 0.74775863
-12.68 5.1040001 0.70999998
-13.522817 5.2278891 0.72614807
-13.453169 5.2282701 0.74959558
-13.356688 5.214756 0.74998581
-13.28775 5.2098751 0.77874994
-13.235824 4.9674582 0.84956598
-13.149182 4.953228 0.84884936
-13.061635 4.9440713 0.84907216
-12.940372 4.9890375 0.85907376
-12.847956 4.9855018 0.84786814
-12.785534 4.9798007 0.82399988
-13.438999 5.0763621 0.84123337
-13.351462 5.054966 0.84904367
-13.273208 5.0380864 0.84931302
-13.181 5.0939999 0.89700001
-13.01775 5.006 0.84799999
-12.944305 5.011867 0.84400004
-12.85549 5.0143924 0.85696083
-12.772175 5.0489569 0.83073926
-13.5015 5.1199999 0.8075
-13.455381 5.1406178 0.84964216
-13.339 5.198 0.82599998
-13.238741 5.1750236 0.83757138
-13.146658 5.171874 0.84886068
-13.046065 5.1608801 0.85176015
-12.949986 5.1611075 0.84889185
-12.845789 5.1400304 0.85246992
-12.782668 5.1209168 0.82816666
-13.428289 5.225111 0.8373335
-13.353729 5.2190742 0.84814829
-13.267334 5.2083592 0.85884625
-13.198 5.2020001 0.898
-13.237338 4.9691391 0.94867748
-13.148595 4.9552522 0.94959033
-13.062954 4.9472995 0.94991481
-12.943119 4.9909487 0.94332194
-12.87877 4.989172 0.92537147
-13.412696 5.0851746 0.91947824
-13.349078 5.0640593 0.94565082
-13.275226 5.0419273 0.95074791
-13.023429 5.016572 0.94542861
-12.944355 5.012259 0.95424074
-12.871397 5.0293341 0.94310427
-13.411428 5.1335716 0.91242856
-13.368357 5.1483779 0.95822644
-13.234448 5.1896996 0.94640011
-13.142434 5.1783333 0.94901675
-13.050419 5.175334 0.94601387
-12.951379 5.1625795 0.95168138
-12.870379 5.1365676 0.93775684
-13.342129 5.2182388 0.93861926
-13.255745 5.2111778 0.94851607
-13.166999 5.2049289 0.95692861
-13.070399 5.2021999 0.95339996
-13.239689 4.9747972 1.0497255
-13.150695 4.9611154 1.0488679
-13.060031 4.9534154 1.0503834
-12.97711 4.9874449 1.0205556
-13.31948 5.0739779 1.0228041
-13.273726 5.0471478 1.0510931
-13.009002 5.0125456 1.0591818
-12.956046 5.036284 1.0327165
-13.318695 5.1396518 1.0220433
-13.265661 5.1610379 1.0601133
-13.13478 5.1875358 1.0417073
-13.045547 5.1797338 1.0500939
-12.96104 5.155519 1.0457323
-12.9 5.1420002 1
-13.30725 5.2150002 1.012
-13.245582 5.2113996 1.0426667
-13.158736 5.2046843 1.0521579
-13.075624 5.201375 1.0476251
-13.242609 4.9802394 1.1486828
-13.150517 4.9675484 1.1496744
-13.061907 4.9585762 1.1495188
-12.995667 4.9829998 1.1126666
-13.261638 5.0480528 1.1517079
-13.00925 5.0331001 1.1501001
-12.992154 5.0633078 1.1408463
-13.24625 5.1569524 1.151143
-13.137527 5.1893425 1.1466578
-13.043192 5.1776986 1.1477462
-12.985409 5.1549239 1.1498204
-13.224572 5.2087855 1.1373572
-13.153178 5.2050667 1.1511556
-13.0885 5.203167 1.1591667
-13.239194 4.9854493 1.2497848
-13.148893 4.9701219 1.2515469
-13.059546 4.9620504 1.2502759
-12.999 4.9980001 1.223
-13.301 5.0159998 1.272
-13.264265 5.0453858 1.2480482
-13.010105 5.0319996 1.2446316
-12.992223 5.0618329 1.2559999
-13.246937 5.1544681 1.2488017
-13.141107 5.1890006 1.2458649
-13.042917 5.1785631 1.2465916
-12.985487 5.1642919 1.2468048
-13.231002 5.2081752 1.252725
-13.155288 5.2061911 1.2465478
-13.0976 5.2036004 1.2588
-12.998 5.2010002 1.296
-13.239567 4.9879694 1.3483558
-13.146559 4.9737902 1.3476228
-13.0571 4.960794 1.352293
-12.991 4.9794998 1.3255
-13.262912 5.0450997 1.3489456
-13.1862 5.0015998 1.3534
-13.011001 5.0327501 1.3583126
-12.993091 5.0619092 1.3598182
-13.24769 5.1521006 1.3480186
-13.141528 5.1881385 1.343611
-13.044887 5.1845856 1.3455858
-12.987633 5.1642671 1.3498291
-13.232184 5.2119064 1.3527907
-13.160831 5.2096376 1.3520851
-13.0661 5.2050004 1.3707
-13.236063 4.9909682 1.4480098
-13.145366 4.9766078 1.4487636
-13.057577 4.9610429 1.4483552
-12.997001 4.9628 1.4381999
-13.301 5.02 1.455
-13.25998 5.0378666 1.4492048
-13.173375 5.0047503 1.4597501
-13.0114 5.0408001 1.45435
-12.994 5.0680995 1.4555
-13.250227 5.1500721 1.4488815
-13.12279 5.1862102 1.4428421
-13.033982 5.1848664 1.4457502
-12.984195 5.1699018 1.4524876
-13.231412 5.2119141 1.4514486
-13.156709 5.2120461 1.4541847
-13.066846 5.204154 1.4536924
-13.231484 4.9919858 1.5451187
-13.143413 4.9783487 1.5501444
-13.058305 4.9704127 1.5500816
-12.995001 4.9927502 1.5410001
-13.260777 5.0382166 1.55009
-13.179999 5.0026002 1.5733999
-13.011312 5.044126 1.5561874
-12.990637 5.0605454 1.5599092
-13.252501 5.1510186 1.550078
-13.124728 5.1854548 1.5486364
-13.024948 5.1816649 1.5420258
-12.982857 5.1722574 1.5556285
-13.231596 5.2179847 1.5512257
-13.152971 5.2148743 1.5535837
-13.06134 5.2087274 1.5518638
-13.23595 4.9938517 1.64818
-13.140203 4.9815822 1.6488571
-13.055313 4.9718184 1.6510001
-13.257638 5.0350618 1.6490126
-13.178808 5.0039039 1.648381
-13.011142 5.0420952 1.6500953
-12.993571 5.0651426 1.6528571
-13.25297 5.1468711 1.6494654
-13.108334 5.1866665 1.6143334
-13.018559 5.1737199 1.64072
-12.986038 5.1657033 1.6513335
-13.234632 5.2205772 1.6498448
-13.152398 5.220365 1.6527531
-13.054584 5.2100492 1.6506667
-12.9888 5.2041001 1.6631001
-13.229181 4.9940772 1.747026
-13.140898 4.9851799 1.7485305
-13.056768 4.9751792 1.7488862
-12.999 4.9970002 1.739
-13.256479 5.034112 1.7492555
-13.177669 5.0029168 1.7531666
-13.012579 5.042263 1.7590526
-12.993335 5.0693336 1.7465556
-13.253464 5.1502409 1.7492965
-13.121 5.1929998 1.7704999
-13.023418 5.1741929 1.7423227
-12.985 5.1684999 1.7502309
-13.234873 5.225112 1.7491941
-13.153464 5.2227507 1.7505714
-13.054782 5.2123337 1.7522001
-12.987562 5.2076879 1.7608749
-13.220106 4.99579 1.852158
-13.137475 4.9883118 1.8478664
-13.055954 4.9794211 1.8495283
-13.254814 5.0338368 1.849538
-13.175771 5.0047302 1.8480769
-13.013237 5.0375881 1.8505881
-12.995462 5.0707693 1.8546157
-13.25791 5.1463981 1.8496017
-13.102 5.1960001 1.801
-13.022624 5.1733327 1.8387917
-12.988628 5.1654449 1.855037
-13.235708 5.2261424 1.8491544
-13.152649 5.226717 1.8502593
-13.048779 5.2183084 1.8528824
-12.985555 5.2122779 1.854389
-13.228557 4.9956665 1.9302222
-13.131555 4.9908929 1.9479927
-13.056622 4.9832935 1.9487735
-12.9935 4.993 1.9484999
-13.253416 5.0344353 1.9515334
-13.165369 5.0061002 1.9518669
-13.023845 5.0373125 1.9482498
-12.990625 5.0603752 1.9588751
-13.261575 5.1461253 1.9504644
-13.012811 5.1459045 1.9475236
-12.985856 5.1674647 1.952036
-13.236933 5.2316561 1.9499892
-13.148767 5.2297883 1.950284
-13.046518 5.218308 1.9492935
-12.983523 5.2147622 1.9492381
-13.233531 4.9859419 2.0834317
-13.142833 4.9867477 2.0550835
-13.058127 4.986999 2.0483131
-13.308001 5.0740004 2.095
-13.262597 5.0365219 2.0490136
-13.15552 5.0053396 2.0405357
-13.029757 5.0295143 2.0526485
-12.989556 5.0488892 2.0557225
-13.265259 5.152988 2.0477827
-13.01516 5.1565785 2.0470526
-12.987207 5.1547923 2.041208
-13.242968 5.2462106 2.0523813
-13.149509 5.2521791 2.0495
-13.046141 5.2237315 2.0492177
-12.9859 5.2156501 2.0518
-13.221334 5.3070002 2.0861669
-13.174126 5.3070002 2.088625
-13.227701 4.8877501 2.1891501
-13.186702 4.8793001 2.1875002
-13.306319 4.9560456 2.1655908
-13.255435 4.945035 2.1497505
-13.148367 4.9605975 2.1458588
-13.060171 4.9899998 2.1468663
-12.999 4.994 2.102
-13.3073 5.0622997 2.1123002
-13.284512 5.0477681 2.1478205
-13.128468 5.0043998 2.146467
-13.034502 5.026804 2.1516962
-12.991668 5.0435338 2.1440001
-13.267734 5.1517844 2.1454532
-13.009624 5.1409998 2.1503749
-12.990126 5.1615839 2.1509166
-13.258246 5.2474613 2.1417155
-13.129002 5.2773571 2.1222856
-13.055933 5.2399206 2.1439333
-12.990893 5.2155786 2.149842
-13.23108 5.3418994 2.1540995
-13.147805 5.347878 2.1535187
-13.088716 5.3329997 2.1760001
-13.214667 5.4063334 2.1953335
-13.1695 5.4049997 2.1929998
-13.244899 4.8515968 2.2533679
-13.18269 4.8539653 2.2444003
-13.307467 4.9345751 2.2451704
-13.289514 4.9519382 2.2429588
-13.138403 4.9579554 2.2312353
-13.069955 4.9939365 2.2479374
-13.303 5.0029998 2.244
-13.268435 5.0545015 2.2557557
-13.144876 5.0064998 2.2583749
-13.034975 5.02424 2.2526195
-12.9845 5.0485001 2.2513573
-13.258968 5.1501946 2.2508347
-13.007591 5.1261363 2.2508638
-12.99138 5.1685243 2.2524762
-13.254486 5.2470684 2.2485654
-13.11375 5.25525 2.2735
-13.05323 5.2402287 2.2486312
-12.987214 5.2082858 2.2502143
-13.242544 5.3522334 2.2466967
-13.131498 5.3820004 2.2146249
-13.082127 5.3528061 2.2491522
-13.224771 5.4348726 2.2584932
-13.151664 5.4396796 2.2533302
-13.087911 5.4300451 2.2674088
-13.195 5.5050001 2.2909999
-13.244256 4.7645564 2.3583741
-13.185142 4.7669992 2.3600802
-13.318346 4.8404236 2.3442886
-13.257862 4.8168278 2.3182757
-13.175148 4.8431273 2.3392334
-13.305714 4.9243817 2.3451428
-13.288322 4.960793 2.3504906
-13.158967 4.9420338 2.3417337
-13.069826 4.9904785 2.3509133
-13.305 5.0609999 2.398
-13.274069 5.0514069 2.3453264
-13.137599 5.0140495 2.3518
-13.039787 5.0245686 2.3487794
-12.989299 5.0554004 2.3512001
-13.26466 5.1492081 2.34992
-13.009585 5.1393332 2.3513334
-12.991734 5.1675334 2.3568671
-13.250144 5.2489662 2.3512969
-13.114501 5.2526665 2.3605001
-13.040601 5.2397246 2.3501251
-12.991083 5.2118335 2.3514166
-13.242809 5.3493023 2.3479798
-13.105499 5.3055 2.385
-13.085175 5.3550491 2.3519499
-13.231871 5.4485245 2.3463535
-13.141076 5.4822226 2.311815
-13.075789 5.4508648 2.3515961
-13.216228 5.5269046 2.36725
-13.151386 5.5334582 2.3598437
-13.084524 5.5208092 2.3665717
-13.315385 4.8414817 2.4449806
-13.292135 4.8724661 2.4642003
-13.171605 4.849349 2.4444654
-13.306999 4.9198751 2.4265001
-13.27777 4.9419165 2.4428959
-13.169535 4.9329338 2.4403334
-13.057649 4.9908643 2.443784
-13.3035 5.0599999 2.4579999
-13.267463 5.0524259 2.4498885
-13.125001 5.024158 2.4561579
-13.034783 5.0278149 2.4466667
-12.985332 5.0516667 2.4498334
-13.26632 5.1515803 2.4498928
-13.013075 5.1392503 2.4518216
-12.992925 5.1843081 2.4512308
-13.257221 5.2521353 2.4455907
-13.137539 5.2631531 2.458077
-13.032027 5.2349753 2.4413331
-12.989909 5.2175455 2.4547272
-13.242484 5.3442779 2.447041
-13.133669 5.3378005 2.4662001
-13.087479 5.3642173 2.4344351
-13.234364 5.4462376 2.449815
-13.102 5.4759998 2.477
-13.074934 5.4505653 2.4505215
-13.219618 5.5506563 2.4492476
-13.141245 5.5824227 2.4208002
-13.070609 5.5544696 2.4435804
-13.208371 5.6292582 2.4748518
-13.156986 5.6303291 2.4649875
-13.081155 5.622385 2.4768846
-13.25645 4.581552 2.5780931
-13.2517 4.632154 2.5344813
-13.186909 4.6598792 2.5511215
-13.329504 4.7482934 2.5491335
-13.207779 4.7312226 2.5373333
-13.186631 4.7599254 2.551074
-13.312643 4.8309488 2.5409229
-13.268887 4.8472853 2.5501428
-13.17854 4.8319998 2.5317307
-13.270667 4.9422221 2.5285556
-13.040668 4.9940004 2.533
-13.303 5.0619998 2.559
-13.264561 5.0511241 2.5519497
-13.129774 5.0302734 2.5536819
-13.042493 5.0342393 2.5472684
-12.991833 5.0638332 2.528667
-13.269837 5.1471004 2.5495956
-13.015171 5.142345 2.5494826
-12.995667 5.1773334 2.5596666
-13.250094 5.2472796 2.5505986
-13.155001 5.2705908 2.5728638
-13.024999 5.2332573 2.5477417
-12.995364 5.2152729 2.5525455
-13.229834 5.3434997 2.5350835
-13.142751 5.3789997 2.50825
-13.22822 5.4693522 2.5426297
-13.16643 5.4467149 2.5608571
-13.0808 5.4618335 2.5342333
-13.223849 5.5492845 2.5479543
-13.06325 5.5522885 2.549654
-13.212246 5.6446123 2.5525656
-13.152471 5.6783476 2.5278487
-13.065825 5.6551628 2.5467298
-13.204869 5.7189341 2.5763998
-13.157486 5.7253089 2.5709565
-13.077112 5.7224436 2.5791852
-13.344122 4.5500264 2.6471868
-13.25586 4.5396791 2.6429121
-13.194 4.5722003 2.6582665
-13.348847 4.6442041 2.6464612
-13.211501 4.637867 2.6556671
-13.19005 4.6435504 2.63955
-13.324157 4.7410245 2.6477075
-13.247757 4.7537203 2.6558397
-13.186668 4.7400742 2.6324446
-13.3045 4.8074999 2.6459999
-13.250999 4.8135004 2.6085
-13.179 4.802 2.6029999
-13.259312 5.0503244 2.6499994
-13.136546 5.0366821 2.6544094
-13.044638 5.040699 2.651175
-13.270385 5.150022 2.6482689
-13.014972 5.1456065 2.6508787
-12.995334 5.1720004 2.6663332
-13.249715 5.2523799 2.6507881
-13.15063 5.277389 2.6459818
-13.040335 5.2456665 2.6541817
-12.99295 5.2250476 2.6467619
-13.208 5.4990001 2.6010001
-13.087 5.4899998 2.602
-13.221704 5.5606241 2.6391392
-13.164628 5.5477715 2.6579139
-13.07043 5.559515 2.6447716
-13.215229 5.6464262 2.648098
-13.197668 5.6803336 2.6573334
-13.056569 5.6476083 2.6492605
-13.206274 5.7289152 2.6556385
-13.161591 5.7686729 2.635664
-13.063217 5.7513475 2.6482463
-13.205999 5.8200002 2.6830001
-13.156494 5.8194299 2.6742315
-13.075499 5.8113894 2.6813889
-13.364934 4.5510807 2.7398937
-13.218938 4.5432348 2.747617
-13.191667 4.5376668 2.7176666
-13.338109 4.6474657 2.7467196
-13.23865 4.6533513 2.7541349
-13.191924 4.6559238 2.7518461
-13.32053 4.7238827 2.7198825
-13.279667 4.7073336 2.7130001
-13.194334 4.7036667 2.7056665
-13.057 4.9970002 2.7880001
-13.25308 5.0517869 2.7491293
-13.139347 5.041131 2.7554786
-13.047627 5.0440712 2.7499473
-13.273649 5.1531701 2.7553959
-13.019032 5.142909 2.7510607
-12.995714 5.177 2.752286
-13.258414 5.2523012 2.754468
-13.14793 5.2831593 2.748682
-13.040502 5.253902 2.751193
-12.993547 5.2299094 2.7467275
-13.240333 5.3054452 2.7725
-13.199 5.3080001 2.7639999
-13.210401 5.5865998 2.7205999
-13.164455 5.576364 2.7206364
-13.078858 5.5892859 2.7151427
-13.213318 5.6547885 2.7360754
-13.154976 5.6361485 2.7580638
-13.065655 5.6523099 2.7426894
-13.206544 5.7417145 2.7548859
-13.195963 5.7699251 2.7388887
-13.045417 5.7488613 2.7502778
-13.204223 5.8346667 2.7764444
-13.166342 5.8571215 2.7420352
-13.060912 5.8533711 2.7484701
-12.994 5.8400002 2.7969999
-13.145855 5.9180808 2.7777953
-13.071728 5.9114547 2.7900002
-13.354778 4.5525737 2.8512404
-13.233851 4.541851 2.8503826
-13.1945 4.5710001 2.8445001
-13.334332 4.6217775 2.8191664
-13.267857 4.6161432 2.8191428
-13.193335 4.6196666 2.8256669
-13.227 4.98 2.802
-13.251872 5.0550437 2.8483603
-13.16042 5.0469737 2.8554471
-13.05009 5.0467267 2.8462541
-12.9845 5.0924997 2.8924999
-13.320471 5.1708822 2.8656332
-13.282009 5.1469049 2.8421264
-13.011859 5.1371431 2.8406427
-12.978498 5.1507483 2.8643334
-13.319115 5.2474833 2.8674836
-13.278024 5.2640367 2.8299382
-13.14559 5.2834711 2.846647
-13.046136 5.2637315 2.8447888
-12.976001 5.2385206 2.8576667
-13.315222 5.3128896 2.8735554
-13.256573 5.3108377 2.8488162
-13.181624 5.3115001 2.8507497
-13.204 5.6964998 2.812
-13.166752 5.6785421 2.8268332
-13.082874 5.6841254 2.8171251
-13.205469 5.7598562 2.8358777
-13.163197 5.7414351 2.8643043
-13.06219 5.7474871 2.8531084
-13.204335 5.8163896 2.8483331
-13.191452 5.8562198 2.8513286
-13.033424 5.8505244 2.8463004
-13.159028 5.952239 2.8477263
-13.056033 5.9492159 2.8520327
-13.141467 6.0129662 2.8845334
-13.08443 6.0100002 2.8867145
-13.256186 4.5167499 2.9246244
-13.081 4.9899998 2.9189999
-13.306 5.0910001 2.9630001
-13.251725 5.0572486 2.9460979
-13.164579 5.046824 2.9560521
-13.056514 5.0490737 2.9496584
-12.937111 5.0887775 2.9566948
-12.897334 5.0833335 2.9676666
-13.407223 5.1833334 2.9811113
-13.349912 5.1692581 2.9512045
-13.280719 5.1450663 2.9475496
-13.014624 5.1549997 2.9507501
-12.941326 5.1403465 2.9461432
-12.8926 5.1522002 2.9807999
-13.362529 5.2534394 2.9492517
-13.244235 5.2916179 2.9462063
-13.146411 5.2795 2.955353
-13.04376 5.2632799 2.9478598
-12.946366 5.2421775 2.9502411
-12.893749 5.2240005 2.9862499
-13.402 5.309 2.9860001
-13.344764 5.3169274 2.9554911
-13.261025 5.3079734 2.9509478
-13.1832 5.3038001 2.9252002
-13.156 5.6960001 2.9260001
-13.201 5.79 2.9159999
-13.161478 5.7710795 2.9199202
-13.0657 5.7798996 2.9175
-13.2055 5.8457141 2.9454646
-13.176946 5.8535852 2.9530702
-13.051805 5.8415222 2.9512177
-13.204333 5.9436674 2.9780002
-13.182216 5.9494333 2.9479663
-13.028807 5.955225 2.9439034
-12.997499 5.9720001 2.9200001
-13.151375 6.0498943 2.9503782
-13.056642 6.0477924 2.9522455
-13.133501 6.1082144 2.9888575
-13.07825 6.1022501 2.99525
0 0 0 1 0 0 0 1 0 0 0 1 0 0 0 0 0 794 1 0 0
