ply
format ascii 1.0
comment PCL generated
element vertex 807
property float x
property float y
property float z
element camera 1
property float view_px
property float view_py
property float view_pz
property float x_axisx
property float x_axisy
property float x_axisz
property float y_axisx
property float y_axisy
property float y_axisz
property float z_axisx
property float z_axisy
property float z_axisz
property float focal
property float scalex
property float scaley
property float centerx
property float centery
property int viewportx
property int viewporty
property float k1
property float k2
end_header
12.46775 -5.2260003 0.02
12.557187 -5.2351875 0.031749997
12.648471 -5.228529 0.027882352
12.485556 -5.152 0.059222221
12.545501 -5.1740003 0.080500007
12.663062 -5.1534286 0.050102044
12.494667 -5.0469999 0.082000002
12.5062 -5.0548 0.025599999
12.676668 -5.053524 0.045809519
12.493 -4.9489999 0.092
12.5242 -4.96 0.047399998
12.667301 -4.9575353 0.047488369
12.7446 -4.9217339 0.051700003
12.5346 -4.8412995 0.064600006
12.757864 -4.8491883 0.052640006
12.526166 -4.7537665 0.046500001
12.762619 -4.7512326 0.052383557
11.570834 -4.637167 0.043333333
12.499 -4.6030002 0.063000001
12.527388 -4.6471386 0.044694442
12.758102 -4.6510262 0.049278479
11.455179 -4.5751786 0.049035717
11.545334 -4.5884442 0.060777776
11.615499 -4.5845003 0.071500003
12.525046 -4.5525122 0.049975608
12.6855 -4.5298848 0.046115387
12.745175 -4.5666733 0.049211554
12.526217 -4.4534645 0.049714286
12.690462 -4.4504132 0.050269857
12.702385 -4.4461536 0.042153846
12.487999 -4.3326664 0.059666663
12.545256 -4.3472552 0.052914903
12.674988 -4.3489256 0.046985302
12.704999 -4.3580461 0.033318184
12.552714 -4.2904282 0.011857144
12.65625 -4.2927499 0.010749999
12.4695 -5.1331253 0.12612501
12.561617 -5.1345387 0.14169233
12.64874 -5.1305213 0.13234782
12.479857 -5.0625715 0.16614287
12.523001 -5.0833335 0.17533335
12.666231 -5.0517292 0.15056249
12.493751 -4.9369998 0.168
12.51025 -4.90975 0.16525
12.676594 -4.9524999 0.14566669
12.752075 -4.9144073 0.14851852
12.527819 -4.8510461 0.1544091
12.758603 -4.8513556 0.15097259
11.445468 -4.7508125 0.15946876
11.630424 -4.743 0.16815388
12.538144 -4.7522502 0.14978573
12.762044 -4.7509131 0.15268573
11.414556 -4.6416669 0.1841111
11.66165 -4.6312003 0.15275
11.704 -4.632 0.198
12.497001 -4.6446667 0.16966668
12.525332 -4.6483645 0.14875758
12.754988 -4.6516943 0.15077646
11.381359 -4.5726433 0.12628572
11.44069 -4.5654483 0.15924138
11.554802 -4.5801005 0.1452
11.638579 -4.5918422 0.15873684
11.702 -4.5929999 0.182
12.515317 -4.5581579 0.14863159
12.687924 -4.5222697 0.14888462
12.74471 -4.5653868 0.15025808
12.498 -4.4250002 0.1785
12.536703 -4.4423242 0.16143245
12.677963 -4.4465609 0.15075609
12.706573 -4.4415717 0.13100001
12.495 -4.3829999 0.118
12.552766 -4.3806472 0.12388235
12.656131 -4.3805656 0.11721738
12.471499 -5.0346251 0.22800002
12.540417 -5.0378337 0.24291667
12.649593 -5.032156 0.24128126
12.487552 -4.9510503 0.25830001
12.52675 -4.9575 0.28350002
12.67112 -4.9504285 0.24947621
12.746137 -4.9118185 0.24795455
12.493334 -4.882 0.259
12.50937 -4.8458419 0.24489473
12.75715 -4.8445482 0.25027403
11.466866 -4.723866 0.22993334
11.539731 -4.7515392 0.25742313
11.66011 -4.7538328 0.24761115
11.728649 -4.7367001 0.27745
12.497999 -4.7639999 0.2265
12.524626 -4.7447915 0.24899998
12.758975 -4.7496753 0.25022504
11.45895 -4.6475749 0.24652496
11.5 -4.6950002 0.29100001
11.681499 -4.6455002 0.21349999
11.745141 -4.651381 0.26176187
12.497 -4.6783333 0.27700001
12.510931 -4.6422496 0.24842861
12.749457 -4.6512218 0.25225973
11.47385 -4.5741501 0.23415001
11.541463 -4.5639234 0.25449997
11.655189 -4.5820942 0.25259376
11.745266 -4.5934668 0.26493338
11.804 -4.592 0.29549998
12.481 -4.5555 0.28350002
12.521872 -4.5471535 0.25376925
12.674587 -4.5244823 0.25396553
12.748847 -4.5631218 0.25153032
12.477 -4.4840002 0.24849999
12.547116 -4.4706154 0.23488462
12.654609 -4.4744387 0.2349024
12.708 -4.4860001 0.237
12.482531 -4.9275289 0.33464706
12.544091 -4.941318 0.35095453
12.655595 -4.9395719 0.34742856
12.738107 -4.9094739 0.35621053
12.488579 -4.8573155 0.34884214
12.504001 -4.8308573 0.33757144
12.755757 -4.8452411 0.34828568
11.560774 -4.7265453 0.34186363
11.648825 -4.7577391 0.35713047
11.759975 -4.7482829 0.34628201
11.818412 -4.7360582 0.37800002
12.489834 -4.7542505 0.35491666
12.507706 -4.7457647 0.33741176
12.758498 -4.7503047 0.3506836
11.494 -4.6079998 0.30199999
11.546024 -4.6495123 0.34939027
11.789665 -4.6573339 0.32433334
11.836575 -4.648808 0.36517024
12.494333 -4.6690001 0.35466668
12.510334 -4.6399584 0.34508333
12.744069 -4.6507869 0.35178828
11.565207 -4.5695419 0.3400417
11.64363 -4.5645928 0.35600007
11.751656 -4.5812697 0.35115391
11.814501 -4.592 0.357375
11.9 -4.5890002 0.38499999
12.484858 -4.548429 0.34785715
12.54706 -4.5485106 0.3437959
12.654146 -4.537735 0.35252944
12.748128 -4.5592151 0.35070884
12.819 -4.5320001 0.352
12.54264 -4.9116406 0.45159999
12.642391 -4.9084349 0.4504782
12.736888 -4.9062219 0.44705561
12.491222 -4.8400002 0.42822221
12.530499 -4.8607721 0.4630909
12.759031 -4.8465309 0.44785932
11.661751 -4.7344174 0.44062504
11.752364 -4.7584548 0.45772728
11.850712 -4.7462635 0.44968423
11.914376 -4.7228751 0.48774999
12.491095 -4.7465243 0.45642859
12.505249 -4.7566252 0.42187497
12.758753 -4.7533336 0.44980246
11.591499 -4.6682501 0.41224998
11.639417 -4.6496663 0.45791668
11.879657 -4.6535425 0.42511427
11.923794 -4.6444407 0.46914703
12.48875 -4.6750002 0.42325002
12.518161 -4.6364841 0.449
12.743035 -4.6486902 0.45396438
11.658415 -4.565897 0.44403455
11.746678 -4.5669641 0.44385722
11.847345 -4.585063 0.45412496
11.934857 -4.5898571 0.48028573
12.479857 -4.541429 0.44628572
12.54451 -4.5435529 0.44938302
12.650576 -4.534152 0.45318174
12.750319 -4.5563154 0.45117721
13.557902 -4.5888505 0.45875001
12.541861 -4.9097924 0.54496557
12.640899 -4.9055991 0.54785001
12.742875 -4.9026251 0.54306251
12.532579 -4.8484473 0.55476308
12.668571 -4.8991432 0.55214286
12.759199 -4.8526869 0.54678428
11.67 -4.704 0.50999999
11.756064 -4.73458 0.55022585
11.852238 -4.7610474 0.54909533
11.941309 -4.7401795 0.555282
12.489889 -4.7319999 0.53655559
12.519235 -4.7586474 0.56829411
12.760159 -4.7496843 0.54722369
13.375312 -4.7395 0.55274999
13.451078 -4.7452307 0.54676926
13.552979 -4.7375302 0.55675519
11.6847 -4.6552 0.51569998
11.72928 -4.6504693 0.56403118
11.972335 -4.6578665 0.53723335
12.020461 -4.633616 0.57469225
12.517085 -4.65625 0.5415417
12.744585 -4.6504173 0.54787511
13.3698 -4.6410003 0.53399998
13.4196 -4.6274004 0.50799996
13.565269 -4.6462688 0.57173073
13.618213 -4.6556058 0.52263629
11.696 -4.5924997 0.50950003
11.754967 -4.567193 0.54758066
11.850335 -4.5717411 0.55125928
11.944043 -4.5916085 0.54708695
12.01425 -4.5922499 0.57075
12.491751 -4.5342503 0.53750002
12.547895 -4.535789 0.54949999
12.651083 -4.5295 0.54929173
12.746215 -4.5536785 0.55136919
13.3612 -4.5948005 0.58520001
13.458429 -4.5901427 0.54185718
13.550627 -4.5875416 0.54208338
13.612 -4.5909996 0.51424998
12.7425 -4.4995003 0.53200001
12.540565 -4.9062171 0.64856523
12.635444 -4.9027781 0.639
12.737 -4.9026003 0.63499999
12.48575 -4.895 0.66299999
12.537425 -4.8592749 0.64892507
12.657307 -4.8970003 0.65823078
12.752205 -4.8614745 0.64630502
11.790001 -4.7166667 0.62
11.851928 -4.737536 0.65428579
11.96029 -4.7559361 0.63845158
12.045001 -4.7349677 0.65726668
12.522215 -4.7515717 0.65282136
12.758204 -4.7449241 0.6449374
13.273144 -4.738286 0.66142857
13.35281 -4.7428079 0.64792311
13.45824 -4.7323804 0.66028571
13.524941 -4.7290587 0.62147063
11.776685 -4.6485796 0.62778944
11.824499 -4.6531253 0.67950004
11.992 -4.6030002 0.60000002
12.056526 -4.6354742 0.62742114
12.103251 -4.6047497 0.67149997
12.514416 -4.6552086 0.64487505
12.746063 -4.6500759 0.64588475
13.260249 -4.6454997 0.65362495
13.469154 -4.6441555 0.67097777
13.518341 -4.6567373 0.62728947
11.7805 -4.5780001 0.61650002
11.847222 -4.5632601 0.6474815
11.954332 -4.579185 0.6345185
12.042477 -4.5896668 0.64847624
12.462 -4.5330005 0.64539999
12.540909 -4.530046 0.65040904
12.652233 -4.5287695 0.6481154
12.746998 -4.5521607 0.65070385
13.266 -4.5938892 0.66744447
13.366693 -4.5873079 0.65338469
13.44625 -4.5904169 0.64716673
13.521 -4.594667 0.60600007
12.743 -4.4970002 0.69099998
12.543401 -4.9067001 0.73820007
12.6215 -4.901 0.72650003
12.747 -4.9013333 0.71066666
12.478499 -4.8780003 0.74937499
12.538696 -4.8670664 0.75397825
12.657046 -4.8945003 0.75654554
12.752718 -4.8573289 0.74996877
11.8765 -4.7135 0.71649998
11.94393 -4.7407146 0.74507153
12.052094 -4.7537804 0.74737513
12.127563 -4.7452497 0.76437503
12.523763 -4.7541771 0.75050002
12.756813 -4.7453051 0.74801689
13.15775 -4.724 0.76800001
13.249138 -4.7371821 0.74609089
13.352025 -4.7312999 0.75880009
13.422736 -4.7217894 0.72463149
11.871578 -4.652154 0.73800009
11.918822 -4.6479411 0.78135294
12.149946 -4.6164999 0.74027777
12.203 -4.6090002 0.79299998
12.517422 -4.6621056 0.74978954
12.745183 -4.6505461 0.74924666
13.169749 -4.6352501 0.74799997
13.218666 -4.6070004 0.73300004
13.371735 -4.6472878 0.77235574
13.423833 -4.6506662 0.72605556
11.889 -4.5787778 0.72744447
11.94803 -4.5623436 0.75342852
12.056782 -4.5760312 0.74909365
12.13825 -4.5895414 0.76333344
12.204 -4.5970001 0.75450003
12.491333 -4.5233335 0.73533332
12.542224 -4.5349717 0.75477779
12.6525 -4.524179 0.74675
12.74942 -4.5551491 0.74993825
13.171 -4.5894165 0.77866662
13.243778 -4.586833 0.75072223
13.342051 -4.5855002 0.75150007
13.418599 -4.5932002 0.71460003
12.52475 -4.9072499 0.82849997
12.4735 -4.8385 0.82950002
12.536649 -4.8692989 0.85021675
12.656001 -4.8883753 0.84758341
12.755284 -4.8571105 0.85192192
11.977215 -4.7242861 0.82714295
12.048362 -4.7435994 0.85059994
12.150833 -4.7547092 0.84850013
12.2215 -4.743 0.87849998
12.498 -4.756 0.89200002
12.521765 -4.7522941 0.84855872
12.760064 -4.7510629 0.85089362
13.076 -4.727778 0.86688882
13.157201 -4.7364001 0.85084993
13.259613 -4.7305007 0.85355556
13.319236 -4.7208238 0.82658821
11.964465 -4.6506433 0.84403569
12.010501 -4.657167 0.88583338
12.254144 -4.6307139 0.85485715
12.492 -4.691 0.89099997
12.513539 -4.6691537 0.84984618
12.743973 -4.6490426 0.84546584
13.066501 -4.625 0.85266674
13.1374 -4.6240001 0.8294
13.274676 -4.6462579 0.87516129
13.320872 -4.6519752 0.82902497
11.978333 -4.567584 0.82674998
12.046171 -4.5649147 0.85511434
12.152081 -4.5798383 0.8455947
12.23342 -4.5907373 0.85636854
12.301 -4.5900002 0.88999999
12.499 -4.5240002 0.83600003
12.539557 -4.5348001 0.85182232
12.647573 -4.5173569 0.84957153
12.741026 -4.5544086 0.8459717
13.076167 -4.5855002 0.87033337
13.158369 -4.5830746 0.853926
13.254851 -4.5859628 0.85318518
13.318834 -4.5895004 0.81750005
12.590334 -4.482667 0.88300008
12.63075 -4.4822502 0.88
12.515 -4.902 0.91100001
12.752 -4.9039998 0.92400002
12.538884 -4.8680778 0.94900012
12.654799 -4.8862 0.94728005
12.74683 -4.8573394 0.9483586
12.078386 -4.7183847 0.93569231
12.151464 -4.7446795 0.95378572
12.225909 -4.7520003 0.94236374
12.333 -4.75 0.98799998
12.498 -4.7969999 0.977
12.515546 -4.7495461 0.94630307
12.754793 -4.7484999 0.94975007
12.977667 -4.7203336 0.96283334
13.058445 -4.7300558 0.95344448
13.155936 -4.7294517 0.95758057
13.224843 -4.7231579 0.92147368
12.055367 -4.6509509 0.94663423
12.108 -4.6324997 0.99849999
12.284 -4.6020002 0.91500002
12.339334 -4.6233335 0.94466656
12.495 -4.6350002 0.97100002
12.511364 -4.6478186 0.95027274
12.744255 -4.6452112 0.94630986
12.964168 -4.6565003 0.95516676
13.030501 -4.6148334 0.93533325
13.171683 -4.6469741 0.97697359
13.229401 -4.6499557 0.92671114
12.070185 -4.5713706 0.93681484
12.139446 -4.5604467 0.95797366
12.244166 -4.5760002 0.95209998
12.324701 -4.5913005 0.96690005
12.493 -4.5310001 0.94599998
12.53825 -4.5346045 0.95685434
12.641695 -4.5154443 0.95286113
12.742149 -4.5480738 0.9441852
12.964251 -4.5895 0.98249996
13.053914 -4.5842609 0.95217389
13.156516 -4.5838389 0.95393533
13.220083 -4.5920835 0.92666668
12.542 -4.5 0.97399998
12.63 -4.4990001 0.96700001
12.539692 -4.8677697 1.0456921
12.657001 -4.8816409 1.0527198
12.746145 -4.8602176 1.0500182
12.176002 -4.7220006 1.0454001
12.239401 -4.7456002 1.0501335
12.323 -4.756 1.07075
12.4555 -4.74575 1.0535001
12.518529 -4.7698245 1.0409999
12.754412 -4.7544708 1.0468824
12.877 -4.7145004 1.0775
12.954268 -4.7245336 1.0594667
13.053854 -4.7252645 1.0493234
13.122 -4.718091 1.0235455
12.094 -4.6599998 1.0065
12.145408 -4.6464596 1.0546217
12.381332 -4.6093335 1.0193334
12.4498 -4.6208 1.0422001
12.511076 -4.6309233 1.043077
12.748487 -4.6553655 1.0411463
12.862167 -4.6528335 1.0473334
12.957001 -4.6240001 1.0565
13.08023 -4.6442051 1.0728718
13.128689 -4.6505485 1.0265713
12.164521 -4.5649595 1.04008
12.24536 -4.5601034 1.0494872
12.360039 -4.5771599 1.0522801
12.42675 -4.56775 1.0788751
12.536834 -4.5306005 1.0472616
12.649026 -4.5106835 1.048974
12.743392 -4.5407672 1.0493748
12.866715 -4.5834293 1.0834286
12.958233 -4.5788674 1.0534334
13.050282 -4.5818129 1.0488439
13.114501 -4.59025 1.0225
12.586 -4.4920001 1.089
12.658999 -4.4950004 1.0506667
12.540237 -4.863163 1.1462905
12.652545 -4.8785906 1.1559546
12.744589 -4.8558397 1.1503823
12.253 -4.7206674 1.1404002
12.342308 -4.7456927 1.1606923
12.497499 -4.77 1.1784999
12.519564 -4.7703118 1.1448123
12.758158 -4.7510438 1.1526444
12.853401 -4.7197003 1.15135
12.960233 -4.7191925 1.1547307
13.033564 -4.713625 1.1220624
12.188334 -4.6486664 1.1076666
12.236233 -4.6502352 1.1603235
12.482 -4.6104999 1.135
12.521 -4.6100001 1.1259999
12.744699 -4.651 1.1223
12.982208 -4.6564479 1.1820345
13.029963 -4.647274 1.1303529
12.189 -4.5900002 1.101
12.257522 -4.5592999 1.1457801
12.344736 -4.5595264 1.1507367
12.441958 -4.563417 1.1525834
12.539135 -4.5251212 1.1477119
12.652713 -4.507143 1.1451999
12.742107 -4.5371995 1.148218
12.853912 -4.5731306 1.155174
12.960976 -4.5791583 1.151921
13.020638 -4.5928183 1.1281818
12.5626 -4.4964004 1.1684
12.656085 -4.4961667 1.1623334
12.729 -4.493 1.1595
12.535057 -4.8596044 1.2517738
12.651774 -4.8749094 1.244818
12.742383 -4.8500814 1.2484521
12.357082 -4.725667 1.2421668
12.4516 -4.7502003 1.2503
12.516429 -4.7727146 1.2578572
12.753121 -4.7520809 1.2517142
12.857742 -4.7178521 1.2532593
12.929298 -4.711 1.2231001
12.285001 -4.642714 1.2217144
12.329926 -4.6535931 1.2671852
12.880914 -4.6456523 1.2843478
12.935372 -4.6507649 1.2338629
12.28825 -4.5774994 1.2097501
12.349933 -4.5641141 1.2528181
12.44715 -4.55475 1.2537501
12.532489 -4.5219998 1.2482857
12.66176 -4.5050397 1.2531999
12.749074 -4.5377278 1.2508184
12.852 -4.5776505 1.24415
12.925077 -4.5872307 1.2246923
12.553201 -4.4973998 1.263
12.633264 -4.4954214 1.2552632
12.720273 -4.4958181 1.2524546
12.53385 -4.8566036 1.350868
12.65012 -4.8694396 1.3483601
12.743467 -4.8460255 1.3487215
12.390499 -4.7147503 1.3110001
12.460363 -4.7297273 1.3488182
12.516 -4.7623129 1.3552501
12.749 -4.7503586 1.3525997
12.825144 -4.7121429 1.3204286
12.375084 -4.6409588 1.3283751
12.420351 -4.6553998 1.3735999
12.784638 -4.6469998 1.383
12.834115 -4.653132 1.3358114
12.391001 -4.5824447 1.3291111
12.443003 -4.5610528 1.358658
12.517517 -4.5271382 1.341345
12.6638 -4.5043998 1.3337998
12.750119 -4.5403161 1.3521448
12.82023 -4.5871539 1.3216923
12.544323 -4.4943576 1.3536074
12.651 -4.4924335 1.3565667
12.736881 -4.4934001 1.3503999
12.495749 -4.8622503 1.46575
12.531084 -4.8509498 1.4455426
12.645433 -4.8633914 1.4490869
12.741141 -4.8457828 1.4497052
12.493401 -4.7296004 1.4142001
12.517406 -4.7539387 1.4547186
12.7425 -4.7540269 1.4499105
12.469199 -4.6376672 1.4411666
12.508333 -4.6544995 1.4711665
12.74754 -4.6504736 1.450408
12.477401 -4.5691333 1.4232
12.511522 -4.5432 1.45768
12.676 -4.5009999 1.411
12.744524 -4.5487084 1.4513047
12.498 -4.4984999 1.4655
12.550925 -4.4882441 1.4469754
12.648926 -4.4895926 1.4501112
12.738474 -4.4915528 1.4489477
12.493667 -4.8629999 1.5296668
12.530801 -4.8491149 1.5468524
12.650375 -4.8591256 1.5506251
12.738918 -4.8345842 1.5524666
12.519308 -4.7486153 1.5528462
12.699 -4.7969999 1.567
12.741612 -4.7466793 1.5480512
12.49131 -4.6381536 1.5424616
12.510121 -4.6476831 1.5548537
12.742023 -4.6506429 1.549
12.4947 -4.5586004 1.5552
12.515529 -4.5483923 1.5536473
12.741039 -4.5501466 1.5503337
12.4965 -4.4965 1.55
12.547245 -4.4854884 1.5482928
12.650758 -4.4858184 1.5510911
12.737838 -4.4873867 1.5553226
12.496715 -4.8464293 1.6512858
12.527037 -4.8482399 1.6462781
12.646708 -4.8555422 1.6497085
12.73929 -4.8348718 1.6495324
12.518515 -4.7520814 1.6474326
12.696 -4.7969999 1.619
12.741144 -4.7497149 1.6523898
12.492167 -4.6443338 1.6521667
12.509366 -4.6461701 1.6480242
12.740066 -4.6535335 1.6486663
12.494667 -4.5569997 1.6514444
12.510068 -4.5479336 1.6487333
12.691 -4.526 1.636
12.741348 -4.5511317 1.6484058
12.491749 -4.4837503 1.6457499
12.541725 -4.4805007 1.6529
12.642484 -4.4784832 1.6526206
12.734806 -4.4851389 1.6500001
12.4926 -4.8470001 1.7604001
12.527633 -4.8451934 1.7455088
12.646829 -4.8524351 1.7469133
12.738823 -4.8352451 1.7482103
12.494334 -4.7146664 1.7250001
12.516359 -4.7520261 1.7496154
12.740535 -4.7508159 1.7492112
12.495461 -4.6367693 1.7413077
12.511211 -4.6504769 1.7501668
12.740081 -4.6485534 1.751946
12.494786 -4.5610714 1.7531427
12.511491 -4.5503478 1.746449
12.739331 -4.552145 1.7478408
12.490375 -4.4796252 1.7545002
12.538837 -4.4785948 1.7456214
12.648325 -4.4754405 1.7507648
12.734073 -4.4814744 1.7481755
12.493144 -4.8471432 1.8505714
12.530849 -4.8419428 1.8468114
12.642124 -4.8478336 1.8465832
12.736484 -4.8337116 1.8474036
12.49625 -4.7515001 1.85625
12.516477 -4.7510943 1.8545238
12.739576 -4.7514205 1.8492498
12.493668 -4.6405559 1.8453333
12.50825 -4.6508613 1.8537778
12.738523 -4.6509066 1.851277
12.493501 -4.5629377 1.8503124
12.51102 -4.5511727 1.8528655
12.738385 -4.5529723 1.8491
12.493502 -4.4795833 1.8602502
12.537601 -4.4740882 1.8490664
12.6494 -4.4717712 1.8516285
12.735107 -4.4789987 1.8513407
12.493667 -4.8343334 1.9476669
12.531667 -4.8349118 1.9503555
12.649137 -4.8396816 1.9488637
12.735306 -4.8302827 1.9521306
12.497999 -4.737 1.9695001
12.510921 -4.7482901 1.9485263
12.73845 -4.7511778 1.950685
12.495938 -4.6446252 1.9584373
12.507654 -4.6493449 1.9476895
12.738804 -4.6501269 1.9478589
12.495 -4.5569234 1.9699233
12.511833 -4.5508127 1.9475837
12.737736 -4.5511913 1.9505442
12.495334 -4.4703336 1.9533334
12.534383 -4.4696169 1.9541277
12.650578 -4.4666052 1.9492369
12.736093 -4.4730225 1.9533633
12.490637 -4.839818 2.046818
12.532883 -4.8286052 2.0517206
12.652963 -4.8351927 2.0468845
12.734139 -4.8265839 2.0492496
12.496143 -4.7314291 2.0291429
12.510474 -4.751132 2.0529735
12.736903 -4.7495885 2.0510409
12.493579 -4.6419997 2.0502632
12.507205 -4.6534834 2.0508966
12.737417 -4.6495957 2.0484922
12.493499 -4.5598927 2.0568929
12.510658 -4.5450001 2.0405142
12.735485 -4.5511575 2.0492141
12.495501 -4.4752498 2.0484169
12.535002 -4.4628344 2.051271
12.653829 -4.4622855 2.051743
12.735216 -4.471283 2.0481956
12.490126 -4.823 2.1636248
12.534092 -4.8281169 2.1485116
12.657126 -4.8308754 2.1467085
12.733472 -4.8234701 2.1489122
12.4965 -4.7652502 2.1617498
12.511032 -4.7475929 2.1524372
12.735176 -4.7497492 2.1493821
12.492844 -4.6380529 2.1578948
12.510001 -4.6532001 2.1492858
12.735799 -4.648571 2.1493008
12.493737 -4.5597391 2.1548696
12.508031 -4.5510001 2.1475585
12.734215 -4.5497832 2.1477971
12.495868 -4.4792671 2.1493998
12.534249 -4.4626374 2.1494093
12.646251 -4.4526496 2.1452501
12.730342 -4.46628 2.1524198
12.490144 -4.8324289 2.2578573
12.533051 -4.8234353 2.2502563
12.656269 -4.8263459 2.2488461
12.730737 -4.820354 2.2501173
12.497001 -4.7298336 2.2523334
12.512905 -4.7553749 2.2471871
12.734383 -4.7485752 2.2476575
12.493852 -4.6516657 2.2487779
12.50787 -4.6487393 2.2506089
12.734477 -4.6492615 2.250123
12.493261 -4.5518894 2.2528889
12.505758 -4.5473108 2.2453451
12.73276 -4.5519433 2.2502224
12.493 -4.4686499 2.2532003
12.53374 -4.4577403 2.24844
12.646581 -4.4518065 2.2516775
12.730204 -4.4669256 2.248611
12.493889 -4.8278894 2.3426666
12.533974 -4.8177304 2.3496757
12.64659 -4.8186822 2.3468182
12.730259 -4.8191934 2.3513553
12.493999 -4.7523842 2.3565385
12.507408 -4.7507777 2.3446665
12.732877 -4.7481217 2.3478029
12.490123 -4.6378179 2.350091
12.507652 -4.6639128 2.3460004
12.732787 -4.6527581 2.3493638
12.490674 -4.5578532 2.3501177
12.508541 -4.5508461 2.3483846
12.732129 -4.5488992 2.349942
12.492525 -4.4694757 2.3537619
12.530468 -4.4549055 2.3514187
12.643102 -4.4484329 2.3500667
12.727205 -4.4638476 2.3476779
12.493182 -4.8130913 2.4392729
12.540769 -4.815731 2.4456155
12.645946 -4.8131118 2.4418333
12.72385 -4.8130507 2.43575
12.493401 -4.7451 2.4430001
12.510409 -4.7540455 2.4553638
12.671333 -4.7670002 2.4953334
12.730483 -4.7488708 2.4434037
12.484731 -4.6492214 2.4540224
12.503501 -4.6756663 2.4503334
12.732014 -4.6514168 2.4506943
12.483461 -4.5557714 2.4493961
12.508249 -4.5287499 2.4349999
12.694 -4.5320001 2.46
12.727567 -4.5515819 2.4466867
12.489 -4.4669442 2.4612777
12.530609 -4.4554119 2.4491177
12.653061 -4.4473629 2.4474852
12.727377 -4.4616008 2.4345999
12.481137 -4.735136 2.5591366
12.541462 -4.7422309 2.5561159
12.644116 -4.7391539 2.5553079
12.723619 -4.7255878 2.5479119
12.483409 -4.6474547 2.5523636
12.72909 -4.6509266 2.5502791
12.47998 -4.5513272 2.5477815
12.506001 -4.5733337 2.5700002
12.654929 -4.5182862 2.5477142
12.727827 -4.555069 2.5483105
12.483631 -4.4492283 2.5453506
12.546856 -4.4271421 2.5209525
12.640626 -4.4472194 2.5473385
12.483625 -4.3727922 2.5769167
12.551154 -4.3692126 2.5687883
12.619863 -4.3702278 2.5783641
12.485499 -4.8133335 2.679667
12.558928 -4.8092141 2.6794286
12.631 -4.8169999 2.697
12.479785 -4.7538338 2.6482618
12.550317 -4.7785993 2.64112
12.633257 -4.7523136 2.6507258
12.721456 -4.7152276 2.6478181
12.477712 -4.6540008 2.6525333
12.507375 -4.6251254 2.6403751
12.727189 -4.6482463 2.6485648
12.48647 -4.5471563 2.6412501
12.518353 -4.5651178 2.6653528
12.663857 -4.5125713 2.652
12.725998 -4.556407 2.6478305
12.485601 -4.4495835 2.6492918
12.507 -4.4630003 2.6257501
12.641564 -4.442163 2.6498361
12.483381 -4.3513098 2.649333
12.531738 -4.3290586 2.624088
12.644854 -4.3494763 2.6463048
12.485239 -4.2746005 2.6663601
12.546834 -4.2632222 2.6670833
12.627208 -4.2723584 2.669487
12.479112 -4.8370552 2.7517226
12.554972 -4.8430858 2.7513428
12.611513 -4.8291893 2.7579727
12.47705 -4.7506924 2.7516153
12.570499 -4.7720003 2.7635
12.630481 -4.7486534 2.7471344
12.720555 -4.7141109 2.7484448
12.478211 -4.6505532 2.7429471
12.507 -4.6246667 2.7716665
12.696 -4.651 2.7390001
12.72741 -4.6508379 2.7477205
12.491168 -4.559238 2.7491667
12.521518 -4.5324831 2.7559998
12.640538 -4.5124621 2.7560768
12.726196 -4.5531301 2.7517209
12.485885 -4.4474616 2.7244611
12.534334 -4.4543333 2.7700834
12.639431 -4.4379282 2.7446663
12.487851 -4.3523216 2.7533212
12.502001 -4.3635001 2.7344999
12.645078 -4.3510122 2.7481923
12.486726 -4.2513957 2.7419133
12.540619 -4.2194767 2.7244763
12.647521 -4.2478304 2.7450259
12.487778 -4.1644077 2.767926
12.545119 -4.1576819 2.7626584
12.634448 -4.1690612 2.7686322
12.475101 -4.9157 2.8744004
12.556901 -4.9127998 2.8720002
12.607 -4.914 2.8905001
12.474257 -4.8585649 2.8491285
12.558906 -4.8693128 2.8425312
12.610387 -4.8500957 2.8504813
12.474209 -4.7498136 2.8497677
12.594111 -4.7589998 2.8512223
12.627756 -4.7484717 2.8487544
12.713846 -4.7136154 2.8528461
12.488368 -4.6533999 2.8457668
12.5115 -4.6516671 2.8765001
12.72335 -4.6527195 2.848577
12.488646 -4.5426879 2.8479381
12.55329 -4.5118389 2.8513222
12.650683 -4.5101585 2.8526843
12.727168 -4.5513687 2.8516614
12.546874 -4.4543753 2.8326249
12.631091 -4.4735456 2.8459094
12.487956 -4.3343043 2.8367827
12.534211 -4.351316 2.8592105
12.640283 -4.3400207 2.8369186
12.487888 -4.2510667 2.847111
12.503249 -4.24125 2.8566248
12.648426 -4.250917 2.8504655
12.490127 -4.1525745 2.8454258
12.529583 -4.1193333 2.8309169
12.648379 -4.1475124 2.8468566
12.491186 -4.0613337 2.8666301
12.542034 -4.0566077 2.8600717
12.637018 -4.0649233 2.8667116
12.474649 -4.9419727 2.9521623
12.562765 -4.9484425 2.9543257
12.610386 -4.9313083 2.9566152
12.469336 -4.8509164 2.9508891
12.5875 -4.8603745 2.9469376
12.609705 -4.8487597 2.951833
12.470999 -4.7615294 2.9460585
12.577359 -4.7423596 2.9635201
12.6285 -4.7469993 2.9429998
12.704385 -4.7115388 2.9557693
12.489832 -4.6455011 2.9519002
12.503888 -4.6607776 2.9348888
12.722479 -4.6494789 2.9498303
12.486019 -4.5384483 2.9511433
12.537515 -4.5165944 2.9387572
12.655107 -4.5088215 2.9490359
12.725863 -4.5435629 2.9525621
12.494 -4.4899998 2.993
12.546333 -4.4948893 2.9624443
12.6392 -4.4980001 2.9649999
12.711 -4.4914999 2.9749999
12.617 -4.3119998 2.908
12.493067 -4.2382002 2.9203339
12.528925 -4.2432961 2.9485927
12.637281 -4.2376676 2.9359744
12.490273 -4.1434546 2.945576
12.505475 -4.1504211 2.9550529
12.651066 -4.1513996 2.9503338
12.49135 -4.0496483 2.9521892
12.529724 -4.0267601 2.92888
12.650764 -4.0478964 2.9475324
12.487884 -3.9646153 2.9611924
12.543213 -3.9584198 2.9574513
12.642572 -3.965179 2.9628036
12.59 -3.8940001 2.997
0 0 0 1 0 0 0 1 0 0 0 1 0 0 0 0 0 807 1 0 0
