ply
format ascii 1.0
comment PCL generated
element vertex 592
property float x
property float y
property float z
element camera 1
property float view_px
property float view_py
property float view_pz
property float x_axisx
property float x_axisy
property float x_axisz
property float y_axisx
property float y_axisy
property float y_axisz
property float z_axisx
property float z_axisy
property float z_axisz
property float focal
property float scalex
property float scaley
property float centerx
property float centery
property int viewportx
property int viewporty
property float k1
property float k2
end_header
22.782001 -5.4196448 0.021200001
22.842022 -5.4310007 0.028904252
22.905502 -5.4210005 0.014166667
22.773949 -5.3495507 0.04973077
22.845547 -5.3817968 0.077468753
22.9077 -5.3669 0.062199999
22.767765 -5.249999 0.050708324
22.806999 -5.2550001 0.0145
22.779488 -5.1614952 0.058256011
22.807333 -5.1602221 0.021888889
22.77882 -5.0215712 0.059000004
22.845169 -5.0058331 0.034305554
22.768162 -4.9574327 0.049397729
22.832172 -4.9920611 0.045353845
22.759998 -4.8494606 0.048702251
22.8055 -4.8800001 0.069499999
22.768515 -4.7735944 0.048202246
22.846001 -4.7513332 0.060000002
22.932999 -4.7826672 0.049333334
22.757536 -4.6451259 0.053203601
22.822197 -4.6516571 0.039658535
22.745636 -4.5516133 0.049969319
22.758963 -4.4413996 0.050737157
22.846052 -4.4290166 0.061105706
22.905617 -4.4320388 0.060807694
22.766617 -4.3890853 0.010382977
22.852552 -4.3890901 0.014901637
22.904573 -4.3922858 0.018428573
22.780239 -5.3254991 0.12295651
22.841087 -5.3329778 0.1311398
22.905199 -5.3132005 0.12379999
22.770437 -5.2530432 0.14854017
22.849594 -5.2807217 0.17901851
22.902998 -5.274889 0.15888889
22.764154 -5.151772 0.15018405
22.804001 -5.1739998 0.17200001
22.77433 -5.0559387 0.15355657
22.815001 -5.0085001 0.12966667
22.766111 -4.9565253 0.14992741
22.814466 -4.990334 0.12613335
22.757948 -4.8527927 0.14881246
23.008249 -4.8051252 0.17799999
21.650166 -4.7353091 0.14944556
21.827156 -4.7438717 0.16977854
22.753778 -4.7430005 0.15254794
22.877001 -4.7709999 0.13949999
22.992201 -4.7775998 0.1842
23.005144 -4.7944288 0.17899999
21.716 -4.6960001 0.17900001
22.745251 -4.651279 0.14848018
22.809 -4.6830001 0.1
22.755341 -4.5401764 0.1580334
22.845104 -4.516675 0.17496689
22.908003 -4.5238461 0.16969231
22.764729 -4.4828963 0.12170078
22.851562 -4.4774609 0.12965202
22.905268 -4.4784002 0.12346668
22.77738 -5.2245741 0.22369847
22.840546 -5.2333913 0.23300001
22.906002 -5.2280002 0.21033333
22.765148 -5.1512656 0.24944504
22.846189 -5.1808805 0.28116667
22.904886 -5.1692224 0.26844445
22.761099 -5.0481248 0.25015062
21.880501 -4.901 0.2475
22.76388 -4.9473948 0.24692525
22.811001 -4.9219999 0.212
21.748226 -4.8698406 0.25021151
21.844421 -4.8740129 0.25164443
21.914177 -4.879765 0.28941175
22.753746 -4.8509083 0.25370666
22.986752 -4.8039999 0.26200002
23.007275 -4.8054552 0.24236363
21.656635 -4.7336659 0.24077496
21.74962 -4.7336659 0.25063494
21.848854 -4.7372561 0.25052348
21.921898 -4.7439065 0.27500007
22.743507 -4.7504506 0.24790658
22.982622 -4.7788949 0.25926867
23.004387 -4.7955384 0.26607692
21.6416 -4.6947999 0.2454
21.841 -4.6989999 0.285
22.744816 -4.644094 0.25662673
22.848974 -4.6100831 0.29094443
22.911692 -4.6232309 0.27669233
22.764057 -4.5722098 0.24048147
22.847393 -4.5649972 0.24366473
22.90727 -4.5707998 0.22913334
22.774567 -5.1268368 0.32602707
22.839668 -5.1367836 0.33367738
22.9058 -5.1232004 0.3204
22.761564 -5.0553436 0.35257709
22.84672 -5.0866251 0.38368747
22.940859 -5.0330715 0.37471434
21.812 -4.901 0.33000001
21.960333 -4.9099998 0.34200001
22.753958 -4.9553218 0.35155368
22.978127 -4.9872503 0.37806252
23.003 -4.9919996 0.391
21.689144 -4.8507147 0.3107143
21.752924 -4.8629837 0.34398368
21.848671 -4.8745246 0.34787691
21.942617 -4.8771219 0.35922125
22.012125 -4.8812504 0.39000002
22.742128 -4.8494139 0.34914654
22.809999 -4.836 0.308
22.9797 -4.8045001 0.3355
23.0065 -4.8035002 0.31800002
21.690872 -4.7348061 0.30890325
21.754957 -4.7336326 0.34388256
21.849112 -4.7336373 0.34958041
21.946999 -4.7383571 0.35169405
22.018358 -4.7409425 0.3786667
22.739841 -4.7520752 0.3498494
22.844 -4.7065001 0.39200002
22.969011 -4.7791262 0.35581756
23.003735 -4.7920666 0.35580003
21.737429 -4.6965714 0.36014286
22.759794 -4.6542306 0.34617171
22.847549 -4.6472497 0.35021803
22.908737 -4.6674738 0.33526313
22.771999 -4.5999999 0.30250001
22.842001 -4.5941668 0.30483335
22.772278 -5.0287209 0.43196017
22.835264 -5.0375605 0.4401668
22.952581 -5.0095835 0.43925005
21.983999 -4.901 0.477
22.046858 -4.9031429 0.45314291
22.755337 -4.9536967 0.45523688
22.859287 -4.9865789 0.48470965
22.955944 -4.9836421 0.45643744
23.006001 -4.9879999 0.426
21.785311 -4.8497934 0.41451719
21.851603 -4.8644829 0.4456827
21.949343 -4.8738656 0.45303941
22.036806 -4.8795533 0.46062005
22.104 -4.8639998 0.49200001
22.73587 -4.8496051 0.45114893
22.965332 -4.8053336 0.43200001
21.785639 -4.747539 0.41398078
21.852203 -4.7321463 0.44617036
21.949371 -4.7335963 0.44967949
22.044674 -4.7400217 0.45252082
22.11268 -4.7422738 0.48315912
22.75429 -4.7466006 0.45034099
22.846272 -4.7293587 0.46036538
22.955198 -4.7783537 0.45254958
23.0026 -4.7890668 0.44473335
23.849684 -4.7480588 0.45037767
21.785999 -4.697 0.42199999
21.855 -4.6950002 0.44433337
22.01 -4.6859999 0.40700001
22.766151 -4.6921277 0.41172335
22.848429 -4.6905694 0.41413584
22.7775 -5.0019999 0.52350003
22.077999 -4.9039998 0.58499998
22.136 -4.902 0.57099998
22.766287 -4.9565797 0.55056518
22.849642 -4.9778666 0.5516485
22.951424 -4.9749851 0.54835099
23.002501 -4.9753332 0.55450004
23.665825 -4.904429 0.56478572
23.840332 -4.906611 0.54105556
21.880913 -4.8473835 0.51951057
21.95118 -4.8657665 0.55059797
22.050125 -4.878366 0.54839033
22.131561 -4.8794875 0.56154633
22.73946 -4.8532629 0.55336612
22.974335 -4.8036671 0.54633337
23.029364 -4.8432732 0.52399999
23.593 -4.8346672 0.59633338
23.650734 -4.8550906 0.55162179
23.745615 -4.8945818 0.55369079
23.837019 -4.8922291 0.53939587
23.904333 -4.8866668 0.50900006
21.882595 -4.7341619 0.51867431
21.950031 -4.7316976 0.54863554
22.049288 -4.7342801 0.54895717
22.142403 -4.7406478 0.55637664
22.208052 -4.7386007 0.58610004
22.766893 -4.7737937 0.54676825
22.849606 -4.7730618 0.55012977
22.948669 -4.7750373 0.5502156
23.0035 -4.7866001 0.53920001
23.594429 -4.770143 0.5962857
23.746626 -4.7444501 0.54781479
23.835997 -4.7443495 0.53816861
23.907249 -4.7512503 0.50549996
21.864 -4.6950002 0.50400001
21.922001 -4.6943336 0.56833333
23.695 -4.6683335 0.54033339
23.720467 -4.6672673 0.55073333
22.978001 -5.0009999 0.63099998
22.234501 -4.902 0.66000003
22.761431 -4.9542065 0.65503609
22.848022 -4.9745154 0.64987904
22.949743 -4.9711761 0.64799267
23.004002 -4.9643335 0.68633336
23.574751 -4.903625 0.65412509
23.634933 -4.905467 0.63326669
23.781002 -4.9046669 0.61766666
23.808001 -4.902 0.60900003
21.975685 -4.851213 0.62475413
22.048502 -4.8713341 0.64834815
22.150221 -4.8811302 0.64931369
22.227427 -4.8826928 0.66930771
22.747021 -4.8530626 0.64485151
22.806 -4.8369999 0.61900002
23.498501 -4.848 0.69550002
23.554842 -4.8552198 0.65501988
23.644876 -4.8896031 0.64673859
23.742222 -4.8899126 0.64411604
23.819166 -4.8831668 0.61000001
21.979095 -4.7342887 0.62511003
22.049971 -4.7329102 0.65012306
22.149721 -4.7355146 0.64898521
22.238346 -4.739686 0.65874571
22.307751 -4.7315001 0.69550002
22.770897 -4.7723889 0.64993078
22.849932 -4.7715254 0.6493324
22.947737 -4.7735648 0.65031981
23.003294 -4.786706 0.64635295
23.496 -4.7549996 0.69499999
23.556787 -4.7606544 0.65812081
23.64867 -4.74402 0.64933455
23.738638 -4.7409368 0.63793856
23.806667 -4.7490001 0.60633337
21.95867 -4.6933336 0.61066669
22.01 -4.698 0.64899999
22.183001 -4.6999998 0.66900003
22.971001 -5.0110002 0.70099998
22.760103 -4.9503579 0.7495839
22.850115 -4.9705286 0.74836004
22.948408 -4.966836 0.75091052
23.014334 -4.9500003 0.73800004
23.459499 -4.901 0.76349998
23.533627 -4.9017506 0.72887504
23.639668 -4.9040003 0.7486667
23.701 -4.901 0.722
22.073122 -4.8536339 0.73113304
22.146965 -4.8725624 0.75171268
22.249269 -4.8789129 0.75116891
22.324312 -4.8793769 0.77215552
22.749514 -4.851265 0.75054127
23.457893 -4.8557467 0.75597197
23.543289 -4.8846955 0.74299997
23.641575 -4.8861465 0.74493325
23.715221 -4.8786674 0.71411115
22.074572 -4.737535 0.72969174
22.14883 -4.731698 0.7503646
22.249823 -4.7337089 0.75037837
22.334505 -4.7377005 0.76274902
22.403 -4.7410002 0.79900002
22.76824 -4.769876 0.749942
22.848564 -4.7668862 0.74955451
22.948071 -4.769928 0.74924755
23.002539 -4.7840772 0.75507694
23.398001 -4.7752004 0.79340005
23.459448 -4.760354 0.75713897
23.548746 -4.7438178 0.74855042
23.639858 -4.7392201 0.74085367
23.70989 -4.7428889 0.70966667
22.072001 -4.6945 0.73575002
22.120001 -4.6956668 0.78266668
22.378 -4.902 0.86500001
22.75943 -4.9466395 0.84897792
22.849409 -4.9690609 0.84868747
22.947559 -4.9662108 0.84995967
23.014999 -4.9499998 0.83399999
23.394001 -4.902 0.83000004
23.437 -4.9029999 0.82450002
23.582001 -4.9039998 0.83899999
23.610001 -4.9120002 0.80500001
22.168499 -4.8566809 0.83616829
22.248079 -4.8762031 0.85002929
22.348057 -4.8810129 0.8518874
22.420807 -4.8835154 0.87841916
22.747919 -4.8503528 0.84943002
23.361279 -4.8519592 0.85938609
23.438459 -4.8773723 0.83794361
23.544348 -4.8841429 0.84442878
23.61718 -4.8795452 0.81954551
22.169548 -4.7365031 0.8340565
22.249031 -4.7298226 0.84939742
22.349495 -4.734333 0.85027564
22.429127 -4.736907 0.86463237
22.767567 -4.7644024 0.84941864
22.848631 -4.7613726 0.84897232
22.947737 -4.767745 0.84951133
23.001547 -4.7815461 0.86445463
23.296 -4.7490001 0.89600003
23.36202 -4.7580147 0.86054087
23.447138 -4.7431293 0.84764594
23.541235 -4.7382026 0.84341449
23.611378 -4.7407498 0.81343758
22.184198 -4.6953998 0.866
22.324001 -4.6989999 0.82700002
22.499001 -4.9039998 0.96100003
22.516001 -4.9039998 0.977
22.759632 -4.942976 0.94827557
22.847521 -4.9663615 0.94997013
22.947626 -4.964427 0.949
23.250999 -4.9089999 0.98500001
23.488001 -4.908 0.92900002
22.263308 -4.8650651 0.93917358
22.350628 -4.8774028 0.94824994
22.44533 -4.8813558 0.95434046
22.515333 -4.8763895 0.97994435
22.746912 -4.8511 0.94906706
23.266289 -4.84902 0.96218866
23.336222 -4.8701224 0.9368788
23.444036 -4.8809576 0.94628429
23.523546 -4.8753638 0.91463637
22.264471 -4.7319584 0.93667477
22.350277 -4.7266488 0.94921416
22.449728 -4.7317176 0.94893569
22.52577 -4.734138 0.96970183
22.766626 -4.7636957 0.94972116
22.848167 -4.7571244 0.94989944
22.94882 -4.76652 0.9490931
23.001999 -4.7816668 0.94200003
23.265717 -4.7578397 0.96211421
23.345598 -4.7405329 0.94726986
23.445807 -4.7358699 0.94576573
23.514269 -4.7357697 0.91319227
22.242666 -4.6954999 0.93149996
22.332001 -4.6972504 0.97025007
22.430668 -4.6956668 0.97766674
22.59 -4.9064999 1.063
22.759073 -4.9395623 1.0497816
22.848862 -4.960835 1.049914
22.940533 -4.9571199 1.0475744
23.002499 -4.914 1.0755
23.18 -4.9050002 1.066
23.24 -4.9099998 1.003
23.341 -4.901 1.091
22.294249 -4.8427496 1.0009999
22.357182 -4.8624754 1.042056
22.449934 -4.878027 1.0491666
22.543222 -4.8810549 1.0548506
22.615601 -4.8791003 1.0885
22.747202 -4.8504863 1.0492694
23.16861 -4.8477674 1.066409
23.236565 -4.8635302 1.0357599
23.344492 -4.8772058 1.0450102
23.417562 -4.8758755 1.0185626
22.296001 -4.7309999 1.0044999
22.359255 -4.728888 1.0393032
22.447956 -4.7246165 1.050059
22.548124 -4.7275877 1.0503123
22.622038 -4.7293496 1.0756999
22.764688 -4.7586012 1.0494108
22.84812 -4.752389 1.0504175
22.947884 -4.7619505 1.0488193
23.000999 -4.7869997 1.0456667
23.168684 -4.7575207 1.0661476
23.245739 -4.7408037 1.0446731
23.343485 -4.7331095 1.0469648
23.414427 -4.7324862 1.0151998
22.356001 -4.697 1.0402001
22.435501 -4.6975002 1.0541667
22.534252 -4.6969995 1.0695
22.584 -4.9025002 1.1605
22.607 -4.901 1.108
22.758297 -4.9408379 1.1493556
22.848154 -4.9596519 1.1488453
22.935209 -4.9527469 1.1475903
23.002333 -4.9093337 1.132
23.275999 -4.902 1.153
22.392418 -4.8404169 1.11225
22.453756 -4.8642426 1.1456442
22.549437 -4.8789654 1.1487465
22.63575 -4.8811927 1.1580968
22.745327 -4.8481431 1.150375
23.073143 -4.844296 1.1649153
23.136574 -4.8596735 1.1382899
23.246309 -4.8760004 1.1461047
23.320444 -4.8772225 1.1192223
22.392351 -4.7491765 1.109059
22.456039 -4.7286215 1.1428808
22.549511 -4.7221203 1.1487228
22.645632 -4.722651 1.1521506
22.758173 -4.7496061 1.152089
22.846701 -4.7417316 1.1491548
22.945381 -4.756362 1.1476425
23.069788 -4.7506361 1.1717809
23.146246 -4.7391624 1.1470113
23.247992 -4.7317247 1.1468192
23.31741 -4.7295685 1.1184705
22.446249 -4.6977501 1.1257499
22.584 -4.6989999 1.149
22.607 -4.698 1.188
22.635 -4.901 1.204
22.761906 -4.9442987 1.2476449
22.850046 -4.9542341 1.2487425
22.932253 -4.952003 1.2488607
23.000999 -4.9029999 1.2574999
22.484333 -4.8492498 1.2178749
22.549444 -4.8678441 1.2489871
22.648525 -4.880127 1.2479861
22.732613 -4.8746104 1.2480236
22.806 -4.8010001 1.26
22.969198 -4.8026004 1.2938
23.050274 -4.85882 1.2411729
23.147686 -4.8688526 1.2463576
23.220362 -4.8688002 1.2207202
22.484533 -4.7603436 1.212625
22.554344 -4.7283621 1.2451408
22.648664 -4.7185183 1.2490963
22.748957 -4.7285752 1.2493235
22.848499 -4.7388988 1.2492719
22.950798 -4.7490339 1.2489965
23.047222 -4.7328901 1.2468847
23.147228 -4.728168 1.2492262
23.219635 -4.7292271 1.2209826
22.565001 -4.6976671 1.2746667
22.643272 -4.6965456 1.2267272
22.764999 -4.6995001 1.2715
23.195 -4.6999998 1.237
22.850819 -4.9508204 1.3483953
22.936621 -4.944108 1.3499068
22.580975 -4.8537955 1.323
22.649012 -4.8700142 1.3488879
22.72827 -4.8813114 1.3496233
22.961546 -4.8075457 1.3206819
23.058176 -4.8670254 1.3493372
23.119564 -4.8657503 1.3242499
22.58202 -4.7395196 1.3175385
22.651958 -4.7234797 1.3463963
22.749519 -4.7175927 1.3490254
22.844982 -4.7291698 1.3492385
22.948828 -4.7399144 1.3518535
23.048092 -4.7232738 1.3475789
23.120554 -4.7247143 1.3256713
22.636145 -4.6980004 1.3307142
22.757111 -4.6960001 1.356111
22.833799 -4.6944003 1.3646001
22.956833 -4.6981668 1.3821667
23.004999 -4.6929998 1.399
23.011501 -4.9095001 1.4075
22.677914 -4.8498273 1.4293276
22.730635 -4.8703222 1.4530431
22.996 -4.8969998 1.42
23.037111 -4.866889 1.4108889
22.677294 -4.7437072 1.4215999
22.746254 -4.7187037 1.4489603
22.850731 -4.7146807 1.4478078
22.947203 -4.7135444 1.4456556
23.023655 -4.719717 1.4244617
22.776072 -4.6840687 1.4205681
22.856998 -4.6964664 1.4535
22.934698 -4.6807127 1.4357967
23.018999 -4.6989999 1.421
22.847847 -4.7133989 1.5485257
22.946228 -4.7310462 1.5520128
22.777334 -4.6984997 1.5293335
22.844717 -4.6987858 1.5457143
22.906 -4.6939998 1.507
22.747999 -4.698 1.609
22.938 -4.6995001 2.085
22.74971 -4.737618 2.1481431
22.851152 -4.707109 2.1447442
22.947056 -4.7127385 2.1487443
22.771608 -4.6952076 2.1558294
22.844477 -4.6953073 2.1544504
22.927351 -4.6982937 2.1632941
22.741606 -4.8523068 2.2506828
22.972 -4.895 2.2670002
22.747473 -4.7394876 2.249563
22.856722 -4.7078524 2.2466805
22.948256 -4.7097754 2.2474761
22.769541 -4.6933155 2.2515557
22.839466 -4.6948032 2.253294
22.929029 -4.6971889 2.2604868
22.763111 -4.9140553 2.3489444
22.847462 -4.9120979 2.3489509
22.929686 -4.9114442 2.3460479
22.740475 -4.8543639 2.3508048
22.87586 -4.8988571 2.3568571
22.9517 -4.8967004 2.3590999
22.743202 -4.7459221 2.348109
22.854603 -4.7053666 2.344413
22.950941 -4.7082362 2.3452704
22.766829 -4.6922569 2.350184
22.846617 -4.6932578 2.3525341
22.931273 -4.6959639 2.3565996
22.764708 -4.9134102 2.4481316
22.84795 -4.9097137 2.4482756
22.933962 -4.9075785 2.4495091
22.732298 -4.8421555 2.4442072
22.865274 -4.8965459 2.4600909
22.939999 -4.8962111 2.4536319
22.73834 -4.7506161 2.452111
22.853386 -4.7061162 2.4438462
22.959909 -4.7064028 2.439075
22.764359 -4.6883936 2.4493029
22.848419 -4.6902733 2.4484787
22.935675 -4.693212 2.451782
22.763914 -4.9099011 2.5474694
22.850906 -4.907814 2.5474298
22.934237 -4.9061766 2.5490589
22.733452 -4.8451028 2.548497
22.853092 -4.8961816 2.5583181
22.941467 -4.8949685 2.5504687
23.003 -4.8520002 2.5969999
22.679382 -4.7446704 2.5833974
22.72607 -4.7446637 2.5517683
22.846365 -4.7029085 2.5199091
22.964048 -4.7058578 2.5488803
22.691 -4.698 2.5899999
22.757275 -4.6693349 2.5595253
22.846279 -4.6626644 2.55516
22.935997 -4.6925273 2.5492423
22.745667 -4.5953336 2.5933332
22.845501 -4.5994997 2.576
22.765518 -4.9071355 2.6479254
22.84424 -4.9063945 2.6461267
22.928139 -4.9056902 2.6454484
22.6695 -4.8175001 2.6355
22.73632 -4.8519402 2.6507428
22.858698 -4.8958483 2.654
22.936153 -4.8932638 2.6477892
22.673908 -4.7467136 2.6136665
22.727112 -4.7518435 2.6523066
22.96874 -4.7038703 2.6445217
22.681 -4.6999998 2.6259999
22.744564 -4.6353655 2.6354344
22.845678 -4.6156178 2.6138656
22.942516 -4.6873713 2.6470146
22.755451 -4.5553322 2.6631045
22.844637 -4.5556459 2.6572735
22.900999 -4.5760002 2.6919999
22.782749 -4.4962502 2.6872501
22.824499 -4.4963756 2.69275
22.756643 -4.9116044 2.7623682
22.844957 -4.9105911 2.7598023
22.923841 -4.9037895 2.7347369
22.732269 -4.8585663 2.7473459
22.851826 -4.8964396 2.7369022
22.937702 -4.8911595 2.7518597
22.731483 -4.7519393 2.7523165
22.976364 -4.7047272 2.7379093
22.729864 -4.6488776 2.7466602
22.955507 -4.6870346 2.7479327
22.727448 -4.5519605 2.7407305
22.861973 -4.5184116 2.7089114
22.9076 -4.5712004 2.7226
22.728445 -4.4637656 2.7629783
22.857643 -4.4731426 2.7181427
22.7605 -4.3920002 2.7845001
22.873001 -4.3870001 2.7896667
22.748127 -4.9394279 2.8519671
22.840054 -4.9442463 2.850009
22.91017 -4.9043331 2.849
22.688692 -4.8473077 2.8304875
22.721569 -4.8485899 2.8431489
22.899 -4.8920002 2.8110001
22.941273 -4.8853183 2.8455002
23.018 -4.8175001 2.8309999
22.73111 -4.7500811 2.8483467
22.984287 -4.7071433 2.8525717
22.737867 -4.6594234 2.8328462
22.828667 -4.6748333 2.8738334
22.963867 -4.6884041 2.8401492
22.731737 -4.5516739 2.8484299
22.799999 -4.5489998 2.8929999
22.725794 -4.4486308 2.8473568
22.72481 -4.356286 2.8607144
22.845749 -4.35325 2.8252499
22.727333 -4.2903337 2.8903337
22.842335 -4.2876668 2.8790002
22.758444 -5.0109301 2.9796979
22.84197 -5.008472 2.9802783
22.741917 -4.9603276 2.9470778
22.84412 -4.9832821 2.9375515
22.918058 -4.9414115 2.9520001
22.72419 -4.8548555 2.9464843
22.953102 -4.8767896 2.9253161
22.735582 -4.748795 2.9433734
22.98 -4.7020001 2.9030001
22.741301 -4.6739998 2.9571502
22.838299 -4.6721001 2.9483998
22.962999 -4.6859999 2.9675002
22.749706 -4.518765 2.9165294
22.813 -4.5180001 2.921
22.733459 -4.4464293 2.9480226
22.832901 -4.4577003 2.9735
22.719679 -4.3485909 2.947607
22.71793 -4.2551904 2.9569764
22.850002 -4.2206669 2.948
22.910999 -4.257 2.9289999
22.725834 -4.1923332 2.9829998
0 0 0 1 0 0 0 1 0 0 0 1 0 0 0 0 0 592 1 0 0
