ply
format ascii 1.0
comment PCL generated
element vertex 624
property float x
property float y
property float z
element camera 1
property float view_px
property float view_py
property float view_pz
property float x_axisx
property float x_axisy
property float x_axisz
property float y_axisx
property float y_axisy
property float y_axisz
property float z_axisx
property float z_axisy
property float z_axisz
property float focal
property float scalex
property float scaley
property float centerx
property float centery
property int viewportx
property int viewporty
property float k1
property float k2
end_header
26.091305 2.6760335 0.025466669
26.144819 2.662446 0.036065217
26.219501 2.656167 0.039305557
26.093256 2.7495587 0.050107852
26.118052 2.7379298 0.058578942
26.237431 2.7165716 0.085428566
26.093536 2.8422856 0.054373622
26.115479 2.8636525 0.038043473
26.095207 2.9659736 0.055289477
26.115261 2.9484262 0.047302082
26.219 2.9449999 0.055
25.046814 3.0336111 0.052266669
25.14735 3.0333002 0.051549997
25.231133 3.0483999 0.067000009
26.094582 3.0493815 0.044853944
26.103737 3.0493696 0.05552176
24.963007 3.1556597 0.040435378
25.046055 3.1882737 0.052660383
25.151556 3.1900311 0.050391745
25.225521 3.1853702 0.072703704
26.080191 3.154778 0.039455567
26.10973 3.1546667 0.058437493
24.974625 3.2037501 0.031375002
25.05139 3.2046139 0.049659085
25.144478 3.2035217 0.060956527
25.223202 3.2032001 0.064800002
26.070551 3.2165296 0.028274504
26.145596 3.2224367 0.05967816
26.225599 3.2189999 0.092600003
26.091213 2.7744851 0.12745453
26.143341 2.7579815 0.1457037
26.228279 2.7537198 0.13955998
26.093067 2.8484349 0.15113886
26.1098 2.843343 0.15439999
26.265003 2.8177142 0.16842858
26.093939 2.9401772 0.15618986
26.11149 2.9642859 0.13851021
26.33975 2.9492502 0.17775001
24.993 3.0622501 0.107
25.054646 3.0545239 0.14599997
25.147543 3.0320811 0.153
25.243448 3.0318778 0.15297298
25.325678 3.0513201 0.16519998
26.095116 3.0471292 0.1342714
26.121244 3.0559175 0.16405155
25.056065 3.1562138 0.14506395
25.14975 3.1898663 0.15092134
25.246275 3.1916003 0.14757502
25.32361 3.1864998 0.17838888
25.402 3.1240001 0.17200001
26.093582 3.1133335 0.11958333
26.152927 3.1465278 0.14676003
25.07189 3.2060556 0.12455555
25.149181 3.2040768 0.15617947
25.242685 3.2035933 0.15524998
25.314751 3.2032499 0.17449999
26.171728 3.2175713 0.13208164
26.1616 2.7924001 0.20479999
26.092525 2.8670387 0.23119232
26.138983 2.8467553 0.24784908
26.230999 2.8481669 0.24241666
26.09062 2.9484508 0.24780646
26.106249 2.947 0.25781247
26.284002 2.9329998 0.27371427
26.341625 2.9528337 0.264
25.090252 3.0561249 0.20537502
25.150013 3.0526597 0.24825001
25.249968 3.0322392 0.25365913
25.343752 3.0304868 0.25202778
25.422117 3.0561178 0.26617649
26.090826 3.0298455 0.26075864
26.135046 3.063364 0.24532293
25.094999 3.132 0.207
25.151295 3.1591561 0.24706668
25.244467 3.1923833 0.2479136
25.344 3.1913078 0.25343591
25.413168 3.1946669 0.28150004
26.164671 3.1487129 0.24641795
25.162937 3.2034378 0.23593751
25.250187 3.2040906 0.24700001
25.348801 3.20452 0.25139999
25.409 3.2060001 0.29100001
26.097 2.8970001 0.308
26.153574 2.8880951 0.30985716
26.220501 2.8894999 0.30500001
26.090673 2.9625797 0.33215937
26.136747 2.9383678 0.35520691
26.251474 2.9404554 0.35308769
25.189924 3.0609229 0.31300002
25.24762 3.0486851 0.35219228
25.348803 3.0309646 0.354094
25.442448 3.0291431 0.35652852
25.514 3.0342858 0.38571432
26.090952 3.0353034 0.34823593
26.136248 3.0691171 0.34780228
25.192863 3.1519547 0.30959088
25.247261 3.1625528 0.35006475
25.352985 3.1910398 0.34357896
25.4408 3.1920741 0.35335183
25.512499 3.1884999 0.37875
26.095501 3.1535001 0.38600001
25.191999 3.204 0.30199999
25.257128 3.2042258 0.33925802
25.34021 3.2041063 0.35519153
25.441053 3.2050571 0.35494289
25.505001 3.2005 0.38850001
26.099001 3.2030001 0.37599999
26.093521 2.9702291 0.45666665
26.137775 2.956315 0.44416133
26.247995 2.9495003 0.44677624
25.283743 3.0575142 0.41460004
25.34305 3.0486481 0.45560816
25.447218 3.0301206 0.45026678
25.541702 3.0296669 0.45721671
25.608999 3.0274999 0.48899999
26.091633 3.0438738 0.44371828
26.116138 3.0513835 0.44634247
25.286886 3.1485 0.41273531
25.336828 3.1569998 0.45619661
25.445978 3.1936743 0.4426305
25.538458 3.1952562 0.45494872
25.60375 3.1929998 0.48725
26.094103 3.1496921 0.46004611
26.138269 3.1680791 0.44984895
25.291 3.2048335 0.41016668
25.356627 3.2067745 0.44461247
25.452776 3.205647 0.45160288
25.537558 3.2050927 0.46323258
26.092604 2.9700942 0.55352825
26.140244 2.9587569 0.54821485
26.246828 2.9515922 0.54601324
26.338943 2.9639034 0.55138475
25.378752 3.0577881 0.52211541
25.441628 3.0471735 0.55520451
25.551924 3.0283163 0.55025601
25.638601 3.0272441 0.56044459
26.093882 3.0455599 0.55247998
26.106487 3.0559146 0.53842854
25.382288 3.1462305 0.52180767
25.434334 3.1603858 0.5606041
25.55435 3.19575 0.54184997
25.642269 3.1946154 0.55784619
25.708 3.191 0.597
26.092989 3.1430104 0.54946733
26.142126 3.1731288 0.54970682
25.385 3.2104001 0.5110001
25.452755 3.2079649 0.54965901
25.548901 3.2057419 0.5513258
25.633543 3.2037146 0.56411415
26.157 3.2019999 0.56199998
26.236639 3.202364 0.54972732
26.091745 2.9710598 0.6521045
26.142757 2.9565368 0.6509999
26.244053 2.9551167 0.64746755
25.472904 3.0614793 0.63101375
25.540861 3.0444043 0.65774029
25.649252 3.0267375 0.65173739
25.731604 3.0271316 0.66586846
25.805 3.0550001 0.69199997
26.092875 3.0497932 0.64821714
26.105036 3.0467498 0.65225005
25.475935 3.1486459 0.62586141
25.531912 3.1606054 0.66824996
25.655968 3.1947 0.64823341
25.73827 3.1942692 0.65711546
26.092375 3.1418569 0.65278566
26.137093 3.1754384 0.64426172
25.484333 3.2081335 0.62233335
25.550001 3.2090425 0.64745164
25.645576 3.2055213 0.65004343
25.726934 3.2053335 0.66793346
26.178167 3.2028337 0.67799997
26.252752 3.2025001 0.66281247
26.092194 2.9713275 0.75034422
26.147301 2.9592383 0.75428575
26.24637 2.9560139 0.74656165
25.564335 3.0565002 0.73438627
25.641378 3.0395148 0.75665975
25.750568 3.0263293 0.75225711
25.825693 3.0274615 0.76819229
26.092413 3.0484638 0.74991059
26.102585 3.04775 0.74399996
25.570684 3.1482649 0.73485535
25.627075 3.1627631 0.77238166
25.73826 3.1956956 0.74817395
25.830259 3.1933916 0.76682609
26.091972 3.1457107 0.75244325
26.137613 3.1767688 0.74768794
26.249479 3.1927829 0.74982607
25.57548 3.2107997 0.72507995
25.649523 3.2068882 0.74842227
25.752306 3.2062981 0.74968821
25.827055 3.2045 0.7701667
26.159866 3.211 0.75273335
26.250957 3.2046669 0.75583333
26.091944 2.9745896 0.84444642
26.148119 2.9611323 0.85008413
25.659897 3.0561924 0.84093279
25.743319 3.0361822 0.85271937
25.845327 3.0273571 0.851143
25.922737 3.0304739 0.87210518
26.091593 3.0487876 0.84725636
26.107502 3.04825 0.86008334
25.664343 3.1489804 0.84029311
25.719692 3.1668463 0.8713845
25.856903 3.1949372 0.84128124
25.929094 3.1890001 0.87028575
26.091768 3.1454866 0.85122943
26.139418 3.1835868 0.84543496
25.67297 3.2074375 0.8308751
25.748205 3.2093239 0.84939384
25.843737 3.2064843 0.85563314
25.910599 3.2020001 0.87120003
26.0905 3.2075 0.86649996
26.155401 3.2043333 0.86660004
26.091448 2.9747238 0.94851708
26.150248 2.963114 0.94944352
26.245712 2.9599092 0.95023394
25.692501 3.0492501 0.90700001
25.753431 3.057353 0.94469815
25.846432 3.0317507 0.95020837
25.941586 3.0293505 0.95281678
26.083151 3.0536399 0.94210112
26.106573 3.058357 0.94385719
25.75688 3.1490276 0.9469915
25.86231 3.1918459 0.95546156
25.959705 3.1937647 0.94082355
26.081379 3.1523588 0.95023578
26.144878 3.1892719 0.94289809
25.767393 3.2100987 0.931961
25.844633 3.2093561 0.95086205
25.93918 3.2055464 0.95498413
26.075003 3.2084444 0.96122223
26.154129 3.2044611 0.9534871
26.246687 3.205709 0.95077085
26.092081 2.9772 1.04928
26.151499 2.9640641 1.0494486
26.250324 2.9615538 1.0497702
25.790457 3.0527272 1.0075455
25.846708 3.0543129 1.0458474
25.947361 3.0318196 1.0500693
26.057064 3.0298717 1.0509486
26.112749 3.0207498 1.04625
25.796501 3.1409998 1.0005
25.847599 3.1524794 1.0482894
25.950201 3.1896999 1.0585001
26.06004 3.1915529 1.0414042
26.150383 3.1918063 1.0628065
26.249001 3.1964376 1.0498124
25.866289 3.2105098 1.038717
25.949341 3.207412 1.0493625
26.048002 3.2048545 1.0543957
26.151608 3.2054996 1.0424999
26.245253 3.2068353 1.0469551
26.092272 2.9798636 1.1488638
26.145145 2.9638827 1.1497923
26.250963 2.962441 1.147956
26.327868 2.9685946 1.14773
25.887602 3.0622799 1.11508
25.944117 3.0507858 1.1530176
26.051844 3.0280135 1.1490263
26.116201 3.0186002 1.1458
25.890751 3.1357503 1.1065834
25.938557 3.1545756 1.1524812
26.056742 3.1908262 1.1451304
26.15147 3.1934998 1.1505277
26.243874 3.1930835 1.1534168
26.331001 3.1950002 1.1336154
25.897499 3.2075 1.1045001
25.962624 3.2108026 1.1429834
26.046143 3.2068059 1.1512902
26.148808 3.2046299 1.1469072
26.250969 3.2076309 1.1475232
26.352129 3.2084785 1.1504927
26.093887 2.982389 1.2526112
26.141569 2.9675276 1.2485137
26.247499 2.9669003 1.2517167
26.330725 2.9700251 1.2456
25.97965 3.0631895 1.2204326
26.045736 3.0448668 1.2531413
26.115124 3.0245001 1.2594999
26.396999 3.0150001 1.205
25.986677 3.1451068 1.2142856
26.033876 3.1542408 1.2603251
26.158369 3.1962626 1.2421052
26.238949 3.1949999 1.2470001
26.335669 3.1960001 1.2543334
26.431999 3.1975 1.2349999
25.993 3.2090001 1.20775
26.056501 3.2089288 1.2434859
26.141773 3.2108703 1.251371
26.249365 3.2087731 1.2484533
26.343821 3.2117012 1.2462077
26.417465 3.2110002 1.2222308
26.090376 2.9856672 1.3618335
26.139677 2.9699645 1.349274
26.247646 2.9677706 1.3499343
26.330414 2.9680259 1.3489486
26.08437 3.0492909 1.3515984
26.117252 3.0451667 1.3566668
26.086489 3.1501498 1.35043
26.123413 3.1741362 1.3557729
26.236431 3.195286 1.3458571
26.358501 3.1975 1.3155
26.088463 3.2086923 1.3354616
26.151093 3.208225 1.3509251
26.249109 3.2106094 1.3503782
26.327 3.2098448 1.3491334
26.08873 2.9857316 1.4473169
26.146349 2.9708526 1.449118
26.247252 2.9693961 1.4489312
26.334513 2.9717073 1.4510001
26.08794 3.0509837 1.4495997
26.115295 3.0480001 1.4541178
26.088745 3.1497843 1.4504573
26.12093 3.1639633 1.4457775
26.2085 3.19525 1.424
26.091455 3.205909 1.460091
26.150827 3.2105179 1.4511237
26.249411 3.2118914 1.4499758
26.324356 3.2111189 1.4463571
26.090054 2.9906318 1.5438949
26.142828 2.9739473 1.5481843
26.247311 2.9720526 1.5518245
26.330675 2.975054 1.5423515
26.087091 3.045752 1.551512
26.113195 3.0423334 1.5444286
26.3925 3.0117497 1.58425
26.087538 3.148695 1.5483985
26.116932 3.1488001 1.5488
26.251499 3.197 1.5315
26.362 3.1960001 1.598
26.090445 3.207 1.5544442
26.147875 3.2116997 1.5485888
26.25069 3.2145584 1.5488605
26.325722 3.213583 1.5480833
26.089117 2.9886544 1.6545388
26.144949 2.9759085 1.6480305
26.24939 2.9755647 1.6479027
26.332092 2.9768791 1.6503031
26.08625 3.0477316 1.6480973
26.113897 3.0449002 1.6428502
26.393999 3.0079999 1.637
26.417 3.0339999 1.632
26.087145 3.1485462 1.6488578
26.117401 3.1585333 1.6411333
26.252001 3.1930001 1.603
26.089237 3.2119997 1.6442403
26.14905 3.213953 1.6494942
26.25045 3.2249439 1.6479905
26.325138 3.222091 1.6422274
26.088923 2.9882696 1.7462308
26.142588 2.976644 1.7459863
26.248171 2.9781754 1.7470176
26.330359 2.9797502 1.7495831
26.085039 3.0470424 1.7498643
26.108923 3.0478849 1.7453078
26.377001 3.006 1.789
26.086569 3.1471276 1.7500597
26.115 3.1562002 1.73985
26.087719 3.2078798 1.7458801
26.146315 3.215832 1.748809
26.248798 3.2282472 1.7499104
26.323593 3.2274091 1.7492273
26.089306 2.9892609 1.8446088
26.144722 2.9773912 1.8481016
26.24659 2.9789674 1.8473444
26.330973 2.9809713 1.8510284
26.083841 3.0489683 1.8501126
26.108332 3.0481434 1.854238
26.357 3 1.844
26.084723 3.150044 1.8495822
26.116415 3.1487083 1.85225
26.145882 3.2221377 1.8525213
26.249537 3.2299895 1.8503332
26.326401 3.2263336 1.8423998
26.086195 2.9897418 1.9443222
26.146954 2.9815619 1.950922
26.246607 2.9837852 1.9499642
26.32332 2.9820969 1.9512256
26.082872 3.0495796 1.9478409
26.111946 3.0447781 1.9586111
26.075819 3.1517284 1.9461359
26.1145 3.1400833 1.9649167
26.139271 3.2381878 1.9403124
26.259108 3.2363596 1.9400934
26.313704 3.2419 1.9445
26.090227 2.988409 2.0461361
26.149887 2.9832263 2.0508707
26.247059 2.985944 2.0493333
26.325148 2.9861512 2.0470607
26.084925 3.0488231 2.0489998
26.109667 3.0459526 2.0579047
26.3235 3.0015001 2.0864999
26.083677 3.1480637 2.0495474
26.117104 3.1426845 2.0519476
26.089293 3.2227805 2.0557806
26.139864 3.2355192 2.0597317
26.247492 3.2331266 2.0660639
26.320398 3.2388 2.0722003
26.092474 2.9916317 2.1607897
26.149595 2.9840708 2.1490836
26.248396 2.9868116 2.1506979
26.329334 2.9884851 2.1465151
26.084221 3.0530086 2.1497638
26.115755 3.0343101 2.150517
26.229 3.003 2.1600001
26.318001 3.003 2.1530001
26.082636 3.1477227 2.1498406
26.111582 3.1473684 2.150737
26.088875 3.2268212 2.1443753
26.140011 3.2455971 2.1467679
26.259512 3.2408972 2.1499209
26.315184 3.251091 2.1572728
26.091999 2.990231 2.2443078
26.143116 2.98596 2.2501335
26.243746 2.9868 2.2507665
26.327774 2.9870961 2.2475808
26.083363 3.0513551 2.249275
26.128401 3.0267196 2.2420001
26.250799 3.0033998 2.2654002
26.322668 3.0023334 2.2106667
26.081644 3.150017 2.2494998
26.111002 3.1628463 2.2443848
26.085188 3.2183487 2.251884
26.146046 3.2263415 2.2478709
26.253782 3.2380586 2.2456834
26.309111 3.2590001 2.2342222
26.093502 2.9889998 2.3640003
26.148907 2.9838591 2.3498123
26.246632 2.9878888 2.3480158
26.32111 2.9855719 2.35025
26.075254 3.0507798 2.348372
26.129421 3.0124187 2.3473547
26.246168 3.0072498 2.3540001
26.311666 3.0026665 2.3573337
26.076382 3.1514776 2.3497989
26.113401 3.1556001 2.3486001
26.086254 3.2232864 2.3564107
26.148216 3.2369602 2.3533463
26.248152 3.2324371 2.3478751
26.325258 3.2308719 2.3486409
26.092667 2.8976667 2.4903336
26.138908 2.889545 2.4871819
26.079319 2.9622493 2.4560297
26.14115 2.9395375 2.4418602
26.258833 2.9857142 2.4418809
26.321438 2.989435 2.451565
26.063269 3.0489266 2.4488034
26.104 3.0504999 2.4275
26.271626 3.009125 2.461
26.332001 3.0040834 2.4421668
25.997 3.1689999 2.4630001
26.065599 3.1546643 2.449321
26.10825 3.1574998 2.4425001
26.072321 3.2440081 2.4517901
26.146196 3.2756844 2.4227016
26.257292 3.2525778 2.4336889
26.320412 3.2341723 2.4509654
26.083736 3.3194196 2.4781291
26.145739 3.3281052 2.4693024
26.211666 3.326 2.4691665
26.098 2.796 2.5910001
26.129751 2.7865834 2.5934169
26.081917 2.8620725 2.5617316
26.144005 2.8404577 2.5483179
26.222834 2.8543334 2.5561666
26.0725 2.9485233 2.5486298
26.103622 2.9597502 2.5447502
26.265888 2.9635556 2.5177779
26.323532 2.9896002 2.5373335
26.0725 3.046891 2.5503912
26.113363 3.0532727 2.5649092
26.289501 3.006 2.5320001
26.325775 3.0054448 2.5450001
26.079304 3.1489999 2.5532393
26.11425 3.1521668 2.5491667
26.072971 3.2495556 2.5513194
26.104557 3.2279999 2.5658886
26.285 3.2509999 2.5020001
26.32494 3.2362943 2.5342941
26.073236 3.3485613 2.5486996
26.144531 3.3731973 2.5236509
26.220669 3.3615835 2.5180836
26.07737 3.4218266 2.5790868
26.147903 3.4287374 2.5676005
26.211615 3.4237692 2.5670769
26.099001 2.688 2.6930001
26.125751 2.6905003 2.6890001
26.083515 2.769906 2.6631758
26.140417 2.742888 2.6536474
26.217833 2.7724166 2.6526668
26.071558 2.8487473 2.649816
26.114601 2.8469334 2.6484668
26.231998 2.8198001 2.6246002
26.074448 2.9512787 2.6472015
26.11437 2.9650528 2.6696315
26.309999 2.9949999 2.6370001
26.077 3.0491247 2.6489909
26.115 3.0391998 2.6555002
26.334667 3.0103335 2.6253335
26.077442 3.1510398 2.6470864
26.108557 3.1411111 2.6566665
26.076994 3.248785 2.6454113
26.109144 3.2454288 2.6514287
26.070175 3.3498602 2.6481967
26.103333 3.3436668 2.6631668
26.067953 3.4508615 2.6490834
26.147566 3.4775505 2.6221666
26.213001 3.4767144 2.6274288
26.073246 3.5202227 2.6769109
26.148056 3.5277834 2.6687436
26.208502 3.5225 2.6721666
26.108 2.589 2.7880001
26.080244 2.6625695 2.7697847
26.138754 2.6539736 2.7511356
26.204498 2.6564999 2.75475
26.072674 2.7490602 2.7487016
26.124947 2.7245557 2.7299445
26.221334 2.7223334 2.7320001
26.075296 2.8408911 2.7423136
26.129652 2.86555 2.7640998
26.209999 2.895 2.7509999
26.084145 2.9736295 2.7408888
26.128515 2.9766898 2.7590001
26.202 2.9949999 2.7465
26.077518 3.049068 2.748879
26.112738 3.0283334 2.7507336
26.249334 3.0043333 2.7563338
26.362 3.01 2.786
26.076187 3.1509829 2.7482498
26.10585 3.1434617 2.7549231
26.079857 3.2245562 2.7457304
26.11775 3.244225 2.7549255
26.249832 3.2423334 2.7573333
26.075504 3.3656394 2.7364261
26.120258 3.3465807 2.7509673
26.2145 3.382 2.7839999
26.066322 3.4514642 2.7493067
26.105335 3.4206667 2.7506666
26.064568 3.5475214 2.7483144
26.143793 3.576031 2.7237039
26.218699 3.5700002 2.74
26.069189 3.6185477 2.7754524
26.150249 3.6264865 2.7723329
26.207716 3.6210003 2.7648575
26.082701 2.5688729 2.8682539
26.143581 2.5594857 2.8547521
26.209887 2.5568891 2.8642225
26.070951 2.6497126 2.849885
26.131334 2.6258516 2.8197036
26.073444 2.7432444 2.842638
26.135389 2.7640772 2.8578846
26.209999 2.7460001 2.8900001
26.086668 2.8121669 2.8141665
26.151999 2.8187857 2.8195715
26.204666 2.8346667 2.8283336
26.083921 2.9936154 2.8446927
26.150702 2.9944327 2.8471081
26.211668 2.9976668 2.8699999
26.325001 2.9960001 2.8310001
26.076349 3.0489912 2.8489223
26.132202 3.0199142 2.8495996
26.229336 3.007 2.8625002
26.325001 3.006 2.8824999
26.07519 3.1506257 2.8504264
26.108309 3.1497695 2.8374617
26.079576 3.2237415 2.8501933
26.137703 3.2397459 2.8513582
26.234333 3.2466667 2.8588333
26.333 3.247 2.8525
26.087667 3.3903332 2.8143334
26.12875 3.3807502 2.8045001
26.074335 3.4594667 2.83868
26.150454 3.4450967 2.8491936
26.224001 3.4879999 2.878
26.062302 3.5503929 2.8470156
26.1035 3.5039999 2.872
26.25 3.5020001 2.8740001
26.061457 3.6513231 2.8483241
26.149635 3.6728265 2.824522
26.218 3.66625 2.84025
26.070791 3.7220697 2.8753722
26.153791 3.7259014 2.8731265
26.200668 3.7223334 2.8723335
26.082018 2.472039 2.9704704
26.143126 2.4612131 2.9602559
26.208611 2.4728336 2.9541671
26.07328 2.5474474 2.9488494
26.146811 2.5148146 2.9141114
26.2293 2.5246003 2.9278002
26.071529 2.6419225 2.9417768
26.142263 2.6727893 2.9725792
26.080999 2.7149999 2.9149997
26.146706 2.7198822 2.9265881
26.214001 2.7360001 2.9383333
26.081717 2.991714 2.9578574
26.141886 2.9895928 2.9492593
26.241001 2.9951665 2.9598331
26.077494 3.0456376 2.9483223
26.14637 3.0123332 2.9444506
26.227501 3.0059648 2.9537139
26.33375 3.00825 2.95525
26.074757 3.1479928 2.9502978
26.107203 3.1486001 2.9389999
26.078127 3.2263396 2.949322
26.147575 3.2408147 2.9504445
26.212345 3.2544138 2.9594483
26.348999 3.243 2.9475002
26.179001 3.3 2.9100001
26.087666 3.4854443 2.926667
26.113503 3.492167 2.944
26.068687 3.5580571 2.93925
26.1444 3.5474799 2.9540799
26.211573 3.554286 2.939286
26.055634 3.6514871 2.9483249
26.133667 3.6443336 2.969667
26.2155 3.6025 2.993
26.056772 3.7524877 2.9456484
26.146944 3.7732353 2.9254584
26.210751 3.7840002 2.9595003
26.066298 3.8218398 2.9787796
26.14831 3.8228354 2.9732387
26.222 3.802 2.993
0 0 0 1 0 0 0 1 0 0 0 1 0 0 0 0 0 624 1 0 0
