ply
format ascii 1.0
comment PCL generated
element vertex 587
property float x
property float y
property float z
element camera 1
property float view_px
property float view_py
property float view_pz
property float x_axisx
property float x_axisy
property float x_axisz
property float y_axisx
property float y_axisy
property float y_axisz
property float z_axisx
property float z_axisy
property float z_axisz
property float focal
property float scalex
property float scaley
property float centerx
property float centery
property int viewportx
property int viewporty
property float k1
property float k2
end_header
25.892694 10.874783 0.02452174
25.949514 10.860831 0.036884956
26.023243 10.857866 0.03667568
24.894333 10.974667 0.0081666671
24.953093 10.966689 0.0437405
25.048819 10.963301 0.047546521
25.134706 10.962841 0.056833338
25.892202 10.945122 0.059999999
25.925844 10.935679 0.058323067
26.044249 10.92925 0.077437505
26.115999 10.987 0.094999999
26.938 10.9965 0.048499998
27.050001 10.994111 0.060333338
24.89189 11.033444 0.0085555566
24.934992 11.039574 0.053794526
25.01 11.07 0.096000001
25.895235 11.036463 0.079307698
25.908333 11.050588 0.042942844
26.0905 11.0165 0.0845
26.1325 11.0215 0.055166662
26.866392 11.047037 0.058853641
26.942818 11.016656 0.043577764
27.044819 11.011621 0.042621229
27.1138 11.013301 0.0232
24.989 11.104 0.07
25.086 11.12 0.026000001
25.117001 11.118 0.066
25.879793 11.150764 0.048415735
25.914415 11.125957 0.041586958
26.864624 11.123063 0.055031259
26.912666 11.122334 0.0026666666
25.882685 11.246705 0.048810814
25.905834 11.267833 0.062666669
25.88891 11.324547 0.029136365
25.914999 11.3382 0.047400001
24.986273 10.97462 0.11448276
25.051741 10.966428 0.14507598
25.150894 10.966357 0.14556137
25.22872 10.967562 0.16052501
25.89057 10.973 0.13063334
25.948833 10.960456 0.14305511
26.026505 10.966876 0.14597501
26.134001 10.998 0.153
26.8785 10.996 0.16499999
26.961401 10.9954 0.1452
27.042999 10.9965 0.107
24.984655 11.044579 0.11503848
25.029951 11.042816 0.16383335
25.240999 11.019 0.122
25.890358 11.045684 0.15167058
25.930664 11.021758 0.17727271
26.073027 11.01006 0.17578787
26.128876 11.014273 0.14772916
26.770248 11.049057 0.17073907
26.841022 11.023779 0.14344351
26.948837 11.011026 0.14544444
27.020285 11.013286 0.12890476
25.084 11.12 0.133
25.145 11.117667 0.14733332
25.885294 11.146333 0.14971572
25.909849 11.135001 0.14315385
26.769524 11.127872 0.17156522
26.814693 11.126385 0.11584616
25.887405 11.232344 0.13343753
25.916098 11.2573 0.1436
25.967501 11.3175 0.117
25.08007 10.976043 0.22073333
25.149925 10.969243 0.24690358
25.247782 10.968552 0.24750961
25.323587 10.972585 0.26694345
25.922224 10.99689 0.25922224
26.129501 10.992 0.24349999
26.787001 10.999 0.294
26.865749 10.99525 0.257
26.952 10.99 0.2
25.077085 11.039349 0.22736958
25.121454 11.045762 0.27342856
25.315001 11.009 0.278
25.889685 11.064484 0.24337031
25.938564 11.023395 0.25039455
26.050709 11.016567 0.2508105
26.128708 11.017664 0.24821052
26.68045 11.046433 0.27399996
26.743988 11.026524 0.24444763
26.850584 11.013672 0.252
26.931694 11.012545 0.22787879
25.142002 11.114 0.24566667
25.88723 11.146378 0.2483117
25.909374 11.139874 0.26499999
26.679571 11.125095 0.27195242
26.724401 11.1263 0.22465001
26.951 11.168 0.214
25.895182 11.208273 0.25454545
25.907583 11.227584 0.25999999
25.174051 10.977476 0.32615793
25.247847 10.974545 0.34864607
25.346205 10.972963 0.35036811
25.418463 10.973154 0.38023087
25.940001 10.996 0.317
26.130001 10.996 0.34399998
26.764 10.9965 0.34099999
26.839001 10.997499 0.34299999
25.167192 11.045835 0.33077613
25.219193 11.047162 0.37972978
25.344669 11.004333 0.34833336
25.424999 11.007 0.38299999
25.893965 11.061802 0.35023338
25.932854 11.031205 0.34746954
26.04792 11.017417 0.34861168
26.126217 11.020681 0.35081998
26.58407 11.051593 0.38011113
26.644188 11.030482 0.34439373
26.75102 11.014654 0.34986904
26.831448 11.012816 0.33836839
25.1845 11.122499 0.31150001
25.246334 11.118335 0.37900001
25.382 11.139 0.35299999
25.400999 11.139 0.39399999
25.893232 11.142848 0.3486028
25.903082 11.157084 0.34916669
26.581198 11.125401 0.38160002
26.62303 11.122613 0.33454838
25.895248 11.214062 0.34649998
25.909067 11.222401 0.34453335
25.272602 10.978319 0.4329733
25.350616 10.97585 0.45021099
25.445642 10.975693 0.45309091
25.513575 10.975643 0.48200002
25.943001 10.999 0.463
26.124001 10.996 0.44499999
26.541 10.999 0.48199999
26.745335 10.995667 0.44500002
25.262308 11.046696 0.44296208
25.31675 11.037751 0.47815004
25.424 11 0.41800001
25.511 11.002 0.48500001
25.8934 11.063157 0.45074996
25.934954 11.028859 0.44985828
26.050795 11.019199 0.45005992
26.128687 11.02139 0.44757819
26.486624 11.041188 0.49056247
26.546032 11.037172 0.44822848
26.647512 11.014521 0.4472934
26.739298 11.01731 0.43929088
26.812 11.015 0.403
25.271999 11.112499 0.43000001
25.309334 11.109667 0.47633335
25.453499 11.135 0.45649999
25.892817 11.14763 0.45005479
25.908466 11.151602 0.44133335
26.488443 11.123 0.48888889
26.532598 11.125827 0.44067499
25.894526 11.211477 0.45347622
25.925444 11.222666 0.43644446
25.362619 10.983001 0.5356223
25.447762 10.979381 0.54843581
25.540688 10.981105 0.55421239
25.612858 10.986286 0.58899999
26.132999 10.9925 0.52399999
26.578999 10.997499 0.55449998
26.634335 10.993999 0.57466668
25.352068 11.048594 0.54691213
25.436401 11.0326 0.55580002
25.559 11 0.52999997
25.618 11.0065 0.59899998
25.729376 11.09275 0.56837499
25.894396 11.050322 0.54074997
25.936188 11.027781 0.54927397
26.048155 11.021441 0.55020595
26.128801 11.022885 0.55062336
26.393202 11.047 0.59140003
26.451208 11.040381 0.55345196
26.548708 11.013967 0.54846066
26.642813 11.015285 0.54201418
26.708334 11.022166 0.50916666
25.366749 11.113501 0.53149998
25.434998 11.128 0.55849999
25.735268 11.104 0.55193329
25.892488 11.146176 0.54951394
25.907122 11.134839 0.55375993
26.398001 11.118 0.583
26.442097 11.128221 0.54812187
25.894335 11.218237 0.55461913
25.903555 11.224111 0.54011112
26.0355 11.238 0.55200005
25.393999 10.981 0.60000002
25.458847 10.986809 0.63988423
25.548052 10.984632 0.64659095
25.634506 10.987371 0.66102672
25.918499 10.997 0.64649999
26.125999 10.998 0.62099999
26.382999 10.998 0.685
26.557667 10.994501 0.66383332
25.395002 11.048599 0.60439998
25.443163 11.045238 0.65208697
25.538273 11.006 0.66345453
25.651098 11.0111 0.6523
25.725002 11.096 0.62933338
25.89476 11.056129 0.6450218
25.939064 11.02225 0.65015948
26.050669 11.021807 0.65030605
26.126823 11.02343 0.65071422
26.360987 11.043932 0.65492618
26.44878 11.016544 0.64960432
26.545818 11.016895 0.64575011
26.618546 11.020183 0.61572725
25.456001 11.122299 0.63630003
25.5315 11.1495 0.685
25.7285 11.101 0.6085
25.889679 11.148162 0.64983964
25.907001 11.129789 0.65247369
26.354439 11.127232 0.65395355
26.4 11.113501 0.60650003
25.894445 11.21805 0.6609
25.909748 11.219 0.64649999
26.080502 11.2365 0.63749999
25.494999 10.990749 0.71224999
25.558796 10.99034 0.73964834
25.648516 10.9898 0.74787635
25.720198 10.991034 0.76976681
25.953499 10.998 0.77450001
26.346001 10.999 0.764
26.478251 10.9895 0.73774999
25.489103 11.044901 0.71355003
25.535938 11.039235 0.75850683
25.637833 11.001833 0.77283335
25.742413 11.014824 0.76323533
25.895798 11.053924 0.74429989
25.937828 11.026307 0.75156844
26.047583 11.020086 0.74973398
26.11964 11.02378 0.74233991
26.267015 11.044727 0.76296967
26.341917 11.020472 0.74217302
26.44508 11.015935 0.75080234
26.520956 11.018219 0.72313046
25.491501 11.101 0.71600002
25.541935 11.112535 0.75800002
25.768 11.168 0.74800003
25.890919 11.144788 0.74838167
25.907187 11.130876 0.74293751
26.263565 11.122406 0.75890613
26.307909 11.12891 0.71381825
25.893936 11.217668 0.73206669
25.911287 11.225857 0.74871427
26.116669 11.236667 0.74366665
25.582167 10.994001 0.81166673
25.65704 10.993453 0.83841342
25.745756 10.992275 0.85286188
25.8176 10.993267 0.87646681
26.235001 10.999 0.88099998
26.387001 10.9965 0.86950004
26.429001 10.993 0.81716675
25.582363 11.04241 0.81966668
25.635172 11.033198 0.86469138
25.74625 11.006167 0.847875
25.875772 11.046062 0.84630662
25.940865 11.0218 0.8473658
26.05065 11.020102 0.85025012
26.153557 11.030033 0.85799998
26.242958 11.027294 0.84182245
26.352804 11.017318 0.85015792
26.423594 11.023718 0.82971871
25.5835 11.10925 0.82124996
25.630058 11.117531 0.86394125
25.766003 11.166 0.83966672
25.882074 11.116786 0.81957138
25.911001 11.140334 0.8416667
26.215399 11.1118 0.81459999
25.896 11.229 0.81
25.918573 11.223001 0.8477143
26.110001 11.2415 0.84800005
25.681499 10.994375 0.92250001
25.757145 10.994875 0.94130611
25.842226 10.994113 0.94963503
25.917 10.994751 0.99125004
26.103001 10.999 0.96600002
26.272499 10.99325 0.97125
26.332001 10.993334 0.93666667
25.675419 11.033427 0.92594457
25.739725 11.023222 0.96004254
25.848446 11.011256 0.95348835
25.952164 11.016653 0.94537139
26.051306 11.018802 0.94922918
26.147661 11.018668 0.9503029
26.251396 11.01836 0.94943428
26.329096 11.016334 0.93451864
25.678585 11.115252 0.92875004
25.727211 11.121789 0.97047365
25.81625 11.158999 0.96775001
25.91 11.183666 0.94599998
25.925001 11.222834 0.9441666
26.1185 11.257 0.93599999
25.782669 10.996668 1.0116668
25.860294 10.995295 1.0251852
25.935551 10.995127 1.044
26.114 10.998 1.067
26.24625 10.994751 1.04175
25.771257 11.036405 1.0371786
25.841736 11.015618 1.0617731
25.953094 11.011239 1.0530001
26.049654 11.016343 1.0484627
26.1492 11.01665 1.0514077
26.235735 11.016628 1.0390801
25.768095 11.119571 1.0368571
25.820215 11.137073 1.0717143
25.917999 11.187 1.0505
25.920124 11.2215 1.051875
25.868 10.996 1.1174999
25.974752 10.997125 1.1395
26.057642 10.983287 1.1317859
26.132668 10.992667 1.1576667
25.865095 11.036757 1.1433773
25.949465 11.012067 1.1517497
26.050598 11.014469 1.1535288
26.141872 11.019421 1.1426914
26.203667 11.013 1.105
25.873428 11.142837 1.1599998
25.919498 11.167875 1.1672499
25.916367 11.23391 1.1534545
26.118 10.997 1.2585
25.891924 11.053644 1.2482345
25.946789 11.021466 1.2498834
26.050304 11.019275 1.2508168
26.122271 11.02137 1.2494354
25.889423 11.145411 1.2486986
25.910429 11.148642 1.2477144
25.92 10.998 1.392
26.118668 10.995334 1.3383335
25.890518 11.053757 1.3482772
25.944695 11.021358 1.3499849
26.047398 11.018342 1.3477286
26.120152 11.021374 1.3501182
25.896999 10.996 1.451
25.917999 10.996 1.4910001
26.1215 10.993999 1.444
25.890345 11.054423 1.4509205
25.946716 11.02078 1.448128
26.04899 11.018774 1.4492056
26.121071 11.020363 1.4489828
25.886 10.997 1.559
25.931 10.997 1.586
26.114002 10.993601 1.5666001
25.889824 11.053072 1.5509651
25.946877 11.018924 1.5474923
26.048731 11.019098 1.5484599
26.119337 11.022354 1.5489373
25.903999 10.999 1.696
26.114 10.999 1.661
25.889668 11.049349 1.6500349
25.947931 11.020209 1.649195
26.049332 11.017875 1.6472895
26.118935 11.019869 1.6471304
25.886196 11.147295 1.6496948
25.91357 11.148287 1.6507143
25.893187 11.214874 1.6578124
26.108669 10.992667 1.7643335
25.888124 11.050547 1.7513075
25.947359 11.019808 1.7498049
26.048897 11.019632 1.7469586
26.1206 11.02169 1.7478667
25.885712 11.146585 1.7480506
25.909836 11.161166 1.7571667
25.890951 11.213571 1.7493334
25.916 11.233601 1.7636
26.111 10.995 1.872
25.888491 11.05155 1.8509102
25.949116 11.020071 1.8505358
26.051123 11.018512 1.8485392
26.121513 11.020118 1.8498368
25.885483 11.147338 1.8478249
25.910801 11.164001 1.8468001
25.890295 11.212529 1.8489411
25.912601 11.2304 1.8342001
25.92 10.997 1.906
26.111 10.995667 1.948
25.887541 11.052501 1.9484003
25.948206 11.019381 1.9507666
26.0478 11.018989 1.9511009
26.120682 11.022135 1.9518183
25.886587 11.15046 1.9510003
25.911375 11.15025 1.9516249
25.890329 11.218147 1.9558518
25.91925 11.22875 1.95125
25.886 10.996 2.0774999
25.903999 10.992 2.066
26.112499 10.997 2.0465
25.885746 11.049711 2.0528998
25.950037 11.017789 2.0491159
26.049553 11.019171 2.0501981
26.118694 11.02154 2.0533333
25.883055 11.145125 2.0520985
25.910168 11.147334 2.0386667
25.889519 11.21892 2.0506401
25.914001 11.232333 2.0480001
25.87517 10.989434 2.1696956
25.941376 10.9865 2.1892505
25.870253 11.04566 2.146347
25.950428 11.014627 2.1443534
26.049534 11.019814 2.1477232
26.119814 11.021406 2.1464684
25.872208 11.148859 2.1513336
25.908001 11.176 2.168
25.889044 11.221091 2.1510003
25.900665 11.222334 2.1330001
25.868185 10.888 2.2892499
25.943518 10.888075 2.2911854
25.869892 10.950174 2.2502899
25.945034 10.940627 2.2456644
26.015249 10.95525 2.2674999
25.853489 11.043908 2.2441432
25.955999 11.034334 2.2189999
26.064249 11.019793 2.2410128
26.118469 11.023056 2.2520833
25.868208 11.151136 2.248879
25.9 11.175 2.21
25.879305 11.218564 2.2555654
25.9065 11.219999 2.2544999
25.874502 10.79043 2.3902144
25.952291 10.790417 2.3915
25.868567 10.850239 2.3498423
25.951008 10.840606 2.3448257
26.007 10.842249 2.3594999
25.860403 10.951772 2.3478141
26.037003 10.940222 2.3242218
25.863289 11.047958 2.3462365
25.915335 11.069667 2.3466668
26.078835 11.020332 2.3416667
26.11635 11.025564 2.3399565
25.873985 11.155025 2.3525658
25.903999 11.15875 2.3604999
25.873522 11.237961 2.3576539
25.909252 11.242 2.3785
25.875126 10.689625 2.4895
25.952078 10.686459 2.4877501
25.869246 10.753611 2.4541376
25.953209 10.744167 2.4459946
26.007111 10.744889 2.4482224
25.860867 10.852111 2.4482722
25.900999 10.844 2.411
26.040335 10.834334 2.4286666
25.861153 10.941636 2.4388518
25.903999 10.917999 2.4559999
26.072001 10.996 2.461
25.878494 11.059763 2.453542
25.908335 11.048 2.4482224
26.078667 11.022667 2.4263334
26.116455 11.023456 2.454818
25.868404 11.157932 2.4451609
25.906002 11.133001 2.4563336
25.866892 11.250213 2.4462147
25.908501 11.2475 2.4626667
25.873251 11.314801 2.4693499
25.871504 10.587801 2.5915
25.959749 10.58525 2.5891252
25.872114 10.654267 2.5524497
25.951704 10.645239 2.5463917
26.006891 10.644223 2.5551109
25.860497 10.749077 2.5476539
25.986 10.703001 2.5063334
26.023001 10.754 2.5150001
25.862869 10.84334 2.5452001
25.900999 10.828 2.5969999
25.882551 10.932849 2.5353
25.914001 10.9705 2.533
25.883123 11.051315 2.5507629
25.916222 11.031779 2.5594814
26.035749 11.025249 2.5522499
26.117874 11.0255 2.54125
25.879057 11.151949 2.5489111
25.910223 11.157223 2.5437779
25.877651 11.249195 2.5496881
25.910002 11.268001 2.5496669
25.874247 11.334755 2.5546794
25.907001 11.36 2.5506668
25.8801 10.492801 2.6905
25.956205 10.491533 2.6899333
26.005701 10.4875 2.6863
25.871901 10.552152 2.6532545
25.952255 10.548232 2.6449618
26.006632 10.534738 2.6583157
25.863792 10.648102 2.6487076
25.971197 10.606001 2.6008
26.006001 10.617 2.609
25.863852 10.744361 2.6457734
25.906334 10.771667 2.6470001
25.873003 10.824456 2.6276362
25.905001 10.841 2.6989999
25.894001 10.9095 2.6055
25.903999 10.994 2.625
25.881401 11.050206 2.6490448
25.931738 11.025908 2.6548152
26.055601 11.0288 2.6450002
26.1215 11.012501 2.6624999
25.881075 11.145144 2.6495147
25.907444 11.161556 2.6503334
25.878944 11.2492 2.6484351
25.906429 11.231572 2.6539285
25.874197 11.351322 2.6497378
25.903999 11.32375 2.6515
25.873537 11.417001 2.6704669
25.900999 11.446 2.654
25.885002 10.392888 2.7898889
25.946354 10.390599 2.7903202
25.875456 10.453282 2.7543387
25.949129 10.448092 2.7453101
26.021578 10.458697 2.7537906
25.865561 10.55019 2.7506604
25.927752 10.51825 2.7184999
26.016668 10.505001 2.7223334
25.865688 10.646022 2.7412705
25.9 10.697 2.7850001
25.873039 10.731169 2.7291248
25.905998 10.733999 2.7389998
25.896 10.88 2.7
25.9 10.822 2.711
25.984642 10.990858 2.770786
26.010599 10.988601 2.7745998
25.880047 11.052148 2.7504418
25.945126 11.021834 2.7496731
26.029699 11.0208 2.7434998
25.878471 11.150567 2.7452106
25.906202 11.1482 2.7460001
25.882742 11.254472 2.7472141
25.911142 11.262571 2.7510002
25.874989 11.349068 2.7530401
25.904667 11.342001 2.7573335
25.872536 11.437502 2.7551541
25.906 11.436 2.779
25.886999 11.503 2.7869999
25.875378 10.29025 2.8896251
25.940374 10.291918 2.8918333
25.875977 10.355454 2.8550489
25.949074 10.346089 2.8460479
26.025358 10.356794 2.8616667
25.866255 10.4499 2.8506935
25.907501 10.462749 2.84075
26.036585 10.414294 2.8187056
25.866037 10.543806 2.8478553
25.907 10.548 2.849
25.873127 10.631289 2.828161
25.908001 10.613 2.812
25.891001 10.704 2.809
25.958391 10.98849 2.8546281
26.007999 10.995 2.8099999
25.880587 11.048761 2.8500872
25.93388 11.021524 2.8473668
26.043524 11.01185 2.8631749
25.87808 11.146802 2.8466845
25.908169 11.161167 2.859333
25.883997 11.253269 2.8383512
25.918499 11.276375 2.8454373
25.876068 11.348326 2.8522305
25.921572 11.316143 2.8753576
25.873182 11.450146 2.8511572
25.870867 11.517866 2.8641334
25.87586 10.190572 2.994143
25.932669 10.190445 2.9916668
26.001669 10.195333 2.9913335
25.874258 10.250649 2.9550149
25.951061 10.24559 2.9469726
26.02388 10.253626 2.9573541
25.867298 10.348716 2.9483099
25.927502 10.334 2.9437499
26.040939 10.31925 2.9163127
25.867744 10.447936 2.9463463
25.9135 10.445499 2.9689999
25.876348 10.535999 2.9305217
25.919498 10.571501 2.948
25.878309 10.988731 2.9717309
25.937477 10.98982 2.9468503
26.056999 10.999 2.9200001
25.867014 11.045497 2.9534657
25.950226 11.008426 2.9489002
26.050987 11.012591 2.9535758
26.123402 11.02595 2.96615
25.876896 11.153083 2.9460979
25.911667 11.181666 2.9379997
25.884317 11.226683 2.9545913
25.914146 11.269215 2.9463573
25.880945 11.366582 2.9467819
25.932526 11.348498 2.9543948
26.033501 11.351999 2.9675
25.872597 11.451556 2.9492002
25.901501 11.440001 2.9495001
25.869164 11.534977 2.9551818
25.901001 11.537668 2.9566667
25.880501 11.6055 2.9825001
0 0 0 1 0 0 0 1 0 0 0 1 0 0 0 0 0 587 1 0 0
