ply
format ascii 1.0
comment PCL generated
element vertex 109
property float x
property float y
property float z
element camera 1
property float view_px
property float view_py
property float view_pz
property float x_axisx
property float x_axisy
property float x_axisz
property float y_axisx
property float y_axisy
property float y_axisz
property float z_axisx
property float z_axisy
property float z_axisz
property float focal
property float scalex
property float scaley
property float centerx
property float centery
property int viewportx
property int viewporty
property float k1
property float k2
end_header
17.271414 15.840674 1.8997924
26.768652 4.0084467 1.9028256
30.076597 15.065906 1.8954037
29.912188 -10.374883 1.8975368
26.380978 -6.7360821 1.956645
24.281063 16.031279 1.898048
-27.371008 9.5149174 1.8983815
28.910864 4.8414764 1.898697
-19.273373 17.884895 1.9009722
-7.0578165 6.2087622 1.8997502
-7.1358809 4.115623 1.8950216
15.446886 15.727609 1.8971655
39.019737 -8.1556816 1.9027179
27.394039 -10.781917 1.9103529
-18.701036 13.035301 1.9057832
-5.9295878 11.248917 1.9019164
-3.2936699 3.2863913 1.8991764
28.641071 -10.789454 1.8972577
31.154213 -9.998704 1.9032022
12.591599 -4.6528463 1.9019463
3.7192471 10.740641 1.9136692
-13.105539 5.1043382 1.8979446
22.781734 3.0968688 1.8946725
16.100632 -4.6994052 1.8977779
-9.897274 4.4948773 1.9031937
32.111389 -7.7605577 1.9520431
-21.273876 -5.8719306 1.9102836
19.48941 -4.7831602 1.8937774
16.296198 3.0928698 1.9035525
3.0978713 3.1800885 1.9028387
-19.604368 6.1989822 1.9006659
-15.493416 12.708729 1.9088591
-14.692297 -7.1744967 1.8364609
0.53529286 10.703257 1.9007609
-17.39945 -1.5192817 1.9079947
28.203136 3.283287 1.9012306
-22.921589 6.8654566 1.9169247
29.460915 3.0966263 1.8945963
10.004707 10.758041 1.8985777
-9.05793 11.695693 1.9146104
-2.6572509 10.703617 1.9001225
-26.552734 7.1012797 1.8961976
-24.067379 -0.29559293 1.9048338
-9.4713411 14.327298 1.9034058
-10.704056 -2.7709463 1.896637
19.572016 3.0916955 1.9092854
-14.078308 -2.1874094 1.8973444
13.298231 10.790333 1.9024504
-12.297576 12.216728 1.907326
-0.099927783 3.2517109 1.8989874
-16.402647 5.666985 1.900592
-6.1564598 13.960219 1.901224
-27.044058 4.0935664 1.897985
6.3944492 3.1461625 1.8983057
-26.151777 1.7895641 1.8997428
-4.1035051 -4.0471826 1.8941135
-22.256601 12.710439 1.8994713
16.502165 10.928919 1.8964628
-1.9004335 13.204912 1.9052022
6.883152 10.744456 1.8992436
-14.632136 15.230773 1.8940719
-20.682379 -0.95422739 1.9009924
9.2920809 -4.5326595 1.9002222
25.966482 11.090148 1.9008106
-7.7348928 5.1823883 1.8999217
-7.4786668 -3.3641224 1.894971
9.6462898 3.07919 1.906936
19.610727 10.942654 1.8938925
-27.955402 3.3821981 1.897801
5.2375131 13.248801 1.9024122
-3.350414 13.612343 1.9018884
-26.816362 -1.7987292 1.8995421
-10.566429 -1.1521304 1.8974401
-27.906319 -0.29222462 1.9072434
-26.839495 1.3238802 1.9145979
33.394802 -9.7265358 1.9086059
-25.442633 -0.22460639 1.895885
12.953731 3.0541382 1.89977
31.604713 -7.060472 1.9026169
-4.2954826 -6.3156977 1.8848597
-0.84598094 -4.1531277 1.900012
22.65761 11.012107 1.8988532
18.341915 14.573805 1.9171802
10.328727 14.691881 1.908342
31.078842 -8.270997 1.9285342
-24.927187 9.2605581 1.8995203
34.365051 -9.8714409 1.874125
-28.350399 7.0547881 1.9021013
-6.6525083 4.8507299 1.900395
-9.7187042 5.5552325 1.8949493
31.682945 -10.169468 1.8895476
-29.11504 3.2406168 1.887972
-27.99361 -1.0239471 1.9117734
18.348043 13.706606 1.8927158
-27.242186 1.5752445 1.9000744
-24.634642 -4.0696344 1.9038887
-18.398056 15.544261 1.8990104
26.010319 14.88832 1.8962754
4.24786 -0.7012192 1.8991904
31.593983 -7.5499015 1.9385142
-17.89743 -5.3042688 1.8973584
-27.91111 2.0631557 1.907779
16.607145 14.788142 1.9107653
32.174599 -9.5005989 1.8972483
19.725086 14.768628 1.9090103
22.694944 14.776761 1.9088869
-20.038126 2.1100755 1.8946441
-28.881628 3.7404053 1.9024655
4.1622868 -1.6057256 1.8969637
0 0 0 1 0 0 0 1 0 0 0 1 0 0 0 0 0 109 1 0 0
