ply
format ascii 1.0
comment PCL generated
element vertex 102
property float x
property float y
property float z
element camera 1
property float view_px
property float view_py
property float view_pz
property float x_axisx
property float x_axisy
property float x_axisz
property float y_axisx
property float y_axisy
property float y_axisz
property float z_axisx
property float z_axisy
property float z_axisz
property float focal
property float scalex
property float scaley
property float centerx
property float centery
property int viewportx
property int viewporty
property float k1
property float k2
end_header
-16.431927 5.7435861 2.7006154
3.0721538 3.2378571 2.7034025
-3.3718038 3.1228707 2.7024145
16.260578 3.1582849 2.7029662
28.907276 5.5958643 2.6987805
19.573032 10.86784 2.7033525
9.9695053 10.671966 2.6997266
3.6226597 10.517196 2.7009587
12.87788 3.1299703 2.7042274
6.3545871 3.2477663 2.7023208
-6.9294271 7.0994167 2.7106802
9.6195364 3.1591699 2.7024782
2.4720042 -4.1766 2.7013338
22.734928 3.1270816 2.7041366
26.138334 3.1114023 2.7095554
-10.754398 -2.5351353 2.704571
19.50736 3.1287868 2.7079706
25.921432 10.903467 2.7020264
5.811532 -4.3118577 2.7072041
-4.1502447 -3.7952425 2.7055719
-5.8993921 11.268186 2.7074816
16.069626 -4.557076 2.7100723
12.571793 -4.5317698 2.7062271
9.2438927 -4.3673105 2.7077498
-0.8599866 -3.9224622 2.7047234
-14.10286 -1.9523251 2.7059648
-7.4813838 -3.062778 2.7030182
-0.14397162 3.5603197 2.695199
29.414713 3.0916691 2.713913
13.267056 10.979434 2.7052758
19.435755 -4.6880126 2.7072301
22.632889 10.814916 2.6916931
0.51344043 10.826268 2.6979315
-2.6962659 10.753304 2.7081072
6.8384156 10.893263 2.7028275
22.821875 -4.7005653 2.6960578
-17.402163 -1.5262197 2.7024057
3.9411523 12.461333 2.6991417
-12.989317 -6.4207349 2.7151065
-5.9688449 10.506783 2.7039783
6.7530985 10.184643 2.7040939
-13.140307 5.7069559 2.7016098
0.44750082 10.106388 2.6989579
26.273458 -4.7853923 2.7128885
-19.634527 6.8215799 2.6956868
-22.86342 7.5368338 2.6975968
-6.6303229 4.5268073 2.6976523
-22.905823 6.9005036 2.7108934
-9.8957682 4.5090795 2.7060521
-18.884024 12.232175 2.6987073
-23.063036 6.2152424 2.7011991
-19.595549 6.202013 2.7033279
-20.753689 -0.95822352 2.6999657
-9.851099 5.1871324 2.6956847
-13.263307 4.6253138 2.6900842
-17.365574 -0.82921368 2.7013092
-24.077278 -0.32743704 2.7166605
-9.2440205 11.059169 2.7041528
16.443964 11.037186 2.7072017
-6.7379241 3.410043 2.6985958
-12.441772 11.559538 2.6933355
-24.023449 0.34918413 2.6954038
-20.714771 -0.37462991 2.6954572
-3.4426708 3.85321 2.6929564
-13.122609 5.1667652 2.7112017
16.383318 10.44011 2.7065744
-26.154783 1.814145 2.7050819
-19.764378 5.6195502 2.6917489
-15.620293 11.980343 2.6978421
13.166682 10.252187 2.6968992
29.419556 12.112752 2.6971695
-0.25723714 2.7708044 2.7062232
-6.5961008 3.9513435 2.6987591
-10.002845 3.9208465 2.7004695
-27.049492 4.0995951 2.6997268
-2.8113387 10.045964 2.6989646
26.180592 4.2611146 2.6980438
-4.3537464 -6.7708817 2.7013175
-25.530128 -0.48208147 2.7112858
-7.7491794 5.2460294 2.6986175
-26.544407 7.1281772 2.6992202
-22.332924 12.565924 2.6948895
-28.337561 3.2387798 2.6999471
-27.930759 -0.25732973 2.6980367
-28.907259 3.7058349 2.7045963
4.2403708 -0.65993011 2.6997843
-27.016542 0.99478561 2.6970146
-20.128586 2.1566887 2.7028961
-7.8711495 4.3560324 2.7066045
-24.904823 9.2776451 2.694186
-10.588008 -1.1455429 2.6965432
28.318825 3.331182 2.6985242
-9.68713 5.6436172 2.7019227
-6.5764561 5.8277745 2.6994815
-27.456707 1.4557561 2.7076354
28.339018 4.1926312 2.7030289
-28.153072 2.0694098 2.6969469
-7.5076733 6.0389614 2.7031894
28.39686 4.5797801 2.7008426
-28.369303 7.0603862 2.6915424
4.1610384 -1.5877614 2.6986485
-29.096415 3.2554646 2.6941426
0 0 0 1 0 0 0 1 0 0 0 1 0 0 0 0 0 102 1 0 0
